<svg id="Why_join_us" data-name="Why join us" xmlns="http://www.w3.org/2000/svg" viewBox="0 0 600 600"><defs><style>.cls-1{fill:#fff;}.cls-2{fill:#4e6e43;}.cls-3{fill:#5c6355;}.cls-4{fill:#c4cae8;}.cls-5{fill:#7984c1;}.cls-6{fill:#e6d3bd;}.cls-7{fill:#e7d4be;}.cls-8{fill:#f6e6d7;}.cls-9{fill:#d1c4b1;}.cls-10,.cls-27,.cls-31,.cls-33,.cls-34,.cls-35,.cls-36{fill:none;}.cls-11{fill:#64822b;}.cls-12{fill:#98b720;}.cls-13{fill:#f5b385;}.cls-14{fill:#eaeaea;}.cls-15{fill:#3bb28f;}.cls-16{fill:#1d1e1b;}.cls-17{fill:#5dc1d2;}.cls-18{fill:#38398c;}.cls-19{fill:#172c48;}.cls-20{fill:#4a4b9a;}.cls-21{fill:#464575;}.cls-22{fill:#2c2c49;}.cls-23{fill:#414273;}.cls-24{fill:#e56e1c;}.cls-25{fill:#d89e77;}.cls-26{fill:#272542;}.cls-27{stroke:#555592;stroke-width:1.9px;}.cls-27,.cls-33,.cls-34,.cls-35,.cls-36{stroke-miterlimit:10;}.cls-28{fill:#cf7a32;}.cls-29{fill:#a14f17;}.cls-30{fill:#36193d;}.cls-31{stroke:#49497b;stroke-linecap:round;stroke-linejoin:round;stroke-width:1.79px;}.cls-32{fill:#68689f;}.cls-33,.cls-34{stroke:#8288c2;}.cls-33{stroke-width:2.22px;}.cls-34{stroke-width:1.9px;}.cls-35{stroke:#fff;}.cls-35,.cls-36{stroke-width:1.93px;}.cls-36{stroke:#f5e6d7;}</style></defs><path class="cls-1" d="M49.49,235.83l80.48,0V216.08H207.1V235.8h67.2l105.46,30.13H553a254.94,254.94,0,0,0-63-140.8H401.54a68.12,68.12,0,0,1,26-51.22,254.9,254.9,0,0,0-48.9-22L64.16,192.13A254.41,254.41,0,0,0,49.49,235.83ZM130,193H207.1v20.47H130Z"/><path class="cls-2" d="M314.81,344.17c0-8.09,0-16.09-2.34-23.94-1.47-5-5.26-10.43-5.48-15.65,4.49,3.75,5.49,11.58,6.95,16.8,1.5,5.37,2.78,10.83,4.37,16.17-.08-4.95-.6-10.35.32-15.23,1.13-6,3.94-11,7-16.1.63,1.36-.21,3.7-.39,5.32a110.74,110.74,0,0,0-.57,12.35v9.3c0-12.18,3.5-22.41,14-29.43-5.18,7.73-7.22,19.69-8.49,28.69-.16-4.57,2-9.1,4.6-12.83,2.26-3.26,5.38-5.89,8.15-8.71,1.78-1.82,3.33-4.23,5.66-5.45-3.16,4-4.36,9.46-6.18,14.07-1.52,3.85-3.52,7.67-4.73,11.6-1.5-4.42,7.3-10.13,10.59-11.9a61.94,61.94,0,0,1,25.5-6.53c-6,3.49-12.82,5.92-19.38,8.26-5.76,2.05-11.61,5.1-14.22,10.79,6.57-1.82,11.94-6,18.93-7.24a26.37,26.37,0,0,1,18.37,3.2c-9.45-2.52-23.1-.35-31.74,4,7.59-.17,15.67-.92,22.74,2.18-8.65,1.84-17.53,0-26.23,2.61-6.4,2-14.43,7.1-17.62,13A31.11,31.11,0,0,0,310,347a4.92,4.92,0,0,0,1.64.52"/><path class="cls-3" d="M271.47,278.84a389.81,389.81,0,0,1,7.44,64.32c0,1.33,2.86.83,2.83-.26a392.23,392.23,0,0,0-7.46-64.79c-.23-1.14-3-.45-2.81.73Z"/><path class="cls-3" d="M270.23,276A302.31,302.31,0,0,1,289,338.4c.05.27,1.47,0,1.4-.37a302.28,302.28,0,0,0-18.77-62.36c-.14-.31-1.51.13-1.41.37Z"/><path class="cls-3" d="M300.06,275.92l-12.54,73c-.24,1.42,2.63,1.1,2.85-.18l12.54-73c.24-1.42-2.63-1.1-2.85.18Z"/><path class="cls-3" d="M315.74,282.83a214.17,214.17,0,0,0-25.1,63c-.32,1.41,2.56,1.13,2.85-.17a212.91,212.91,0,0,1,24.95-62.44c.82-1.36-2-1.5-2.7-.38Z"/><path class="cls-4" d="M64.16,192.13,378.6,51.9a255.7,255.7,0,0,0-80-12.75C193.88,39.15,103.84,102.05,64.16,192.13Z"/><polygon class="cls-4" points="259.9 236.55 259.9 265.92 379.76 265.92 274.3 235.79 207.1 235.8 207.1 236.55 259.9 236.55"/><path class="cls-5" d="M61.14,391.19q3.38,8.32,7.3,16.36l.29-16.39Z"/><path class="cls-4" d="M298.63,551.32a255.25,255.25,0,0,0,97.28-19.14H201.35A255.29,255.29,0,0,0,298.63,551.32Z"/><path class="cls-5" d="M68.5,339.4V290.8A16.16,16.16,0,0,1,73,279.52a15.32,15.32,0,0,1,8.69-4.5H80l8.38-4.43a39.82,39.82,0,0,1,9.12-3.47,39.36,39.36,0,0,1,9.68-1.2H259.9V236.55H49.31A257.16,257.16,0,0,0,61.14,391.19l7.48,0Z"/><polygon class="cls-4" points="207.1 236.55 207.1 235.8 207.1 216.08 129.97 216.08 129.97 235.81 129.97 236.55 207.1 236.55"/><rect class="cls-5" x="129.97" y="192.96" width="77.13" height="20.47"/><path class="cls-5" d="M401.54,125.12H490A257.25,257.25,0,0,0,427.5,73.9,68.12,68.12,0,0,0,401.54,125.12Z"/><path class="cls-6" d="M201.35,532.18H395.91a256.56,256.56,0,0,0,91.63-64H109.72A256.64,256.64,0,0,0,201.35,532.18Z"/><path class="cls-7" d="M327.93,275H81.71a15.32,15.32,0,0,0-8.69,4.5A16.16,16.16,0,0,0,68.5,290.8v48.6L212,275.4H315.24l-83,141.18-159.06.18H327.93Z"/><path class="cls-7" d="M327.93,275V416.77H524.09a254.87,254.87,0,0,0,30.63-121.54q0-10.2-.79-20.21Z"/><path class="cls-8" d="M259.9,265.92H107.15a39.36,39.36,0,0,0-9.68,1.2,39.82,39.82,0,0,0-9.12,3.47L80,275h474q-.36-4.57-.89-9.1H259.9Z"/><path class="cls-8" d="M327.93,416.77H73.17a256.29,256.29,0,0,0,27.47,40.88l73.74-33.13L280.75,442l127.89-16.89L303.33,467.75h-194c.12.12.24.25.35.38H487.54a256.81,256.81,0,0,0,36.55-51.36H327.93Z"/><path class="cls-9" d="M315.24,275.4H212L68.5,339.4l-.06,68.15c1.51,3.1,3.09,6.18,4.73,9.21l159.06-.18Z"/><path class="cls-9" d="M408.64,425.08,280.75,442,174.38,424.52l-73.74,33.13c2.82,3.44,6.2,7.12,9.19,10.41l192.7.29Z"/><path class="cls-10" d="M496.65,260l.86.4a33.06,33.06,0,0,0,5.77-2c-1.44-.07-2.89-.11-4.33-.13l-.87.38Z"/><path class="cls-10" d="M447,261.45c.06,1.33.12,2.67.16,4H448A28,28,0,0,1,447,261.45Z"/><path class="cls-10" d="M502,262.44l.5.21c1.69-.69,3.36-1.38,5-2l4.39-1.62h-.06l-2.88.92C506.6,260.7,504.28,261.57,502,262.44Z"/><path class="cls-10" d="M451.88,259.44a23.4,23.4,0,0,0,.92,3c-.12-7.52-.61-15-1.1-22.49a20.5,20.5,0,0,1-1.34,5.16l0,.06c.39,4.4.49,9.62,1.53,14.11A.5.5,0,0,1,451.88,259.44Z"/><path class="cls-10" d="M431.34,236c.05.79.1,1.56.15,2.32,1.14.41,2.27.82,3.39,1.25Q433.13,237.74,431.34,236Z"/><path class="cls-10" d="M457.45,262.05c.18-4,2.92-8.68,4.57-12.07,1.45-3,3-6,4.67-9.06a141.22,141.22,0,0,1-8.5-19.86c-.28,1-.56,1.92-.86,2.87l-.06.16C457.85,236.7,457.45,249.42,457.45,262.05Z"/><path class="cls-10" d="M436.38,251.44a28.26,28.26,0,0,1,3.42,10c-.06-3.3-.31-6.62-.64-10-.12-1.22-.28-2.65-.44-4.21-2.07,0-4.19-.07-6.29-.23.68,4.47,1.53,8.92,2.26,13.38A39.18,39.18,0,0,1,436.38,251.44Z"/><path class="cls-10" d="M508.3,237.65c-.63.93-1.26,1.87-1.89,2.79-.43.64-.88,1.29-1.34,1.92.53-.57,1-1.12,1.53-1.62,6.77-7,13.84-13.61,20.21-20.91.75-.86,1.65-2,2.66-3.16q-3.56,3.2-7.16,6.34a52.47,52.47,0,0,1-4.16,4.79Q513.28,232.74,508.3,237.65Z"/><path class="cls-10" d="M470.7,253.92c.27-.92.57-1.85.86-2.75l-.28-.69a53.12,53.12,0,0,0-4.92,8.16Q468.56,256.31,470.7,253.92Z"/><path class="cls-11" d="M451.86,259.32s0,.08,0,.12A.5.5,0,0,0,451.86,259.32Z"/><path class="cls-11" d="M499,258.3c1.44,0,2.89.06,4.33.13,3.84-1.67,7.56-3.86,10.83-5.5l1.58-.81c-.68-.11-1.36-.19-2-.27-.67.37-1.34.74-2,1.09C507.58,255.08,503.16,256.52,499,258.3Z"/><path class="cls-11" d="M472.27,249.08c-.34.47-.67.93-1,1.4l.28.69C471.8,250.45,472,249.75,472.27,249.08Z"/><path class="cls-11" d="M522.31,223q3.6-3.15,7.16-6.34c3.79-4.54,9.18-10.83,14.55-13.5q3.69-3.57,7.3-7.24a39.69,39.69,0,0,0-16,4.69c-1.39,2.84-3.11,5.63-4.32,8A91.1,91.1,0,0,1,522.31,223Z"/><path class="cls-11" d="M512.32,258.88l-.54.17h.06Z"/><path class="cls-11" d="M472.85,206.81c.1,7.39.68,14.57,1.49,21.86,1.42-1.92,2.94-3.78,4.49-5.63A106.45,106.45,0,0,0,472.85,206.81Z"/><path class="cls-11" d="M496.65,260l-.77.71c.54-.08,1.09-.18,1.63-.31Z"/><path class="cls-11" d="M492.91,265.47h1.36a60.53,60.53,0,0,0,8.19-2.82l-.5-.21A95.14,95.14,0,0,1,492.91,265.47Z"/><path class="cls-11" d="M466.69,240.92c1-1.85,2.08-3.68,3.17-5.47A90.71,90.71,0,0,0,459,217.92c-.27,1.05-.56,2.1-.85,3.14A141.22,141.22,0,0,0,466.69,240.92Z"/><path class="cls-11" d="M539.91,260.42c-.7-.47-1.48-.92-2.32-1.37-1.12.55-2.27,1.08-3.44,1.58C536.07,260.63,538,260.57,539.91,260.42Z"/><path class="cls-11" d="M434.88,239.54c-1.12-.43-2.25-.84-3.39-1.25.13,1.86.26,3.61.45,5.18.15,1.18.31,2.35.49,3.53,2.1.16,4.22.22,6.29.23-.59-5.75-1.14-13.27.65-19v0c-3.55-8.43-7.47-17-15.77-21.88,2.69,9,8.17,16.49,13.87,23.84-2.24-1.66-4.78-3.61-7.5-5.5A78.38,78.38,0,0,1,431.34,236Q433.13,237.74,434.88,239.54Z"/><path class="cls-11" d="M450.26,244.44c0,.25.05.51.07.77l0-.06A20.5,20.5,0,0,0,451.7,240c-.34-5.15-.68-10.29-.91-15.45l-.15.94c-2-5-1.26-12.81-1.62-18.29-.4-6.17-.91-12.26-.9-18.45,0-3.81.76-9.74-.62-13.06-2.17,6.26-4.8,11.34-5.13,18.21a64.52,64.52,0,0,0,.73,9.34c1.75,6.84,3.4,13.71,4.53,20.62S449.59,237.54,450.26,244.44Z"/><path class="cls-11" d="M435.1,194.83c-3.46-10-5.51-20.8-11.06-30,.43,8.63,3.8,17.81,2.87,26.4-5.56-5.7-7.25-15.08-13.45-20.74,6,10.25,9.89,21.44,16,31.66a114.69,114.69,0,0,1,8.16,15.89q-.5-3.5-.81-7C436.34,205.66,435.63,200.25,435.1,194.83Z"/><path class="cls-11" d="M458.19,221.06c-.44-1.25-.85-2.52-1.26-3.81.05,1.26.11,2.52.19,3.79.06,1,.11,2,.15,3.05l.06-.16C457.63,223,457.91,222,458.19,221.06Z"/><path class="cls-11" d="M459,217.92c.84-3.28,1.6-6.57,2.52-9.84,1.74-6.15,7.19-13.47,6.93-19.74A106.58,106.58,0,0,0,456.59,207c.08,2.73.15,5.47.26,8.2C457.59,216.1,458.32,217,459,217.92Z"/><path class="cls-11" d="M425.82,221.9c-4.52-2.78-9.33-5-13.91-5.38,4.5,5,9.31,9.6,14.09,14.23A81.8,81.8,0,0,1,425.82,221.9Z"/><path class="cls-11" d="M410.51,231.15c3.89,3.91,4.63,10.46,8.85,12.64a29.15,29.15,0,0,0,8.6,2.68c-.51-3.29-1-6.59-1.4-9.89C421.2,234.77,415.76,233.07,410.51,231.15Z"/><path class="cls-11" d="M456.93,217.25c.41,1.29.82,2.56,1.26,3.81.29-1,.58-2.09.85-3.14-.72-.92-1.45-1.82-2.19-2.72C456.87,215.88,456.9,216.57,456.93,217.25Z"/><path class="cls-12" d="M485.23,252.05l.82-.85V251l-.82,1.05Z"/><path class="cls-12" d="M535.37,200.62a21.18,21.18,0,0,0,2.34-7.05c-5.09,3.15-9.17,7.88-12.87,12.88,0,.33,0,.66-.05,1A78.42,78.42,0,0,1,535.37,200.62Z"/><path class="cls-12" d="M471.56,251.17c-.29.9-.59,1.83-.86,2.75.46-.5.91-1,1.36-1.52Z"/><path class="cls-12" d="M499,258.3h-.46l-.41.38Z"/><path class="cls-12" d="M476.62,243c-.74,1.09-1.5,2.17-2.27,3.25.32.79.66,1.57,1,2.36l2-2.4Q477,244.56,476.62,243Z"/><path class="cls-12" d="M494.81,237.73l-.24.4c.82-1.2,1.59-2.28,2.23-3.19A101.64,101.64,0,0,1,515,215.18l.07-.09c5.3-8.93,10.91-18,14.1-27.46a79.09,79.09,0,0,0-9.19,6.86c-2.81,6.93-7.31,13.4-10.83,19.89C504.75,222.4,499.48,229.88,494.81,237.73Z"/><path class="cls-12" d="M524.64,254.23l7.81-3,.44-.17c10.63-5.13,21.45-12.75,29.2-21.32-8.3.59-18.52,5.73-25.47,9.83s-13.72,8.74-20.93,12.52c.78.12,1.57.27,2.34.44C520,253,522.25,253.56,524.64,254.23Z"/><path class="cls-12" d="M524.64,254.23l.6.17c2.09-.81,4.15-1.68,6.21-2.62l1.44-.69-.44.17Z"/><path class="cls-12" d="M506.33,251.6a57.58,57.58,0,0,1,7.32.25,180.49,180.49,0,0,0,18.57-11.77c6.8-4.87,13.26-10.36,19.52-15.87,3.35-3,9.07-7,10.73-11.13-10.84,4.12-21,7.61-30.33,14.81-6.31,4.88-11.91,10.49-18,15.54C512.48,246.27,509.31,249.12,506.33,251.6Z"/><path class="cls-12" d="M502,262.44c2.32-.87,4.64-1.74,6.94-2.47l2.88-.92c-2.83-.26-5.67-.49-8.5-.62a33.06,33.06,0,0,1-5.77,2C499,261.1,500.46,261.81,502,262.44Z"/><path class="cls-12" d="M511.84,259.06l-4.39,1.62c-1.63.59-3.3,1.28-5,2l.48.19c2.67,1.05,5.44,1.84,8.2,2.63h5.73a80,80,0,0,0,16-4.28l1.33-.56C526.72,260.64,519.28,259.74,511.84,259.06Z"/><path class="cls-12" d="M525.24,254.4a68.45,68.45,0,0,1,12.35,4.65A92.38,92.38,0,0,0,559.14,244a156.38,156.38,0,0,0-26.25,7.11l-1.44.69C529.39,252.72,527.33,253.59,525.24,254.4Z"/><path class="cls-12" d="M518.15,227.8a52.47,52.47,0,0,0,4.16-4.79L519,225.87c-2.13,1.84-4.32,3.64-6.49,5.44-1.39,2.13-2.81,4.25-4.23,6.34Q513.28,232.73,518.15,227.8Z"/><path class="cls-12" d="M526.81,219.83c-6.37,7.3-13.44,13.95-20.21,20.91-.49.5-1,1-1.53,1.62a122.68,122.68,0,0,1-7.79,9.78l1.9-.15a143,143,0,0,1,14-10.2c3.72-3.7,7.25-7.5,10.83-11.5,4.4-4.93,9.25-9.57,13.74-14.44,3.87-4.18,9.44-8.56,11.47-13.95a10.46,10.46,0,0,0-5.24,1.27c-4.76,4.6-9.62,9.08-14.55,13.5C528.46,217.88,527.56,219,526.81,219.83Z"/><path class="cls-12" d="M486.34,234.67A103.63,103.63,0,0,1,488,221.05c-2,4.56-4,8.95-6.35,13.31q.55,2.5,1.07,5C483.94,237.82,485.15,236.25,486.34,234.67Z"/><path class="cls-12" d="M489.36,247.7a27.41,27.41,0,0,1,1.76-4c-.8,1.24-1.6,2.45-2.43,3.64l-.06,1.12C488.87,248.23,489.11,248,489.36,247.7Z"/><path class="cls-12" d="M494.36,203.2c2.48-4.51,5.6-8.55,9.3-10.76a166.32,166.32,0,0,0-11.09,33.86l5.61-7.64c3.64-11,5.19-22.63,7.62-33.8-3.64,2.1-5.84,5.74-7.81,9.27-3.88,7-8.15,13.64-12.23,20.48l.58-.77C488.89,210.4,491.18,206.22,494.36,203.2Z"/><path class="cls-12" d="M512.32,258.88l-.48.18c7.44.68,14.88,1.58,22.31,1.57,1.17-.5,2.32-1,3.44-1.58a68.45,68.45,0,0,0-12.35-4.65C521,256.06,516.68,257.48,512.32,258.88Z"/><path class="cls-12" d="M485.14,252.13l.09-.08v0Z"/><path class="cls-12" d="M476.62,243q.35,1.61.72,3.21,2.75-3.34,5.39-6.77-.51-2.52-1.07-5c-1,1.88-2,3.76-3.17,5.65C477.9,241,477.27,242,476.62,243Z"/><path class="cls-12" d="M472.06,252.4c1.11-1.27,2.2-2.55,3.29-3.84-.34-.79-.68-1.57-1-2.36l-2.08,2.88c-.23.67-.47,1.37-.71,2.09Z"/><path class="cls-12" d="M503.28,258.43c2.83.13,5.67.36,8.5.62l.54-.17c4.11-1.53,8.22-3.09,12.32-4.65-2.39-.67-4.67-1.23-6.61-1.67-.77-.17-1.56-.32-2.34-.44l-1.58.81C510.84,254.57,507.12,256.76,503.28,258.43Z"/><path class="cls-12" d="M492.57,226.3a166.32,166.32,0,0,1,11.09-33.86c-3.7,2.21-6.82,6.25-9.3,10.76.35-.33.7-.65,1.07-.95.43,5.3-4.52,12.16-6.58,16.89l-.84,1.91a103.63,103.63,0,0,0-1.67,13.62C488.44,231.9,490.51,229.1,492.57,226.3Z"/><path class="cls-12" d="M486.05,251.2c.87-.9,1.73-1.8,2.58-2.71l.06-1.12c-.86,1.23-1.73,2.43-2.64,3.61Z"/><path class="cls-12" d="M502,262.44c-1.5-.63-3-1.34-4.45-2-.54.13-1.09.23-1.63.31q-2.52,2.35-5,4.76h2A95.14,95.14,0,0,0,502,262.44Z"/><path class="cls-12" d="M506.33,251.6c-1.89,1.56-3.7,3-5,4.14l-2.83,2.56H499c4.21-1.78,8.63-3.22,12.68-5.36.68-.35,1.35-.72,2-1.09A57.58,57.58,0,0,0,506.33,251.6Z"/><path class="cls-12" d="M524.64,254.23c-4.1,1.56-8.21,3.12-12.32,4.65,4.36-1.4,8.68-2.82,12.92-4.48Z"/><path class="cls-12" d="M511.14,265.47c-2.76-.79-5.53-1.58-8.2-2.63l-.48-.19a60.53,60.53,0,0,1-8.19,2.82Z"/><path class="cls-12" d="M529.47,216.67c4.93-4.42,9.79-8.9,14.55-13.5C538.65,205.84,533.26,212.13,529.47,216.67Z"/><path class="cls-12" d="M502.88,231.26c4.05-5.62,7.66-11.14,12.07-16.08a101.64,101.64,0,0,0-18.15,19.76c-.64.91-1.41,2-2.23,3.19-1.15,1.93-2.29,3.8-3.45,5.6a27.41,27.41,0,0,0-1.76,4A175.77,175.77,0,0,0,502.88,231.26Z"/><path class="cls-12" d="M488.23,261.55c3.54-3.27,7.19-6.49,10.95-9.56l-1.9.15C494.39,255.42,491.34,258.58,488.23,261.55Z"/><path class="cls-12" d="M519.29,220.2c-2,3.72-4.37,7.44-6.76,11.11,2.17-1.8,4.36-3.6,6.49-5.44l3.29-2.86a91.1,91.1,0,0,0,8.74-14.37c1.21-2.39,2.93-5.18,4.32-8a78.42,78.42,0,0,0-10.58,6.83C524.35,211.67,521.22,216.68,519.29,220.2Z"/><path class="cls-12" d="M426.33,216.1c-.27,1.93-.43,3.86-.51,5.8,1.42.87,2.81,1.79,4.15,2.73A20.78,20.78,0,0,0,426.33,216.1Z"/><path class="cls-12" d="M439.8,261.41c.23,1.34.42,2.71.56,4.06h6.78c0-1.35-.1-2.69-.16-4,0-.22-.09-.43-.14-.63-1.14-4.49-2.15-9-3.2-13.59-1.59,0-3.24,0-4.92,0,.16,1.56.32,3,.44,4.21C439.49,254.79,439.74,258.11,439.8,261.41Z"/><path class="cls-12" d="M393.76,221c4.24,15.42,16.85,27.7,23.22,42.21.34.75.66,1.53,1,2.31h6.85C417.46,248.84,407.1,233.38,393.76,221Z"/><path class="cls-12" d="M434.69,260.38c-.73-4.46-1.58-8.91-2.26-13.38l-1.86-.17c.77,6.19,1.24,12.41,1.7,18.64h2.18C434.48,263.77,434.55,262.06,434.69,260.38Z"/><path class="cls-12" d="M404.92,254.83c-1.39-2-2.81-4-4.28-5.91-5.56-7.35-12.88-16.39-20.7-21.65,3.23,11.31,12.66,20.81,19.36,30.26,1.86,2.62,3.68,5.28,5.48,7.94h6.12C408.83,262,406.82,258.42,404.92,254.83Z"/><path class="cls-12" d="M431.34,236c-1.77-1.75-3.55-3.48-5.34-5.22.14,1.94.33,3.89.56,5.83,1.66.56,3.3,1.12,4.93,1.71C431.44,237.53,431.39,236.76,431.34,236Z"/><path class="cls-12" d="M387.66,258.06c-7.14-5.63-15.34-11.66-24.25-14.42,3.24,5.63,9.41,9.9,14.28,14.24,2.75,2.45,5.33,5.05,8,7.59h11.07Q392.26,261.69,387.66,258.06Z"/><path class="cls-12" d="M429.38,246.68c-.47-.06-.95-.13-1.42-.21l.21,1.33A4.72,4.72,0,0,1,429.38,246.68Z"/><path class="cls-12" d="M430,224.63c-1.34-.94-2.73-1.86-4.15-2.73a81.8,81.8,0,0,0,.18,8.85c1.79,1.74,3.57,3.47,5.34,5.22A78.38,78.38,0,0,0,430,224.63Z"/><path class="cls-12" d="M430.5,246.24c0,.19.05.39.07.59l1.86.17c-.18-1.18-.34-2.35-.49-3.53-.19-1.57-.32-3.32-.45-5.18-1.63-.59-3.27-1.15-4.93-1.71.4,3.3.89,6.6,1.4,9.89.47.08,1,.15,1.42.21A3.49,3.49,0,0,1,430.5,246.24Z"/><path class="cls-12" d="M443.64,247.23c-.29-1.28-.59-2.56-.89-3.83-1.21-5.05-2.38-10.12-3.38-15.21-1.79,5.77-1.24,13.29-.65,19C440.4,247.25,442.05,247.24,443.64,247.23Z"/><path class="cls-12" d="M484.53,248.47c.15.76.3,1.52.44,2.27.36-.64.71-1.28,1.06-1.92,0-1,0-2.1,0-3.15,0,.05,0,.11-.08.16C485.53,246.67,485.05,247.55,484.53,248.47Z"/><path class="cls-12" d="M497.08,258.31a19,19,0,0,1-1.47,1.22l.06,0q.93-.6,1.83-1.26Z"/><path class="cls-12" d="M508.3,237.65c-4.6,4.54-9.26,9-14,13.45-.24.44-.47.88-.68,1.33l1.92-.15a119.8,119.8,0,0,0,9.5-9.92c.46-.63.91-1.28,1.34-1.92C507,239.52,507.67,238.58,508.3,237.65Z"/><path class="cls-12" d="M447,261.45a28,28,0,0,0,1,4h.25l.15-5.5c0-1.18,3.05-1.8,3.44-.65-1-4.49-1.14-9.71-1.53-14.11-1.27,2.45-1.74,2.33-3.8,2.14.12,4,.21,8,.37,11.91C446.92,260,447,260.71,447,261.45Z"/><path class="cls-12" d="M498.08,258.68c-.73.32-1.44.65-2.14,1l.71.32Z"/><path class="cls-12" d="M457.45,262.85v-.8A7.12,7.12,0,0,0,457.45,262.85Z"/><path class="cls-12" d="M451.88,259.44a.88.88,0,0,1,0,.17q-.09,2.94-.16,5.86h2c-.43-1.05-.86-2.09-1.25-3.13a17.73,17.73,0,0,1,4.22,3.13h12.48l.77-2.53c-1-1.79-.36-5.39.7-9q-2.13,2.4-4.34,4.72a53.12,53.12,0,0,1,4.92-8.16c-1.16-2.77-2.41-5.48-3.81-8.08l-.78-1.48c-1.66,3-3.22,6.08-4.67,9.06-1.65,3.39-4.39,8-4.57,12.07v.8a7.12,7.12,0,0,1,0-.8c0-12.63.4-25.35-.18-38-1.63,5-3.95,9.84-5.35,14.94-.08.31-.15.63-.22,1,.49,7.48,1,15,1.1,22.49A23.4,23.4,0,0,1,451.88,259.44Z"/><path class="cls-12" d="M490.4,236.62c-.44,2-.86,4.11-1.18,6.17l.82-1.58c5-9.81,8.95-19.88,14.7-29.35a76.3,76.3,0,0,1,15.19-17.37,39.21,39.21,0,0,0,1.78-5.4c-8.48,9.32-16.05,19.4-23.53,29.57a77.5,77.5,0,0,1-3.26,8.32Q492.69,231.8,490.4,236.62Z"/><path class="cls-12" d="M473.7,244.61q.87-3.48,1.89-6.84c-.33-1.83-.62-3.69-.84-5.6-.14-1.17-.28-2.33-.41-3.5-.43.59-.86,1.18-1.27,1.78q-1.65,2.42-3.21,5c.41.89.82,1.79,1.21,2.71C472,240.24,472.81,242.42,473.7,244.61Z"/><path class="cls-12" d="M485,215.83l.73-1.22c-2.19,2.87-4.59,5.63-6.93,8.43q.46,1.64.9,3.27A89.57,89.57,0,0,1,485,215.83Z"/><path class="cls-12" d="M503.09,251.73l2.06-.1c2.74-2.65,5.43-5.35,8.26-7.65l.68-.55a8.13,8.13,0,0,0,1-2.82l-1.9,1.18c-2.12,2.1-4.29,4.16-6.57,6.22A43.44,43.44,0,0,0,503.09,251.73Z"/><path class="cls-12" d="M442.84,214.43c1.07-2.93.74-7.08.26-11.2-1-3.9-2-7.79-3-11.67-1.83-7.15-1.48-16.45-5.16-22.88-1.68,5.62-.72,12.37-.44,18.16.13,2.66.35,5.33.61,8,.09.27.18.53.28.8C437.63,202,440.81,208.05,442.84,214.43Z"/><path class="cls-12" d="M455.93,193.76c-.55-6.77-1.27-16.28-6.66-21.21-1.25,5.4-.31,11.49.14,16.94.84,10.32.89,20.36,1.21,30.7,0,1.45.1,2.9.17,4.35a62.77,62.77,0,0,1,5.8-17.54C456.45,202.58,456.29,198.16,455.93,193.76Z"/><path class="cls-12" d="M440.26,225.9c-.29-1.15-.6-2.29-1-3.4q-.75-2.26-1.64-4.42c.48,3.38,1.07,6.74,1.73,10.09v0A17.85,17.85,0,0,1,440.26,225.9Z"/><path class="cls-12" d="M517,213.55c2.1-1.67,4.21-3.35,6.35-5,.51-.7,1-1.41,1.54-2.11h0a51.44,51.44,0,0,0-9.82,8.64l0,0Q516,214.33,517,213.55Z"/><path class="cls-12" d="M451.9,259.61a.88.88,0,0,0,0-.17s0-.08,0-.12c-.39-1.15-3.4-.53-3.44.65l-.15,5.5h3.47Q451.82,262.54,451.9,259.61Z"/><path class="cls-12" d="M495.18,259.86l.49-.3-.06,0Z"/><path class="cls-12" d="M479.91,258a12.32,12.32,0,0,0-.59,3.81,10.26,10.26,0,0,1,1.85-4.4l1.11-1.89C481.52,256.33,480.73,257.16,479.91,258Z"/><path class="cls-12" d="M497.08,258.31h.42a74.38,74.38,0,0,0,7.65-6.67l-2.06.1A74.27,74.27,0,0,1,497.08,258.31Z"/><path class="cls-12" d="M486,248.82q1.62-3,3.19-6c.32-2.06.74-4.13,1.18-6.17-1.45,3-2.9,6-4.38,9C486,246.72,486,247.77,486,248.82Z"/><path class="cls-12" d="M493.06,252.28l.19-.17c2.86-5,7.08-9.17,10.24-13.94,4.34-6.57,8-13.52,12.8-19.8,2.34-3.05,4.61-6.45,7-9.81-2.14,1.64-4.25,3.32-6.35,5q-1,.78-2,1.59c-2,3.42-4,6.82-5.79,10.21C504.41,234.47,496.74,242.73,493.06,252.28Z"/><path class="cls-12" d="M494.33,251.1l-1.08,1-.36.62c.06-.15.12-.3.17-.45q-2.38,2.22-4.79,4.41a20.49,20.49,0,0,0,7.3-4.41l-1.92.15C493.86,252,494.09,251.54,494.33,251.1Z"/><path class="cls-12" d="M495.94,259.68q-1.19.57-2.31,1.23a15.67,15.67,0,0,0,2.25-.2l.77-.71Z"/><path class="cls-12" d="M480.21,257.06c-.11.3-.21.61-.3.91.82-.81,1.61-1.64,2.37-2.48l.63-1.1C482,255.29,481.11,256.17,480.21,257.06Z"/><path class="cls-12" d="M467.47,242.4c1.4,2.6,2.65,5.31,3.81,8.08.32-.47.65-.93,1-1.4.6-1.76,1.13-3.3,1.39-4.33,0-.05,0-.1,0-.14-.89-2.19-1.75-4.37-2.63-6.45-.39-.92-.8-1.82-1.21-2.71-1.09,1.79-2.15,3.62-3.17,5.47Z"/><path class="cls-12" d="M475.59,237.77a108.58,108.58,0,0,1,4.14-11.46q-.44-1.63-.9-3.27c-1.55,1.85-3.07,3.71-4.49,5.63.13,1.17.27,2.33.41,3.5C475,234.08,475.26,235.94,475.59,237.77Z"/><path class="cls-12" d="M482.91,254.39c.7-1.21,1.39-2.43,2.06-3.65-.14-.75-.29-1.51-.44-2.27a58,58,0,0,0-4.32,8.59C481.11,256.17,482,255.29,482.91,254.39Z"/><path class="cls-12" d="M452.53,262.34c.39,1,.82,2.08,1.25,3.13h3A17.73,17.73,0,0,0,452.53,262.34Z"/><path class="cls-12" d="M451.92,239c1.4-5.1,3.72-9.89,5.35-14.94,0-1-.09-2-.15-3.05-.08-1.27-.14-2.53-.19-3.79-.32-1-.64-2-.95-3.08l.87,1c-.11-2.73-.18-5.47-.26-8.2a62.77,62.77,0,0,0-5.8,17.54c.23,5.16.57,10.3.91,15.45C451.77,239.66,451.84,239.34,451.92,239Z"/><path class="cls-12" d="M440.26,225.9a10.86,10.86,0,0,1,4.24-4.84,206.75,206.75,0,0,1,2,26.29c2.06.19,2.53.31,3.8-2.14,0-.26,0-.52-.07-.77-.67-6.9-1.51-13.72-2.63-20.59s-2.78-13.78-4.53-20.62c.48,4.12.81,8.27-.26,11.2-2-6.38-5.21-12.44-7.46-18.8-.1-.27-.19-.53-.28-.8.53,5.42,1.24,10.83,1.73,16.23q.32,3.52.81,7,.89,2.16,1.64,4.42C439.66,223.61,440,224.75,440.26,225.9Z"/><path class="cls-12" d="M439.37,228.19v0Z"/><path class="cls-12" d="M456,214.17c.31,1,.63,2.06.95,3.08,0-.68-.06-1.37-.08-2.05Z"/><path class="cls-12" d="M480,257.29c-.85-3.79-1.77-7.46-2.62-11.13l-2,2.4a55.59,55.59,0,0,0,4.6,8.74Z"/><path class="cls-12" d="M495.67,259.56l.27.12c.7-.35,1.41-.68,2.14-1l.41-.38h-1Q496.6,259,495.67,259.56Z"/><path class="cls-12" d="M476.62,243c-.38-1.71-.72-3.43-1-5.18q-1,3.36-1.89,6.84c.21.53.43,1.06.65,1.59C475.12,245.12,475.88,244,476.62,243Z"/><path class="cls-12" d="M515,215.14l0,0-.07.09Z"/><path class="cls-12" d="M505.15,251.63l1.18,0c3-2.48,6.15-5.33,7.76-8.17l-.68.55C510.58,246.28,507.89,249,505.15,251.63Z"/><path class="cls-12" d="M524.79,207.45c0-.34.05-.67.05-1-.52.7-1,1.41-1.54,2.11C523.8,208.19,524.29,207.81,524.79,207.45Z"/><path class="cls-12" d="M475.52,261.94c-.95.78-1.93,1.55-3,2.31l2.85-2.63c-1-3.09-2.14-6.18-3.35-9.22-.45.51-.9,1-1.36,1.52-1.06,3.63-1.74,7.23-.7,9l-.77,2.53h7.45C476.3,264.3,475.91,263.12,475.52,261.94Z"/><path class="cls-12" d="M503.09,251.73a43.44,43.44,0,0,1,3.56-3.72c2.28-2.06,4.45-4.12,6.57-6.22a143,143,0,0,0-14,10.2C500.48,251.89,501.78,251.8,503.09,251.73Z"/><path class="cls-12" d="M495.57,252.28l1.71-.14a122.68,122.68,0,0,0,7.79-9.78A119.8,119.8,0,0,1,495.57,252.28Z"/><path class="cls-12" d="M504.74,211.86c-5.75,9.47-9.68,19.54-14.7,29.35l-.82,1.58c-.24,1.54-.42,3.07-.53,4.58.83-1.19,1.63-2.4,2.43-3.64a61.31,61.31,0,0,1,3.45-5.6l.24-.4c4.67-7.85,9.94-15.33,14.29-23.35,3.52-6.49,8-13,10.83-19.89A76.3,76.3,0,0,0,504.74,211.86Z"/><path class="cls-12" d="M488.64,251.59a11.54,11.54,0,0,1,.72-3.89c-.25.26-.49.53-.73.79C488.59,249.53,488.59,250.57,488.64,251.59Z"/><path class="cls-12" d="M494.33,251.1c4.71-4.4,9.37-8.91,14-13.45,1.42-2.09,2.84-4.21,4.23-6.34C505.5,237.14,498.64,243.07,494.33,251.1Z"/><path class="cls-12" d="M472.56,264.25c1-.76,2-1.53,3-2.31,0-.11-.08-.21-.11-.32Z"/><path class="cls-12" d="M480,257.29h0l0,0Z"/><path class="cls-12" d="M485.94,245.83c0-.05.05-.11.08-.16,0-3.66.09-7.34.32-11-1.19,1.58-2.4,3.15-3.61,4.72.62,3,1.21,6.06,1.8,9.08C485.05,247.55,485.53,246.67,485.94,245.83Z"/><path class="cls-12" d="M492.2,228.17c-.51,2.7-1.18,5.55-1.8,8.45q2.28-4.81,4.52-9.64a77.5,77.5,0,0,0,3.26-8.32l-5.61,7.64C492.44,226.92,492.32,227.55,492.2,228.17Z"/><path class="cls-12" d="M479.73,226.31c.7,2.67,1.33,5.35,1.93,8.05C484,230,486,225.61,488,221.05c.2-1,.41-2,.64-3a62.72,62.72,0,0,1,5.71-14.86c-3.18,3-5.47,7.2-8,10.64l-.58.77-.73,1.22A89.57,89.57,0,0,0,479.73,226.31Z"/><path class="cls-12" d="M485.23,252l.82-1.05c0-.72,0-1.44,0-2.16-.35.64-.7,1.28-1.06,1.92C485.06,251.17,485.14,251.6,485.23,252Z"/><path class="cls-12" d="M486.15,256.6c0-1.79-.07-3.59-.1-5.4l-.82.85C485.53,253.57,485.84,255.09,486.15,256.6Z"/><path class="cls-12" d="M493,258.47c.89.31,1.77.68,2.64,1.06a19,19,0,0,0,1.47-1.22C495.71,258.33,494.34,258.38,493,258.47Z"/><path class="cls-12" d="M480,257.29v0l0,0c-1.49,1.45-3,2.89-4.54,4.32,0,.11.07.21.11.32q2.34-1.94,4.39-4c.09-.3.19-.61.3-.91Z"/><path class="cls-12" d="M478.49,240c1.13-1.89,2.17-3.77,3.17-5.65-.6-2.7-1.23-5.38-1.93-8.05a108.58,108.58,0,0,0-4.14,11.46c.31,1.75.65,3.47,1,5.18C477.27,242,477.9,241,478.49,240Z"/><path class="cls-12" d="M489.36,247.7a11.54,11.54,0,0,0-.72,3.89c-.05-1-.05-2.06,0-3.1-.85.91-1.71,1.81-2.58,2.71,0,1.81.06,3.61.1,5.4-.31-1.51-.62-3-.92-4.55l-.09.08c-.91,1.15-1.87,2.27-2.86,3.36l-1.11,1.89a10.26,10.26,0,0,0-1.85,4.4,12.32,12.32,0,0,1,.59-3.81q-2.06,2-4.39,4c.39,1.18.78,2.36,1.16,3.53H490.9q2.46-2.4,5-4.76a15.67,15.67,0,0,1-2.25.2q1.13-.66,2.31-1.23l-.27-.12-.49.3.43-.33c-.87-.38-1.75-.75-2.64-1.06,1.37-.09,2.74-.14,4.11-.16a74.27,74.27,0,0,0,6-6.58c-1.31.07-2.61.16-3.91.26-3.76,3.07-7.41,6.29-10.95,9.56-1,1-2,1.92-3.07,2.85l3.07-2.85c3.11-3,6.16-6.13,9-9.41l-1.71.14a20.49,20.49,0,0,1-7.3,4.41q2.4-2.19,4.79-4.41c3.68-9.55,11.35-17.81,16.15-26.93C511,222,513,218.56,515,215.14l0,0c-4.41,4.94-8,10.46-12.07,16.08A175.77,175.77,0,0,1,489.36,247.7Z"/><path class="cls-12" d="M486.05,251c.91-1.18,1.78-2.38,2.64-3.61.11-1.51.29-3,.53-4.58q-1.58,3-3.19,6C486,249.54,486,250.26,486.05,251Z"/><path class="cls-12" d="M480.21,257.06a58,58,0,0,1,4.32-8.59c-.59-3-1.18-6.05-1.8-9.08q-2.66,3.42-5.39,6.77c.85,3.67,1.77,7.34,2.62,11.13Z"/><path class="cls-12" d="M473.7,244.61s0,.09,0,.14c-.26,1-.79,2.57-1.39,4.33l2.08-2.88C474.13,245.67,473.91,245.14,473.7,244.61Z"/><path class="cls-12" d="M482.28,255.49c1-1.09,2-2.21,2.86-3.36-.73.76-1.48,1.52-2.23,2.26Z"/><path class="cls-12" d="M503.49,238.17c-3.16,4.77-7.38,9-10.24,13.94l1.08-1c4.31-8,11.17-14,18.2-19.79,2.39-3.67,4.71-7.39,6.76-11.11,1.93-3.52,5.06-8.53,5.5-12.75-.5.36-1,.74-1.49,1.11-2.4,3.36-4.67,6.76-7,9.81C511.49,224.65,507.83,231.6,503.49,238.17Z"/><path class="cls-12" d="M485,250.74c-.67,1.22-1.36,2.44-2.06,3.65.75-.74,1.5-1.5,2.23-2.26l.09-.1C485.14,251.6,485.06,251.17,485,250.74Z"/><path class="cls-12" d="M488.23,261.55l-3.07,2.85C486.19,263.47,487.21,262.52,488.23,261.55Z"/><path class="cls-12" d="M493.25,252.11l-.19.17c-.05.15-.11.3-.17.45Z"/><path class="cls-12" d="M495.43,202.25c-.37.3-.72.62-1.07.95a62.72,62.72,0,0,0-5.71,14.86c-.23,1-.44,2-.64,3l.84-1.91C490.91,214.41,495.86,207.55,495.43,202.25Z"/><path class="cls-12" d="M480,257.3a55.59,55.59,0,0,1-4.6-8.74c-1.09,1.29-2.18,2.57-3.29,3.84,1.21,3,2.31,6.13,3.35,9.22C476.94,260.19,478.46,258.75,480,257.3Z"/><path class="cls-12" d="M491.12,243.73c1.16-1.8,2.3-3.67,3.45-5.6A61.31,61.31,0,0,0,491.12,243.73Z"/><path class="cls-12" d="M498.49,258.3l2.83-2.56c1.31-1.17,3.12-2.58,5-4.14l-1.18,0a74.38,74.38,0,0,1-7.65,6.67Z"/><path class="cls-12" d="M486,245.67c1.48-3,2.93-6,4.38-9,.62-2.9,1.29-5.75,1.8-8.45.12-.62.24-1.25.37-1.87-2.06,2.8-4.13,5.6-6.23,8.37C486.11,238.33,486,242,486,245.67Z"/><path class="cls-12" d="M443.64,247.23c1.05,4.54,2.06,9.1,3.2,13.59.05.2.1.41.14.63,0-.74-.06-1.47-.08-2.19-.16-3.94-.25-7.92-.37-11.91-.65-.06-1.45-.12-2.49-.12Z"/><path class="cls-12" d="M440.26,225.9a17.85,17.85,0,0,0-.89,2.29c1.24,2.93,2.42,5.84,3.73,8.57A106.16,106.16,0,0,1,440.26,225.9Z"/><path class="cls-12" d="M443.64,247.23h.4c1,0,1.84.06,2.49.12a206.75,206.75,0,0,0-2-26.29,10.86,10.86,0,0,0-4.24,4.84,106.16,106.16,0,0,0,2.84,10.86c-1.31-2.73-2.49-5.64-3.73-8.57h0c1,5.09,2.17,10.16,3.38,15.21C443.05,244.67,443.35,246,443.64,247.23Z"/><path class="cls-12" d="M430,261.4c-.44-4.5-1.14-9-1.84-13.6-2.73,3.48-3.15,11.75-3.12,17.67h5.37C430.28,264.11,430.14,262.75,430,261.4Z"/><path class="cls-12" d="M439.8,261.41a28.26,28.26,0,0,0-3.42-10,39.18,39.18,0,0,0-1.69,8.94c.28,1.69.54,3.39.77,5.09h4.31C439.82,264.12,439.82,262.77,439.8,261.41Z"/><path class="cls-12" d="M416,265.47l-.9-1.39c-4.35-6.72-8.4-13.63-12.19-20.67-2.7-5-4.71-11.35-8.48-15.63,2.14,9.56,6,18.46,10.53,27.05,2.42,3.49,4.75,7,7,10.64Z"/><path class="cls-12" d="M387.23,249c3.81,5.24,7,11.06,10.66,16.47h4C396.92,260.08,392,254.47,387.23,249Z"/><path class="cls-12" d="M430.42,265.47h1.85c-.46-6.23-.93-12.45-1.7-18.64l-1.19-.15a4.72,4.72,0,0,0-1.21,1.12c.7,4.56,1.4,9.1,1.84,13.6C430.14,262.75,430.28,264.11,430.42,265.47Z"/><path class="cls-12" d="M439.77,265.47h.59c-.14-1.35-.33-2.72-.56-4.06C439.82,262.77,439.82,264.12,439.77,265.47Z"/><path class="cls-12" d="M412,265.47c-2.28-3.59-4.61-7.15-7-10.64,1.9,3.59,3.91,7.13,6,10.64Z"/><path class="cls-12" d="M434.45,265.47h1c-.23-1.7-.49-3.4-.77-5.09C434.55,262.06,434.48,263.77,434.45,265.47Z"/><path class="cls-12" d="M429.38,246.68l1.19.15c0-.2,0-.4-.07-.59A3.49,3.49,0,0,0,429.38,246.68Z"/><path class="cls-1" d="M425.05,265.47h-.25c.08.19.17.37.25.56Z"/><path class="cls-1" d="M448.27,265.47H448q.11.28.24.57C448.26,265.85,448.27,265.66,448.27,265.47Z"/><g id="LArm_2"><path class="cls-13" d="M353.31,336.53l1.52,30.72A218.65,218.65,0,0,0,396,336.37c6.16-5.19,6.51-18.37,1.59-25.69C387.69,311.46,353.31,336.53,353.31,336.53Z"/></g><path class="cls-13" d="M389.26,284.47l10.13,31c2.83,7.61.12,20-7.29,22.74s-20.11,1.14-22.94-6.46l-16.78-37.58S385,273,389.26,284.47Z"/><path class="cls-14" d="M344,221.23c17.25,4.6,42.18,28.17,49.08,63.65L359,296Z"/><g id="RArm_2"><path class="cls-13" d="M242.45,336.53l-1.51,30.72a218.65,218.65,0,0,1-41.18-30.88c-6.16-5.19-6.51-18.37-1.59-25.69C208.08,311.46,242.45,336.53,242.45,336.53Z"/></g><path class="cls-13" d="M206.51,284.47l-10.13,31c-2.83,7.61-.12,20,7.29,22.74s20.11,1.14,22.94-6.46l16.24-34.93C236.9,280.33,210.8,273,206.51,284.47Z"/><path class="cls-10" d="M251.86,221.66c-15.53,5.24-29,23.53-52.28,53.49L227,302.6l11-6.2Z"/><path class="cls-14" d="M252.2,221.23c-16.81,4.55-40.64,27.17-49.88,62.9L238,296Z"/><g id="Body"><path class="cls-1" d="M352.87,402.85,359.48,296l1.66-50.66c0-9.81-4.44-18.59-17.79-24.49-10.83-4.78-80.43-4.62-91.35.4-12.83,5.89-16.91,14.5-16.91,24.09L238,296c.49,39.77,4.9,72.86,8.68,106.87Z"/><polygon class="cls-10" points="241.06 280.2 237.98 295.15 238.76 306.78 358.89 306.78 359.03 295.98 352.63 267.25 241.06 280.2"/><path class="cls-15" d="M238.26,308.29l.19.14-.21-.78C238.25,307.86,238.25,308.08,238.26,308.29Z"/><polygon class="cls-16" points="352.97 416.13 229.53 437.59 189.16 379.6 352.97 385.13 352.97 416.13"/></g><path class="cls-17" d="M230.27,435l-13.5,3.22h-.12l-34.13-.53c-14.27-.21-4.69,26.42,11.63,24.73l26.39-6.75L235.28,452Z"/><path class="cls-18" d="M387.14,374c15.72-4.41,31.9,4.25,36.13,19.34,3.31,11.84-1.71,24.12-11.62,31-2.72,1.89-7.85,2.77-11.23,3.72L231.73,455.77l-6.67-26.08Z"/><path class="cls-19" d="M256.82,443.85c.12-.56,108-47.58,108-47.58l-36.65-2L240.34,424C241,425.43,256.82,443.85,256.82,443.85Z"/><path class="cls-17" d="M352.57,551.31l-29.25-17.59-.11-.06-9.75-9.86-13.2,11.72,10.54,11,18.83,19.68C342.13,576.37,363.92,558.64,352.57,551.31Z"/><path class="cls-20" d="M211.43,389c-11-12.06-29.31-13.28-40.89-2.72s-12,28.91-1,41L300,540.6,319.46,522Z"/><rect class="cls-21" x="231.84" y="385.14" width="129.75" height="4.43"/><path class="cls-22" d="M366.38,391.89a4.38,4.38,0,0,1-4.38,4.38H231.42a4.38,4.38,0,0,1-4.37-4.38v.53a4.38,4.38,0,0,1,4.37-4.38H362a4.38,4.38,0,0,1,4.38,4.38Z"/><rect class="cls-23" x="226.4" y="305.58" width="140.64" height="80.09" rx="5.81"/><path class="cls-13" d="M309.35,201.73l-22.81,0a6.76,6.76,0,0,1-4.81-3l-.27-.41V218c0,5.45,7.34,22.37,16.64,22.37s16.63-16.92,16.63-22.37V197.8a10.45,10.45,0,0,1-.57.93A6.7,6.7,0,0,1,309.35,201.73Z"/><polygon class="cls-24" points="361.48 210.09 361.3 210.07 361.3 210.2 361.48 210.09"/><path class="cls-25" d="M314.73,210.07l-2.92-.35a4.12,4.12,0,0,1-1.5.35L287,210c-1.61,0-3.68-1.35-4.9-3.23a4.87,4.87,0,0,1-.36-.59l-.23,0v13a32.48,32.48,0,0,0,3.29,9.45l29.89-18.41Z"/><path class="cls-26" d="M361.28,305.53h-23l-111.9,49.93v24.39a5.92,5.92,0,0,0,5.91,5.84h129a5.73,5.73,0,0,0,5.69-5.84V311.39A5.75,5.75,0,0,0,361.28,305.53Z"/><path class="cls-27" d="M304,349.18a7.68,7.68,0,1,1-7.68-7.68A7.67,7.67,0,0,1,304,349.18Z"/><path class="cls-28" d="M299.85,157.26v0Z"/><path class="cls-28" d="M300.32,167.52v-.05S300.31,167.51,300.32,167.52Z"/><path class="cls-28" d="M299.85,167.52v0l0,0S299.84,167.51,299.85,167.52Z"/><path class="cls-13" d="M284.71,184.21a5.82,5.82,0,0,1-4.93,6.65h0A5.94,5.94,0,0,1,273,186l-1.37-8.45a5.82,5.82,0,0,1,4.93-6.65h0a5.93,5.93,0,0,1,6.81,4.82Z"/><path class="cls-13" d="M312.21,184.66a5.82,5.82,0,0,0,4.93,6.65h0a5.94,5.94,0,0,0,6.81-4.82l1.38-8.46a5.84,5.84,0,0,0-4.94-6.65h0a5.94,5.94,0,0,0-6.81,4.83Z"/><path class="cls-13" d="M316.21,162.28c-22.34-6.22-22.5-14.33-36.2-.78-1.76,10.18-3.63,24.54-2,36.51,1.89,11.24,8.87,19.54,20,18.64,11.13.9,18.11-7.4,20-18.64C319.66,186.34,317.86,172.69,316.21,162.28Z"/><path class="cls-29" d="M318,198c1.09-7.86.63-15.3-.29-24.08l-3,0,0,10.31a6.61,6.61,0,0,1-1.49,3.75,4.82,4.82,0,0,1-3.18,1.75l-12.27.06-11.75-.06a4.82,4.82,0,0,1-3.18-1.75,6.68,6.68,0,0,1-1.49-3.75l0-10.31-3.17,0c-.92,8.76-1.34,16.24-.25,24.08,1.89,11.24,8.87,19.54,20,18.64C309.17,217.55,316.15,209.25,318,198Z"/><path class="cls-30" d="M320,146.32c-10.31-11.94-34-11.11-36.81,2.78-11.7-.47-12,10.83-7.89,22.12a13.83,13.83,0,0,1,2.07.16l.59,7.33,3.44.11c.5-8.74,1.39-16.08,3.27-18.94,8.42-10,16.58,1.58,28.16,2.81,1.47,3.06,2.05,10.16,1.84,16.19h3.44l.37-6.88,2,.1C324.74,161.4,324.73,151.43,320,146.32Z"/><path class="cls-13" d="M305.54,196.21a2.31,2.31,0,0,1-2.42,2.26h-9.49a2.32,2.32,0,0,1-2.43-2.26h0a2.31,2.31,0,0,1,2.43-2.26h9.49a2.3,2.3,0,0,1,2.42,2.26Z"/><polygon class="cls-26" points="432.12 460.69 432.32 446.63 420.61 454.41 432.12 460.69"/><path class="cls-16" d="M485.06,555h-21.3c1.88-26.55-3.84-53.21-25.5-63.78-7.85-4.44-2.42-16.31-.28-29.39a46.39,46.39,0,0,0,.62-11.53c-.38.33-8.83,6.89-10.47,6.29a74.67,74.67,0,0,0-7.31-2.3c-5.49-1.3-5.65.42-7.29,3.41l-6.2,1.14c-3.07,4-3.8,7.8,2.33,12.48L405.56,555l0,.07-7.16.3c-4.62.35-7.23,6.15-7.44,8.5l94.08,0c2.38,0,2.89,1.32,2.89,2.45s-.51,2.46-2.89,2.46h-43.2a4.42,4.42,0,1,0,0,8.83h43.2c7.2,0,13.06-5.06,13.06-11.29S492.26,555,485.06,555Z"/><path class="cls-31" d="M416.66,563.35c.21-2.35,2.82-8.15,7.44-8.5l11.55-.48c-11.63-3.69-17.82-16.89-13.83-29.47s16.67-19.78,28.3-16.09"/><polygon class="cls-32" points="430.45 459.66 438.53 450.2 425.66 455.78 430.45 459.66"/><path class="cls-33" d="M488.91,125a21.76,21.76,0,0,1-43.37.16"/><path class="cls-5" d="M207.1,193H130v20.47H207.1Z"/><path class="cls-34" d="M131.69,169.59,78,224.94l10,11,53.71-55.36Z"/><polygon class="cls-1" points="193.37 134.42 193.37 61.73 195.26 60.83 195.26 133.59 193.37 134.42"/><polygon class="cls-1" points="171.48 144.26 127.04 144.26 126.95 105.17 128.93 103.4 128.93 142.36 175.7 142.36 171.48 144.26"/><polygon class="cls-5" points="185.03 136.68 136.89 136.68 136.89 96.68 138.77 95.18 138.79 134.78 183.13 134.78 183.13 66.6 185.03 65.68 185.03 136.68"/><path class="cls-35" d="M462,324.1a3.77,3.77,0,1,1-3.77-3.77A3.77,3.77,0,0,1,462,324.1Z"/><path class="cls-35" d="M462,370.34a3.77,3.77,0,1,1-3.77-3.77A3.77,3.77,0,0,1,462,370.34Z"/><path class="cls-36" d="M163.29,324.1a3.77,3.77,0,1,1-3.77-3.77A3.77,3.77,0,0,1,163.29,324.1Z"/><path class="cls-36" d="M163.29,370.34a3.77,3.77,0,1,1-3.77-3.77A3.77,3.77,0,0,1,163.29,370.34Z"/></svg>