<svg id="Layer_1" data-name="Layer 1" xmlns="http://www.w3.org/2000/svg" xmlns:xlink="http://www.w3.org/1999/xlink" viewBox="0 0 136.06 119.06"><defs><style>.cls-1,.cls-11,.cls-2,.cls-3,.cls-4,.cls-5,.cls-6{fill:none;}.cls-13,.cls-2{clip-path:url(#clip-path);}.cls-3{clip-path:url(#clip-path-2);}.cls-4{clip-path:url(#clip-path-3);}.cls-16,.cls-5{clip-path:url(#clip-path-4);}.cls-6{clip-path:url(#clip-path-8);}.cls-7{fill:#e8e9f6;}.cls-8{fill:#ec68a3;opacity:0.4;}.cls-9{fill:#5dc1d2;opacity:0.5;}.cls-10,.cls-12{fill:#f59b1a;}.cls-10{fill-rule:evenodd;}.cls-11{stroke:#f18948;stroke-miterlimit:10;stroke-width:1.5px;}.cls-14{fill:#3a3b8c;}.cls-15{fill:#fff;}.cls-17{fill:#a86915;}.cls-18{fill:#38378d;}.cls-19{clip-path:url(#clip-path-19);}</style><clipPath id="clip-path"><rect class="cls-1" x="70.23" y="70.79" width="31.47" height="46.41"/></clipPath><clipPath id="clip-path-2"><rect class="cls-1" x="40.47" y="71.53" width="31.47" height="46.41"/></clipPath><clipPath id="clip-path-3"><path class="cls-3" d="M51.48,71.55,71.92,77,61,117.91l-7.3-11.1-13.15,5.64Zm0,0"/></clipPath><clipPath id="clip-path-4"><rect class="cls-1" x="40.47" y="71.53" width="31.47" height="46.41"/></clipPath><clipPath id="clip-path-8"><path class="cls-2" d="M90.73,70.81,70.28,76.27,81.2,117.16l7.29-11.09,13.15,5.63Zm0,0"/></clipPath><clipPath id="clip-path-19"><circle class="cls-1" cx="116.3" cy="23.22" r="15.59"/></clipPath></defs><g id="Bob_2" data-name="Bob 2"><path class="cls-7" d="M128.91,57.83c-3.17-15.21-7.66-21.19-16.53-23.52-6.84-1.82-13.88.17-20-3-4.44-2.33-10.09-7-15.52-9.27-9.54-3.91-20.46-4-32.22-2.86C9.92,22.75,3.73,52.05,6.48,68.42,9,80.67,14.14,89.58,23,91.9c6.84,1.83,13.87-.17,20,3,4.46,2.29,10.07,7,15.5,9.28,9.53,3.94,20.47,4.1,32.22,2.9C125.46,103.49,131.65,74.19,128.91,57.83Z"/></g><circle class="cls-8" cx="114.71" cy="92.95" r="13.19"/><circle class="cls-9" cx="29.84" cy="26.39" r="19.96"/><path class="cls-10" d="M38.59,11.71a7.34,7.34,0,0,0,1.22-6.19,6.83,6.83,0,0,0-3.5.66,7.2,7.2,0,0,0-2.78,2.31,6.22,6.22,0,0,0-1.14,3.21,5.7,5.7,0,0,0,.74,3.12,7.59,7.59,0,0,0,5.46-3.11Z"/><path class="cls-10" d="M30.54,17.62a7.54,7.54,0,0,0,.55-1.88,6.87,6.87,0,0,0-.69-4.42,6.82,6.82,0,0,0-2.39.8,7.19,7.19,0,0,0-3.09,3.43,6.18,6.18,0,0,0-.45,3.37,5.72,5.72,0,0,0,1.37,2.9,7.59,7.59,0,0,0,4.7-4.2Z"/><path class="cls-10" d="M23.88,25.1A7.28,7.28,0,0,0,22.45,19a7,7,0,0,0-3.63,3A6.91,6.91,0,0,0,18,24.21a6.24,6.24,0,0,0,.25,3.39,5.69,5.69,0,0,0,1.93,2.56,7.57,7.57,0,0,0,3.65-4.67c0-.13.07-.26.1-.39Z"/><path class="cls-10" d="M18.89,33.77a7.31,7.31,0,0,0-2.66-5.72,7.1,7.1,0,0,0-3.32,5.84,2,2,0,0,0,0,.25,6.23,6.23,0,0,0,1,3.26,5.73,5.73,0,0,0,2.43,2.1,7.59,7.59,0,0,0,2.6-5.73Z"/><path class="cls-10" d="M16.23,43.39a7.34,7.34,0,0,0-3.83-5,6.81,6.81,0,0,0-1.83,3.06,7.21,7.21,0,0,0-.09,3.63,6.54,6.54,0,0,0,.73,1.79A5.68,5.68,0,0,0,15,49.52a7.92,7.92,0,0,0,1.07-2.16,7.53,7.53,0,0,0,.16-4Z"/><path class="cls-10" d="M16.09,53.14a8.06,8.06,0,0,0-2-2.52,7,7,0,0,0-2.89-1.43,6.79,6.79,0,0,0-1,3.44,7,7,0,0,0,.8,3.55,5.82,5.82,0,0,0,3.57,3,5.69,5.69,0,0,0,1.92.2c.08-.21.15-.41.21-.62a7.64,7.64,0,0,0-.54-5.59Z"/><path class="cls-10" d="M18.22,62.33a8.09,8.09,0,0,0-2.61-1.9,6.94,6.94,0,0,0-3.16-.64,6.89,6.89,0,0,0-.12,3.61A7.07,7.07,0,0,0,14,66.63,6.07,6.07,0,0,0,17,68.38a5.61,5.61,0,0,0,3.2-.16,7.65,7.65,0,0,0-2-5.89Z"/><path class="cls-10" d="M22,70.71a7.65,7.65,0,0,0-2.66-1.08,6.85,6.85,0,0,0-3.57.16,6.73,6.73,0,0,0,.18,1.78A7.14,7.14,0,0,0,19.09,76a6.13,6.13,0,0,0,3.29.92,5.62,5.62,0,0,0,3.05-1A7.55,7.55,0,0,0,22,70.71Z"/><path class="cls-10" d="M27.57,78.5a7.81,7.81,0,0,0-3.22-.39,6.78,6.78,0,0,0-3.06,1,7,7,0,0,0,3,4.33,7,7,0,0,0,1.67.81,6.24,6.24,0,0,0,3.39.16,5.8,5.8,0,0,0,2.78-1.6,7.58,7.58,0,0,0-3.72-4,8.93,8.93,0,0,0-.85-.35Z"/><path class="cls-10" d="M33.51,84.65a7.44,7.44,0,0,0-3.25.27,6.66,6.66,0,0,0-2.77,1.64,7,7,0,0,0,2.24,2.74,7.22,7.22,0,0,0,3.32,1.33,6.31,6.31,0,0,0,3.35-.48,5.75,5.75,0,0,0,2.46-2.05,7.49,7.49,0,0,0-5.35-3.45Z"/><path class="cls-10" d="M42.06,18.6A7.55,7.55,0,0,1,39,18.2a7.34,7.34,0,0,1-2.7-1.69,6.16,6.16,0,0,1,2.1-2.63,6.31,6.31,0,0,1,3.18-1.18,5.75,5.75,0,0,1,3.18.66A5.84,5.84,0,0,1,47,15.58a6.52,6.52,0,0,1-5,3Z"/><path class="cls-10" d="M34.83,24.19a7.49,7.49,0,0,1-6.1-.56,6.13,6.13,0,0,1,1.37-3.09,6.27,6.27,0,0,1,2.81-1.94,4.37,4.37,0,0,1,.62-.17,5.65,5.65,0,0,1,5.36,1.67,6.77,6.77,0,0,1-1.67,2.64,6.62,6.62,0,0,1-2.39,1.45Z"/><path class="cls-10" d="M29.31,31.42a7.57,7.57,0,0,1-2.85,1.17,7.12,7.12,0,0,1-3.18-.11,6.22,6.22,0,0,1,1.47-4.85A6.59,6.59,0,0,1,26,26.52a5.64,5.64,0,0,1,3.12-1,5.7,5.7,0,0,1,3,.88,6.51,6.51,0,0,1-2.11,4.4,6.11,6.11,0,0,1-.74.58Z"/><path class="cls-10" d="M24.9,39.61a6,6,0,0,1-.42.46,7.46,7.46,0,0,1-5.14,2.12A6.19,6.19,0,0,1,19,38.72a6.25,6.25,0,0,1,1.43-3A5.66,5.66,0,0,1,23.19,34a5.75,5.75,0,0,1,3.16,0,6.5,6.5,0,0,1-1.45,5.57Z"/><path class="cls-10" d="M23.61,48.92a7.54,7.54,0,0,1-1.36,1.9,7.29,7.29,0,0,1-3.39,2A6.07,6.07,0,0,1,17.94,51a6.35,6.35,0,0,1,.36-4.71,5.73,5.73,0,0,1,2.23-2.39,5.81,5.81,0,0,1,3.07-.76,6.54,6.54,0,0,1,0,5.77Z"/><path class="cls-10" d="M24.94,57.88a7.49,7.49,0,0,1-2.56,4.19,6.18,6.18,0,0,1-1.1.73l-.3-.26a6.07,6.07,0,0,1-1.68-2.7,6.22,6.22,0,0,1-.14-3.2,5.61,5.61,0,0,1,1.57-2.86,5.82,5.82,0,0,1,2.79-1.5,6.51,6.51,0,0,1,1.42,5.6Z"/><path class="cls-10" d="M29.07,66.54a7.49,7.49,0,0,1-2.33,5.68A6.13,6.13,0,0,1,24.19,70a6.21,6.21,0,0,1-1-3.24A5.64,5.64,0,0,1,24,63.6a5.92,5.92,0,0,1,2.34-2.13,6.52,6.52,0,0,1,2.75,5.07Z"/><path class="cls-10" d="M34.36,73.86a7.47,7.47,0,0,1-.82,6.08,6.17,6.17,0,0,1-3-1.5,6.27,6.27,0,0,1-1.83-2.88,5.69,5.69,0,0,1,0-3.32,5.8,5.8,0,0,1,1.72-2.6,6.79,6.79,0,0,1,1.14.58,6.45,6.45,0,0,1,2.79,3.64Z"/><path class="cls-10" d="M40.62,79.82a7.43,7.43,0,0,1,.76,6.09,6.08,6.08,0,0,1-3.3-.68,6.36,6.36,0,0,1-2.5-2.32,7.49,7.49,0,0,1-.36-.69,5.66,5.66,0,0,1,.54-5.48,6.72,6.72,0,0,1,2.84,1,6.35,6.35,0,0,1,2,2.07Z"/><path class="cls-11" d="M43.07,9.16C1.18,37.61,16.33,71.34,41.41,88.71"/><path class="cls-12" d="M39.84,11.87c1.29-6.74,5.37-9.22,14.1-8-1.25,6.59-6.29,9.84-14.1,8Zm0,0"/><path class="cls-10" d="M101.36,12.44a7.56,7.56,0,0,0,5.47,3.11,5.68,5.68,0,0,0,.73-3.12,6.15,6.15,0,0,0-1.14-3.2,7.12,7.12,0,0,0-2.77-2.32,6.87,6.87,0,0,0-3.51-.65,7.32,7.32,0,0,0,1.22,6.18Z"/><path class="cls-10" d="M109.42,18.36a7.55,7.55,0,0,0,4.7,4.19,5.7,5.7,0,0,0,1.36-2.9,6.18,6.18,0,0,0-.44-3.37,7.15,7.15,0,0,0-3.1-3.42,6.58,6.58,0,0,0-2.39-.81,7,7,0,0,0-.69,4.43,7.68,7.68,0,0,0,.56,1.88Z"/><path class="cls-10" d="M116.08,25.83l.09.4a7.61,7.61,0,0,0,3.66,4.67,5.68,5.68,0,0,0,1.92-2.57A6.12,6.12,0,0,0,122,25a7.22,7.22,0,0,0-.88-2.25,7.1,7.1,0,0,0-3.62-3,7.25,7.25,0,0,0-1.43,6.15Z"/><path class="cls-10" d="M121.07,34.5a7.62,7.62,0,0,0,2.59,5.73,5.67,5.67,0,0,0,2.43-2.1,6.11,6.11,0,0,0,1-3.26v-.25a7.14,7.14,0,0,0-3.32-5.84,7.3,7.3,0,0,0-2.66,5.72Z"/><path class="cls-10" d="M123.73,44.13a7.5,7.5,0,0,0,.15,4A7.65,7.65,0,0,0,125,50.25a5.6,5.6,0,0,0,3.79-2.65,6.44,6.44,0,0,0,.74-1.79,7.17,7.17,0,0,0-.09-3.62,6.88,6.88,0,0,0-1.83-3.07,7.31,7.31,0,0,0-3.83,5Z"/><path class="cls-10" d="M123.86,53.88a7.61,7.61,0,0,0-.53,5.58c.06.21.13.42.2.62a5.66,5.66,0,0,0,1.92-.2,5.88,5.88,0,0,0,3.58-3,7.1,7.1,0,0,0,.79-3.56,6.81,6.81,0,0,0-1-3.43,6.76,6.76,0,0,0-2.89,1.42,8,8,0,0,0-2,2.53Z"/><path class="cls-10" d="M121.73,63.07a7.69,7.69,0,0,0-2,5.88,5.53,5.53,0,0,0,3.2.16,5.91,5.91,0,0,0,2.94-1.75,7,7,0,0,0,1.71-3.23,6.75,6.75,0,0,0-.12-3.6,6.9,6.9,0,0,0-3.15.64,8.13,8.13,0,0,0-2.62,1.9Z"/><path class="cls-10" d="M118,71.44a7.63,7.63,0,0,0-3.44,5.2,5.66,5.66,0,0,0,3.06,1,6.19,6.19,0,0,0,3.28-.93A7.16,7.16,0,0,0,124,72.31a6.43,6.43,0,0,0,.17-1.79,7,7,0,0,0-3.56-.16A8.11,8.11,0,0,0,118,71.44Z"/><path class="cls-10" d="M112.39,79.23a8.14,8.14,0,0,0-.86.35,7.66,7.66,0,0,0-3.72,4,5.77,5.77,0,0,0,2.78,1.6A6.24,6.24,0,0,0,114,85a7.37,7.37,0,0,0,1.67-.81,7,7,0,0,0,3-4.34,6.78,6.78,0,0,0-3-1,7.79,7.79,0,0,0-3.22.39Z"/><path class="cls-10" d="M106.45,85.38a7.53,7.53,0,0,0-5.36,3.45,5.89,5.89,0,0,0,2.46,2.06,6.34,6.34,0,0,0,3.36.47A7.23,7.23,0,0,0,110.22,90a6.89,6.89,0,0,0,2.24-2.74,6.56,6.56,0,0,0-2.76-1.64,7.46,7.46,0,0,0-3.25-.27Z"/><path class="cls-10" d="M97.9,19.33a6.5,6.5,0,0,1-5-3A5.88,5.88,0,0,1,95.2,14.1a5.81,5.81,0,0,1,3.19-.67,6.31,6.31,0,0,1,3.18,1.18,6.14,6.14,0,0,1,2.09,2.63,6.94,6.94,0,0,1-2.7,1.69,7.36,7.36,0,0,1-3.06.4Z"/><path class="cls-10" d="M105.12,24.92a6.43,6.43,0,0,1-2.39-1.45,6.73,6.73,0,0,1-1.67-2.63,5.66,5.66,0,0,1,5.37-1.68,4.63,4.63,0,0,1,.61.17,6.22,6.22,0,0,1,2.81,1.94,6.14,6.14,0,0,1,1.38,3.09,7.48,7.48,0,0,1-6.11.56Z"/><path class="cls-10" d="M110.64,32.15a5.9,5.9,0,0,1-.74-.58,6.54,6.54,0,0,1-2.11-4.4,5.84,5.84,0,0,1,3-.88,5.71,5.71,0,0,1,3.13,1,5.94,5.94,0,0,1,1.24,1.11,6.23,6.23,0,0,1,1.48,4.85,7.12,7.12,0,0,1-3.18.1,7.4,7.4,0,0,1-2.86-1.17Z"/><path class="cls-10" d="M115.05,40.35a6.51,6.51,0,0,1-1.45-5.57,5.79,5.79,0,0,1,3.17-.05,5.71,5.71,0,0,1,2.76,1.75,6.34,6.34,0,0,1,1.43,3,6.14,6.14,0,0,1-.35,3.48,7.47,7.47,0,0,1-5.14-2.13c-.14-.15-.29-.3-.42-.45Z"/><path class="cls-10" d="M116.35,49.65a6.5,6.5,0,0,1,0-5.77,5.74,5.74,0,0,1,3.08.77A5.62,5.62,0,0,1,121.65,47a6.32,6.32,0,0,1,.36,4.72,6.24,6.24,0,0,1-.91,1.78,7.23,7.23,0,0,1-3.4-2,7.32,7.32,0,0,1-1.35-1.9Z"/><path class="cls-10" d="M115,58.62a6.49,6.49,0,0,1,1.41-5.6,5.77,5.77,0,0,1,2.79,1.5,5.67,5.67,0,0,1,1.58,2.85A6.32,6.32,0,0,1,119,63.28l-.3.26a6.92,6.92,0,0,1-1.11-.74A7.5,7.5,0,0,1,115,58.62Z"/><path class="cls-10" d="M110.89,67.28a6.5,6.5,0,0,1,2.74-5.08A5.81,5.81,0,0,1,116,64.34a5.68,5.68,0,0,1,.83,3.15,6.37,6.37,0,0,1-1,3.25A6.15,6.15,0,0,1,113.22,73a7.43,7.43,0,0,1-2.33-5.67Z"/><path class="cls-10" d="M105.6,74.59A6.43,6.43,0,0,1,108.38,71a7.63,7.63,0,0,1,1.14-.58A5.89,5.89,0,0,1,111.24,73a5.57,5.57,0,0,1,0,3.31,6.25,6.25,0,0,1-1.82,2.88,6.12,6.12,0,0,1-3,1.5,7.5,7.5,0,0,1-.81-6.08Z"/><path class="cls-10" d="M99.33,80.56a6.58,6.58,0,0,1,2-2.08,6.8,6.8,0,0,1,2.84-1,5.61,5.61,0,0,1,.54,5.47,4.52,4.52,0,0,1-.36.69A6.25,6.25,0,0,1,101.88,86a6.11,6.11,0,0,1-3.3.68,7.36,7.36,0,0,1,.75-6.08Z"/><path class="cls-11" d="M96.88,9.9c41.89,28.44,26.74,62.17,1.66,79.54"/><path class="cls-12" d="M100.11,12.6c-7.81,1.88-12.85-1.38-14.1-8,8.73-1.25,12.81,1.23,14.1,8Zm0,0"/><g class="cls-13"><path class="cls-14" d="M90.73,70.81,70.28,76.27,81.2,117.16l7.29-11.09,13.15,5.63Zm0,0"/></g><g class="cls-13"><path class="cls-15" d="M75.17,71l-1.58.42,11.72,43.88,1.58-.42Zm0,0"/></g><g class="cls-13"><path class="cls-15" d="M86.07,69.23l-1.58.42,11.72,43.88,1.58-.42Zm0,0"/></g><g class="cls-16"><path class="cls-14" d="M51.48,71.55,71.92,77,61,117.91l-7.3-11.1-13.15,5.64Zm0,0"/></g><g class="cls-16"><path class="cls-15" d="M67,71.76l1.58.42L56.89,116.06l-1.58-.42Zm0,0"/></g><g class="cls-16"><path class="cls-15" d="M56.13,70l1.58.42L46,114.28l-1.58-.43Zm0,0"/></g><path class="cls-12" d="M91.52,71.6c-2.77,2.77,0,5-3.23,7.13s-4.18-1.35-7.83,0-2,4.59-5.85,5.2-3.26-2.93-7.17-3.13S63.76,84.23,60,83.21s-1.79-4-5.28-5.78S50,79,46.93,76.56s0-4.38-2.47-7.42-5-.48-6.75-4,1.77-4,.76-7.79S34.12,54.93,33.92,51s3.25-2.94,3.86-6.81-3-4-1.57-7.66,4.16-1.37,6.3-4.65S41.42,27,44.19,24.27s4.36.45,7.64-1.68,1-4.9,4.64-6.3,3.8,2.19,7.67,1.57S67,13.79,70.94,14s2.59,3.54,6.37,4.55,4.3-2.54,7.78-.76.92,4.29,4,6.75S94,24,96.48,27s-.91,4.29.87,7.78,4.77,1.49,5.78,5.27-2.57,3.55-2.37,7.46,3.75,3.31,3.14,7.17-3.8,2.2-5.2,5.86,2.08,4.54,0,7.82-4.36.47-7.13,3.23Zm0,0"/><circle class="cls-17" cx="69.09" cy="49.83" r="25.11"/><path class="cls-15" d="M93,49.8A23.92,23.92,0,1,1,69.1,25.89,23.92,23.92,0,0,1,93,49.8Zm0,0"/><circle class="cls-14" cx="69.15" cy="49.66" r="22.24"/><circle class="cls-14" cx="19.45" cy="67.57" r="15.59"/><rect class="cls-14" x="12.14" y="62.33" width="14.88" height="14.87"/><path class="cls-15" d="M27,67.13H23a.07.07,0,0,0-.06.11l1.95,3.44a.07.07,0,0,1-.1.09c-.49-.35-1.55-1.08-1.84-1s-.31,1.35-.32,1.89c0,.07-.1.1-.13,0l-2-3.5v9H27a.07.07,0,0,0,.07-.07v-10A.07.07,0,0,0,27,67.13Zm1.25-4.76a.07.07,0,0,0-.07-.06H23.78c-.07,0-.1-.1,0-.13a4.08,4.08,0,0,0,.51-.33,2.68,2.68,0,0,0,1.3-2.15,2.89,2.89,0,0,0-.72-1.9,2.47,2.47,0,0,0-1.62-.6,3.28,3.28,0,0,0-1.79.57,6,6,0,0,0-1.9,2.92,5.86,5.86,0,0,0-1.9-2.92,3.51,3.51,0,0,0-1.79-.57,2.46,2.46,0,0,0-1.69.69,3.17,3.17,0,0,0-.76,2,2.23,2.23,0,0,0,.34,1.18,3.4,3.4,0,0,0,1.19,1.08c.06,0,0,.13,0,.13H10.81a.07.07,0,0,0-.07.06v3.89a.07.07,0,0,0,.07.07h7.69V62.12h2v4.21h7.7a.07.07,0,0,0,.07-.07ZM18.68,62a8,8,0,0,1-3.25-.92,2.09,2.09,0,0,1-.66-.61,1.49,1.49,0,0,1-.16-.68,1.56,1.56,0,0,1,.38-1,1.27,1.27,0,0,1,.84-.36h0a2,2,0,0,1,1.1.37,5.83,5.83,0,0,1,1.42,2.06,5.14,5.14,0,0,1,.4,1A.07.07,0,0,1,18.68,62Zm1.67.07c-.05,0-.1,0-.08-.08a5.53,5.53,0,0,1,.82-1.78,5.82,5.82,0,0,1,1-1.38,2,2,0,0,1,1.1-.37h0a1.21,1.21,0,0,1,.8.3,1.09,1.09,0,0,1,.31.74,1.83,1.83,0,0,1-.79,1.38A8.28,8.28,0,0,1,20.35,62Zm-3.82,9.73a.07.07,0,0,1-.13,0c-.06-.48-.23-1.6-.5-1.72s-1.2.46-1.65.77a.07.07,0,0,1-.1-.09l2-3.47a.07.07,0,0,0-.06-.11H12a.07.07,0,0,0-.07.07v10a.07.07,0,0,0,.07.07h6.5v-9Z"/><circle class="cls-18" cx="116.3" cy="23.22" r="15.59"/><g class="cls-19"><path class="cls-15" d="M108.58,28.19a1.1,1.1,0,0,0-1.56,0l-2.36,2.33a1.13,1.13,0,0,0-.33.66,28,28,0,0,1-3.06,3.5c-1.94,1.83-5.69,6.21-10.64,6.51a11.61,11.61,0,0,0-7,2.9L70.26,57.36A1.56,1.56,0,0,0,69.87,59c.41,1.13,1,2.63,4.51,6.16s5,4.15,6.1,4.57a1.55,1.55,0,0,0,1.63-.37l13.4-13.25a11.68,11.68,0,0,0,3-6.94c.36-4.95,4.78-8.65,6.63-10.57a30.26,30.26,0,0,1,3.53-3,1.14,1.14,0,0,0,.66-.32l2.36-2.33a1.11,1.11,0,0,0,0-1.56ZM91.33,58.78l-5,4.93a1.74,1.74,0,0,1-2.46,0l-1.17-1.18A5.46,5.46,0,0,1,77,56.83l-1.17-1.18a1.75,1.75,0,0,1,.06-2.46l5-4.94a1.74,1.74,0,0,1,2.46,0l.81.82a5.55,5.55,0,0,1,6.39,6.45l.81.82A1.75,1.75,0,0,1,91.33,58.78ZM97.81,47l-1.5-1.52a1.88,1.88,0,0,1-1.59-.5,1.92,1.92,0,0,1-.49-1.59l-1.49-1.52a13.56,13.56,0,0,0,3.78-1.73l.65.65a1.82,1.82,0,0,1,1.26.52,1.78,1.78,0,0,1,.5,1.27l.65.65A13.19,13.19,0,0,0,97.81,47Z"/><path class="cls-15" d="M122.12,12.74a12.43,12.43,0,0,0-2.24,1.57.76.76,0,0,0-.2.95l.39.71a.83.83,0,0,1-.29,1.09l-3.21,2.34a.81.81,0,0,0-.09,1.22l2.83,2.87a.81.81,0,0,0,1.21-.07L123,20.3a.83.83,0,0,1,1.1-.28l.7.39a.75.75,0,0,0,1-.18A12.65,12.65,0,0,0,127.32,18C127.8,16.87,123.26,12.28,122.12,12.74Z"/><path class="cls-15" d="M118.61,27.86l-6.85,2.26,7.21-.31a1,1,0,1,0-.36-1.95Z"/><path class="cls-15" d="M114.83,17.33a.82.82,0,0,0-.93.46l-4.43,10,5.86-9.25A.82.82,0,0,0,114.83,17.33Z"/><path class="cls-15" d="M110.77,29.12l5.6-3.79a.9.9,0,0,0,.23-1.25.89.89,0,0,0-1.4-.07Z"/></g><path class="cls-15" d="M68.4,43.31a5.8,5.8,0,0,1-.46,2.35,5.87,5.87,0,0,1-1.24,1.82,5.59,5.59,0,0,1-3.93,1.61,5.84,5.84,0,0,1-2.24-.42,5.07,5.07,0,0,1-1.77-1.19,5.38,5.38,0,0,1-1.17-1.82,6.34,6.34,0,0,1-.42-2.35,6.74,6.74,0,0,1,.42-2.43A5.41,5.41,0,0,1,58.76,39a5,5,0,0,1,1.77-1.2,5.66,5.66,0,0,1,2.24-.43,5.76,5.76,0,0,1,2.26.43A5.13,5.13,0,0,1,66.82,39,5.41,5.41,0,0,1,68,40.88,6.74,6.74,0,0,1,68.4,43.31Zm7.38-4.94a2.68,2.68,0,0,1,.59-.51,1.76,1.76,0,0,1,1-.23H81L63.32,60.37a2,2,0,0,1-.61.51,1.8,1.8,0,0,1-.87.2H58.1ZM64.57,43.31A5.74,5.74,0,0,0,64.44,42a2.37,2.37,0,0,0-.38-.86,1.22,1.22,0,0,0-.57-.45,1.88,1.88,0,0,0-.72-.13,1.83,1.83,0,0,0-.71.13,1.15,1.15,0,0,0-.54.45,2.56,2.56,0,0,0-.36.86A6.32,6.32,0,0,0,61,43.31a5.67,5.67,0,0,0,.13,1.28,2.47,2.47,0,0,0,.36.83,1.31,1.31,0,0,0,.54.43,1.83,1.83,0,0,0,.71.13,1.88,1.88,0,0,0,.72-.13,1.39,1.39,0,0,0,.57-.43,2.29,2.29,0,0,0,.38-.83A5.15,5.15,0,0,0,64.57,43.31ZM81.89,55.57a5.85,5.85,0,0,1-.46,2.36,6,6,0,0,1-1.24,1.84,5.64,5.64,0,0,1-3.93,1.6A5.89,5.89,0,0,1,74,61a5.23,5.23,0,0,1-1.77-1.18,5.6,5.6,0,0,1-1.16-1.84,6.39,6.39,0,0,1-.42-2.36,6.64,6.64,0,0,1,.42-2.42,5.69,5.69,0,0,1,1.16-1.86A5.44,5.44,0,0,1,74,50.09a6.26,6.26,0,0,1,4.51,0,5.42,5.42,0,0,1,1.79,1.2,5.55,5.55,0,0,1,1.17,1.86A6.86,6.86,0,0,1,81.89,55.57Zm-3.83,0a5.67,5.67,0,0,0-.13-1.34,2.55,2.55,0,0,0-.38-.86,1.22,1.22,0,0,0-.57-.45,1.88,1.88,0,0,0-.72-.13,1.83,1.83,0,0,0-.71.13,1.18,1.18,0,0,0-.55.45,2.56,2.56,0,0,0-.35.86,5.67,5.67,0,0,0-.13,1.34,5.18,5.18,0,0,0,.13,1.29,2.41,2.41,0,0,0,.35.82,1.28,1.28,0,0,0,.55.44,2,2,0,0,0,.71.12,2.09,2.09,0,0,0,.72-.12,1.34,1.34,0,0,0,.57-.44,2.41,2.41,0,0,0,.38-.82A5.18,5.18,0,0,0,78.06,55.57Z"/></svg>