<?xml version="1.0" encoding="utf-8"?>
<!-- Generator: Adobe Illustrator 25.2.1, SVG Export Plug-In . SVG Version: 6.00 Build 0)  -->
<svg version="1.1" id="Layer_1" xmlns="http://www.w3.org/2000/svg" xmlns:xlink="http://www.w3.org/1999/xlink" x="0px" y="0px"
	 viewBox="0 0 136.1 119.1" style="enable-background:new 0 0 136.1 119.1;" xml:space="preserve">
<style type="text/css">
	.st0{opacity:0.6;}
	.st1{fill:#5DC1D2;}
	.st2{opacity:0.7;fill:#DFE699;enable-background:new    ;}
	.st3{fill:#38378D;}
	.st4{fill:none;stroke:#FFFFFF;stroke-width:0.5;stroke-miterlimit:10;}
	.st5{opacity:0.1;fill:#04526F;enable-background:new    ;}
	.st6{fill:#A8B89A;}
	.st7{fill:#DC9F66;}
	.st8{fill:#FFFFFF;}
	.st9{fill:#1D1D1B;}
	.st10{fill:#B1CB08;}
	.st11{fill:#EBEAA0;}
	.st12{opacity:0.1;}
	.st13{fill:#04526F;}
	.st14{fill:#E71482;}
	.st15{fill:#F59B1A;}
	.st16{fill:#494B9A;}
	.st17{fill:#FFD402;}
</style>
<g id="Bob_2" class="st0">
	<path class="st1" d="M121.6,59.5c-2.8-13.3-8.1-19.5-15.8-21.5c-6-1.6-12.2,0.1-17.5-2.6c-3.9-2-8.8-6.2-13.6-8.1
		c-8.3-3.4-17.9-3.6-28.2-2.6c-30.4,3.2-35.8,28.8-33.4,43.1c2.2,10.7,6.7,18.5,14.5,20.6c6,1.6,12.2-0.1,17.5,2.6
		c3.9,2,8.8,6.2,13.6,8.1c8.3,3.5,17.9,3.6,28.2,2.5C117.2,98.5,124,73.8,121.6,59.5z"/>
</g>
<circle class="st2" cx="28.8" cy="28.9" r="17.5"/>
<rect x="21.1" y="80.5" class="st3" width="9.6" height="16.5"/>
<rect x="34.5" y="61.2" class="st3" width="9.6" height="35.8"/>
<rect x="47.9" y="72" class="st3" width="9.6" height="25"/>
<rect x="61.3" y="65.9" class="st3" width="9.6" height="31.1"/>
<rect x="74.8" y="56" class="st3" width="9.6" height="41"/>
<rect x="88.2" y="45.6" class="st3" width="9.6" height="51.3"/>
<rect x="101.6" y="72" class="st3" width="9.6" height="25"/>
<line class="st4" x1="11.2" y1="38.9" x2="123.1" y2="38.9"/>
<line class="st4" x1="11.2" y1="52.4" x2="123.1" y2="52.4"/>
<line class="st4" x1="11.2" y1="38.9" x2="123.1" y2="38.9"/>
<line class="st4" x1="11.3" y1="25.4" x2="123.2" y2="25.5"/>
<line class="st4" x1="11.2" y1="65.9" x2="123.1" y2="65.9"/>
<line class="st4" x1="11.2" y1="79.4" x2="123.1" y2="79.4"/>
<line class="st4" x1="11.2" y1="92.9" x2="126.3" y2="92.9"/>
<line class="st4" x1="11.2" y1="106.3" x2="123.1" y2="106.3"/>
<line class="st4" x1="25.6" y1="106.8" x2="25.6" y2="10.1"/>
<line class="st4" x1="39" y1="106.8" x2="39" y2="10.1"/>
<line class="st4" x1="52.5" y1="106.8" x2="52.5" y2="10.1"/>
<line class="st4" x1="66" y1="106.8" x2="66" y2="10.1"/>
<line class="st4" x1="79.5" y1="106.8" x2="79.5" y2="10.1"/>
<line class="st4" x1="92.9" y1="106.8" x2="93" y2="10.1"/>
<line class="st4" x1="106.4" y1="106.8" x2="106.4" y2="10.1"/>
<line class="st4" x1="92.9" y1="106.8" x2="93" y2="10.1"/>
<line class="st4" x1="106.2" y1="106.8" x2="106.2" y2="10.1"/>
<line class="st4" x1="119.5" y1="106.8" x2="119.5" y2="10.1"/>
<path class="st5" d="M47.9,26c0.3-0.4,0.5-0.9,0.5-1.5c0-0.1,0-0.1,0-0.2c0-0.1-0.1-0.2-0.2-0.2c-1.1-0.4-2.1-1-3.2-1.5
	c-0.7-0.3-2-0.7-2.3,0.2c-0.2,0.2-0.3,0.5-0.5,0.8c-5.4-0.5-11.3-0.3-11.8,1.7c0.1,0.6,0.4,1.3,0.8,1.8c-6.3,4.6-7.6,13.4-3,19.7
	c0.5,0.7,1.1,1.3,1.7,1.9l-0.2,0.5c0.1,0.1,0.2,0.3,0.3,0.4c-1,2.2-1.8,4.4-2.5,6.6c-0.2,0.4-0.3,0.8-0.1,1.2c-0.2,1.4,0.2,4-0.5,5
	c-0.4,0.7-0.7,0.5-0.9,1.2c-0.3,0.8,0,1.6,0.7,1s0.9-0.5,1.5-1c0.4-0.2,0.7-0.6,0.9-1c0-0.7,0.2-1.4,0.5-1.9c0.1-0.5,1.1-2,1.4-2.8
	c0.1-0.1,0.1-0.1,0.2-0.2c0.8-1.9,1.7-3.9,2.5-5.7l0.4,0.1c0.1-0.2,0.2-0.4,0.3-0.6l0.8,0.3c0,0.2,0,0.3,0,0.5l0.2,0.1
	c-0.5,1.9-1.1,4.1-1.6,6.2c0,0.2,0,0.3,0,0.4c-0.2,0.8-0.5,1.6-0.9,2.4c-0.3,0.7-0.8,1.3-1.3,1.9c-0.2,0.5-0.3,1-0.2,1.4
	c0,0.9-0.2,1.7-0.2,2.5c0,1,0.9,0.6,1.4-0.1c0.5-0.8,0.8-1.6,1-2.5c0.5-1.3,2.4-2.8,3.2-3.8c0,0,0-0.1,0-0.1
	c0.2-0.2,0.4-0.4,0.5-0.7c0.9-2.3,1.7-4.8,2.3-7.2c0.3-0.1,0.7-0.2,1-0.4l0,0c7.7-0.6,13.5-7.4,12.9-15.1c-0.1-0.8-0.2-1.5-0.4-2.3
	C55.6,33.8,50.6,28.3,47.9,26z M33.3,42c-1.9-3.4-0.8-7.7,2.6-9.7C35.4,34,35.6,39,34,42c-0.1,0.2-0.3,0.4-0.4,0.6
	C33.5,42.4,33.4,42.2,33.3,42z M43,44.8c-0.6,0.3-1.3,0.6-1.9,0.7c0-0.2,0-0.4,0-0.5c1.1-4.4,3.5-6.9,4.4-9.1c0.2,0,0.5,0.1,0.7,0.1
	C47.5,39.2,46.1,43,43,44.8z"/>
<path class="st3" d="M49.9,25.5c-3.8-6.8-12.4-9.2-19.2-5.4s-9.2,12.4-5.4,19.2s12.4,9.2,19.2,5.4c0,0,0,0,0,0
	C51.3,40.8,53.7,32.3,49.9,25.5z M31.4,35.9c-2-3.4-0.8-7.8,2.7-9.8c3.4-2,7.8-0.8,9.8,2.7c2,3.4,0.8,7.8-2.7,9.8c0,0,0,0,0,0
	C37.7,40.6,33.3,39.4,31.4,35.9C31.4,35.9,31.4,35.9,31.4,35.9L31.4,35.9z"/>
<path class="st6" d="M31.6,58.6c0.5-1.3,2.4-2.8,3.3-3.9c0.2-0.2-0.1-0.2-0.3-0.3c-0.4-0.3-2.4-1.9-2.4-1.8
	c-0.5,0.4-0.7,2.3-1.1,2.7c-0.3,0.7-0.8,1.3-1.3,1.9c-0.2,0.5-0.3,0.9-0.2,1.4c0,0.9-0.2,1.7-0.2,2.5c0,1,0.9,0.6,1.4,0
	C31.1,60.4,31.4,59.5,31.6,58.6z"/>
<path class="st6" d="M25,56.4c0.7-1.1,0.2-4.1,0.6-5.4c0.1-0.3,0.3,0,0.4,0c0.5,0.1,3.3,0.4,3.3,0.5c0,0.6-1.4,2.6-1.5,3.2
	c-0.4,0.6-0.5,1.3-0.5,1.9c-0.2,0.4-0.6,0.7-0.9,1c-0.6,0.5-0.9,0.5-1.5,1c-0.6,0.5-0.9-0.3-0.7-1C24.2,56.9,24.5,57.1,25,56.4z"/>
<path class="st7" d="M25.6,50.2c-1,1.9,1.9,3.7,3.8,1.5c2.2-5.2,5-11.2,5.6-11.8l0,0c-0.1-0.3,0-0.2,0.1-0.3c0.2,0.9-1.8,7.2-3.3,13
	c0.1,3,3,3.1,3.5,1.4c2.1-5.8,4.1-12.6,3.8-15.1c1.1-4.4,3.5-7,4.4-9.1c2.1,0.4,6.6-0.3,7.5-0.6c3.9-1.5-6.8-11.4-6.8-10.1
	c0,0.2-0.5,0.8-0.5,0.8c0.5,1.5,4.3,3.4,5.7,6.7c-2.3-0.5-4.6-0.5-6.9,0c-1.2-0.4-1-1.8-0.7-2.3c-0.8,0-1.6-0.4-2.1-1
	c-0.2,0.8-1.6,1.9-2.6,1C35,21,32.9,21,32.2,19.9c-0.5-0.6,8.1-1.4,9.8-1.3c0.1-0.1-1.2-1.1-1.2-1C35.2,17,29,17.1,28.4,19.3
	c0.2,1.3,2,3.9,5.6,6.8c-0.5,1.4-0.3,6.7-1.9,9.8C29.4,40.4,27.2,45.2,25.6,50.2z"/>
<path class="st8" d="M31.9,36.4c2.2,1.3,4.7,2.3,7.2,2.8c0.2,2.4,0.1,4.8-0.4,7.2c-1.7,0.9-3.8,0.8-5.4-0.1c0.1-1.4,0.4-1.9,0.6-3.5
	c-0.6,1.3-0.9,1.6-1.6,3.2c-2.7-0.7-3.7-1.7-4.4-3C29,40.2,30.2,38.7,31.9,36.4z"/>
<path class="st9" d="M45.1,21.2c0.7-0.8,1.2-1.7,1.4-2.7c0-0.1,0-0.1,0-0.2c0-0.1-0.1-0.2-0.2-0.2c-1.1-0.5-2.2-1.1-3.2-1.5
	c-0.7-0.3-2-0.7-2.3,0.2c-1,1.2-1.3,2.9-0.9,4.4c0.4,1.1,1.3,2.2,2.6,1.9C43.6,22.8,44.5,22.1,45.1,21.2z"/>
<path class="st7" d="M44.1,21.9c0.6-1.3,1.4-2.3-0.3-3c-2.1-1.2-2.9-0.6-3.3,0.5c-0.1,0.2-1.1,3.1-0.8,3.6l0.1,0.1
	c0.8,1.1,2.6,0.9,3.5,0C43.4,23.2,44.1,22,44.1,21.9z"/>
<path class="st9" d="M44.4,21.9c0.1-0.2,0.2-0.7,0-0.6c-0.7,0.7-1.1,1.5-2.8,0.6c-1.6-0.7-1.3-1.7-1.2-2.4c0-0.1-0.6,0.2-0.6,0.3
	c-0.3,0.8-0.5,1.7-0.5,2.5c0,0.7,0.3,1.4,0.9,1.9c0.6,0.5,1.4,0.7,2.1,0.4C43.1,24.4,44.3,22.2,44.4,21.9z M42.2,22.8
	c-0.3,0.5-0.4,0.8-1.1,0.4s-0.6-0.6-0.3-1.1C41.3,22.3,41.7,22.5,42.2,22.8z"/>
<path class="st5" d="M115.3,56h-0.1l-0.1-0.2l0,0l-0.3-1.2l0,0l-0.3-1c0.1-0.2,0.1-0.3,0.2-0.5c0.1-0.2-0.1-0.4-0.3-0.2l-0.1,0.1
	l-0.3-1.2c-0.1-0.5-0.6-0.9-1-0.8l-14.2,3.8c-0.5,0.2-0.8,0.7-0.7,1.2l0.7,2.6h-0.1l0.3,1.2H99l0.3,0.9l-0.1,0.1
	c-0.5,0.4-0.6,1.1-0.2,1.6c0.2,0.2,0.4,0.4,0.7,0.4l0.2,0.1v0.1h-0.1l0.3,1.2h0.1l2,7.5l0,0l0.3,1.2l0,0l0.9,3.2c0,0-0.1,0-0.1,0.1
	l0.3,1.2h0.1l0.8,3h-0.1l0.3,1.2h0.1l0.9,3.4h-0.1l0.3,1.2h0.1l2,7.4l0,0l0.3,1.2l0,0l0.8,2.9c0.2,0.5,0.7,0.8,1.2,0.7l3.2-0.9
	c0.6,0.9,1.1,1.7,1.5,2.4c0,0.4,0.1,0.8,0.3,1.1c0.3,0.3,0.5,0,0.6-0.3c0.1-0.5,0-1-0.1-1.5c-0.4-0.7-0.8-1.4-1.1-2l3.3-0.9
	c0.4,1.6,1,3.4,1.7,5.3l0,0l0,0c0.2,0.4,0.6,0.8,1.1,0.9c0.1,0,0.1-0.3,0.1-0.4c-0.1-0.5-0.4-0.9-0.7-1.2c-0.3-1.7-0.5-3.5-0.7-5.2
	l4.9-1.3c0.4-0.2,0.7-0.7,0.5-1.1l-0.7-2.7h0.1l-0.3-1.2h-0.1l-0.8-3h0.2l-0.3-1.2h-0.2l-0.9-3.3h0.1L122,81h-0.1l-0.9-3.4l0,0
	l-0.3-1.2l0,0l-0.9-3.1l0,0l-0.3-1.2l0,0l-0.9-3.2h0.1l-0.3-1.2h-0.1l-0.7-2.7h0.2l-0.3-1.2h-0.1l-1-3.7h0.1L116,59H116l-0.2-0.7
	l0.3-0.3c0.4-0.5,0.4-1.2-0.1-1.7C115.8,56.1,115.5,56,115.3,56z"/>
<path class="st10" d="M107.4,98.3c0.2,0.5,0.7,0.8,1.2,0.6l14.2-3.8c0.4-0.2,0.7-0.7,0.5-1.1l-11.3-41.9c-0.1-0.5-0.6-0.9-1-0.8
	l-14.2,3.8c-0.5,0.2-0.8,0.7-0.7,1.2L107.4,98.3z"/>
<path class="st11" d="M97.1,60.4l-0.3-1.2c2.8-0.9,5.6-1.5,8.3-2.2c2.6-0.7,5.1-1.8,7.8-1.9l0.3,1.2c-1.2,0.1-2.3,0.3-3.4,0.6
	c-1.6,0.5-3.1,1-4.7,1.4C102.4,58.9,99.7,59.6,97.1,60.4z"/>
<path class="st11" d="M98.3,64.8L98,63.6c2.7-0.9,5.6-1.5,8.3-2.2c2.6-0.7,5.1-1.8,7.8-1.9l0.3,1.2c-1.2,0.1-2.3,0.3-3.4,0.6
	c-1.6,0.5-3.1,1-4.7,1.4C103.7,63.4,101,64,98.3,64.8z"/>
<path class="st11" d="M99.7,69.7l-0.3-1.2c2.7-0.9,5.6-1.5,8.3-2.2c2.6-0.7,5.1-1.8,7.8-1.9l0.3,1.2c-1.2,0-2.3,0.3-3.4,0.6
	c-1.6,0.5-3.1,1-4.7,1.4C105,68.2,102.4,68.9,99.7,69.7z"/>
<path class="st11" d="M100.7,73.6l-0.3-1.2c2.7-0.9,5.6-1.5,8.3-2.2c2.6-0.7,5.1-1.8,7.8-1.9l0.3,1.2c-1.2,0.1-2.3,0.3-3.4,0.6
	c-1.6,0.5-3.1,1-4.7,1.4C106.1,72.1,103.4,72.8,100.7,73.6z"/>
<path class="st11" d="M101.8,78l-0.3-1.2c2.7-0.8,5.6-1.5,8.3-2.2c2.6-0.7,5.1-1.8,7.8-1.9l0.3,1.2c-1.2,0.1-2.3,0.3-3.4,0.6
	c-1.6,0.5-3.1,1-4.7,1.4C107.2,76.5,104.5,77.2,101.8,78z"/>
<path class="st11" d="M103,82.2l-0.3-1.2c2.7-0.8,5.6-1.5,8.3-2.2c2.6-0.7,5.1-1.8,7.8-1.9l0.3,1.2c-1.2,0-2.3,0.3-3.4,0.6
	c-1.6,0.5-3.1,1-4.7,1.4C108.3,80.8,105.6,81.4,103,82.2z"/>
<path class="st11" d="M104.3,86.8l-0.3-1.2c2.7-0.9,5.6-1.5,8.3-2.2c2.6-0.7,5.1-1.8,7.8-1.9l0.3,1.2c-1.2,0.1-2.3,0.3-3.4,0.6
	c-1.6,0.5-3.1,1-4.7,1.4C109.6,85.4,106.9,86,104.3,86.8z"/>
<path class="st11" d="M105.6,91.3l-0.3-1.2c2.7-0.8,5.6-1.5,8.3-2.2c2.6-0.7,5.1-1.8,7.8-1.9l0.3,1.2c-1.2,0.1-2.3,0.3-3.4,0.6
	c-1.6,0.5-3.1,1-4.7,1.4C111,89.8,108.3,90.5,105.6,91.3z"/>
<path class="st11" d="M106.6,95.4l-0.3-1.2c2.7-0.9,5.6-1.5,8.3-2.2c2.6-0.7,5.1-1.8,7.8-1.9l0.3,1.2c-1.2,0.1-2.3,0.3-3.4,0.6
	c-1.6,0.5-3.1,1-4.7,1.4C112,94,109.3,94.7,106.6,95.4z"/>
<path class="st7" d="M113.3,72.5c-0.7-1.7-3.7-0.2-3.4,2.3c0.9,4.9,2.5,9.7,4.8,14.1c0.7,4.5,1.9,9,3.5,13.3c0,0,0,0,0,0l0,0
	c0.2,0.4,0.6,0.8,1.1,0.9c0.1,0,0.1-0.3,0.1-0.4c-0.1-0.5-0.4-0.9-0.7-1.2c-0.8-3.8-0.6-9-2.3-13.2
	C116.4,81.4,113.2,71.9,113.3,72.5z"/>
<path class="st7" d="M104.9,86.4c0.3,0.5,5.7,10,8.5,14.1c0,0.4,0.1,0.8,0.3,1.1c0.3,0.3,0.5,0,0.5-0.3c0.1-0.5,0-1-0.1-1.5
	c-2.9-4.9-2.6-7.8-6.1-13.9c1.3-5.2,2.2-7.1,2.4-8.9c-0.5-2.2-4.3-3.5-4.5-2.8C105.3,76.6,104.6,85.5,104.9,86.4z"/>
<path class="st9" d="M104.6,53.7c-2.7,0.8-2.5,4.9-1.7,6.9l0,0c0.2,0.5,2.3,0.8,3.3,0.2c1.1-0.1,3-1.4,2.8-1.6
	C108.9,57.1,107.2,53,104.6,53.7z"/>
<path class="st7" d="M113.4,56.5l-6.8-1c-0.1-0.3-0.5-0.5-0.8-0.4c-0.1,0-0.2,0.1-0.2,0.2c-0.3,0.8-0.9,1.4-1.7,1.8
	c0.2,0.8,0.4,2,1.6,2.2c0.1,0.4,0.2,0.7,0.2,1.1c0.1,0.4-0.7,1.3-2.2,1.7c-1.5,0.4-3.1,0.5-4.6,0.2c-0.6-0.2,2.3-2.8,3.7-3.8v-1.2
	c-1.8,1.2-3.4,2.5-5,4c-0.5,0.4-0.6,1.1-0.2,1.6c0.2,0.2,0.4,0.4,0.7,0.4c1.9,0.7,3.8,1.2,5.8,1.4c0.4,0.6,2.9,4.3,2.8,4.7
	c-0.2,0.6,3.5-0.9,3.5-0.9c-0.4-1.4,0.4-3.9,0.5-5.2l0,0c0-0.3,0-0.6,0-0.9c1.3-1.3,2.5-2.7,3.8-4.1c0.4-0.5,0.4-1.2,0-1.7
	C114,56.6,113.7,56.5,113.4,56.5z M108.3,60.6c-1.1,0.1-1.2-0.2-1.4-0.3c-0.2-0.4-0.4-0.8-0.5-1.2c0.5-0.3,0.5-1.4,0.5-2.3
	c1.7,0,6.8,0.6,5.8,1.3C111.4,59.3,109.9,60.2,108.3,60.6z"/>
<path class="st8" d="M102.5,55.9c0.1-1.5,1.5-2.5,2.9-2.4c0.9,0.1,1.7,0.6,2.1,1.4c1.8,0,3.6-0.6,5-1.6c0.2-0.2,0.4,0,0.3,0.2
	c-0.3,1.4-2.1,3.2-5.1,3.5c-1.2,0.2-2.5,0.1-3.8,0.1c-2.1,0.2-4.1,0.9-5.9,2.1c-0.2,0.2-0.4,0-0.4-0.1
	C98.5,56.9,100.6,56.3,102.5,55.9z"/>
<path class="st8" d="M110.4,63c-1.5-1.2-6,0.3-7,1.7c0.8,1.5,1.8,2.9,2.8,4.3c0.7,0.7-1,3-0.5,6.1c1.7,0.1,3.3,0.7,4.7,1.6
	c0.7-1.5,1.7-2.9,3-4c-0.2-1.7-3.1-3.8-3.6-4.7C109.6,66.8,110.5,63.6,110.4,63L110.4,63z"/>
<circle class="st5" cx="57.6" cy="96.9" r="13.9"/>
<circle class="st8" cx="54" cy="93.9" r="14.3"/>
<path class="st10" d="M62.4,82.3l-8,10.3l4.4-12.2c-1.6-0.6-3.2-0.9-4.8-0.9c-1.9,0-3.7,0.4-5.4,1.1l4.8,11.8l-8.3-9.8
	c-2.8,2.2-4.6,5.3-5.2,8.8l13.8,1.9l0,0l-13.9,1.9c0.3,3.6,2.1,7,4.8,9.4l9.2-11l0,0L48.4,107c3.4,1.4,7.1,1.5,10.6,0.2l-4.9-13.6
	v-0.1l8.8,11.4c2.9-2.3,4.7-5.6,5.2-9.3l-13.3-2.4L67.9,91C67.2,87.5,65.2,84.4,62.4,82.3z"/>
<g class="st12">
	<path class="st13" d="M74.8,46.7c-4.8-3.5-11.6-2.4-15.1,2.4c-3.5,4.8-2.4,11.6,2.4,15.1c4.8,3.5,11.6,2.4,15.1-2.4c0,0,0,0,0,0
		C80.7,56.9,79.6,50.2,74.8,46.7z M65.2,59.9c-2.5-1.8-3-5.2-1.3-7.7c1.8-2.5,5.2-3,7.7-1.3c2.5,1.8,3,5.2,1.3,7.7c0,0,0,0,0,0
		C71.1,61.1,67.7,61.7,65.2,59.9C65.2,59.9,65.2,59.9,65.2,59.9L65.2,59.9z"/>
</g>
<path class="st14" d="M64.7,59.7c6,0,10.8-4.8,10.8-10.8c0-0.1,0-0.2,0-0.2l-5.4-0.1c0.1,1.2-0.2,2.5-1,3.5c-1,1.4-2.7,2.3-4.5,2.3
	L64.7,59.7z"/>
<path class="st15" d="M64.8,38c-6,0-10.8,4.8-10.8,10.8c0,6,4.8,10.8,10.8,10.8l-0.1-5.3c-3,0-5.5-2.5-5.5-5.5c0-3,2.5-5.5,5.5-5.5
	l0,0"/>
<path class="st16" d="M68.6,44.9c1,1,1.6,2.3,1.7,3.7h5.3c0-2.8-1.2-5.5-3.2-7.5L68.6,44.9z"/>
<path class="st17" d="M64.7,43.3c1.2,0,2.3,0.4,3.2,1.1c0.2,0.2,0.4,0.3,0.6,0.5l3.7-3.7c-0.4-0.4-0.8-0.7-1.2-1.1
	c-1.8-1.3-4-2.1-6.3-2.1L64.7,43.3z"/>
<circle class="st3" cx="90.7" cy="30.5" r="13.5"/>
<rect x="84.3" y="31.1" transform="matrix(1.221725e-03 -1 1 1.221725e-03 55.3984 121.0156)" class="st8" width="8" height="3.4"/>
<rect x="81.6" y="32.9" transform="matrix(1.221725e-03 -1 1 1.221725e-03 49.1458 118.3874)" class="st8" width="4.4" height="3.4"/>
<rect x="89.6" y="31.9" transform="matrix(1.221725e-03 -1 1 1.221725e-03 58.9379 126.3014)" class="st8" width="6.3" height="3.4"/>
<rect x="92.6" y="30.6" transform="matrix(1.221725e-03 -1 1 1.221725e-03 64.7418 129.3776)" class="st8" width="9" height="3.4"/>
<polygon class="st8" points="88.2,25.3 92.7,29 99,23 98.2,22.1 92.6,27.4 88.2,23.8 81.7,30 82.5,30.8 "/>
</svg>
