<svg id="Layer_1" data-name="Layer 1" xmlns="http://www.w3.org/2000/svg" viewBox="0 0 1218.9 657.64"><defs><style>.cls-1{fill:#8dc044;}.cls-2{fill:#afdff9;}.cls-3{fill:#fff;}.cls-4{fill:#6cb53d;}.cls-5{fill:#32a943;}.cls-6{fill:#dfe699;}.cls-7{fill:#048863;}.cls-8{opacity:0.63;}.cls-9{fill:#84aa5a;}.cls-10,.cls-14{fill:#4e6b81;}.cls-10{opacity:0.7;isolation:isolate;}.cls-11{fill:#62bc99;}.cls-12{fill:#204a27;}.cls-13{fill:#438d40;}.cls-15{fill:#d1d2eb;}.cls-16{fill:#38378d;}.cls-17{fill:#e9e9f6;}.cls-18{fill:#f59c1d;}.cls-19{fill:#1d1d1b;}.cls-20{fill:#f59b1a;}</style></defs><g id="Background"><path class="cls-1" d="M293.73,71.63H339A332,332,0,0,0,293.73,71.63Z"/><path class="cls-2" d="M131.75,145.16A319.59,319.59,0,0,0,103,187.67c45.15-7.67,93.62,16.87,97.89,76.18,12-10.22,39.89-11.57,48.31,3.23-7.29-16,27.73-49.15,57.38-31.82,1.19.69,9.49,5,9.88,6,16-24.57,49.34-21.7,59.71.12,8.44-7.74,27.49-5,35.37,4.25a103.59,103.59,0,0,1,10.76-3.17c18.44-20.18,44.21-12,56.08,3.6a65.35,65.35,0,0,1,23.88,17.46c31.91,37.08-3.17,37.41,44.87,17.33,18.38-7.68,34.17-8.77,47.14-6.16,12.64-9.24,33.43-12.41,44.22-3.48,8.44-20.27,59.34-27.23,70.56,2,1.7-51.26,46.62-60.48,77.58-41,2.42-25.93,54.49-32.59,69.48-5.33,0,0,.33,1,.49,1.53l.17.09c2.44-8.68,12-15.79,24.62-20.5a28.6,28.6,0,0,1,10.45-15.31c10.2-7.4,25.38-7.18,35.33.5-.46-4.07.31-8.26,3.55-10.83a12.78,12.78,0,0,1,11.75-2.06v-2.06c-68.6,1.46-149,12.68-229.79-10.6-47.85-13.79-70.91-32-107.09-52.66-10-5.74-92.38-71.22-231.91-70.14C210.29,46.06,145.08,128.55,131.75,145.16Z"/><path class="cls-1" d="M570.71,340.5H61.11v.32H571.17Z"/><path class="cls-1" d="M705.11,340.82H1040v-.32H706.58Z"/><path class="cls-1" d="M227.83,270a8.72,8.72,0,0,0,.75,1.33A11.61,11.61,0,0,0,227.83,270Z"/><path class="cls-3" d="M627.7,340.46c.16.13.34.23.5.36H777.13l1.63-.36h370.69c-3.31-34.24-16.77-59.94-21.57-68.94-3.87-7.26-28.38-54.47-81.27-81-29.68-14.92-65.78-17.43-106-16.58a17.53,17.53,0,0,0,0,2.05A12.66,12.66,0,0,0,929,178c-3.22,2.55-4,6.71-3.53,10.75-9.88-7.62-24.93-7.83-35.06-.49A28.42,28.42,0,0,0,880,203.41c-12.57,4.68-22,11.74-24.42,20.34l-.18-.09-.48-1.51c-14.87-27.05-66.53-20.44-68.94,5.29-30.71-19.29-75.29-10.15-77,40.72-11.14-29-61.64-22.1-70-2-10.7-8.86-31.33-5.72-43.87,3.46-12.87-2.59-28.53-1.51-46.77,6.11-47.66,19.92-12.86,19.59-44.51-17.2a64.75,64.75,0,0,0-23.7-17.32c-11.77-15.49-37.34-23.6-55.63-3.58a104.55,104.55,0,0,0-10.68,3.15c-7.82-9.17-26.72-11.89-35.1-4.21-10.28-21.65-43.34-24.5-59.23-.12-.39-1-8.63-5.27-9.8-6-29.43-17.19-64.17,15.74-56.94,31.57.28.49.6,1,.84,1.48a10.26,10.26,0,0,1-.84-1.48c-8.36-14.69-36.06-13.34-47.93-3.2-4.24-58.84-52.32-83.19-97.12-75.59-27.06,47.72-43,103-46.62,157.18H627.7Z"/><path class="cls-1" d="M1150.61,343.25c-.07-.83-.18-1.62-.27-2.43H61.17C59,370.45,70.49,440.17,72,445.67l286.75-10,793.05-51.82A359.59,359.59,0,0,0,1150.61,343.25Z"/><path class="cls-4" d="M1063.45,530.28a207.45,207.45,0,0,0,54.79-41.37c23.83-25.47,32.45-65.72,33.6-105.06l-793,51.82L72,445.67c13.19,54,50.18,81.44,54.4,84.61h937.05Z"/><path class="cls-5" d="M679,530.28H126.44c1.52,1.15,3,2.2,4.45,3.19a128.42,128.42,0,0,0,11.84,7.16c3,1.58,6.13,3.15,9.58,4.69,1.59.71,3.23,1.42,4.94,2.12,2,.81,4,1.62,6.19,2.41l1.53.56.64.23.54.19a301.66,301.66,0,0,0,45.44,11.74c75.49,14,506.43,19.43,636.85,10.24,48-3.39,125.38-4.15,192.94-32.18,7.49-3.11,14.88-6.52,22.07-10.35Z"/><path class="cls-6" d="M168.78,139.24c10.51-24.18,29.54-40,43.28-42.62v-.4h1.7v.14a18.38,18.38,0,0,1,2.22-.14c15.28,0,19.72,16.44,27.22,43,6.33,24.9,15.34,58.7,23.72,96.22v102a97.14,97.14,0,0,1-3.74,9.45c-11.54,26.58-33.4,43-47.2,43a18.38,18.38,0,0,1-2.22-.14v52.88h-1.7V389.57c-12.19-2.68-16.48-18.46-23.3-42.61-6.75-26.58-16.56-63.3-25.4-103.86S156.49,165.82,168.78,139.24Z"/><path class="cls-7" d="M91.24,203.16c15.71-27.83,48.53-48.77,86.83-48.43,38-.33,70.64,20.31,86.47,47.83V306.71c-12.69,29.09-30.59,52.94-45.16,71-16.53,19.5-29,32.14-41.31,32.06-12.26.08-24.78-12.56-41.31-32.06-15.91-19.72-35.82-46.3-48.55-79.1C75.56,266.11,74.84,231.19,91.24,203.16Z"/><g class="cls-8"><path class="cls-9" d="M184.86,247.34l1.92,1c-18.7,33.94-9.15,68.63.09,102.17,6.16,22.38,12.46,69.72,10.57,92.65a14.53,14.53,0,0,0-2.26.43c2-22.81-4.26-70.14-10.42-92.5C175.41,317.18,165.74,282.06,184.86,247.34Z"/><path class="cls-9" d="M179.26,327.05c15.71-10.77,23.53-27,30.43-41.3,1-2.11,2-4.2,3-6.24,4-9,8.8-18.34,14.25-27.93.69-1.21.81-1.43.49-2l-1.88,1.12.93-.57-1-.46-.46.82c-5.48,9.64-10.3,19.09-14.32,28.07-1,2-2,4.1-3,6.23-6.77,14.06-14.46,30-29.69,40.44Z"/><path class="cls-9" d="M189.58,363l.1-2.17c-.86-.18-10.69-4.69-28.79-19.43-18.68-16.32-40.17-39.64-40.21-75.25h-2.19c.05,36.49,21.93,60.27,41,76.91C176.68,357,188,363,189.58,363Z"/><path class="cls-9" d="M193,380.22c28.42-21.18,33.32-38.74,33.71-47.33v-.37l-1.05-.13V331.2c-1.09,0-1.14,1.07-1.16,1.59-.3,6.6-4.1,24.27-32.84,45.69Z"/></g><path class="cls-7" d="M264.54,202.56a94.8,94.8,0,0,0-36.6-35.26c4.48,10.11,13.65,18.94,12.87,29.94-.52,7.37-5.5,13.57-10.22,19.26-7.51,9.06-15,18.39-19.37,29.31s-5.16,23.84.61,34.09c4.76,8.45,13.65,14.69,15.91,24.12,2.21,9.26-2.67,18.63-3.54,28.11-.9,9.86,3,19.47,9.56,26.91,10.87-14.87,22.06-32.33,30.78-52.33Z"/><path class="cls-10" d="M264.54,202.56a94.8,94.8,0,0,0-36.6-35.26c4.48,10.11,13.65,18.94,12.87,29.94-.52,7.37-5.5,13.57-10.22,19.26-7.51,9.06-15,18.39-19.37,29.31s-5.16,23.84.61,34.09c4.76,8.45,13.65,14.69,15.91,24.12,2.21,9.26-2.67,18.63-3.54,28.11-.9,9.86,3,19.47,9.56,26.91,10.87-14.87,22.06-32.33,30.78-52.33Z"/><path class="cls-11" d="M313.32,44.48a33.29,33.29,0,0,0-50.59,0l-.21.25C253.31,55.66,248.11,71.07,253,84.5c2.49,6.89,7.51,13.14,7.56,20.47.09,12.43-13.28,19.92-20.72,29.89a35.37,35.37,0,0,0-4.14,34.22c4.38,10.35,13.92,19.31,13.13,30.52-.52,7.37-5.5,13.56-10.22,19.26-7.5,9.06-15,18.39-19.37,29.31s-5.16,23.84.61,34.09c4.76,8.45,13.65,14.69,15.91,24.12,2.21,9.26-2.66,18.63-3.54,28.11-1.64,17.89,12.46,35,29.87,39.66a48.37,48.37,0,0,0,23.4.11,11,11,0,0,1,5.11,0,48.33,48.33,0,0,0,23.39-.11c17.42-4.63,31.51-21.77,29.87-39.66-.87-9.48-5.75-18.85-3.53-28.11,2.25-9.43,11.14-15.67,15.9-24.12,5.77-10.25,5-23.17.61-34.09S345,227.92,337.46,218.86c-4.72-5.7-9.71-11.89-10.23-19.26-.79-11.21,8.76-20.17,13.14-30.52a35.34,35.34,0,0,0-4.15-34.22c-7.43-10-20.8-17.46-20.72-29.89.05-7.33,5.07-13.58,7.57-20.47,4.87-13.43-.34-28.84-9.54-39.77Z"/><rect class="cls-12" x="285.79" y="48.06" width="2.69" height="395.06"/><polygon class="cls-12" points="286.24 108.47 265.59 78.82 267.8 77.29 288.45 106.93 286.24 108.47"/><polygon class="cls-12" points="286.11 212.2 254.96 152.29 257.35 151.05 288.5 210.96 286.11 212.2"/><rect class="cls-12" x="266.34" y="152.26" width="2.69" height="20.54" transform="translate(-3.04 5.12) rotate(-1.09)"/><polygon class="cls-12" points="288.31 271.78 286.3 270 329.06 221.93 331.08 223.72 288.31 271.78"/><rect class="cls-12" x="292.59" y="230.09" width="34.67" height="2.69" transform="translate(19.51 486.93) rotate(-78.09)"/><polygon class="cls-12" points="285.69 325.19 246.61 269.58 248.81 268.04 287.9 323.65 285.69 325.19"/><rect class="cls-12" x="253.14" y="247.18" width="2.69" height="36.03" transform="translate(-50.97 60.78) rotate(-12.39)"/><polygon class="cls-12" points="288.53 352.21 286.25 350.78 328.19 284.94 330.46 286.38 288.53 352.21"/><rect class="cls-12" x="309.39" y="291.73" width="21.13" height="2.7" transform="matrix(0.21, -0.98, 0.98, 0.21, -33.82, 544.31)"/><polygon class="cls-12" points="288.52 119.92 286.32 118.36 309.33 86.25 311.53 87.81 288.52 119.92"/><rect class="cls-12" x="292.45" y="83.2" width="25.17" height="2.69" transform="translate(184.25 377.13) rotate(-83.06)"/><path class="cls-13" d="M782.75,341.72c.09-11.73,12-21.91,23.58-20.21-.24-8.84,8.61-16.77,17.37-15.58.06-14.67,14.52-27,29.18-26.63s27.78,11.69,32.37,25.62c8.46-5.7,22,1.78,21.74,12,6.26-5.81,17-3.71,23.13,2.18s9.08,14.38,11.64,22.53Z"/><path class="cls-13" d="M1007.46,341.83c.08-10.57,10.8-19.75,21.26-18.21-.21-8,7.76-15.13,15.66-14.06,0-13.22,13.09-24.32,26.31-24s25,10.54,29.18,23.1c7.63-5.14,19.87,1.61,19.6,10.8,5.64-5.24,15.29-3.35,20.85,2s8.19,13,10.5,20.3Z"/><path class="cls-13" d="M908.55,341.61c.08-10.58,10.8-19.76,21.26-18.22-.22-8,7.76-15.13,15.66-14.05,0-13.22,13.08-24.32,26.3-24s25.05,10.53,29.19,23.09c7.62-5.14,19.87,1.61,19.6,10.8,5.64-5.24,15.28-3.35,20.85,2s8.19,13,10.49,20.3Z"/><ellipse class="cls-14" cx="367.4" cy="613.9" rx="195.3" ry="9.52"/><rect class="cls-15" x="470.87" y="492.53" width="14.68" height="121.15"/><path class="cls-15" d="M566.76,472.71H172.32a10.65,10.65,0,0,0-.65,21.29h59.44V613.56h0c.14,1.29,3.35,2.32,7.32,2.32s7.18-1,7.32-2.32h0V494h321a10.65,10.65,0,0,0,0-21.29Z"/><ellipse class="cls-15" cx="478.21" cy="613.6" rx="7.34" ry="2.4"/></g><g id="Layer_2" data-name="Layer 2"><polygon class="cls-3" points="755.37 67.03 453.45 68.54 456.58 565.51 757.21 564.01 755.37 67.03"/><path class="cls-16" d="M707.49,535.29l-194.41,1a17.38,17.38,0,1,1-.17-34.76h0l193.77-1a17.31,17.31,0,0,1,17.46,17.14v.16C724.19,527.48,716.51,535.25,707.49,535.29Z"/><path class="cls-3" d="M603.72,510.06h7.73a5.07,5.07,0,0,1,5.17,5v7.88a5.07,5.07,0,0,1-5,5.17h-7.88a5.06,5.06,0,0,1-5.17-5v-7.9C598.58,512,600.5,510.07,603.72,510.06Z"/><path class="cls-17" d="M716,115.71H495.27c-3.12,0-5.64-1.58-5.64-3.53h0c0-1.94,2.52-3.52,5.64-3.52H716c3.11,0,5.64,1.58,5.64,3.52h0C721.6,114.13,719.07,115.71,716,115.71Z"/><path class="cls-17" d="M716,131.82H495.27c-3.12,0-5.64-1.58-5.64-3.53h0c0-1.94,2.52-3.52,5.64-3.52H716c3.11,0,5.64,1.58,5.64,3.52h0C721.6,130.24,719.07,131.82,716,131.82Z"/><path class="cls-17" d="M682.08,147.93H495.27c-3.12,0-5.64-1.58-5.64-3.52h0c0-1.95,2.52-3.53,5.64-3.53H682.08c3.11,0,5.64,1.58,5.64,3.53h0C687.72,146.35,685.19,147.93,682.08,147.93Z"/><path class="cls-17" d="M716,315.4H495.27c-3.12,0-5.64-1.58-5.64-3.53h0c0-1.94,2.52-3.52,5.64-3.52H716c3.11,0,5.64,1.58,5.64,3.52h0C721.6,313.82,719.07,315.4,716,315.4Z"/><path class="cls-17" d="M716,331.51H495.27c-3.12,0-5.64-1.58-5.64-3.53h0c0-1.94,2.52-3.52,5.64-3.52H716c3.11,0,5.64,1.58,5.64,3.52h0C721.6,329.93,719.07,331.51,716,331.51Z"/><path class="cls-17" d="M682.08,347.62H495.27c-3.12,0-5.64-1.58-5.64-3.52h0c0-2,2.52-3.53,5.64-3.53H682.08c3.11,0,5.64,1.58,5.64,3.53h0C687.72,346,685.19,347.62,682.08,347.62Z"/><path class="cls-17" d="M597.19,416.08H495.27c-3.12,0-5.64-1.58-5.64-3.52h0c0-1.95,2.52-3.53,5.64-3.53H597.19Z"/><path class="cls-17" d="M636.93,409h79c3.11,0,5.64,1.58,5.64,3.53h0c0,1.94-2.53,3.52-5.64,3.52h-79Z"/><path class="cls-17" d="M716,432.19H495.27c-3.12,0-5.64-1.57-5.64-3.52h0c0-1.95,2.52-3.52,5.64-3.52H716c3.11,0,5.64,1.57,5.64,3.52h0C721.6,430.62,719.07,432.19,716,432.19Z"/><path class="cls-17" d="M682.08,448.3H495.27c-3.12,0-5.64-1.57-5.64-3.52h0c0-1.95,2.52-3.52,5.64-3.52H682.08c3.11,0,5.64,1.57,5.64,3.52h0C687.72,446.73,685.19,448.3,682.08,448.3Z"/><path class="cls-17" d="M716,216.39H495.27c-3.12,0-5.64-1.58-5.64-3.52h0c0-2,2.52-3.53,5.64-3.53H716c3.11,0,5.64,1.58,5.64,3.53h0C721.6,214.81,719.07,216.39,716,216.39Z"/><path class="cls-17" d="M716,232.5H495.27c-3.12,0-5.64-1.58-5.64-3.52h0c0-1.95,2.52-3.52,5.64-3.52H716c3.11,0,5.64,1.57,5.64,3.52h0C721.6,230.92,719.07,232.5,716,232.5Z"/><path class="cls-17" d="M682.08,248.61H495.27c-3.12,0-5.64-1.57-5.64-3.52h0c0-2,2.52-3.52,5.64-3.52H682.08c3.11,0,5.64,1.57,5.64,3.52h0C687.72,247,685.19,248.61,682.08,248.61Z"/><circle class="cls-18" cx="607.42" cy="281.52" r="135.81"/><path class="cls-3" d="M593.54,286.29l-2.7.71a35.07,35.07,0,0,1-15.49.43c-12.44-2.48-21.47-9.5-27.12-20.82a35.29,35.29,0,0,1-3.47-12.77A36.61,36.61,0,0,1,549,232.91a37.12,37.12,0,0,1,20.33-17.72c.74-.28,1.49-.51,2.24-.72a.67.67,0,0,0,.54-.78h0A37.57,37.57,0,0,1,598,177.09a34.14,34.14,0,0,1,8-1.63c1.15-.09,2.3-.2,3.44-.2a36.55,36.55,0,0,1,16.5,3.74,37.17,37.17,0,0,1,18.93,21,35.86,35.86,0,0,1,2.21,11.36.81.81,0,0,0,.67.89,37.56,37.56,0,1,1-21.49,72c-.19-.06-.38-.1-.64-.16v6.64a1.81,1.81,0,0,1-.53,1.35q-3.51,3.89-7,7.81c-.13.14-.25.3-.45.56.29.06.49.11.69.14,2.22.26,4.45.53,6.67.76.48.05.6.23.59.68v19a1.68,1.68,0,0,1-.49,1.18q-3.87,4.33-7.72,8.68c-.14.16-.25.33-.46.61.38,0,.61.06.84.06h7.14c.54,0,.69.15.69.68v11.08c0,.64-.21.78-.8.77h-7.14c-.78,0-.81,0-.82.83v3.39c0,.54.19.7.71.7h7.33c.56,0,.74.16.73.72v3.88a1.75,1.75,0,0,1-.39,1q-3.54,4-7.16,8c-.38.42-.32.67,0,1q3.53,3.92,7,7.84a1.81,1.81,0,0,1,.53,1.35v4.24a1.63,1.63,0,0,1-.32.92q-7.12,8.63-14.3,17.22a.9.9,0,0,1-.65.31c-1.8.08-1.79.07-3-1.34l-13.31-16a1.86,1.86,0,0,1-.47-1.31V287.33A4.49,4.49,0,0,0,593.54,286.29Z"/><path class="cls-3" d="M605.59,386.52l-1.86-2.26c-1.9-2.33-3.77-4.68-5.69-7a2.38,2.38,0,0,1-.59-1.63q0-21.69-.07-43.36l-.09-41.36c0-1,0-1,1-1h6.6c.86,0,.86,0,.86.89v95.7Z"/><path class="cls-18" d="M609.57,229.41a17,17,0,1,1,17.06-16.94v0A17,17,0,0,1,609.57,229.41Z"/><path class="cls-19" d="M726.31,649.27l-237.07,1.18c-31.09.16-51.27-20.47-51.42-50.91L435.09,52.87a43.13,43.13,0,0,1,42.53-43h0L732.82,8.6a43.11,43.11,0,0,1,43,42.53l2.72,544.72c1.44,27.85-20.46,51.92-48.31,53.36Z"/><polygon class="cls-3" points="757.11 72.64 453.33 74.16 456.48 574.19 758.96 572.67 757.11 72.64"/><path class="cls-16" d="M708.94,543.78l-195.61,1a17.5,17.5,0,0,1-.18-35h0l195-1A17.42,17.42,0,0,1,725.73,526v.14c0,9.72-7.68,17.53-16.75,17.58Z"/><path class="cls-3" d="M604.53,518.39h7.77a5.12,5.12,0,0,1,5.21,5v7.9a5.12,5.12,0,0,1-5,5.21h-7.9a5.12,5.12,0,0,1-5.21-5v-7.9C599.35,520.36,601.29,518.41,604.53,518.39Z"/><path class="cls-17" d="M717.46,121.61h-222c-3.14,0-5.68-1.58-5.68-3.54h0c0-2,2.54-3.55,5.68-3.55h222c3.13,0,5.67,1.59,5.67,3.55h0C723.13,120,720.59,121.61,717.46,121.61Z"/><path class="cls-17" d="M717.46,137.82h-222c-3.14,0-5.68-1.58-5.68-3.54h0c0-2,2.54-3.55,5.68-3.55h222c3.13,0,5.67,1.59,5.67,3.55h0C723.13,136.24,720.59,137.82,717.46,137.82Z"/><path class="cls-17" d="M683.36,154H495.41c-3.14,0-5.68-1.58-5.68-3.54h0c0-2,2.54-3.55,5.68-3.55h188c3.14,0,5.68,1.59,5.68,3.55h0C689,152.45,686.5,154,683.36,154Z"/><path class="cls-17" d="M717.46,322.53h-222c-3.14,0-5.68-1.59-5.68-3.54h0c0-2,2.54-3.55,5.68-3.55h222c3.13,0,5.67,1.59,5.67,3.55h0C723.13,320.94,720.59,322.53,717.46,322.53Z"/><path class="cls-17" d="M717.46,338.74h-222c-3.14,0-5.68-1.59-5.68-3.54h0c0-2,2.54-3.55,5.68-3.55h222c3.13,0,5.67,1.59,5.67,3.55h0C723.13,337.15,720.59,338.74,717.46,338.74Z"/><path class="cls-17" d="M683.36,355H495.41c-3.14,0-5.68-1.59-5.68-3.54h0c0-2,2.54-3.55,5.68-3.55h188c3.14,0,5.68,1.59,5.68,3.55h0C689,353.36,686.5,355,683.36,355Z"/><path class="cls-17" d="M598,423.83H495.41c-3.14,0-5.68-1.58-5.68-3.54h0c0-2,2.54-3.55,5.68-3.55H598Z"/><path class="cls-17" d="M637.94,416.74h79.52c3.13,0,5.67,1.59,5.67,3.55h0c0,2-2.54,3.54-5.67,3.54H637.94Z"/><path class="cls-17" d="M717.46,440h-222c-3.14,0-5.68-1.58-5.68-3.54h0c0-2,2.54-3.54,5.68-3.54h222c3.13,0,5.67,1.58,5.67,3.54h0C723.13,438.46,720.59,440,717.46,440Z"/><path class="cls-17" d="M683.36,456.26H495.41c-3.14,0-5.68-1.59-5.68-3.55h0c0-2,2.54-3.54,5.68-3.54h188c3.14,0,5.68,1.58,5.68,3.54h0C689,454.67,686.5,456.26,683.36,456.26Z"/><path class="cls-17" d="M717.46,222.92h-222c-3.14,0-5.68-1.59-5.68-3.55h0c0-2,2.54-3.54,5.68-3.54h222c3.13,0,5.67,1.58,5.67,3.54h0C723.13,221.33,720.59,222.92,717.46,222.92Z"/><path class="cls-17" d="M717.46,239.13h-222c-3.14,0-5.68-1.59-5.68-3.55h0c0-2,2.54-3.54,5.68-3.54h222c3.13,0,5.67,1.58,5.67,3.54h0C723.13,237.54,720.59,239.13,717.46,239.13Z"/><path class="cls-17" d="M683.36,255.34H495.41c-3.14,0-5.68-1.59-5.68-3.55h0c0-2,2.54-3.54,5.68-3.54h188c3.14,0,5.68,1.58,5.68,3.54h0C689,253.75,686.5,255.34,683.36,255.34Z"/><circle class="cls-18" cx="608.25" cy="288.45" r="136.65"/><path class="cls-3" d="M594.28,293.24c-1,.26-1.84.5-2.72.72a35.48,35.48,0,0,1-15.58.43c-12.52-2.5-21.6-9.55-27.28-20.95a35.28,35.28,0,0,1-3.5-12.85,37.81,37.81,0,0,1,24.7-38.88c.74-.28,1.5-.52,2.26-.73.44-.12.55-.35.54-.79a37.81,37.81,0,0,1,26.11-36.82,34.9,34.9,0,0,1,8.09-1.64c1.16-.09,2.31-.2,3.46-.2a37,37,0,0,1,16.52,3.8,37.46,37.46,0,0,1,19,21.11,35.69,35.69,0,0,1,2.22,11.43.82.82,0,0,0,.67.9,37.6,37.6,0,0,1,18.36,12.15,37,37,0,0,1,7.49,14.68,37.74,37.74,0,0,1-47.36,45.58c-.19-.06-.39-.1-.65-.16,0,.31-.05.54-.05.78v5.91a1.84,1.84,0,0,1-.54,1.35c-2.35,2.61-4.68,5.24-7,7.86-.13.14-.25.3-.45.56.29.06.49.12.69.14,2.24.26,4.48.53,6.72.77.48.05.59.23.59.68v19.07a1.66,1.66,0,0,1-.5,1.19c-2.59,2.9-5.18,5.82-7.76,8.73-.14.16-.25.33-.46.61.38,0,.61.06.84.06h7.19c.54,0,.69.15.69.69v11.15c0,.64-.21.78-.8.77h-7.19c-.78,0-.82,0-.82.84v3.41c0,.54.19.7.71.7h7.38c.56,0,.74.16.73.73v3.9a1.82,1.82,0,0,1-.39,1c-2.38,2.71-4.78,5.42-7.2,8.09-.39.43-.33.67,0,1.06,2.37,2.62,4.71,5.26,7.08,7.88a1.81,1.81,0,0,1,.53,1.36v4.26a1.63,1.63,0,0,1-.32.93q-7.17,8.69-14.39,17.33a1,1,0,0,1-.65.31c-1.81.07-1.81.06-3-1.35q-6.69-8.06-13.4-16.1a2,2,0,0,1-.47-1.32v-90.1C594.33,293.94,594.3,293.62,594.28,293.24Z"/><path class="cls-3" d="M606.41,394.09c-.63-.76-1.26-1.51-1.87-2.27-1.91-2.35-3.8-4.71-5.73-7a2.44,2.44,0,0,1-.6-1.65q0-21.81-.06-43.62l-.09-41.62c0-1,0-1,1-1h6.65c.86,0,.86,0,.86.89v95.47a4.46,4.46,0,0,1-.05.82Z"/><path class="cls-18" d="M610.41,236a17.15,17.15,0,1,1,17.17-17.13V219A17.11,17.11,0,0,1,610.41,236Z"/><rect class="cls-20" x="695.23" y="94.27" width="459.86" height="72.97" rx="17.95"/><path class="cls-3" d="M959.19,130.82l13.61,7.52-4.66,8.11-13.84-8.11.12,15.4h-9.08l.12-15.28-13.72,8L927,138.34l13.73-7.52L927,123.3l4.78-8.24,13.72,8.12-.12-15.28h9.08l-.12,15.4,13.84-8.24,4.66,8.24Z"/><path class="cls-3" d="M1011.23,130.82l13.61,7.52-4.66,8.11-13.84-8.11.12,15.4h-9.08l.12-15.28-13.72,8L979,138.34l13.73-7.52L979,123.3l4.78-8.24,13.72,8.12-.12-15.28h9.08l-.12,15.4,13.84-8.24,4.66,8.24Z"/><path class="cls-3" d="M1063.27,130.82l13.61,7.52-4.66,8.11-13.84-8.11.12,15.4h-9.08l.12-15.28-13.72,8-4.78-8.11,13.73-7.52L1031,123.3l4.78-8.24,13.72,8.12-.12-15.28h9.08l-.12,15.4,13.84-8.24,4.66,8.24Z"/><path class="cls-3" d="M1115.31,130.82l13.61,7.52-4.66,8.11-13.84-8.11.11,15.4h-9.07l.12-15.28-13.72,8-4.78-8.11,13.73-7.52-13.73-7.52,4.78-8.24,13.72,8.12-.12-15.28h9.07l-.11,15.4,13.84-8.24,4.66,8.24Z"/><path class="cls-3" d="M750.23,130.82l13.61,7.52-4.66,8.11-13.85-8.11.12,15.4h-9.07l.12-15.28-13.73,8L718,138.34l13.73-7.52L718,123.3l4.77-8.24,13.73,8.12-.12-15.28h9.07l-.12,15.4,13.85-8.24,4.66,8.24Z"/><path class="cls-3" d="M802.27,130.82l13.61,7.52-4.66,8.11-13.85-8.11.12,15.4h-9.07l.12-15.28-13.73,8L770,138.34l13.73-7.52L770,123.3l4.77-8.24,13.73,8.12-.12-15.28h9.07l-.12,15.4,13.85-8.24,4.66,8.24Z"/><path class="cls-3" d="M854.31,130.82l13.6,7.52-4.65,8.11-13.85-8.11.12,15.4h-9.07l.12-15.28-13.73,8-4.77-8.11,13.73-7.52-13.73-7.52,4.77-8.24,13.73,8.12-.12-15.28h9.07l-.12,15.4,13.85-8.24,4.65,8.24Z"/><path class="cls-3" d="M906.35,130.82l13.6,7.52-4.65,8.11-13.85-8.11.12,15.4H892.5l.12-15.28-13.73,8-4.77-8.11,13.72-7.52-13.72-7.52,4.77-8.24,13.73,8.12-.12-15.28h9.07l-.12,15.4,13.85-8.24,4.7,8.23Z"/></g></svg>