<svg id="Layer_1" data-name="Layer 1" xmlns="http://www.w3.org/2000/svg" viewBox="0 0 60.58 60"><defs><style>.cls-1{fill:#fff;}.cls-2{fill:#ea5d22;}.cls-3{fill:#f49929;}.cls-4{fill:#fed32d;}.cls-5{fill:#adca30;}.cls-6{fill:#60ba95;}.cls-7{fill:#59c0d1;}</style></defs><circle class="cls-1" cx="30.52" cy="3.36" r="2.9"/><circle class="cls-1" cx="30.52" cy="9.95" r="2.32"/><circle class="cls-1" cx="30.52" cy="15.59" r="1.86"/><circle class="cls-1" cx="30.52" cy="20.39" r="1.34"/><circle class="cls-1" cx="30.52" cy="24.34" r="0.79"/><circle class="cls-1" cx="30.52" cy="27.36" r="0.35"/><circle class="cls-1" cx="21.45" cy="4.96" r="2.9"/><circle class="cls-1" cx="23.7" cy="11.15" r="2.32"/><circle class="cls-1" cx="25.64" cy="16.45" r="1.86"/><circle class="cls-1" cx="27.28" cy="20.96" r="1.34"/><circle class="cls-1" cx="28.63" cy="24.67" r="0.79"/><circle class="cls-1" cx="29.66" cy="27.51" r="0.34"/><circle class="cls-1" cx="13.48" cy="9.57" r="2.9"/><circle class="cls-1" cx="17.71" cy="14.61" r="2.32"/><circle class="cls-1" cx="21.34" cy="18.93" r="1.86"/><circle class="cls-1" cx="24.42" cy="22.61" r="1.34"/><circle class="cls-1" cx="26.97" cy="25.64" r="0.79"/><circle class="cls-1" cx="28.9" cy="27.94" r="0.35"/><circle class="cls-1" cx="7.57" cy="16.62" r="2.9"/><circle class="cls-1" cx="13.27" cy="19.91" r="2.32"/><circle class="cls-1" cx="18.16" cy="22.73" r="1.86"/><circle class="cls-1" cx="22.32" cy="25.13" r="1.34"/><circle class="cls-1" cx="25.74" cy="27.11" r="0.79"/><circle class="cls-1" cx="28.35" cy="28.61" r="0.35"/><circle class="cls-1" cx="4.42" cy="25.27" r="2.9"/><circle class="cls-1" cx="10.91" cy="26.41" r="2.32"/><circle class="cls-1" cx="16.46" cy="27.39" r="1.86"/><circle class="cls-1" cx="21.19" cy="28.23" r="1.34"/><circle class="cls-1" cx="25.08" cy="28.91" r="0.79"/><circle class="cls-1" cx="28.05" cy="29.44" r="0.35"/><circle class="cls-1" cx="4.42" cy="34.48" r="2.9"/><circle class="cls-1" cx="10.91" cy="33.34" r="2.32"/><circle class="cls-1" cx="16.46" cy="32.36" r="1.86"/><circle class="cls-1" cx="21.19" cy="31.52" r="1.34"/><circle class="cls-1" cx="25.08" cy="30.83" r="0.79"/><circle class="cls-1" cx="28.05" cy="30.31" r="0.35"/><circle class="cls-1" cx="7.57" cy="43.13" r="2.9"/><circle class="cls-1" cx="13.27" cy="39.84" r="2.32"/><circle class="cls-1" cx="18.16" cy="37.02" r="1.86"/><circle class="cls-1" cx="22.31" cy="34.62" r="1.34"/><circle class="cls-1" cx="25.74" cy="32.64" r="0.79"/><circle class="cls-1" cx="28.35" cy="31.14" r="0.35"/><circle class="cls-1" cx="13.49" cy="50.18" r="2.9"/><circle class="cls-1" cx="17.72" cy="45.14" r="2.32"/><circle class="cls-1" cx="21.35" cy="40.81" r="1.86"/><circle class="cls-1" cx="24.43" cy="37.14" r="1.34"/><circle class="cls-1" cx="26.98" cy="34.11" r="0.79"/><circle class="cls-1" cx="28.91" cy="31.8" r="0.35"/><circle class="cls-1" cx="21.46" cy="54.78" r="2.9"/><circle class="cls-1" cx="23.71" cy="48.59" r="2.32"/><circle class="cls-1" cx="25.64" cy="43.3" r="1.86"/><circle class="cls-1" cx="27.28" cy="38.79" r="1.34"/><circle class="cls-1" cx="28.64" cy="35.07" r="0.79"/><circle class="cls-1" cx="29.67" cy="32.24" r="0.34"/><circle class="cls-1" cx="30.53" cy="56.38" r="2.9"/><circle class="cls-1" cx="30.53" cy="49.8" r="2.32"/><circle class="cls-1" cx="30.53" cy="44.15" r="1.86"/><circle class="cls-1" cx="30.53" cy="39.36" r="1.34"/><circle class="cls-1" cx="30.53" cy="35.4" r="0.79"/><circle class="cls-1" cx="30.53" cy="32.39" r="0.35"/><circle class="cls-1" cx="39.59" cy="54.78" r="2.9"/><circle class="cls-1" cx="37.34" cy="48.59" r="2.32"/><circle class="cls-1" cx="35.4" cy="43.29" r="1.86"/><circle class="cls-1" cx="33.76" cy="38.79" r="1.34"/><circle class="cls-1" cx="32.41" cy="35.06" r="0.79"/><circle class="cls-1" cx="31.38" cy="32.24" r="0.34"/><circle class="cls-1" cx="47.56" cy="50.18" r="2.9"/><circle class="cls-1" cx="43.33" cy="45.14" r="2.32"/><circle class="cls-1" cx="39.7" cy="40.81" r="1.86"/><circle class="cls-1" cx="36.62" cy="37.13" r="1.34"/><circle class="cls-1" cx="34.08" cy="34.11" r="0.79"/><circle class="cls-1" cx="32.14" cy="31.8" r="0.35"/><circle class="cls-1" cx="53.47" cy="43.12" r="2.9"/><circle class="cls-1" cx="47.77" cy="39.83" r="2.32"/><circle class="cls-1" cx="42.88" cy="37.01" r="1.86"/><circle class="cls-1" cx="38.72" cy="34.61" r="1.34"/><circle class="cls-1" cx="35.3" cy="32.63" r="0.79"/><circle class="cls-1" cx="32.69" cy="31.12" r="0.35"/><circle class="cls-1" cx="56.62" cy="34.47" r="2.9"/><circle class="cls-1" cx="50.13" cy="33.32" r="2.32"/><circle class="cls-1" cx="44.58" cy="32.35" r="1.86"/><circle class="cls-1" cx="39.86" cy="31.52" r="1.34"/><circle class="cls-1" cx="35.96" cy="30.83" r="0.79"/><circle class="cls-1" cx="32.99" cy="30.3" r="0.35"/><circle class="cls-1" cx="56.62" cy="25.26" r="2.9"/><circle class="cls-1" cx="50.13" cy="26.41" r="2.32"/><circle class="cls-1" cx="44.58" cy="27.39" r="1.86"/><circle class="cls-1" cx="39.85" cy="28.22" r="1.34"/><circle class="cls-1" cx="35.96" cy="28.91" r="0.79"/><circle class="cls-1" cx="32.99" cy="29.43" r="0.35"/><circle class="cls-1" cx="53.48" cy="16.61" r="2.9"/><circle class="cls-1" cx="47.77" cy="19.9" r="2.32"/><circle class="cls-1" cx="42.88" cy="22.72" r="1.86"/><circle class="cls-1" cx="38.73" cy="25.12" r="1.34"/><circle class="cls-1" cx="35.3" cy="27.1" r="0.79"/><circle class="cls-1" cx="32.69" cy="28.6" r="0.35"/><circle class="cls-1" cx="47.55" cy="9.56" r="2.9"/><circle class="cls-1" cx="43.32" cy="14.61" r="2.32"/><circle class="cls-1" cx="39.69" cy="18.93" r="1.86"/><circle class="cls-1" cx="36.61" cy="22.6" r="1.34"/><circle class="cls-1" cx="34.06" cy="25.64" r="0.79"/><circle class="cls-1" cx="32.13" cy="27.94" r="0.35"/><circle class="cls-1" cx="39.58" cy="4.96" r="2.9"/><circle class="cls-1" cx="37.33" cy="11.14" r="2.32"/><circle class="cls-1" cx="35.4" cy="16.45" r="1.86"/><circle class="cls-1" cx="33.76" cy="20.96" r="1.34"/><circle class="cls-1" cx="32.41" cy="24.67" r="0.79"/><circle class="cls-1" cx="31.37" cy="27.51" r="0.34"/><circle class="cls-2" cx="30.52" cy="3.36" r="2.9"/><circle class="cls-3" cx="30.52" cy="9.95" r="2.32"/><circle class="cls-4" cx="30.52" cy="15.59" r="1.86"/><circle class="cls-5" cx="30.52" cy="20.39" r="1.34"/><circle class="cls-6" cx="30.52" cy="24.34" r="0.79"/><circle class="cls-7" cx="30.52" cy="27.36" r="0.35"/><circle class="cls-2" cx="21.46" cy="4.96" r="2.9"/><circle class="cls-3" cx="23.71" cy="11.15" r="2.32"/><circle class="cls-4" cx="25.64" cy="16.45" r="1.86"/><circle class="cls-5" cx="27.28" cy="20.96" r="1.34"/><circle class="cls-6" cx="28.63" cy="24.68" r="0.79"/><circle class="cls-7" cx="29.66" cy="27.51" r="0.35"/><circle class="cls-2" cx="13.48" cy="9.56" r="2.9"/><circle class="cls-3" cx="17.71" cy="14.61" r="2.32"/><circle class="cls-4" cx="21.34" cy="18.93" r="1.86"/><circle class="cls-5" cx="24.43" cy="22.61" r="1.34"/><circle class="cls-6" cx="26.97" cy="25.64" r="0.79"/><circle class="cls-7" cx="28.91" cy="27.94" r="0.35"/><circle class="cls-2" cx="7.57" cy="16.62" r="2.9"/><circle class="cls-3" cx="13.27" cy="19.91" r="2.32"/><circle class="cls-4" cx="18.16" cy="22.73" r="1.86"/><circle class="cls-5" cx="22.32" cy="25.13" r="1.34"/><circle class="cls-6" cx="25.74" cy="27.11" r="0.79"/><circle class="cls-7" cx="28.35" cy="28.62" r="0.35"/><circle class="cls-2" cx="4.42" cy="25.27" r="2.9"/><circle class="cls-3" cx="10.91" cy="26.42" r="2.32"/><circle class="cls-4" cx="16.46" cy="27.4" r="1.86"/><circle class="cls-5" cx="21.19" cy="28.23" r="1.34"/><circle class="cls-6" cx="25.08" cy="28.92" r="0.79"/><circle class="cls-7" cx="28.05" cy="29.44" r="0.35"/><circle class="cls-2" cx="4.42" cy="34.48" r="2.9"/><circle class="cls-3" cx="10.91" cy="33.34" r="2.32"/><circle class="cls-4" cx="16.46" cy="32.36" r="1.86"/><circle class="cls-5" cx="21.19" cy="31.52" r="1.34"/><circle class="cls-6" cx="25.08" cy="30.84" r="0.79"/><circle class="cls-7" cx="28.05" cy="30.31" r="0.35"/><circle class="cls-2" cx="7.57" cy="43.14" r="2.9"/><circle class="cls-3" cx="13.27" cy="39.84" r="2.32"/><circle class="cls-4" cx="18.16" cy="37.02" r="1.86"/><circle class="cls-5" cx="22.31" cy="34.62" r="1.34"/><circle class="cls-6" cx="25.74" cy="32.64" r="0.79"/><circle class="cls-7" cx="28.35" cy="31.14" r="0.35"/><circle class="cls-2" cx="13.49" cy="50.18" r="2.9"/><circle class="cls-3" cx="17.72" cy="45.14" r="2.32"/><circle class="cls-4" cx="21.35" cy="40.82" r="1.86"/><circle class="cls-5" cx="24.43" cy="37.14" r="1.34"/><circle class="cls-6" cx="26.98" cy="34.11" r="0.79"/><circle class="cls-7" cx="28.91" cy="31.8" r="0.35"/><circle class="cls-2" cx="21.46" cy="54.79" r="2.9"/><circle class="cls-3" cx="23.71" cy="48.6" r="2.32"/><circle class="cls-4" cx="25.64" cy="43.3" r="1.86"/><circle class="cls-5" cx="27.29" cy="38.79" r="1.34"/><circle class="cls-6" cx="28.64" cy="35.07" r="0.79"/><circle class="cls-7" cx="29.67" cy="32.24" r="0.35"/><circle class="cls-2" cx="30.53" cy="56.39" r="2.9"/><circle class="cls-3" cx="30.53" cy="49.8" r="2.32"/><circle class="cls-4" cx="30.53" cy="44.16" r="1.86"/><circle class="cls-5" cx="30.53" cy="39.36" r="1.34"/><circle class="cls-6" cx="30.53" cy="35.4" r="0.79"/><circle class="cls-7" cx="30.53" cy="32.39" r="0.35"/><circle class="cls-2" cx="39.59" cy="54.78" r="2.9"/><circle class="cls-3" cx="37.34" cy="48.6" r="2.32"/><circle class="cls-4" cx="35.41" cy="43.29" r="1.86"/><circle class="cls-5" cx="33.77" cy="38.78" r="1.34"/><circle class="cls-6" cx="32.41" cy="35.07" r="0.79"/><circle class="cls-7" cx="31.38" cy="32.24" r="0.35"/><circle class="cls-2" cx="47.56" cy="50.18" r="2.9"/><circle class="cls-3" cx="43.33" cy="45.14" r="2.32"/><circle class="cls-4" cx="39.7" cy="40.81" r="1.86"/><circle class="cls-5" cx="36.62" cy="37.14" r="1.34"/><circle class="cls-6" cx="34.08" cy="34.11" r="0.79"/><circle class="cls-7" cx="32.14" cy="31.8" r="0.35"/><circle class="cls-2" cx="53.47" cy="43.12" r="2.9"/><circle class="cls-3" cx="47.77" cy="39.83" r="2.32"/><circle class="cls-4" cx="42.88" cy="37.01" r="1.86"/><circle class="cls-5" cx="38.73" cy="34.61" r="1.34"/><circle class="cls-6" cx="35.3" cy="32.63" r="0.79"/><circle class="cls-7" cx="32.69" cy="31.13" r="0.35"/><circle class="cls-2" cx="56.62" cy="34.47" r="2.9"/><circle class="cls-3" cx="50.14" cy="33.33" r="2.32"/><circle class="cls-4" cx="44.58" cy="32.35" r="1.86"/><circle class="cls-5" cx="39.86" cy="31.51" r="1.34"/><circle class="cls-6" cx="35.96" cy="30.83" r="0.79"/><circle class="cls-7" cx="32.99" cy="30.3" r="0.35"/><circle class="cls-2" cx="56.62" cy="25.26" r="2.9"/><circle class="cls-3" cx="50.14" cy="26.41" r="2.32"/><circle class="cls-4" cx="44.58" cy="27.39" r="1.86"/><circle class="cls-5" cx="39.86" cy="28.22" r="1.34"/><circle class="cls-6" cx="35.96" cy="28.91" r="0.79"/><circle class="cls-7" cx="32.99" cy="29.43" r="0.35"/><circle class="cls-2" cx="53.48" cy="16.61" r="2.9"/><circle class="cls-3" cx="47.78" cy="19.9" r="2.32"/><circle class="cls-4" cx="42.89" cy="22.72" r="1.86"/><circle class="cls-5" cx="38.73" cy="25.12" r="1.34"/><circle class="cls-6" cx="35.31" cy="27.1" r="0.79"/><circle class="cls-7" cx="32.7" cy="28.61" r="0.35"/><circle class="cls-2" cx="47.56" cy="9.56" r="2.9"/><circle class="cls-3" cx="43.32" cy="14.61" r="2.32"/><circle class="cls-4" cx="39.7" cy="18.93" r="1.86"/><circle class="cls-5" cx="36.61" cy="22.6" r="1.34"/><circle class="cls-6" cx="34.07" cy="25.63" r="0.79"/><circle class="cls-7" cx="32.13" cy="27.94" r="0.35"/><circle class="cls-2" cx="39.58" cy="4.96" r="2.9"/><circle class="cls-3" cx="37.33" cy="11.14" r="2.32"/><circle class="cls-4" cx="35.4" cy="16.45" r="1.86"/><circle class="cls-5" cx="33.76" cy="20.96" r="1.34"/><circle class="cls-6" cx="32.41" cy="24.67" r="0.79"/><circle class="cls-7" cx="31.37" cy="27.51" r="0.35"/></svg>