<svg id="Homepage_hero" data-name="Homepage hero" xmlns="http://www.w3.org/2000/svg" xmlns:xlink="http://www.w3.org/1999/xlink" viewBox="0 0 600 600"><defs><style>.cls-1{fill:#fff;}.cls-1,.cls-10,.cls-11,.cls-12,.cls-13,.cls-14,.cls-15,.cls-16,.cls-17,.cls-18,.cls-19,.cls-20,.cls-21,.cls-22,.cls-23,.cls-25,.cls-26,.cls-27,.cls-3,.cls-4,.cls-5,.cls-6,.cls-7,.cls-8,.cls-9{fill-rule:evenodd;}.cls-2{mask:url(#mask);}.cls-3{fill:#4153a1;fill-opacity:0.31;}.cls-4{fill:#a7c97e;}.cls-5{fill:#64822b;}.cls-6{fill:#98b720;}.cls-7{fill:#7c2f1f;}.cls-8{fill:#47509e;}.cls-9{fill:#e8e1da;}.cls-10{fill:#361b3d;}.cls-11{fill:#b69e8c;}.cls-12{fill:#e7d4be;}.cls-13{fill:#f2e0ce;}.cls-14{fill:#f6e6d7;}.cls-15{fill:#cf833e;}.cls-16{fill:#dfe699;}.cls-17{fill:#3db390;}.cls-18{fill:#222242;}.cls-19{fill:#eaeaea;}.cls-20{fill:#38398c;}.cls-21{fill:#4a4b9a;}.cls-22{fill:#ddcfc3;}.cls-23{fill:#eadfd7;}.cls-24{fill:none;stroke:#fff;stroke-width:3.08px;}.cls-25{fill:#b27b47;}.cls-26{fill:#7984c1;}.cls-27{fill:#f59c1d;}</style><mask id="mask" x="41.02" y="29.12" width="515.29" height="544.41" maskUnits="userSpaceOnUse"><g id="mask-2"><polygon id="path-1" class="cls-1" points="41.02 573.53 556.32 573.53 556.32 29.13 41.02 29.13 41.02 573.53"/></g></mask></defs><path id="Fill-1" class="cls-1" d="M298.67,29.13c142.29,0,257.65,115.35,257.65,257.64S441,544.42,298.67,544.42,41,429.07,41,286.77,156.38,29.13,298.67,29.13"/><g class="cls-2"><polygon id="Fill-3" class="cls-3" points="89.17 436.63 467.98 436.63 467.98 421.2 89.17 421.2 89.17 436.63"/></g><g class="cls-2"><polygon id="Fill-5" class="cls-3" points="89.17 411.94 467.98 411.94 467.98 396.52 89.17 396.52 89.17 411.94"/></g><g class="cls-2"><polygon id="Fill-6" class="cls-3" points="89.17 387.27 467.98 387.27 467.98 371.85 89.17 371.85 89.17 387.27"/></g><g class="cls-2"><polygon id="Fill-7" class="cls-3" points="89.17 362.59 467.98 362.59 467.98 347.17 89.17 347.17 89.17 362.59"/></g><g class="cls-2"><polygon id="Fill-8" class="cls-3" points="89.17 337.91 467.98 337.91 467.98 322.49 89.17 322.49 89.17 337.91"/></g><g class="cls-2"><polygon id="Fill-9" class="cls-3" points="89.17 313.23 467.98 313.23 467.98 297.81 89.17 297.81 89.17 313.23"/></g><g class="cls-2"><polygon id="Fill-10" class="cls-3" points="89.17 288.55 467.98 288.55 467.98 273.13 89.17 273.13 89.17 288.55"/></g><g class="cls-2"><polygon id="Fill-11" class="cls-3" points="89.17 263.88 467.98 263.88 467.98 248.45 89.17 248.45 89.17 263.88"/></g><g class="cls-2"><polygon id="Fill-12" class="cls-3" points="89.17 239.2 467.98 239.2 467.98 223.77 89.17 223.77 89.17 239.2"/></g><g class="cls-2"><polygon id="Fill-13" class="cls-3" points="89.17 214.52 467.98 214.52 467.98 199.1 89.17 199.1 89.17 214.52"/></g><g class="cls-2"><polygon id="Fill-14" class="cls-3" points="89.17 189.84 467.98 189.84 467.98 174.42 89.17 174.42 89.17 189.84"/></g><g class="cls-2"><polygon id="Fill-15" class="cls-3" points="89.17 165.16 467.98 165.16 467.98 149.74 89.17 149.74 89.17 165.16"/></g><g class="cls-2"><path id="Fill-16" class="cls-3" d="M468,140.48V125.06H98.08q-4.62,5.73-8.91,11.72v3.71Z"/></g><g class="cls-2"><path id="Fill-17" class="cls-3" d="M468,100.38H120.79q-7.76,7.41-14.87,15.43H468Z"/></g><g class="cls-2"><path id="Fill-18" class="cls-3" d="M446.46,75.7H150.89Q140.57,82.93,131,91.13H466.32Q456.78,83,446.46,75.7"/></g><g class="cls-2"><path id="Fill-19" class="cls-4" d="M188.23,431.42c-1.23-8.67-.26-17.62-1.72-26.32-1.54-9.26-3.08-18.49-4.77-27.71a188.77,188.77,0,0,0-13.82-43.57c4.09,22.27,8.54,44.52,12.55,66.8,2.38,13.27,6.41,27.13,6.5,40.67.88-.61,1.68-1.31,2.54-1.94a17.61,17.61,0,0,1-1.28-7.93"/></g><g class="cls-2"><path id="Fill-20" class="cls-5" d="M180.68,410.25c-2.55-2.26-3.64-6.45-5.5-9.29-3.32-5.08-6.86-10-10.42-14.95-7.38-10.18-16.28-18.45-24.56-27.82a263,263,0,0,0-19.31-19.63c-6.26-5.73-12.57-11-20.45-14.3,4.36,4.78,9,9.32,13.49,14s8.2,9.95,12.5,14.74c6.91,7.72,13.59,15.56,19.91,23.75,9.51,12.3,19,24.69,27.82,37.59,4.64,6.81,7.8,14.75,11.05,22.28a46.1,46.1,0,0,0,4.94-.66c.19-2.39-1.83-5.36-2.68-7.55A86.67,86.67,0,0,1,183,415c-.51-2.39-.76-8.9-3.14-10.15"/></g><g class="cls-2"><path id="Fill-21" class="cls-5" d="M177.44,401.39c-.94-2.47-1.42-5.09-2.42-7.56-1.82-4.51-4.15-8.81-6-13.3-2.68-6.51-6.56-12.44-9.26-18.91-3.38-8.12-8.46-15.53-12.55-23.33-3.59-6.84-6.49-14-10-21-2.79-5.52-6.23-11.27-10.56-15.71,2.34,5.44,5.74,10.5,8,16s4.22,11.16,7.1,16.59c5.25,9.88,10.73,19.75,15.75,29.76,4.19,8.33,8.85,16.53,13.27,24.72,2.36,4.38,5.19,8.52,7,13.18,1.08,2.81,1.76,5.85,2.86,8.59"/></g><g class="cls-2"><path id="Fill-22" class="cls-5" d="M185.63,369.2c-.71-4.48,0-9.28,0-13.82a106.54,106.54,0,0,0-1.71-20.48c-1.6-8.16-3.2-16.25-4.38-24.48-.69-4.82-1.48-9.92-3.4-14.4-1.33,4.05-.79,9.75-.88,14-.11,5.45.31,10.86.46,16.31a335.41,335.41,0,0,0,2.85,34.22c1,7.56,1.67,15.15,2.49,22.72.55,5.26.47,11.23,2.18,16.19,4.74-.59,2.55-9.11,2.63-11.85.18-5.68.89-11.19.42-16.9-.15-1.84-.91-4.42-.21-6.23"/></g><g class="cls-2"><path id="Fill-23" class="cls-5" d="M187.8,431.85c-.12-4.08,1.89-8.2,3.45-11.91,2.28-5.46,5.8-10.2,8.33-15.54a68.91,68.91,0,0,1,7.43-13c2.32-3,4.74-5.9,6.94-9a195.91,195.91,0,0,1,18.37-21.69c3.74-3.87,8.14-7,11.91-10.86,4.46-4.55,8.73-9.19,13.77-13.12,6.68-5.2,13-10.94,19.85-15.9,3.77-2.72,9.12-7.36,13.74-8.25-5.23,8.08-14.85,13.21-22,19.38-9.17,7.92-18.4,15.66-27.37,23.81-5.45,5-10.79,9.48-15.55,15.09-3.44,4.07-6.87,8.23-10,12.6-5.27,7.5-10.5,15.11-15.16,23a106.71,106.71,0,0,0-6.91,12.74,47.32,47.32,0,0,0-2.55,7.1c-.47,1.83-.55,4.2-1.44,5.8a26.12,26.12,0,0,1-1.65-2.26c-.37-.54-.39-1.47-1.22,2"/></g><g class="cls-2"><path id="Fill-24" class="cls-5" d="M183.27,425.59c-1.28-3.62-1.18-7.53-2.59-11.15-1.61-4.14-3.45-8.17-4.85-12.38-2.37-7.13-6-12.74-10.21-18.82-5.63-8.08-12.47-15-18.3-22.94a317.7,317.7,0,0,0-20.84-26.13c-8.24-9-16.84-19.7-27.36-26.1,13.2,18.67,32.23,32.62,46.22,50.77,6.26,8.13,12.32,16.44,18.49,24.68a127.66,127.66,0,0,1,13.27,22.11,106.56,106.56,0,0,1,5.67,15.58c1.15,3.87,1.29,8.14,2.67,11.91"/></g><g class="cls-2"><path id="Fill-25" class="cls-6" d="M187.37,412.84c-.94-3.13-.37-7.6-.18-10.84.46-7.63.89-15.29,1.69-22.9,1.05-9.88,4.73-18.92,7-28.49,1.18-4.91,3.29-9.53,5.07-14.24,2.12-5.63,2.94-11.28,4.31-17.08A149,149,0,0,1,210,303.55c1.14-3.19,2.21-6.91,4.16-9.7-.14,10.18-6.05,20.07-7.9,30-2,10.62-3.25,21.26-4.85,31.92-1.32,8.76-4.73,17.42-5.19,26.28-.56,10.26-1.94,20.46-2.37,30.73-.4,9-.16,18.17-.68,27.2a63.77,63.77,0,0,1-7,0c-2.21-7.47-.48-16.82,1.26-27.19"/></g><g class="cls-2"><path id="Fill-26" class="cls-6" d="M191.25,422.35c0-5.58,2.36-12.21,5.34-16.86,4.7-7.34,9.33-14.73,14.1-22,2.86-4.42,6.45-8.38,9.09-12.92,2.87-4.95,5.37-10.08,8.59-14.85,7.48-11.09,14.51-22.71,21-34.4,3.4-6.12,6.29-12.57,11.16-17.73a115.5,115.5,0,0,1,8.68-8.17c-3.92,2.58-6.54,8.56-9.1,12.41-3.78,5.71-8,11.06-11.75,16.78-6.13,9.31-11.67,19.08-17.4,28.62-4.95,8.24-8.2,17.19-13.6,25.17-6.38,9.43-13.56,19.44-17.93,30-2.1,5.06-5.43,9.81-6.68,15.16a28.84,28.84,0,0,1-2.09,6.35c-.73-1.7-3-9.54.57-7.53"/></g><g class="cls-2"><path id="Fill-27" class="cls-5" d="M186.5,423.64c0-7.54,1.47-15,1.52-22.53.07-9.91,1-19.75,1.94-29.62,1.66-17.21,2.83-34.29,8.26-50.86,1.73-5.27,3.38-10.57,5.29-15.78,1.27-3.47,3.45-6.67,4.59-10.13-.77,2.6-4.89,5.84-6.46,8.16a123.57,123.57,0,0,0-9.16,17c-5.14,11.05-7.13,24.56-8.64,36.55-2.47,19.47-.22,38.9.5,58.39.17,4.82,1,9.61,1.34,14.37a4.58,4.58,0,0,0,1.88,0,14.75,14.75,0,0,0-1.06-5.59"/></g><g class="cls-2"><path id="Fill-28" class="cls-5" d="M179.81,426.88c-1.14-2.66-1.48-5.55-2.85-8.2a86.15,86.15,0,0,0-6-9.12c-5.35-7.68-12.5-13.63-19.24-20.06-5.25-5-9.35-11-14.69-16-7-6.52-14.61-12.66-21.83-19a94.23,94.23,0,0,0-14.42-9.82c-3.57-2.08-6.43-5.08-9.74-7.42,5.72,3,10.41,8.14,15.12,12.44,5.28,4.83,10.41,9.9,15.8,14.6,8.65,7.54,17.18,14.45,24.81,23.08,2.88,3.27,6,6.22,9,9.36,3.18,3.33,5.56,7.34,8.4,10.95a134.23,134.23,0,0,1,11.33,16.86c.81,1.44,1.77,4.66,3.16,5.29,4.52,2,.65-5.72.24-7.14"/></g><g class="cls-2"><path id="Fill-29" class="cls-5" d="M193.93,423.79c.37-3.66,2.95-6.94,4.63-10.09s3.18-6.53,5.16-9.52c4.36-6.57,10.27-11.85,15.9-17.35,6.16-6,13.44-11,20.13-16.35,7.33-5.85,15.26-11,22.67-16.76,8.31-6.48,17.59-11.25,26.12-17.26-8.19,6.52-15.45,14-23.36,20.63-7.64,6.45-15.72,12.59-23.18,19.18-13.44,11.87-26.75,23.88-37.37,38.44-2.49,3.42-4.54,7.06-7.18,10.3-.86,1-2.22,3.82-3.81,3.68-1.83-.17-1.77-2.06.29-4.9"/></g><g class="cls-2"><path id="Fill-30" class="cls-7" d="M194.26,423.74c.73-4.17,3.32-7.52,5.23-11.2a75.52,75.52,0,0,1,6.25-10.76c5.23-7,12-13.32,18.66-19,13.42-11.44,28-22,42.45-32.09,3.26-2.27,6.63-4.38,10-6.48q2.53-1.56,5.06-3.15c1.48-.94,3.91-3.31,5.6-3.67-3.08.67-6.94,5.48-9.34,7.66-3.26,3-6.48,6-9.78,8.9-13.16,11.64-27.15,22.21-40,34.23a216.21,216.21,0,0,0-18.11,18.84,131.28,131.28,0,0,0-8.67,11.55c-1.45,2.18-3,4.28-4.52,6.4a10.1,10.1,0,0,1-1,1.45l-3.37.36a9,9,0,0,1,1.52-3c.18-.28-.52-.23-.65,0-.83,1.29-3,4.9,0,5.12,2.46.18,5-4.89,6.06-6.36,8.15-11.38,16.47-21.9,26.62-31.62,9.79-9.38,20.08-18.18,30.62-26.71,10.95-8.87,21-18.83,31.93-27.67.3-.25-.34-.28-.5-.18-9,6.29-18.66,11.59-27.42,18.27-9.29,7.07-18.77,13.85-28,20.94a167.31,167.31,0,0,0-24.92,22.73,57.29,57.29,0,0,0-7.85,11.82c-2.27,4.43-5.63,8.74-6.5,13.72-.06.27.64.16.68-.09"/></g><g class="cls-2"><path id="Fill-31" class="cls-5" d="M187.8,423.42c-1.11-2.42-.21-7.37-.22-10.18a85.63,85.63,0,0,1,1.34-12.87c.68-4.43,2.52-8.62,3.41-13,1.16-5.71,4.2-10.57,5.37-16.2,3.81-18.21,9.53-36.06,14.14-54.11,1.51-5.92,4.11-11,6.72-16.53,2.16-4.53,4.79-14.24,9.79-16.41.13,2.42-1,5.09-1.48,7.45a110.85,110.85,0,0,1-3.46,12.38c-3.89,11.37-7.48,22.7-10.47,34.35s-3.42,23.89-6.79,35.59c-3.19,11.09-4.9,22.64-9.17,33.34-2.61,6.55-2.16,12.46-2.52,19.23-2.19.17-6.2-.16-8.12-1.33,0-.33.17,0,1.46-1.67"/></g><g class="cls-2"><path id="Fill-32" class="cls-6" d="M188,428c-2-7.54-4.06-15.32-6.59-22.76-2.28-6.7-3.73-13.46-5.66-20.23-2.28-8-5-15.83-6.91-24-.92-3.91-1.72-7.82-2.91-11.65-1.66-5.36-4.25-10.37-5.8-15.8a100.68,100.68,0,0,0-10.8-24.12c.34,3.31,1.71,7,2.49,10.26,1.53,6.34,3.53,12.42,5.46,18.68,3.63,11.78,6.33,23.77,10,35.55a251.16,251.16,0,0,1,6.63,24.44c1.63,8,4.08,15.79,5.21,24,.26,1.85.24,5.25,1.86,6.28s5.8-1.06,7-.65"/></g><g class="cls-2"><path id="Fill-33" class="cls-8" d="M357.27,557.39c71.06,0,128.67,3.61,128.67,8.07s-57.61,8.07-128.67,8.07-128.67-3.61-128.67-8.07,57.6-8.07,128.67-8.07"/></g><g class="cls-2"><polygon id="Fill-34" class="cls-9" points="155.12 411.94 163.8 470.24 214.57 470.24 221.1 411.94 155.12 411.94"/></g><g class="cls-2"><path id="Fill-35" class="cls-10" d="M291.77,282.11c1.66-1.95,3.26-3.94,4.78-6,2.79-4.53,3.57-10.64,3.84-14.28a97.36,97.36,0,0,1,.38-12.54c.9-7.23,4.75-10.39,6.85-13a65.7,65.7,0,0,0,14.29-20.49c-4.72,12.52-10.1,17.51-12.26,20.55-2,2.67-5.62,8.16-5.91,15.45a93.46,93.46,0,0,0,.68,12.52c-.07,4.16-2.63,10.1-4.74,13.35-.43,1.5-2,5.9-3.09,9.6h51.78c19.6-15.12,35.1-69.38,18-96.68-10.26-15.11-32.57-8.92-39,6.75a23.29,23.29,0,0,0-1.84,4.85c-7.05,22.26-16.12,30.41-19.53,34-2.11,2.57-5.95,5.65-6.85,12.88a92.1,92.1,0,0,0-.38,12.53c-.28,3.64-1.05,9.73-3.84,14.27-1.52,2-3.12,4.06-4.78,6-.08.47,1.52.26,1.66.14"/></g><g class="cls-2"><polygon id="Fill-36" class="cls-11" points="487.19 565.88 495.27 565.88 475.07 495.54 440.79 495.54 487.19 565.88"/></g><g class="cls-2"><polygon id="Fill-37" class="cls-11" points="229 564.95 220.93 564.95 241.12 495.54 275.41 495.54 229 564.95"/></g><g class="cls-2"><path id="Fill-38" class="cls-12" d="M186.35,427.37c6.93,27.15,18.15,68.79,50.32,71.57h241.2c32.17-2.77,35.43-44.42,42.36-71.57Z"/></g><g class="cls-2"><path id="Fill-39" class="cls-13" d="M471.05,361.36V350.45a67.34,67.34,0,0,0-20.79-48.6A72,72,0,0,0,400,281.77H307.59a71.82,71.82,0,0,0-50.22,20.08,67.25,67.25,0,0,0-20.76,48.6v10.91Z"/></g><g class="cls-2"><path id="Fill-40" class="cls-12" d="M471.05,417.5V356.32a67.66,67.66,0,0,0-20.79-48.76A72.12,72.12,0,0,0,400,287.32H307.59a72.36,72.36,0,0,0-50.38,20.24,67.79,67.79,0,0,0-20.91,48.76V417.5Z"/></g><g class="cls-2"><path id="Fill-41" class="cls-14" d="M518,424.43l-47.54-10H236.34l-47.54,10c-2,.69-3.08,2-2.37,3.29s2.93,2.12,5.35,2.12H515c2.42,0,4.64-.83,5.35-2.12s-.33-2.6-2.37-3.29"/></g><g class="cls-2"><path id="Fill-42" class="cls-15" d="M424.45,324.69l-.23,0-17.79-41.56c-3.93-10.54-22.7,10.62-22.7,10.62L397,339.25c-7.33,4.88-13.12,9.12-13.12,9.12l1.38,28.12A200,200,0,0,0,423,348.22c5.64-4.76,5.95-16.83,1.45-23.53"/></g><g class="cls-2"><path id="Fill-43" class="cls-15" d="M317.28,348.36s-7.94-5.79-17-11.64L316.77,296c-5.4-15-20.93-21.83-24.86-11.31l-18.38,44.35c-2.54,6.82-.22,17.81,6.24,20.65a200,200,0,0,0,36.12,26.77Z"/></g><g class="cls-2"><path id="Fill-44" class="cls-16" d="M326.2,250.25C311,255.08,298.1,262,291.13,279.17c-1.36,10.73,23.13,13.47,31.54,9.88Z"/></g><g class="cls-2"><path id="Fill-45" class="cls-16" d="M371.18,250.25c15.17,4.83,28.11,11.71,35.07,28.92,1.36,10.73-23.13,13.47-31.53,9.88Z"/></g><g class="cls-2"><path id="Fill-46" class="cls-16" d="M393.4,409.08l-5.7-87.86c2.07-14.48,3.92-22.64,5-32.14.78-31.68-16.35-40.83-33.22-41.55-7.61-.8-2.21-.26-21.46-.45-28.81,3.78-32.64,24.33-31.7,43.66,1,10.63,1.11,22,2.23,31,3.94,41.36-5.84,57.77-3.2,87.34Z"/></g><g class="cls-2"><path id="Fill-47" class="cls-17" d="M294.17,322.52l.18.13-.19-.72c0,.18,0,.38,0,.59"/></g><g class="cls-2"><polygon id="Fill-48" class="cls-18" points="399.21 421.25 286.18 440.89 276.2 391.06 399.21 392.86 399.21 421.25"/></g><g class="cls-2"><path id="Fill-49" class="cls-19" d="M286.52,434.13l-11,2.27h-.11l-27.62-1.26c-11.55-.52-4.44,21.29,8.82,20.31l21.53-4.83,12-2.67Z"/></g><g class="cls-2"><path id="Fill-50" class="cls-20" d="M426,385.38c12.18-3,24.41,4,27.31,15.69a21.89,21.89,0,0,1-9.64,23.53c-2.14,1.39-6.08,1.94-8.72,2.6L304.76,444.59l-11.82-17.76Z"/></g><g class="cls-2"><path id="Fill-51" class="cls-19" d="M404.58,553.9l-21.23-16.64-.08-.06-6.7-8.68-11.49,7.91,7.2,9.62,12.86,17.27c8.82,9.22,27.63-2.57,19.44-9.42"/></g><g class="cls-2"><path id="Fill-52" class="cls-21" d="M294.23,398.75c-7.27-8.85-20.05-10.35-28.53-3.37s-9.46,19.8-2.19,28.64l104.2,117.57L382,529.26Z"/></g><g class="cls-2"><polygon id="Fill-53" class="cls-22" points="288.29 396.92 407.1 396.92 407.1 392.86 288.29 392.86 288.29 396.92"/></g><g class="cls-2"><path id="Fill-54" class="cls-23" d="M411.49,399.05a4,4,0,0,1-4,4H287.92a4,4,0,0,1-4-4h0v.48a4,4,0,0,1,4-4H407.48a4,4,0,0,1,4,4Z"/></g><g class="cls-2"><path id="Fill-55" class="cls-1" d="M288.63,320H406.76a5.33,5.33,0,0,1,5.33,5.32V388a5.33,5.33,0,0,1-5.33,5.32H288.63a5.32,5.32,0,0,1-5.32-5.32V325.33a5.32,5.32,0,0,1,5.32-5.32"/></g><g class="cls-2"><path id="Fill-56" class="cls-19" d="M406.82,321H385.73L282.88,365.69V388a6.11,6.11,0,0,0,5.81,5.72H406.81c2.95,0,5.32-2.78,5.32-5.72V325.34c0-2.94-2.37-4.39-5.31-4.39"/></g><g class="cls-2"><path id="Stroke-57" class="cls-24" d="M354.38,359.94a7,7,0,1,1-7-7A7,7,0,0,1,354.38,359.94Z"/></g><g class="cls-2"><path id="Fill-58" class="cls-15" d="M361.55,249.15l-4.26-26.92H340.8l-3.2,27.64c7.29,7.52,18.2,6.94,23.95-.72"/></g><g class="cls-2"><polygon id="Fill-59" class="cls-25" points="359.66 239.39 357.19 221.7 340.7 221.7 339.8 231.45 359.66 239.39"/></g><g class="cls-2"><path id="Fill-60" class="cls-25" d="M338.17,209.8a3.23,3.23,0,0,1-.85,4.35,2.91,2.91,0,0,1-4.06-.75l-.09-.14-2.51-4a3.25,3.25,0,0,1,.85-4.36,2.92,2.92,0,0,1,4.06.76l.09.14Z"/></g><g class="cls-2"><path id="Fill-61" class="cls-15" d="M342.66,191.39c-3.48,6.27-5.45,8.19-9,13.11.94,7.42,2.89,17.32,4.49,19.15,3.13,4.08,9.17,6.86,11.73,6.89h.68c2.55-.23,8.38-3.51,11.21-7.82,1.31-1.75,2.21-7.11,2.72-14.25-2.51-9.66-17.87-2.95-21.85-17.08"/></g><g class="cls-2"><path id="Fill-62" class="cls-26" d="M412.13,143.45h111a12.42,12.42,0,0,1,12.42,12.43v84.56a12.43,12.43,0,0,1-12.42,12.43h-111a12.44,12.44,0,0,1-12.43-12.43V155.88a12.43,12.43,0,0,1,12.43-12.43"/></g><g class="cls-2"><path id="Fill-63" class="cls-1" d="M467.37,154.59a43.69,43.69,0,1,1-43.69,43.68,43.68,43.68,0,0,1,43.69-43.68"/></g><g class="cls-2"><path id="Fill-64" class="cls-27" d="M456.21,222.3l-18-18a5.13,5.13,0,0,1,7.26-7.24l10.77,10.78,31.46-31.45a5.13,5.13,0,1,1,7.27,7.24Z"/></g><g class="cls-2"><path id="Fill-65" class="cls-1" d="M207.89,161.94a17.66,17.66,0,1,1-17.65,17.65,17.66,17.66,0,0,1,17.65-17.65"/></g><g class="cls-2"><polygon id="Fill-66" class="cls-26" points="205.72 128.06 209.53 128.06 209.53 55.65 205.72 55.65 205.72 128.06"/></g><g class="cls-2"><path id="Fill-67" class="cls-26" d="M190.81,181.83h34.11a17.19,17.19,0,0,1-34.11,0Zm73.88,0a56.85,56.85,0,0,0-113.63,0H189a19,19,0,0,0,37.85,0Z"/></g></svg>