<svg id="Layer_1" data-name="Layer 1" xmlns="http://www.w3.org/2000/svg" viewBox="0 0 2404.88 2000"><defs><style>.cls-1{fill:#fff;}.cls-2{fill:#bde2ec;}.cls-3{fill:#8d2232;}.cls-4{fill:#a5b680;}.cls-5{fill:#a9d2a3;}.cls-6{fill:#8aab67;}.cls-24,.cls-7{fill:#4e6b81;}.cls-8{fill:#d1d2eb;}.cls-9{fill:#d24516;}.cls-10{fill:#2c265f;}.cls-11{fill:#38378d;}.cls-12{fill:#4f5da7;}.cls-13{fill:#5dc1d2;}.cls-14{fill:#494b9a;}.cls-15{fill:#352356;}.cls-16{fill:#f7b18a;}.cls-17{fill:#6a3524;}.cls-18{fill:#f6f7f8;}.cls-19{fill:#f59b1b;}.cls-20{fill:#dfe699;}.cls-21{fill:#048863;}.cls-22{opacity:0.63;}.cls-23{fill:#84aa5a;}.cls-24{opacity:0.7;}.cls-25{fill:#62bc99;}.cls-26{fill:#204a27;}</style></defs><path class="cls-1" d="M1225.12,971.6c-11.78-.86-23.91-1.37-36.2-1.37-59.93,0-123.33,12.24-165.79,56.6l26.77.37C1105,1008.3,1163.48,989.62,1225.12,971.6Z"/><path class="cls-2" d="M306.46,684.34c-2.58,4.29,114.67-81.76,199.08-81.76a366.39,366.39,0,0,1,141.51,28.95A372.59,372.59,0,0,1,700.11,659c1.29.75,2.39,1.46,3.33,2.14,63.81-92.93,164.64-138,267.24-138a359.21,359.21,0,0,1,245.79,97.76c3,3,8.19,3.84,14.24,3.84,3.68,0,7.66-.31,11.65-.63s8.09-.59,11.84-.59a38.24,38.24,0,0,1,9,.87q7.42-.27,14.86-.28a438,438,0,0,1,46.22,2.52c102.06,10.81,204.39,56.3,284.88,118.41.8,0,1.58,0,2.34,0,8.66,0,14.78-1.83,19-5.49,37.06-34.54,88.72-58.05,140.66-62.87q9.77-.9,19.52-.91a196.21,196.21,0,0,1,32,2.59c6,.35,22.33.35,30.65.35,6.23-6.26,12.77-12.2,19.46-18-41.84-10.23-83.69-22.44-124.47-39.42-61.61-25.66-103.75-55.12-127.13-73.18-31.5-24.33-51.4-46.35-56.76-50.66C1425.53,385.92,1270,321.36,1172.17,297.31,844.23,216.64,495.41,426.38,282,643.41c3.83,6.58,7.5,13.27,10.92,20.15C299,679.12,313.37,673.6,306.46,684.34Z"/><path class="cls-3" d="M888.12,1025.47a151.57,151.57,0,0,0-18.16-1.11c-2.27,0-4.54.07-6.8.17-.72.26-1.41.52-2.15.77Z"/><path class="cls-4" d="M966.15,1057a10.15,10.15,0,0,0-3-3.49,174.65,174.65,0,0,0-75-28L861,1025.3c.74-.25,1.43-.51,2.15-.77-31.1,1.48-61.13,13.23-84.11,38.56-4.18,3.56-12.56,4.05-21.78,4.05H362.58c-99.2-26.73-197.27-69.71-295-69.71a311.9,311.9,0,0,0-31.87,1.64C15.35,1057.68,5,1122,12.66,1192.12c2.1,19.29,8.78,48.37,13.13,66.32L533.9,1248C626.23,1199.47,772.45,1128.25,966.15,1057Z"/><path class="cls-1" d="M1049.9,1027.2l-26.77-.37a152.81,152.81,0,0,0-11.71,13.78Q1030.38,1033.89,1049.9,1027.2Z"/><path class="cls-1" d="M896.63,997.77c3.22,9.07-9.14,18.12-33.47,26.76,2.26-.1,4.53-.17,6.8-.17a151.57,151.57,0,0,1,18.16,1.11q67.65.46,135,1.36c42.46-44.36,105.86-56.6,165.79-56.6,12.29,0,24.42.51,36.2,1.37,281.29-82.27,629-151,1031.39-165.28a352,352,0,0,0-47.9-39.2c-94-63.73-214.88-76.73-335.9-106.34-6.69,5.79-13.23,11.73-19.46,18-8.32,0-24.62,0-30.65-.35a196.21,196.21,0,0,0-32-2.59q-9.75,0-19.52.91c-51.94,4.82-103.6,28.33-140.66,62.87-4.18,3.66-10.3,5.49-19,5.49-.76,0-1.54,0-2.34,0-80.49-62.11-182.82-107.6-284.88-118.41a438,438,0,0,0-46.22-2.52q-7.44,0-14.86.28a38.24,38.24,0,0,0-9-.87c-3.75,0-7.81.29-11.84.59s-8,.63-11.65.63c-6,0-11.24-.84-14.24-3.84a359.21,359.21,0,0,0-245.79-97.76c-102.6,0-203.43,45.07-267.24,138-.94-.68-2-1.39-3.33-2.14a372.59,372.59,0,0,0-53.06-27.49,366.39,366.39,0,0,0-141.51-28.95c-84.41,0-201.66,86-199.08,81.76,6.91-10.74-7.47-5.22-13.54-20.78-3.42-6.88-7.09-13.57-10.92-20.15-28.56,29.05-54.73,58.22-78.06,86.85C172.35,769,136.27,813.34,103.86,863.35c77.33,15.36,139,31.53,182.09,48.1C617.53,923.62,882.84,958.68,896.63,997.77Z"/><path class="cls-1" d="M966.15,1057q22.2-8.17,45.27-16.34a152.81,152.81,0,0,1,11.71-13.78q-67.33-.88-135-1.36a174.65,174.65,0,0,1,75,28A10.15,10.15,0,0,1,966.15,1057Z"/><path class="cls-1" d="M67.61,997.43c97.7,0,195.77,43,295,69.71H757.27c9.22,0,17.6-.49,21.78-4.05,23-25.33,53-37.08,84.11-38.56,24.33-8.64,36.69-17.69,33.47-26.76-13.79-39.09-279.1-74.15-610.68-86.32-43.08-16.57-104.76-32.74-182.09-48.1-26.77,41.3-51,86.5-68.12,135.72A311.9,311.9,0,0,1,67.61,997.43Z"/><path class="cls-3" d="M1683.43,1248h693.23c.06-.22.1-.45.16-.67Z"/><path class="cls-5" d="M1049.9,1027.2c88,1.28,175.5,3.1,261.85,5.45-14.17-31-40.34-54.31-75.31-60.13q-5.6-.51-11.32-.92"/><path class="cls-5" d="M2390.24,1109.73c-.27-4.16-.61-8.36-1-12.57a499.17,499.17,0,0,0-20.51-101.69c-21.33-68.62-58.28-136.64-112.22-189.15-402.41,14.3-750.1,83-1031.39,165.28q5.72.4,11.32.92c35,5.82,61.14,29.16,75.31,60.13l8,.21a100.64,100.64,0,0,0,1,26.88,129.29,129.29,0,0,0-9-27.09c-86.35-2.35-173.81-4.17-261.85-5.45q-19.51,6.69-38.48,13.41-23,8.16-45.27,16.34c-193.7,71.3-339.92,142.52-432.25,191l-511,1.59a464.71,464.71,0,0,0,31.62,88.2q4.22,8.87,8.67,17.43H1034.7c90.94-14.28,185.38-24.43,280.85-29.9,273.3-15.64,249.22-7.52,518.29-36.77,82-8.92,146.62-29.21,241.69-31.82H2374.2c.83-2.91,1.69-5.79,2.46-8.73l.16-.67A432.61,432.61,0,0,0,2390.24,1109.73Zm-1422.77-43c-.06-.45-.1-.9-.13-1.33,0,.43.07.88.13,1.33.33-.08.7-.14,1.11-.21C968.17,1066.58,967.8,1066.64,967.47,1066.72Z"/><path class="cls-6" d="M2075.53,1256.69c-95.07,2.61-159.67,22.9-241.69,31.82-269.07,29.25-245,21.13-518.29,36.77-95.47,5.47-189.91,15.62-280.85,29.9H63.17c1.31,2.52,2.65,5,4,7.47q6,11,12.38,21.56c55.38,91.3,129.1,151.93,163.18,177.4l.05,0,0,0,2.64,2c.62.46,1.23.89,1.85,1.34l3.78,2.76,2.69,1.92c1.21.86,2.42,1.73,3.62,2.57l4.44,3.07,1.84,1.26q3.27,2.22,6.53,4.37c82,53.87,154,66.29,267.5,69.34,80.35,2.17,181.47-.37,321.64,3.78,66.06,2,140.78,5.39,226.09,11.51,0,0,548.4,31.78,850.23-11.51,67.7-9.71,123-23.19,156.92-41.66a326.86,326.86,0,0,0,31.15-19.45c5.89-4.14,11.32-8.21,16.2-12,3.93-3.08,7.51-6,10.66-8.61,7.88-6.58,13.16-11.45,15-13,7.69-6.49,21.88-18.49,39.52-35.46,32.18-30.94,75.86-78.51,112.82-139.63q6.36-10.51,12.44-21.56a510.84,510.84,0,0,0,43.81-106Z"/><ellipse class="cls-7" cx="1087.51" cy="1880.54" rx="689.92" ry="33.62"/><rect class="cls-8" x="1453.04" y="1451.79" width="51.87" height="427.96"/><path class="cls-8" d="M1791.77,1381.76H398.39a37.61,37.61,0,0,0,0,75.22H606.07v422.33c0,.06,0,.11,0,.16s0,.11,0,.16v.13h0c.48,4.54,11.83,8.18,25.85,8.18s25.38-3.64,25.85-8.18H658V1457H1791.77a37.61,37.61,0,1,0,0-75.22Z"/><ellipse class="cls-8" cx="1478.99" cy="1879.47" rx="25.94" ry="8.47"/><path class="cls-9" d="M1780.26,1850.21l-103.85-33c-5.12-1.63-11.31.33-12.31,3.89l-15.89,56.66c-.92,3.3,3.12,6.3,8.45,6.27l111-.67C1796.84,1883.13,1806.21,1858.48,1780.26,1850.21Z"/><path class="cls-10" d="M1128.55,1318c2.68-28,27.73-48.82,56.18-48.82,280.61,0,282.87-1.37,293.45,3.13-52.92,7.5-88,52.15-112.59,104.86H1182.82C1151.11,1377.13,1125.5,1350,1128.55,1318Z"/><path class="cls-9" d="M1942.13,1746.28,1838.3,1679c-4.76-2.86-11.47-2.37-13.35,1l-22.52,62.43c-1.74,3.11,1.61,7.1,7,8.34l112,25.85C1950.81,1783.4,1966.26,1760.8,1942.13,1746.28Z"/><path class="cls-11" d="M1300.31,784c18-12.84,29-27.21,41.32-6.75,27.73,46.1,71.89,111.05,92.56,160.63,10.24,24.55,19.75,49.4,28.84,74.39,7.58,20.8,17.07,46.83,9.33,79.78l-80.28-10.66a26.69,26.69,0,0,0-1.41-11.27c-12.27-34.78-53.78-148.06-100.09-225C1278.34,824.78,1279.86,798.64,1300.31,784Z"/><path class="cls-12" d="M1303.71,729.79c27.62,20.93,48.16,58.59,54.74,100.86,22.56,144.86-13.21,224.76-40.61,384.81A224,224,0,0,1,1312,1241a171.82,171.82,0,0,1-14,34.06l4-546.54C1302.48,728.93,1303.13,729.35,1303.71,729.79Z"/><path class="cls-13" d="M1156.73,705.72a172.64,172.64,0,0,1,118.19,7.39,143.85,143.85,0,0,1,27,15.39l-4,546.54c-10.16,18.54-22.88,32.67-37,43.2Z"/><path class="cls-12" d="M1156.73,705.72l104.16,612.52c-55.69,41.46-132.76,28.15-156.4,17.68-38.29-17-59.71-508.11-39.9-552.85C1081.68,744.47,1116.31,717.7,1156.73,705.72Z"/><path class="cls-14" d="M1127.44,1248.57c72.14-19.81,168.93-29.2,240.09-52.18,34-11,70.4-24.63,106.74-24.2,35,.42,82.9,23.4,106.2,48.1,72.44,76.8,190.21,292.44,286,434.54,17.13,25.42,36.06,62.66,10.56,77.42-28,16.24-68.25-4-85.42-29.45-158.59-235.25-268.52-359.93-306.81-401.51-9.53-10.35-32.25-3.46-45.83.42-48.06,13.74-135,79.12-242.74,82.5C1093.69,1387.42,1056.58,1268,1127.44,1248.57Z"/><path class="cls-11" d="M1478.18,1272.27c.7.3,1.43.62,2.29,1,16,2.82,30.87,11.58,37.68,26.49,72.2,158,137,334.19,195.51,498,10.29,28.8,6.63,50.29-21.6,58-31.57,8.59-46.82,1.78-57.15-27.12-50.77-142.09-135.72-298.73-198.77-435.51a27.44,27.44,0,0,0-25-15.91h-108.9C1376.86,1326.18,1425.26,1279.77,1478.18,1272.27Z"/><path class="cls-15" d="M1495.14,943.35h-55.62c-5.61,0-7.83-4.55-5-10.16l53.06-103.75c2.87-5.62,9.75-10.17,15.36-10.17h55.62c5.61,0,7.83,4.55,5,10.17L1510.5,933.19C1507.63,938.8,1500.75,943.35,1495.14,943.35Z"/><path class="cls-16" d="M1419.48,947.79c8.41-24,29.07-38.38,46.15-32.22s24.1,30.57,15.69,54.52-29.06,38.38-46.14,32.22S1411.07,971.74,1419.48,947.79Z"/><path class="cls-16" d="M1229.83,759.16c26.19-1.14,38-23.33,43.68-46.94-17.53-7-36.65-12.87-53.71-14.49-11-1-41.58,2.5-47.4,4C1176.18,730.11,1199.84,760,1229.83,759.16Z"/><path class="cls-17" d="M1173.58,529.14c-1.71-4.15-6.49-6.25-8.71-10.14-2.88-5-.68-11.5,2.57-16.31s7.57-9.09,9.34-14.62c1.51-4.73,1-9.89,2.1-14.73s5-9.81,10-9.31c2.35.24,4.45,1.68,6.79,1.92,6.6.66,10-7.36,14.19-12.47a21,21,0,0,1,20-7.07c5.23,1.06,10.79,4.11,15.52,1.66,3.74-1.94,5.66-6.86,9.79-7.68,6.06-1.2,9.72,7.16,15.7,8.73,4.2,1.11,8.4-1.39,12.59-2.55a21.25,21.25,0,0,1,21.81,7.11c2.68,3.4,4.4,7.73,8,10.09,4.69,3.05,11.44,2,15.59,5.74,3.72,3.34,3.79,9.2,2.37,14s-4,9.24-4.74,14.18c-1.94,13.21,9.48,28.11,1.63,38.92-1.84,2.53-4.68,4.63-5.09,7.73s1.92,6.12,1.85,9.3c-.17,7.43-12.36,10.18-12.39,17.62-3.18-15-.47-30.81-4.11-45.69s-18-29.48-32.6-24.8c-7.94,2.55-13.2,9.89-17.67,16.92-6.63,10.4-12.8,21.09-19,31.77-9.22,16-24.6,32.75-45.59,27.1-7.37-2-12.45-7.26-16.3-13.79C1170.21,550.77,1178.05,540,1173.58,529.14Z"/><path class="cls-17" d="M1322.52,508l-3.12,32.92c-4.64,49-37.79,86.4-73.68,83s-61.46-46.27-56.82-95.31l3.12-32.92c0-.25.07-.48.09-.73,39.79-19.45,84.43-21.37,129.18-18A116.69,116.69,0,0,1,1322.52,508Z"/><path class="cls-16" d="M1207.76,565.77c-8.49-.8-16.16,6.83-17.12,17s5.13,19.12,13.62,19.92,16.16-6.82,17.13-17S1216.25,566.57,1207.76,565.77Z"/><path class="cls-17" d="M1209.3,549.5c3.12-33,28.12-57.84,55.55-55.25,11.62,1.09,21.73,7.12,29.46,16l-85.16,40.84Z"/><path class="cls-16" d="M1294.31,510.25c10.54,12.1,16.55,29.63,14.75,48.64l-4.56,48.27c-3.12,33-28.12,57.83-55.56,55.25s-47.33-31.67-44.21-64.64l4.42-46.68Z"/><path class="cls-16" d="M1202.85,725.94l40.07,3.77a10.08,10.08,0,0,0,11-9.05l9.75-103.1a10.07,10.07,0,0,0-9.07-10.94l-40.06-3.77a10.08,10.08,0,0,0-11,9L1193.78,715A10.08,10.08,0,0,0,1202.85,725.94Z"/><path class="cls-1" d="M1214,585.36c0,4.45-2.76,8-6.17,8s-6.17-3.59-6.17-8,2.76-8,6.17-8S1214,580.93,1214,585.36Z"/><path class="cls-1" d="M1336.14,1192.41,1332,1192c3.52-32-8.57-66.39-37-105.06-7.5-10.21-15.66-20.26-23.56-30-16.11-19.83-32.77-40.34-44.82-63.41-31.37-60.09-29.26-131.92-22.31-200.6q1.08-10.51,2.21-21.09c6.38-60.09,13-122.23-3.16-180.47l4-1.11c16.34,59,9.7,121.54,3.29,182-.75,7-1.5,14.06-2.21,21.07-6.88,68-9,139.14,21.86,198.26,11.85,22.69,28.37,43,44.36,62.72,7.92,9.75,16.12,19.84,23.68,30.14C1327.45,1124,1339.8,1159.3,1336.14,1192.41Z"/><path class="cls-11" d="M1059.13,814.12c6.65,111.74,46.48,275.75,143.72,311.56,43.27,15.94,87.52-13.4,124.6-32.56,41.67-21.54,77.12-52.83,117.6-76.5,20.55-12,28.65-34.3,15.63-52.19-14.89-20.47-21.66-16-42.08-4-30.72,18-163.35,71.71-188.65,81.64-51.52-37.16-61.34-150.28-67-244.48C1159.65,741.2,1055.79,758,1059.13,814.12Z"/><path class="cls-11" d="M1284.21,1276.76c-20.35,12-24.09,4.13-38.93-16.27-13.08-18-21.13-27.55-.65-39.69,95-56.27,131.8-107.24,144.19-129a25.71,25.71,0,0,0,3.26-10.4l80.28,10.66C1461.49,1138.38,1416.54,1198.36,1284.21,1276.76Z"/><path class="cls-16" d="M1287.16,1259.89c-4.8,24.76-23.24,42.06-41.2,38.65s-28.62-26.25-23.82-51,23.24-42,41.2-38.64S1292,1235.14,1287.16,1259.89Z"/><circle class="cls-18" cx="1718.46" cy="557.93" r="273.04"/><rect class="cls-19" x="1551.88" y="418.84" width="344.39" height="253.5" rx="55.5"/><polygon class="cls-19" points="1612.67 672.34 1612.67 732.37 1673.49 671.55 1612.67 672.34"/><circle class="cls-18" cx="1658.16" cy="553.36" r="19.39" transform="translate(747.54 2045.5) rotate(-77.06)"/><circle class="cls-18" cx="1725.42" cy="553.04" r="19.39" transform="translate(800.06 2110.81) rotate(-77.06)"/><circle class="cls-18" cx="1792.61" cy="553.36" r="19.39" transform="translate(133.76 1429.65) rotate(-45)"/><path class="cls-20" d="M397.88,447.46c31.38-72.19,88.27-119.32,129.31-127.25V319h5.08v.43a56.6,56.6,0,0,1,6.65-.43c45.64,0,58.93,49.08,81.34,128.45,18.91,74.34,45.82,175.26,70.86,287.28v304.72A289.9,289.9,0,0,1,680,1067.67c-34.51,79.37-99.83,128.45-141.05,128.45a59.4,59.4,0,0,1-6.65-.4v157.87h-5.08V1194.9c-36.4-8-49.24-55.12-69.6-127.23-20.2-79.36-49.5-189-75.91-310.11S361.16,526.82,397.88,447.46Z"/><path class="cls-21" d="M166.18,638.31c46.92-83.08,145-145.61,259.45-144.6,113.62-1,211.08,60.63,258.39,142.82v311c-37.92,86.84-91.42,158-135,212-49.39,58.23-86.8,96-123.43,95.74-36.63.23-74.05-37.51-123.43-95.74-47.54-58.87-107-138.24-145.08-236.17C119.31,826.28,117.17,722,166.18,638.31Z"/><g class="cls-22"><path class="cls-23" d="M445.91,770.24l5.73,3.13c-55.85,101.34-27.31,204.9.29,305.05,18.41,66.81,37.22,208.17,31.59,276.64a43.15,43.15,0,0,0-6.76,1.28c6-68.12-12.74-209.44-31.14-276.19C417.67,978.74,388.78,873.89,445.91,770.24Z"/><path class="cls-23" d="M429.19,1008.22c46.95-32.16,70.31-80.58,90.92-123.31,3-6.31,6-12.54,9.08-18.62,12-26.75,26.31-54.77,42.59-83.41,2.06-3.61,2.43-4.27,1.46-5.91l-5.61,3.35,2.79-1.71-3-1.38c-.13.26-.61,1.1-1.37,2.45-16.38,28.81-30.78,57-42.82,83.83-3,6-6,12.24-9.06,18.58-20.25,42-43.21,89.59-88.72,120.76Z"/><path class="cls-23" d="M460,1115.45l.32-6.49c-2.56-.52-31.95-14-86-58-55.83-48.71-120-118.35-120.14-224.69h-6.54c.12,109,65.51,180,122.46,229.65C421.47,1097.76,455.23,1115.45,460,1115.45Z"/><path class="cls-23" d="M470.11,1167c84.94-63.26,99.57-115.69,100.74-141.32,0-.51,0-.89.06-1.11l-3.14-.38v-3.58c-3.24,0-3.39,3.22-3.45,4.78-.9,19.7-12.26,72.43-98.12,136.39Z"/></g><path class="cls-21" d="M684,636.53c-24.53-42.62-62.62-79.6-109.37-105.29,13.38,30.19,40.78,56.56,38.46,89.41-1.55,22-16.44,40.49-30.54,57.5-22.43,27.05-44.87,54.91-57.88,87.52s-15.42,71.18,1.82,101.78c14.23,25.24,40.79,43.86,47.54,72,6.62,27.65-8,55.62-10.56,83.93-2.71,29.43,8.91,58.14,28.54,80.34,32.5-44.4,65.92-96.52,92-156.23Z"/><path class="cls-24" d="M684,636.53c-24.53-42.62-62.62-79.6-109.37-105.29,13.38,30.19,40.78,56.56,38.46,89.41-1.55,22-16.44,40.49-30.54,57.5-22.43,27.05-44.87,54.91-57.88,87.52s-15.42,71.18,1.82,101.78c14.23,25.24,40.79,43.86,47.54,72,6.62,27.65-8,55.62-10.56,83.93-2.71,29.43,8.91,58.14,28.54,80.34,32.5-44.4,65.92-96.52,92-156.23Z"/><path class="cls-25" d="M829.77,164.51c-39.48-46.36-111.69-46.36-151.16,0l-.63.75c-27.51,32.65-43.06,78.65-28.52,118.74,7.46,20.59,22.46,39.25,22.61,61.14.26,37.1-39.7,59.46-61.91,89.23-21.5,28.82-26.38,69.11-12.38,102.19,13.08,30.91,41.6,57.66,39.24,91.12-1.55,22-16.44,40.49-30.54,57.5-22.43,27.06-44.87,54.92-57.88,87.52s-15.42,71.18,1.82,101.78c14.23,25.24,40.79,43.86,47.53,72,6.63,27.65-8,55.62-10.56,83.93-4.91,53.43,37.21,104.6,89.25,118.41,22.93,6.09,46.89,5.73,69.91.33a33.42,33.42,0,0,1,15.28,0c23,5.4,47,5.76,69.9-.33,52-13.81,94.16-65,89.25-118.41-2.6-28.31-17.18-56.28-10.56-83.93,6.74-28.16,33.31-46.78,47.53-72,17.24-30.6,14.83-69.17,1.82-101.78s-35.45-60.46-57.87-87.52c-14.1-17-29-35.49-30.55-57.5-2.35-33.46,26.16-60.21,39.25-91.12,14-33.08,9.11-73.37-12.38-102.19C876,404.6,836.05,382.24,836.3,345.14c.15-21.89,15.15-40.55,22.62-61.14,14.54-40.09-1-86.09-28.52-118.74Z"/><rect class="cls-26" x="747.53" y="175.21" width="8.05" height="1179.56"/><polygon class="cls-26" points="748.85 355.57 687.15 267.05 693.76 262.48 755.47 351 748.85 355.57"/><polygon class="cls-26" points="748.48 665.3 655.39 486.41 662.54 482.72 755.63 661.61 748.48 665.3"/><rect class="cls-26" x="689.36" y="486.39" width="8.05" height="61.34" transform="translate(-9.69 13.25) rotate(-1.09)"/><polygon class="cls-26" points="755.06 843.19 749.04 837.87 876.83 694.36 882.85 699.68 755.06 843.19"/><rect class="cls-26" x="767.87" y="718.73" width="103.54" height="8.04" transform="matrix(0.21, -0.98, 0.98, 0.21, -56.6, 1375.73)"/><polygon class="cls-26" points="747.23 1002.69 630.44 836.63 637.02 832.03 753.81 998.08 747.23 1002.69"/><rect class="cls-26" x="649.91" y="769.78" width="8.04" height="107.6" transform="translate(-161.58 159.61) rotate(-12.4)"/><polygon class="cls-26" points="755.69 1083.36 748.9 1079.08 874.2 882.51 880.99 886.8 755.69 1083.36"/><rect class="cls-26" x="818.11" y="902.87" width="63.09" height="8.05" transform="translate(-215.49 1547.1) rotate(-77.87)"/><polygon class="cls-26" points="755.67 389.78 749.11 385.11 817.87 289.23 824.42 293.9 755.67 389.78"/><polygon class="cls-26" points="804.49 321.94 796.5 320.97 805.66 246.38 813.65 247.35 804.49 321.94"/></svg>