<svg id="Layer_1" data-name="Layer 1" xmlns="http://www.w3.org/2000/svg" viewBox="0 0 159 153"><defs><style>.cls-1{fill:#e9e9f6;}.cls-2{fill:#fff;}.cls-3{fill:#98b720;}.cls-4{fill:#38378d;}</style></defs><g id="Bob_2" data-name="Bob 2"><path class="cls-1" d="M155.74,65.3C151.9,45.7,146.45,38,135.69,35c-8.3-2.35-16.83.22-24.3-3.85-5.38-3-12.23-9.09-18.82-11.94C81,14.17,67.75,14,53.49,15.52,11.41,20.11,3.9,57.86,7.23,78.94c3.06,15.78,9.29,27.26,20.05,30.25,8.3,2.36,16.83-.21,24.31,3.85,5.41,3,12.22,9.09,18.81,12,11.55,5.08,24.82,5.28,39.08,3.73C151.56,124.12,159.07,86.38,155.74,65.3Z"/></g><g id="Step_2" data-name="Step 2"><polygon class="cls-2" points="112.75 125.13 48.26 125.13 48.26 41.04 49.84 37.81 52.3 36.53 108.38 36.43 109.97 36.49 112.75 41.36 112.75 125.13"/><path class="cls-3" d="M109.62,36.45V122H53.38V36.45a9.16,9.16,0,0,0-8.86,9.15v77.64a9.17,9.17,0,0,0,9.17,9.16h55.62a9.16,9.16,0,0,0,9.17-9.15h0V45.6A9.16,9.16,0,0,0,109.62,36.45Z"/><path class="cls-3" d="M76.3,58.67a1.85,1.85,0,0,0-2.6,0l-9.24,9.25-3-3a1.83,1.83,0,1,0-2.59,2.6h0l4.26,4.26a1.82,1.82,0,0,0,2.57,0l0,0L76.3,61.27A1.85,1.85,0,0,0,76.3,58.67Z"/><rect class="cls-3" x="79.52" y="66.69" width="25.21" height="4.43"/><path class="cls-3" d="M76.3,77a1.83,1.83,0,0,0-2.59,0h0l-9.24,9.25-3-3a1.83,1.83,0,1,0-2.59,2.6l4.26,4.26a1.84,1.84,0,0,0,2.59,0L76.3,79.6A1.83,1.83,0,0,0,76.3,77Z"/><rect class="cls-3" x="79.52" y="85.03" width="25.21" height="4.43"/><path class="cls-3" d="M73.7,95.35l-9.24,9.25-3-3a1.83,1.83,0,0,0-2.59,2.59h0l4.26,4.27a1.84,1.84,0,0,0,2.59,0L76.3,97.94a1.83,1.83,0,0,0-2.6-2.59Z"/><rect class="cls-3" x="79.52" y="103.37" width="25.21" height="4.43"/><path class="cls-3" d="M60.45,49.27h42.11a2.13,2.13,0,0,0,2.11-2.11V34.88a2.1,2.1,0,0,0-2.11-2.11H91.89c0-4.48-4.65-8.1-10.39-8.1s-10.39,3.62-10.39,8.1H60.45a2.1,2.1,0,0,0-2.12,2.1h0V47.16A2.12,2.12,0,0,0,60.45,49.27Zm17-16.58a3.92,3.92,0,1,1,3.93,3.91h0a3.92,3.92,0,0,1-4-3.89v0Z"/><circle class="cls-4" cx="19.79" cy="71.31" r="16.88"/><rect class="cls-2" x="9" y="62.44" width="21.14" height="15.56" rx="3.41"/><polygon class="cls-2" points="12.73 78 12.73 81.69 16.46 77.95 12.73 78"/><circle class="cls-4" cx="15.52" cy="70.7" r="1.19"/><circle class="cls-4" cx="19.56" cy="70.7" r="1.19"/><circle class="cls-4" cx="23.78" cy="70.7" r="1.19"/><circle class="cls-4" cx="138.7" cy="24.55" r="16.88"/><path class="cls-2" d="M136.3,26.85v-.23c0-1.36.17-2.15,1.9-3.26,2-1.27,3-2.18,3-3.63s-1-2.21-2.58-2.21-2.46.74-2.46,2v.29a.57.57,0,0,1-.44.67.41.41,0,0,1-.19,0H133a.71.71,0,0,1-.8-.6,3.89,3.89,0,0,1,0-.76c0-2.3,2-5.28,6.55-5.28,4,0,6.8,2.19,6.8,5.5,0,3.09-2.58,4.85-4.79,6.36-.2.14-.79.59-.82,1.07V27c0,.26-.14.4-.6.4H137C136.58,27.39,136.3,27.19,136.3,26.85Zm-.94,5A2.57,2.57,0,0,1,138,29.33h.1a2.61,2.61,0,0,1,2.73,2.49v0a2.56,2.56,0,0,1-2.66,2.47h-.07A2.52,2.52,0,0,1,135.37,32a.28.28,0,0,1,0-.09Z"/></g></svg>