<svg id="Layer_1" data-name="Layer 1" xmlns="http://www.w3.org/2000/svg" viewBox="0 0 159 153"><defs><style>.cls-1{fill:#e9e9f6;}.cls-2{fill:#fff;}.cls-3{fill:#e9510e;}.cls-4{fill:#38378d;}</style></defs><g id="Bob_2" data-name="Bob 2"><path class="cls-1" d="M155.74,65.3C151.9,45.7,146.45,38,135.69,35c-8.3-2.35-16.83.22-24.3-3.85-5.38-3-12.23-9.09-18.82-11.94C81,14.17,67.75,14,53.49,15.52,11.41,20.11,3.9,57.86,7.23,78.94c3.06,15.78,9.29,27.26,20.05,30.25,8.3,2.36,16.83-.21,24.31,3.85,5.41,3,12.22,9.09,18.81,12,11.55,5.08,24.82,5.28,39.08,3.73C151.56,124.12,159.07,86.38,155.74,65.3Z"/></g><g id="Step_1" data-name="Step 1"><polygon class="cls-2" points="109.23 125.68 44.94 125.68 44.94 41.86 46.58 37.9 49.8 36.7 106.01 36.7 107.05 36.87 109.23 42.17 109.23 125.68"/><path class="cls-3" d="M106,36.69v85.44H49.81V36.69A9.14,9.14,0,0,0,41,45.83v77.53a9.16,9.16,0,0,0,9.16,9.15h55.55a9.15,9.15,0,0,0,9.15-9.15h0V45.83A9.14,9.14,0,0,0,106,36.69Z"/><rect class="cls-3" x="55.44" y="60.6" width="45.65" height="4.43"/><rect class="cls-3" x="55.44" y="78.91" width="45.65" height="4.43"/><rect class="cls-3" x="55.44" y="97.23" width="45.65" height="4.43"/><rect class="cls-3" x="55.44" y="69.61" width="45.65" height="4.43"/><rect class="cls-3" x="55.44" y="87.92" width="45.65" height="4.43"/><rect class="cls-3" x="55.44" y="106.23" width="45.65" height="4.43"/><path class="cls-3" d="M56.87,49.49H98.92A2.12,2.12,0,0,0,101,47.38V35.12A2.11,2.11,0,0,0,98.92,33H88.27c0-4.47-4.65-8.09-10.38-8.09S67.51,28.54,67.51,33H56.87a2.12,2.12,0,0,0-2.12,2.11V47.38a2.1,2.1,0,0,0,2.11,2.11ZM73.88,33a4,4,0,1,1,4,4A4,4,0,0,1,73.88,33Z"/><circle class="cls-4" cx="20.25" cy="26.35" r="16.97"/><path class="cls-2" d="M26.78,33.32l1.89-2.27L30,33.81a.29.29,0,0,1-.34.4Z"/><polygon class="cls-2" points="25.24 24.36 27.94 29.98 25.5 32.83 19.45 31.4 25.24 24.36"/><polygon class="cls-2" points="8.28 22.12 14.11 15.11 24.09 23.43 18.26 30.44 8.28 22.12"/><circle class="cls-4" cx="138.14" cy="105.06" r="17.13"/><path class="cls-2" d="M128.44,107.09v6.3h19.5v-6.3a3.15,3.15,0,0,0-3.15-3.15H131.58A3.15,3.15,0,0,0,128.44,107.09Z"/><circle class="cls-2" cx="138.12" cy="98.04" r="4.38"/></g></svg>