<?xml version="1.0" encoding="UTF-8"?>
<svg xmlns="http://www.w3.org/2000/svg" viewBox="0 0 600 600">
  <defs>
    <style>
      .cls-1, .cls-2, .cls-3 {
        fill: none;
      }

      .cls-4 {
        fill: #f08951;
      }

      .cls-5 {
        fill: #e9510e;
      }

      .cls-6 {
        fill: #ed0081;
      }

      .cls-7 {
        fill: #f5b385;
      }

      .cls-8 {
        fill: #f6b089;
      }

      .cls-9 {
        fill: #f5e5d6;
      }

      .cls-10 {
        fill: #e7e8f5;
      }

      .cls-11 {
        fill: #e95c21;
      }

      .cls-12 {
        fill: #e62181;
      }

      .cls-13, .cls-14 {
        fill: #fff;
      }

      .cls-15 {
        fill: #f39828;
      }

      .cls-16 {
        fill: #fcd22c;
      }

      .cls-17 {
        fill: #e6d3bd;
      }

      .cls-18 {
        fill: #e46d1a;
      }

      .cls-19 {
        fill: #b59d8b;
      }

      .cls-20 {
        fill: #a86915;
      }

      .cls-21 {
        fill: #abc92f;
      }

      .cls-22 {
        fill: #c5cae8;
      }

      .cls-23 {
        fill: #d79d77;
      }

      .cls-24 {
        fill: #172c48;
      }

      .cls-25 {
        fill: #1e1f1c;
      }

      .cls-26 {
        fill: #414273;
      }

      .cls-27 {
        fill: #37388b;
      }

      .cls-28 {
        fill: #3f51b5;
      }

      .cls-29 {
        fill: #3cb28e;
      }

      .cls-30 {
        fill: #464575;
      }

      .cls-31 {
        fill: #58bfcf;
      }

      .cls-32 {
        fill: #2d2c49;
      }

      .cls-33 {
        fill: #344293;
      }

      .cls-34 {
        fill: #272542;
      }

      .cls-35 {
        fill: #5fb994;
      }

      .cls-36 {
        fill: #5dc1d2;
      }

      .cls-2 {
        stroke: #fff;
        stroke-width: 5.76px;
      }

      .cls-2, .cls-3 {
        stroke-miterlimit: 10;
      }

      .cls-3 {
        stroke: #565692;
        stroke-width: 1.21px;
      }

      .cls-14 {
        fill-rule: evenodd;
      }
    </style>
  </defs>
  <g id="background">
    <ellipse class="cls-22" cx="304.82" cy="287.32" rx="256.83" ry="257"/>
    <path class="cls-13" d="M273.65,46.73h-59.9c-1.93,.7-3.85,1.43-5.75,2.18h63.46v114.9H79.26c-.41,.73-.81,1.46-1.2,2.19h195.59V46.73Z"/>
    <path class="cls-13" d="M261.18,56.79h-70.61c-44.84,21.83-80.94,56.21-106.64,98.93h177.25V56.79Z"/>
    <path id="Fill-7" class="cls-14" d="M481.54,100.55c-26.28-24.97-57.57-44.08-91.79-56.06v56.06h91.79Z"/>
    <path id="Fill-8" class="cls-14" d="M389.75,200.52h127.8v-57.52c-8.2-12.1-17.42-23.47-27.55-34h-100.25v91.52Z"/>
    <path id="Fill-9" class="cls-14" d="M546.66,200.52c-5.31-14.9-11.99-29.27-19.95-42.94v42.94h19.95Z"/>
    <polygon id="Fill-10" class="cls-14" points="389.75 300.5 517.55 300.5 517.55 208.94 389.75 208.94 389.75 300.5"/>
    <path id="Fill-11" class="cls-14" d="M526.71,300.49h36.38c.26-5.22,.35-10.47,.36-15.75-.05-29.36-4.34-58.54-12.73-86.52h-24.01v102.27Z"/>
  </g>
  <g id="Who_we_are" data-name="Who we are">
    <g>
      <polygon class="cls-12" points="252.46 134.03 57.22 329.27 78.06 329.27 273.3 134.03 252.46 134.03"/>
      <path class="cls-12" d="M322.18,152.39c.01-4.22-1.46-8.3-4.15-11.54l-188.47,188.43h20.76l171.86-171.82v-5.07Z"/>
      <polygon class="cls-12" points="83.59 134.03 29.32 188.34 29.32 209.19 104.47 134.03 83.59 134.03"/>
      <polygon class="cls-12" points="131.88 134.03 29.32 236.59 29.32 257.44 152.72 134.03 131.88 134.03"/>
      <polygon class="cls-12" points="322.18 160.77 153.68 329.27 174.52 329.27 322.18 181.62 322.18 160.77"/>
      <polygon class="cls-12" points="322.18 184.9 177.8 329.27 198.69 329.27 322.18 205.78 322.18 184.9"/>
      <path class="cls-12" d="M204.21,134.03L29.32,308.93v2.16c0,4.97,2.05,9.73,5.65,13.16L225.05,134.03h-20.84Z"/>
      <path class="cls-12" d="M228.34,134.03L36.75,325.62c3.15,2.37,6.98,3.65,10.92,3.65h6.27L249.1,134.12l-20.76-.08Z"/>
      <path class="cls-12" d="M303.87,134.03h-3.16L105.55,329.19h20.76l190.17-190.17c-3.41-3.23-7.93-5.01-12.62-4.98Z"/>
      <polygon class="cls-12" points="276.58 134.03 81.34 329.27 102.19 329.27 297.47 134.03 276.58 134.03"/>
      <polygon class="cls-12" points="180.09 134.03 29.32 284.84 29.32 305.65 200.93 134.03 180.09 134.03"/>
      <polygon class="cls-12" points="156 134.03 29.32 260.72 29.32 281.56 176.81 134.03 156 134.03"/>
      <polygon class="cls-12" points="107.75 134.03 29.32 212.47 29.32 233.31 128.6 134.03 107.75 134.03"/>
      <polygon class="cls-12" points="322.18 257.23 250.13 329.27 270.98 329.27 322.18 278.12 322.18 257.23"/>
      <path class="cls-12" d="M47.67,134.03c-10.14,0-18.35,8.22-18.35,18.35v8.6l26.95-26.95h-8.6Z"/>
      <polygon class="cls-12" points="322.18 281.36 274.26 329.27 295.15 329.27 322.18 302.24 322.18 281.36"/>
      <polygon class="cls-12" points="322.18 233.15 226.09 329.27 246.85 329.27 322.18 253.95 322.18 233.15"/>
      <path class="cls-12" d="M298.59,329.27h5.44c10.01-.07,18.1-8.18,18.15-18.19v-5.56l-23.58,23.75Z"/>
      <polygon class="cls-12" points="59.54 134.03 29.32 164.26 29.32 185.06 80.35 134.03 59.54 134.03"/>
      <polygon class="cls-12" points="322.18 209.06 201.93 329.27 222.81 329.27 322.18 229.87 322.18 209.06"/>
      <rect class="cls-6" x="29.32" y="134.03" width="292.86" height="195.24" rx="18.35" ry="18.35"/>
      <polygon class="cls-10" points="56.26 134.03 29.32 160.98 29.32 164.26 59.54 134.03 56.26 134.03"/>
      <polygon class="cls-10" points="80.35 134.03 29.32 185.06 29.32 188.34 83.59 134.03 80.35 134.03"/>
      <polygon class="cls-10" points="104.47 134.03 29.32 209.19 29.32 212.47 107.75 134.03 104.47 134.03"/>
      <polygon class="cls-10" points="128.6 134.03 29.32 233.31 29.32 236.59 131.88 134.03 128.6 134.03"/>
      <polygon class="cls-10" points="152.72 134.03 29.32 257.44 29.32 260.72 156 134.03 152.72 134.03"/>
      <polygon class="cls-10" points="176.81 134.03 29.32 281.56 29.32 284.84 180.09 134.03 176.81 134.03"/>
      <polygon class="cls-10" points="200.93 134.03 29.32 305.65 29.32 308.93 204.21 134.03 200.93 134.03"/>
      <path class="cls-10" d="M225.05,134.03L34.96,324.12c.56,.54,1.15,1.04,1.79,1.49L228.34,134.03h-3.28Z"/>
      <polygon class="cls-10" points="249.18 134.03 53.94 329.27 57.22 329.27 252.46 134.03 249.18 134.03"/>
      <polygon class="cls-10" points="273.3 134.03 78.06 329.27 81.34 329.27 276.58 134.03 273.3 134.03"/>
      <polygon class="cls-10" points="297.47 134.03 102.19 329.27 105.47 329.27 300.71 134.03 297.47 134.03"/>
      <path class="cls-10" d="M316.45,139.1L126.27,329.27h3.28l188.43-188.43c-.47-.62-.98-1.2-1.54-1.74Z"/>
      <polygon class="cls-10" points="322.18 157.49 150.4 329.27 153.68 329.27 322.18 160.77 322.18 157.49"/>
      <polygon class="cls-10" points="322.18 181.62 174.52 329.27 177.8 329.27 322.18 184.9 322.18 181.62"/>
      <polygon class="cls-10" points="322.18 205.78 198.69 329.27 201.93 329.27 322.18 209.06 322.18 205.78"/>
      <polygon class="cls-10" points="322.18 229.87 222.81 329.27 226.09 329.27 322.18 233.15 322.18 229.87"/>
      <polygon class="cls-10" points="322.18 253.95 246.85 329.27 250.13 329.27 322.18 257.23 322.18 253.95"/>
      <polygon class="cls-10" points="322.18 278.12 270.98 329.27 274.26 329.27 322.18 281.36 322.18 278.12"/>
      <polygon class="cls-10" points="322.18 302.24 295.15 329.27 298.43 329.27 322.18 305.52 322.18 302.24"/>
      <rect class="cls-1" x="29.32" y="134.03" width="292.86" height="195.24"/>
      <path class="cls-13" d="M153.26,268.15l-44.39-43.64h-3.4c-8.68-2.84-17.14-6.34-25.29-10.46-9.28-4.21-16.21-12.31-18.93-22.13-1.19-6.07,.6-12.34,4.82-16.86,3.57-4.02,8.86-6.06,14.2-5.48,8.99,1.45,16.79,6.99,21.14,14.99,5.4,9.76,9.72,20.07,12.87,30.77l-1.16,.33,46.63,46.05-6.48,6.44Zm-74.74-89.52c-2.08-.12-4.1,.78-5.4,2.41-2.28,2.32-3.23,5.63-2.53,8.8,2.15,6.87,7.14,12.5,13.7,15.45,6.38,3.2,12.97,5.97,19.72,8.3-2.73-8.54-6.32-16.77-10.71-24.58-2.8-5.38-7.88-9.21-13.83-10.42l-.96,.04Z"/>
      <path class="cls-13" d="M68.72,268.11l-6.44-6.85,46.59-45.68h-1.29c3.15-10.68,7.47-20.99,12.87-30.73,4.39-7.95,12.17-13.46,21.14-14.95,5.35-.57,10.64,1.49,14.2,5.52,4.24,4.41,6.14,10.58,5.11,16.61-2.68,9.83-9.63,17.93-18.93,22.09-8.3,4.16-16.91,7.68-25.74,10.55h-3.74l-43.77,43.43Zm74.74-89.4h-.87c-5.89,1.28-10.94,5.05-13.83,10.34-4.38,7.84-7.94,16.1-10.63,24.66,6.7-2.4,13.25-5.17,19.64-8.3,6.63-2.9,11.68-8.53,13.83-15.45,.59-3.19-.42-6.46-2.7-8.76-1.36-1.66-3.42-2.58-5.56-2.49h.12Z"/>
      <rect class="cls-13" x="106.09" y="133.99" width="9.51" height="195.37"/>
      <rect class="cls-13" x="26.88" y="214.88" width="295.38" height="9.51"/>
      <line class="cls-2" x1="200.43" y1="280.28" x2="267.82" y2="280.28"/>
      <line class="cls-2" x1="200.43" y1="303.37" x2="295.76" y2="303.37"/>
    </g>
    <circle class="cls-33" cx="440.62" cy="163.17" r="115.55"/>
    <ellipse class="cls-28" cx="306.21" cy="562.56" rx="159.9" ry="10.03"/>
    <polygon class="cls-19" points="466.35 562.21 476.36 562.21 451.39 476.3 408.87 476.3 466.35 562.21"/>
    <polygon class="cls-19" points="146.2 562.38 136.17 562.38 161.22 476.3 203.74 476.3 146.2 562.38"/>
    <path class="cls-17" d="M93.28,391.72c8.6,33.67,22.51,85.34,62.39,88.78H454.86c39.91-3.44,43.91-55.11,52.55-88.78H93.28Z"/>
    <path class="cls-9" d="M446.42,309.85v-13.52c0-22.77-9.33-44.55-25.79-60.29-16.75-16.12-39.14-25.06-62.39-24.91h-114.59c-23.21-.13-45.56,8.81-62.28,24.91-16.44,15.75-25.74,37.52-25.74,60.29v13.52H446.42Z"/>
    <path class="cls-17" d="M446.42,379.5v-75.89c0-22.84-9.32-44.68-25.79-60.5-16.74-16.16-39.12-25.16-62.39-25.1h-114.59c-23.26-.03-45.63,8.97-62.39,25.1-16.53,15.79-25.92,37.64-26,60.5v75.89H446.42Z"/>
    <path class="cls-9" d="M504.59,388.09l-58.97-12.43H155.26l-58.97,12.43c-2.54,.86-3.81,2.47-2.93,4.07,1.65,1.91,4.12,2.89,6.63,2.63H500.89c2.51,.27,4.99-.72,6.63-2.63,.88-1.59-.39-3.21-2.93-4.07Z"/>
    <path class="cls-13" d="M283.48,381.09l9.74-1.74,143.27,19.25,18.86,10.1c5.14,2.76,10.1-2.25,9.88-9.97l-.56-19.26,21.44-102.95,7.45-21.32c2.39-6.86-1.91-15.67-7.36-15.07l-17.28,1.92-126.54-17.01-28.01-15.93c-2.21-.97-6.17,3.42-5.92,6.7l-1.41,20.88-22.45,107.79-8.31,22.1c-2.5,6.66,1.86,15.45,7.2,14.5Z"/>
    <g>
      <circle class="cls-13" cx="405.7" cy="262.38" r="5.78"/>
      <circle class="cls-13" cx="405.7" cy="275.5" r="4.62"/>
      <circle class="cls-13" cx="405.7" cy="286.74" r="3.7"/>
      <circle class="cls-13" cx="405.7" cy="296.3" r="2.67"/>
      <circle class="cls-13" cx="405.7" cy="304.17" r="1.58"/>
      <circle class="cls-13" cx="405.7" cy="310.18" r=".7"/>
      <circle class="cls-13" cx="387.63" cy="265.57" r="5.78"/>
      <circle class="cls-13" cx="392.12" cy="277.89" r="4.62"/>
      <circle class="cls-13" cx="395.97" cy="288.45" r="3.7"/>
      <circle class="cls-13" cx="399.23" cy="297.43" r="2.67"/>
      <circle class="cls-13" cx="401.92" cy="304.83" r="1.58"/>
      <circle class="cls-13" cx="403.98" cy="310.48" r=".69"/>
      <circle class="cls-13" cx="371.76" cy="274.74" r="5.78"/>
      <circle class="cls-13" cx="380.18" cy="284.78" r="4.62"/>
      <circle class="cls-13" cx="387.41" cy="293.39" r="3.7"/>
      <circle class="cls-13" cx="393.55" cy="300.72" r="2.67"/>
      <circle class="cls-13" cx="398.62" cy="306.75" r="1.58"/>
      <circle class="cls-13" cx="402.47" cy="311.35" r=".7"/>
      <circle class="cls-13" cx="359.98" cy="288.8" r="5.78"/>
      <circle class="cls-13" cx="371.33" cy="295.35" r="4.62"/>
      <circle class="cls-13" cx="381.07" cy="300.97" r="3.7"/>
      <circle class="cls-13" cx="389.35" cy="305.74" r="2.67"/>
      <circle class="cls-13" cx="396.17" cy="309.69" r="1.58"/>
      <circle class="cls-13" cx="401.38" cy="312.68" r=".7"/>
      <circle class="cls-13" cx="353.7" cy="306.03" r="5.78"/>
      <circle class="cls-13" cx="366.62" cy="308.3" r="4.62"/>
      <circle class="cls-13" cx="377.69" cy="310.25" r="3.7"/>
      <circle class="cls-13" cx="387.11" cy="311.91" r="2.67"/>
      <circle class="cls-13" cx="394.86" cy="313.28" r="1.58"/>
      <circle class="cls-13" cx="400.78" cy="314.33" r=".7"/>
      <circle class="cls-13" cx="353.7" cy="324.36" r="5.78"/>
      <circle class="cls-13" cx="366.62" cy="322.09" r="4.62"/>
      <circle class="cls-13" cx="377.69" cy="320.13" r="3.7"/>
      <circle class="cls-13" cx="387.11" cy="318.48" r="2.67"/>
      <circle class="cls-13" cx="394.86" cy="317.11" r="1.58"/>
      <circle class="cls-13" cx="400.78" cy="316.06" r=".7"/>
      <circle class="cls-13" cx="359.97" cy="341.61" r="5.78"/>
      <circle class="cls-13" cx="371.33" cy="335.05" r="4.62"/>
      <circle class="cls-13" cx="381.07" cy="329.43" r="3.7"/>
      <circle class="cls-13" cx="389.34" cy="324.65" r="2.67"/>
      <circle class="cls-13" cx="396.17" cy="320.71" r="1.58"/>
      <circle class="cls-13" cx="401.36" cy="317.7" r=".7"/>
      <circle class="cls-13" cx="371.77" cy="355.64" r="5.78"/>
      <circle class="cls-13" cx="380.19" cy="345.59" r="4.62"/>
      <circle class="cls-13" cx="387.42" cy="336.98" r="3.7"/>
      <circle class="cls-13" cx="393.56" cy="329.67" r="2.67"/>
      <circle class="cls-13" cx="398.64" cy="323.62" r="1.58"/>
      <circle class="cls-13" cx="402.49" cy="319.03" r=".7"/>
      <circle class="cls-13" cx="387.64" cy="364.81" r="5.78"/>
      <circle class="cls-13" cx="392.13" cy="352.48" r="4.62"/>
      <circle class="cls-13" cx="395.98" cy="341.93" r="3.7"/>
      <circle class="cls-13" cx="399.25" cy="332.94" r="2.67"/>
      <circle class="cls-13" cx="401.95" cy="325.54" r="1.58"/>
      <circle class="cls-13" cx="403.99" cy="319.9" r=".69"/>
      <circle class="cls-13" cx="405.71" cy="368" r="5.78"/>
      <circle class="cls-13" cx="405.71" cy="354.88" r="4.62"/>
      <circle class="cls-13" cx="405.71" cy="343.64" r="3.7"/>
      <circle class="cls-13" cx="405.71" cy="334.08" r="2.67"/>
      <circle class="cls-13" cx="405.71" cy="326.2" r="1.58"/>
      <circle class="cls-13" cx="405.71" cy="320.2" r=".7"/>
      <circle class="cls-13" cx="423.76" cy="364.81" r="5.78"/>
      <circle class="cls-13" cx="419.27" cy="352.48" r="4.62"/>
      <circle class="cls-13" cx="415.42" cy="341.92" r="3.7"/>
      <circle class="cls-13" cx="412.16" cy="332.94" r="2.67"/>
      <circle class="cls-13" cx="409.46" cy="325.53" r="1.58"/>
      <circle class="cls-13" cx="407.41" cy="319.9" r=".69"/>
      <circle class="cls-13" cx="439.63" cy="355.64" r="5.78"/>
      <circle class="cls-13" cx="431.21" cy="345.59" r="4.62"/>
      <circle class="cls-13" cx="423.98" cy="336.98" r="3.7"/>
      <circle class="cls-13" cx="417.84" cy="329.66" r="2.67"/>
      <circle class="cls-13" cx="412.78" cy="323.62" r="1.58"/>
      <circle class="cls-13" cx="408.92" cy="319.03" r=".7"/>
      <circle class="cls-13" cx="451.41" cy="341.58" r="5.78"/>
      <circle class="cls-13" cx="440.06" cy="335.03" r="4.62"/>
      <circle class="cls-13" cx="430.32" cy="329.41" r="3.7"/>
      <circle class="cls-13" cx="422.04" cy="324.62" r="2.67"/>
      <circle class="cls-13" cx="415.22" cy="320.68" r="1.58"/>
      <circle class="cls-13" cx="410.02" cy="317.68" r=".7"/>
      <circle class="cls-13" cx="457.69" cy="324.35" r="5.78"/>
      <circle class="cls-13" cx="444.77" cy="322.07" r="4.62"/>
      <circle class="cls-13" cx="433.7" cy="320.12" r="3.7"/>
      <circle class="cls-13" cx="424.29" cy="318.47" r="2.67"/>
      <circle class="cls-13" cx="416.53" cy="317.09" r="1.58"/>
      <circle class="cls-13" cx="410.62" cy="316.05" r=".7"/>
      <circle class="cls-13" cx="457.69" cy="306" r="5.78"/>
      <circle class="cls-13" cx="444.77" cy="308.28" r="4.62"/>
      <circle class="cls-13" cx="433.7" cy="310.24" r="3.7"/>
      <circle class="cls-13" cx="424.28" cy="311.9" r="2.67"/>
      <circle class="cls-13" cx="416.53" cy="313.27" r="1.58"/>
      <circle class="cls-13" cx="410.61" cy="314.3" r=".7"/>
      <circle class="cls-13" cx="451.42" cy="288.77" r="5.78"/>
      <circle class="cls-13" cx="440.06" cy="295.33" r="4.62"/>
      <circle class="cls-13" cx="430.32" cy="300.94" r="3.7"/>
      <circle class="cls-13" cx="422.05" cy="305.72" r="2.67"/>
      <circle class="cls-13" cx="415.22" cy="309.67" r="1.58"/>
      <circle class="cls-13" cx="410.02" cy="312.66" r=".7"/>
      <circle class="cls-13" cx="439.62" cy="274.73" r="5.78"/>
      <circle class="cls-13" cx="431.2" cy="284.78" r="4.62"/>
      <circle class="cls-13" cx="423.97" cy="293.39" r="3.7"/>
      <circle class="cls-13" cx="417.83" cy="300.71" r="2.67"/>
      <circle class="cls-13" cx="412.75" cy="306.75" r="1.58"/>
      <circle class="cls-13" cx="408.9" cy="311.34" r=".7"/>
      <circle class="cls-13" cx="423.74" cy="265.56" r="5.78"/>
      <circle class="cls-13" cx="419.26" cy="277.88" r="4.62"/>
      <circle class="cls-13" cx="415.41" cy="288.45" r="3.7"/>
      <circle class="cls-13" cx="412.14" cy="297.43" r="2.67"/>
      <circle class="cls-13" cx="409.45" cy="304.83" r="1.58"/>
      <circle class="cls-13" cx="407.4" cy="310.48" r=".69"/>
      <g>
        <circle class="cls-11" cx="405.7" cy="262.38" r="5.78"/>
        <circle class="cls-15" cx="405.7" cy="275.5" r="4.62"/>
        <circle class="cls-16" cx="405.7" cy="286.74" r="3.7"/>
        <circle class="cls-21" cx="405.7" cy="296.3" r="2.67"/>
        <circle class="cls-35" cx="405.7" cy="304.17" r="1.58"/>
        <circle class="cls-31" cx="405.7" cy="310.18" r=".69"/>
      </g>
      <g>
        <circle class="cls-11" cx="387.64" cy="265.56" r="5.78"/>
        <circle class="cls-15" cx="392.12" cy="277.89" r="4.62"/>
        <circle class="cls-16" cx="395.97" cy="288.45" r="3.7"/>
        <circle class="cls-21" cx="399.24" cy="297.43" r="2.67"/>
        <circle class="cls-35" cx="401.93" cy="304.84" r="1.58"/>
        <circle class="cls-31" cx="403.99" cy="310.48" r=".69"/>
      </g>
      <g>
        <circle class="cls-11" cx="371.75" cy="274.73" r="5.78"/>
        <circle class="cls-15" cx="380.19" cy="284.78" r="4.62"/>
        <circle class="cls-16" cx="387.41" cy="293.39" r="3.7"/>
        <circle class="cls-21" cx="393.55" cy="300.72" r="2.67"/>
        <circle class="cls-35" cx="398.62" cy="306.75" r="1.58"/>
        <circle class="cls-31" cx="402.48" cy="311.35" r=".69"/>
      </g>
      <g>
        <circle class="cls-11" cx="359.98" cy="288.79" r="5.78"/>
        <circle class="cls-15" cx="371.34" cy="295.35" r="4.62"/>
        <circle class="cls-16" cx="381.07" cy="300.97" r="3.7"/>
        <circle class="cls-21" cx="389.35" cy="305.75" r="2.67"/>
        <circle class="cls-35" cx="396.17" cy="309.69" r="1.58"/>
        <circle class="cls-31" cx="401.37" cy="312.69" r=".69"/>
      </g>
      <g>
        <circle class="cls-11" cx="353.7" cy="306.03" r="5.78"/>
        <circle class="cls-15" cx="366.62" cy="308.3" r="4.62"/>
        <circle class="cls-16" cx="377.69" cy="310.25" r="3.7"/>
        <circle class="cls-21" cx="387.11" cy="311.91" r="2.67"/>
        <circle class="cls-35" cx="394.87" cy="313.28" r="1.58"/>
        <circle class="cls-31" cx="400.78" cy="314.33" r=".69"/>
      </g>
      <g>
        <circle class="cls-11" cx="353.7" cy="324.37" r="5.78"/>
        <circle class="cls-15" cx="366.62" cy="322.09" r="4.62"/>
        <circle class="cls-16" cx="377.69" cy="320.14" r="3.7"/>
        <circle class="cls-21" cx="387.11" cy="318.48" r="2.67"/>
        <circle class="cls-35" cx="394.87" cy="317.11" r="1.58"/>
        <circle class="cls-31" cx="400.78" cy="316.07" r=".69"/>
      </g>
      <g>
        <circle class="cls-11" cx="359.97" cy="341.61" r="5.78"/>
        <circle class="cls-15" cx="371.33" cy="335.05" r="4.62"/>
        <circle class="cls-16" cx="381.06" cy="329.43" r="3.7"/>
        <circle class="cls-21" cx="389.34" cy="324.65" r="2.67"/>
        <circle class="cls-35" cx="396.17" cy="320.71" r="1.58"/>
        <circle class="cls-31" cx="401.36" cy="317.71" r=".69"/>
      </g>
      <g>
        <circle class="cls-11" cx="371.77" cy="355.65" r="5.78"/>
        <circle class="cls-15" cx="380.2" cy="345.6" r="4.62"/>
        <circle class="cls-16" cx="387.42" cy="336.99" r="3.7"/>
        <circle class="cls-21" cx="393.57" cy="329.67" r="2.67"/>
        <circle class="cls-35" cx="398.63" cy="323.63" r="1.58"/>
        <circle class="cls-31" cx="402.49" cy="319.03" r=".69"/>
      </g>
      <g>
        <circle class="cls-11" cx="387.65" cy="364.82" r="5.78"/>
        <circle class="cls-15" cx="392.14" cy="352.49" r="4.62"/>
        <circle class="cls-16" cx="395.98" cy="341.93" r="3.7"/>
        <circle class="cls-21" cx="399.25" cy="332.95" r="2.67"/>
        <circle class="cls-35" cx="401.95" cy="325.54" r="1.58"/>
        <circle class="cls-31" cx="404" cy="319.9" r=".69"/>
      </g>
      <g>
        <circle class="cls-11" cx="405.71" cy="368" r="5.78"/>
        <circle class="cls-15" cx="405.71" cy="354.89" r="4.62"/>
        <circle class="cls-16" cx="405.71" cy="343.65" r="3.7"/>
        <circle class="cls-21" cx="405.71" cy="334.09" r="2.67"/>
        <circle class="cls-35" cx="405.71" cy="326.21" r="1.58"/>
        <circle class="cls-31" cx="405.71" cy="320.2" r=".69"/>
      </g>
      <g>
        <circle class="cls-11" cx="423.76" cy="364.81" r="5.78"/>
        <circle class="cls-15" cx="419.27" cy="352.49" r="4.62"/>
        <circle class="cls-16" cx="415.43" cy="341.92" r="3.7"/>
        <circle class="cls-21" cx="412.16" cy="332.94" r="2.67"/>
        <circle class="cls-35" cx="409.46" cy="325.54" r="1.58"/>
        <circle class="cls-31" cx="407.41" cy="319.9" r=".69"/>
      </g>
      <g>
        <circle class="cls-11" cx="439.64" cy="355.64" r="5.78"/>
        <circle class="cls-15" cx="431.21" cy="345.59" r="4.62"/>
        <circle class="cls-16" cx="423.99" cy="336.98" r="3.7"/>
        <circle class="cls-21" cx="417.84" cy="329.66" r="2.67"/>
        <circle class="cls-35" cx="412.78" cy="323.62" r="1.58"/>
        <circle class="cls-31" cx="408.92" cy="319.03" r=".69"/>
      </g>
      <g>
        <circle class="cls-11" cx="451.42" cy="341.59" r="5.78"/>
        <circle class="cls-15" cx="440.06" cy="335.03" r="4.62"/>
        <circle class="cls-16" cx="430.32" cy="329.41" r="3.7"/>
        <circle class="cls-21" cx="422.05" cy="324.63" r="2.67"/>
        <circle class="cls-35" cx="415.22" cy="320.69" r="1.58"/>
        <circle class="cls-31" cx="410.02" cy="317.69" r=".69"/>
      </g>
      <g>
        <circle class="cls-11" cx="457.69" cy="324.35" r="5.78"/>
        <circle class="cls-15" cx="444.77" cy="322.07" r="4.62"/>
        <circle class="cls-16" cx="433.7" cy="320.12" r="3.7"/>
        <circle class="cls-21" cx="424.29" cy="318.46" r="2.67"/>
        <circle class="cls-35" cx="416.53" cy="317.09" r="1.58"/>
        <circle class="cls-31" cx="410.62" cy="316.05" r=".69"/>
      </g>
      <g>
        <circle class="cls-11" cx="457.69" cy="306.01" r="5.78"/>
        <circle class="cls-15" cx="444.77" cy="308.29" r="4.62"/>
        <circle class="cls-16" cx="433.7" cy="310.24" r="3.7"/>
        <circle class="cls-21" cx="424.29" cy="311.9" r="2.67"/>
        <circle class="cls-35" cx="416.53" cy="313.27" r="1.58"/>
        <circle class="cls-31" cx="410.62" cy="314.31" r=".69"/>
      </g>
      <g>
        <circle class="cls-11" cx="451.43" cy="288.77" r="5.78"/>
        <circle class="cls-15" cx="440.07" cy="295.33" r="4.62"/>
        <circle class="cls-16" cx="430.33" cy="300.94" r="3.7"/>
        <circle class="cls-21" cx="422.05" cy="305.72" r="2.67"/>
        <circle class="cls-35" cx="415.23" cy="309.66" r="1.58"/>
        <circle class="cls-31" cx="410.03" cy="312.67" r=".69"/>
      </g>
      <g>
        <circle class="cls-11" cx="439.63" cy="274.73" r="5.78"/>
        <circle class="cls-15" cx="431.2" cy="284.78" r="4.62"/>
        <circle class="cls-16" cx="423.97" cy="293.39" r="3.7"/>
        <circle class="cls-21" cx="417.83" cy="300.71" r="2.67"/>
        <circle class="cls-35" cx="412.76" cy="306.75" r="1.58"/>
        <circle class="cls-31" cx="408.9" cy="311.34" r=".69"/>
      </g>
      <g>
        <circle class="cls-11" cx="423.74" cy="265.56" r="5.78"/>
        <circle class="cls-15" cx="419.26" cy="277.88" r="4.62"/>
        <circle class="cls-16" cx="415.41" cy="288.45" r="3.7"/>
        <circle class="cls-21" cx="412.14" cy="297.43" r="2.67"/>
        <circle class="cls-35" cx="409.45" cy="304.83" r="1.58"/>
        <circle class="cls-31" cx="407.4" cy="310.47" r=".69"/>
      </g>
    </g>
    <g id="LArm_2" data-name="LArm 2">
      <path class="cls-7" d="M363.47,300.93l1.53,30.99c15.05-8.69,29.02-19.15,41.6-31.15,6.22-5.25,6.59-18.49,1.62-25.93-10.05,.79-44.74,26.09-44.74,26.09Z"/>
    </g>
    <path class="cls-7" d="M399.75,248.4l10.21,31.27c2.87,7.67,0,20.15-7.35,22.95-7.35,2.8-20.29,1.16-23.11-6.52l-16.94-37.92s32.84-21.4,37.18-9.77Z"/>
    <path class="cls-36" d="M353.99,184.49c17.4,4.62,42.57,28.42,49.52,64.24l-34.34,11.18-15.18-75.43Z"/>
    <g id="Body">
      <path class="cls-36" d="M363,367.85l6.68-107.85,1.69-51.12c0-9.89-4.48-18.76-17.96-24.7-10.93-4.83-81.18-4.62-92.2,.39-12.94,5.94-17.05,14.63-17.05,24.31l2.91,51.12c.51,40.14,4.95,73.53,8.76,107.85h107.18Z"/>
      <path class="cls-29" d="M247.37,272.44l.18,.14-.21-.79c0,.22,0,.43,.02,.65Z"/>
      <polygon class="cls-25" points="363.12 381.25 238.54 402.93 208.52 343.77 363.12 349.99 363.12 381.25"/>
    </g>
    <path class="cls-4" d="M239.28,400.34l-13.61,3.26h-.12l-34.45-.51c-14.4-.21-4.62,26.64,11.74,24.96l26.64-6.82,14.86-3.79-5.06-17.1Z"/>
    <path class="cls-27" d="M397.6,338.76c15.45-4.69,31.77,4.04,36.46,19.49,0,0,0,.01,0,.02,3.17,11.87-1.55,24.43-11.74,31.29-2.73,1.89-7.9,2.77-11.32,3.74l-170.24,27.96-6.72-26.32,163.56-56.18Z"/>
    <path class="cls-24" d="M266.18,409.24c0-.58,108.98-48.02,108.98-48.02l-36.97-2.01-88.62,30.04c.6,1.39,16.62,19.99,16.62,19.99Z"/>
    <path class="cls-4" d="M342.27,548.05l-25.26-23.39h0l-7.63-11.74-15.48,8.78,8.16,12.99,14.58,23.32c10.17,12.64,35.33-.39,25.63-9.96Z"/>
    <path class="cls-27" d="M236.14,358.68c-7.44-13.97-24.8-19.25-38.76-11.81-13.97,7.44-19.25,24.8-11.81,38.76,.4,.76,.84,1.49,1.31,2.21l105.65,138.81,23.11-14.4-79.49-153.58Z"/>
    <rect class="cls-30" x="240.87" y="349.99" width="130.93" height="4.46"/>
    <path class="cls-32" d="M376.64,356.81c0,2.44-1.98,4.41-4.41,4.41H240.5c-2.43-.01-4.4-1.98-4.41-4.41v.53c0-2.44,1.98-4.41,4.41-4.41h131.72c2.42-.01,4.4,1.94,4.41,4.37,0,.02,0,.03,0,.05v-.53Z"/>
    <rect class="cls-26" x="235.37" y="269.69" width="141.93" height="80.81" rx="5.87" ry="5.87"/>
    <path class="cls-7" d="M319.1,164.91h-23.11c-1.99-.25-3.77-1.36-4.85-3.05-.1-.13-.2-.27-.28-.42v19.83c0,5.5,7.39,22.58,16.8,22.58s16.78-17.08,16.78-22.58v-20.34c-.17,.32-.37,.63-.58,.92-1.06,1.66-2.8,2.78-4.76,3.05Z"/>
    <polygon class="cls-18" points="371.71 173.32 371.53 173.3 371.53 173.46 371.71 173.32"/>
    <path class="cls-23" d="M324.53,173.32l-2.89-.39c-.48,.2-.99,.31-1.5,.32h-23.55c-2.07-.27-3.9-1.46-4.99-3.24l-.37-.6h-.23v13.13c.61,3.33,1.73,6.54,3.33,9.52l30.16-18.49,.05-.25Z"/>
    <path class="cls-34" d="M371.51,269.64h-23.25l-112.91,50.4v24.61c.05,3.26,2.7,5.88,5.96,5.89h130.19c3.19-.02,5.76-2.63,5.73-5.82,0-.02,0-.05,0-.07v-69.09c.06-3.2-2.48-5.85-5.68-5.92-.02,0-.03,0-.05,0Z"/>
    <path class="cls-3" d="M313.71,313.69c0,4.28-3.47,7.74-7.74,7.74s-7.74-3.47-7.74-7.74,3.47-7.74,7.74-7.74,7.74,3.47,7.74,7.74h0Z"/>
    <path class="cls-7" d="M294.23,147.21c.51,3.2-1.68,6.21-4.88,6.71-.02,0-.04,0-.06,0h0c-3.26,.56-6.36-1.62-6.93-4.88l-1.39-8.53c-.48-3.22,1.74-6.22,4.96-6.7,.01,0,.02,0,.03,0h0c3.25-.57,6.36,1.6,6.93,4.85l1.34,8.53Z"/>
    <path class="cls-7" d="M321.99,147.67c-.53,3.2,1.63,6.22,4.83,6.75,.05,0,.09,.01,.14,.02h0c3.25,.56,6.35-1.61,6.93-4.85l1.39-8.53c.49-3.22-1.72-6.22-4.93-6.72-.02,0-.04,0-.06,0h0c-3.26-.57-6.36,1.6-6.93,4.86,0,0,0,.01,0,.02l-1.36,8.46Z"/>
    <path class="cls-7" d="M326.03,125.1c-22.55-6.29-22.72-14.47-36.53-.79-1.78,10.26-3.67,24.75-1.99,36.83,1.92,11.35,8.97,19.71,20.17,18.81,11.23,.9,18.28-7.46,20.2-18.81,1.62-11.79-.18-25.56-1.85-36.05Z"/>
    <path class="cls-20" d="M327.88,161.15c.9-8.08,.8-16.25-.3-24.31h-2.98v10.4c-.09,1.39-.62,2.71-1.5,3.79-.79,.98-1.94,1.61-3.19,1.76h-24.24c-1.26-.14-2.41-.77-3.21-1.76-.87-1.08-1.39-2.4-1.5-3.79v-10.35h-3.21c-1.1,8.06-1.18,16.23-.25,24.31,1.92,11.35,8.97,19.71,20.17,18.81,11.25,.86,18.3-7.51,20.22-18.86Z"/>
    <path class="cls-5" d="M329.87,108.99c-10.4-12.06-34.25-11.23-37.14,2.8-11.81-.49-12.06,10.93-7.97,22.32,.7,0,1.41,.05,2.1,.16l.6,7.39,3.47,.12c.51-8.83,1.39-16.18,3.3-19.11,8.48-10.05,16.73,1.59,28.4,2.82,1.5,3.1,2.08,10.26,1.87,16.36h3.47l.37-6.93h1.96c4.32-10.72,4.32-20.77-.44-25.93Z"/>
    <path class="cls-7" d="M315.26,159.32c0,1.28-1.03,2.31-2.31,2.32-.05,0-.1,0-.14,0h-9.66c-1.27,.06-2.36-.92-2.42-2.19,0-.04,0-.08,0-.12h0c0-1.28,1.03-2.31,2.31-2.31,.04,0,.08,0,.12,0h9.59c1.27-.08,2.37,.89,2.45,2.17,0,.05,0,.1,0,.14h.07Z"/>
    <path class="cls-8" d="M224.33,96.97s-10.42,78.4-12.12,102.69c-1.7,24.29-9.82,28.4-15.46,28.89-4.35,.37-16.85-7.42-15.86-35.13,.99-27.71,29.17-93.22,26.03-95-3.14-1.78-3.8-15.01-3.72-16.06,.48-6.36,12.68-13.2,12.68-13.2,0,0,5.79-2.17,8.5-1.2,1.67,.59,6.87,4.62,6.23,11.42-.64,6.8-6.28,17.58-6.28,17.58Z"/>
    <path class="cls-7" d="M237.16,192.13l-32.05,7.41c-8.05,1.51-17.32,10.29-15.85,18.15,1.48,7.85,9.5,17.97,17.52,16.42l38.64-4.19c11.15-13.72,3.91-40.12-8.26-37.79Z"/>
    <path class="cls-36" d="M290.28,188.52c-15.46-8.37-38.35-12.69-70,6.93,0,0,1,3.54,0,20.58-.94,15.91-10.29,17.78-10.29,17.78l50.52-.94,29.77-44.35Z"/>
    <g>
      <path class="cls-13" d="M472.45,99.78v97.72h-64.23V99.78c-5.62,.19-10.12,4.79-10.12,10.45v88.66c0,5.78,4.69,10.47,10.47,10.47h63.53c5.78,0,10.47-4.69,10.47-10.47V110.23c0-5.67-4.5-10.27-10.12-10.45"/>
      <path class="cls-13" d="M416.29,114.42h48.09c1.34,0,2.42-1.08,2.42-2.42v-14.02c0-1.34-1.08-2.42-2.42-2.42h-12.18c0-5.11-5.31-9.25-11.87-9.25s-11.87,4.14-11.87,9.25h-12.17c-1.34,0-2.42,1.08-2.42,2.42v14.02c0,1.34,1.08,2.42,2.42,2.42m24.04-23.21c3.09,0,5.6,1.95,5.6,4.36s-2.51,4.36-5.6,4.36-5.6-1.95-5.6-4.36,2.51-4.36,5.6-4.36"/>
      <path class="cls-13" d="M434.39,125.16c-.82-.82-2.14-.82-2.96,0l-10.56,10.56-3.39-3.39c-.82-.82-2.14-.82-2.96,0-.82,.82-.82,2.14,0,2.96l4.87,4.87c.39,.39,.93,.61,1.48,.61s1.09-.22,1.48-.61l12.04-12.04c.82-.82,.82-2.14,0-2.96"/>
      <rect class="cls-13" x="438.06" y="134.32" width="28.8" height="5.06"/>
      <path class="cls-13" d="M434.39,146.1c-.82-.82-2.14-.82-2.96,0l-10.56,10.56-3.39-3.39c-.82-.82-2.14-.82-2.96,0-.82,.82-.82,2.14,0,2.96l4.87,4.87c.39,.39,.93,.61,1.48,.61s1.09-.22,1.48-.61l12.04-12.04c.82-.82,.82-2.14,0-2.96"/>
      <rect class="cls-13" x="438.06" y="155.26" width="28.8" height="5.06"/>
      <path class="cls-13" d="M431.43,167.05l-10.56,10.56-3.39-3.39c-.82-.82-2.14-.82-2.96,0-.82,.82-.82,2.14,0,2.96l4.87,4.87c.39,.39,.93,.61,1.48,.61s1.09-.22,1.48-.61l12.04-12.04c.82-.82,.82-2.14,0-2.96-.82-.82-2.15-.82-2.96,0"/>
      <rect class="cls-13" x="438.06" y="176.21" width="28.8" height="5.06"/>
    </g>
  </g>
</svg>