<?xml version="1.0" encoding="UTF-8" standalone="no"?>
<svg
   xmlns:dc="http://purl.org/dc/elements/1.1/"
   xmlns:cc="http://creativecommons.org/ns#"
   xmlns:rdf="http://www.w3.org/1999/02/22-rdf-syntax-ns#"
   xmlns:svg="http://www.w3.org/2000/svg"
   xmlns="http://www.w3.org/2000/svg"
   xmlns:xlink="http://www.w3.org/1999/xlink"
   xmlns:sodipodi="http://sodipodi.sourceforge.net/DTD/sodipodi-0.dtd"
   xmlns:inkscape="http://www.inkscape.org/namespaces/inkscape"
   version="1.1"
   id="Layer_1"
   x="0px"
   y="0px"
   viewBox="0 0 159 153"
   style="enable-background:new 0 0 159 153;"
   xml:space="preserve"
   sodipodi:docname="homepage_step_3_bg.svg"
   inkscape:version="1.0.2-2 (e86c870879, 2021-01-15)"><metadata
   id="metadata989"><rdf:RDF><cc:Work
       rdf:about=""><dc:format>image/svg+xml</dc:format><dc:type
         rdf:resource="http://purl.org/dc/dcmitype/StillImage" /></cc:Work></rdf:RDF></metadata><defs
   id="defs987">
	
	
	
	
	
	
	
	
	
	
</defs><sodipodi:namedview
   pagecolor="#ffffff"
   bordercolor="#666666"
   borderopacity="1"
   objecttolerance="10"
   gridtolerance="10"
   guidetolerance="10"
   inkscape:pageopacity="0"
   inkscape:pageshadow="2"
   inkscape:window-width="1366"
   inkscape:window-height="705"
   id="namedview985"
   showgrid="false"
   inkscape:zoom="1.4084967"
   inkscape:cx="-21.706282"
   inkscape:cy="43.411726"
   inkscape:window-x="-8"
   inkscape:window-y="-8"
   inkscape:window-maximized="1"
   inkscape:current-layer="Layer_1"
   inkscape:document-rotation="0" />
<style
   type="text/css"
   id="style912">
	.st0{fill:#E9E9F6;}
	.st1{fill:#E71482;}
	.st2{clip-path:url(#SVGID_2_);}
	.st3{fill:none;stroke:#E9E9F6;stroke-width:0.99;stroke-miterlimit:10;}
	.st4{fill:#FFFFFF;}
	.st5{fill:none;stroke:#FFFFFF;stroke-width:4.47;stroke-miterlimit:10;}
	.st6{fill:#38378D;}
	.st7{fill-rule:evenodd;clip-rule:evenodd;fill:#FFFFFF;}
</style>
<g
   id="Bob_2"
   transform="translate(0,-2)">
	<path
   class="st0"
   d="M 155.7,65.3 C 151.9,45.7 146.4,38 135.6,35 127.3,32.7 118.8,35.2 111.3,31.1 105.9,28.1 99.1,22 92.5,19.2 80.9,14.2 67.7,14 53.4,15.5 11.4,20.1 3.9,57.9 7.2,78.9 c 3.1,15.8 9.3,27.3 20,30.2 8.3,2.4 16.8,-0.2 24.3,3.8 5.4,3 12.2,9.1 18.8,12 11.6,5.1 24.8,5.3 39.1,3.7 42.2,-4.5 49.7,-42.2 46.3,-63.3 z"
   id="path914" />
</g>
<path
   class="st1"
   d="m 48.738016,40.366078 h 93.423964 c 3.70936,0 6.7286,3.019242 6.7286,6.728596 v 57.796916 c 0,3.70935 -3.01924,6.7286 -6.7286,6.7286 H 48.738016 c -3.709354,0 -6.728596,-3.01925 -6.728596,-6.7286 V 47.094674 c 0,-3.795618 3.019242,-6.728596 6.728596,-6.728596 z"
   id="path917"
   style="stroke-width:0.862641" /><g
   id="g965"
   transform="matrix(0.86264052,0,0,0.86264052,21.737367,8.7071712)">
		<defs
   id="defs920">
			<rect
   id="SVGID_1_"
   x="23.5"
   y="36.700001"
   width="123.9"
   height="82.599998" />
		</defs>
		<clipPath
   id="SVGID_2_">
			<use
   xlink:href="#SVGID_1_"
   style="overflow:visible"
   id="use922"
   x="0"
   y="0"
   width="100%"
   height="100%" />
		</clipPath>
		<g
   class="st2"
   clip-path="url(#SVGID_2_)"
   id="g963">
			<line
   class="st3"
   x1="-55.799999"
   y1="128"
   x2="66.900002"
   y2="5.3000002"
   id="line925" />
			<line
   class="st3"
   x1="-45.599998"
   y1="128"
   x2="77.099998"
   y2="5.3000002"
   id="line927" />
			<line
   class="st3"
   x1="-35.400002"
   y1="128"
   x2="87.300003"
   y2="5.3000002"
   id="line929" />
			<line
   class="st3"
   x1="-25.200001"
   y1="128"
   x2="97.5"
   y2="5.3000002"
   id="line931" />
			<line
   class="st3"
   x1="-15"
   y1="128"
   x2="107.7"
   y2="5.3000002"
   id="line933" />
			<line
   class="st3"
   x1="-4.8000002"
   y1="128"
   x2="117.9"
   y2="5.3000002"
   id="line935" />
			<line
   class="st3"
   x1="5.4000001"
   y1="128"
   x2="128.10001"
   y2="5.3000002"
   id="line937" />
			<line
   class="st3"
   x1="26.200001"
   y1="117.4"
   x2="138.39999"
   y2="5.3000002"
   id="line939" />
			<line
   class="st3"
   x1="25.799999"
   y1="128"
   x2="148.60001"
   y2="5.3000002"
   id="line941" />
			<line
   class="st3"
   x1="36"
   y1="128"
   x2="158.8"
   y2="5.3000002"
   id="line943" />
			<line
   class="st3"
   x1="46.200001"
   y1="128"
   x2="168.89999"
   y2="5.3000002"
   id="line945" />
			<line
   class="st3"
   x1="56.400002"
   y1="128"
   x2="145.3"
   y2="39.099998"
   id="line947" />
			<line
   class="st3"
   x1="66.599998"
   y1="128"
   x2="189.39999"
   y2="5.3000002"
   id="line949" />
			<line
   class="st3"
   x1="76.800003"
   y1="128"
   x2="199.60001"
   y2="5.3000002"
   id="line951" />
			<line
   class="st3"
   x1="87"
   y1="128"
   x2="209.8"
   y2="5.3000002"
   id="line953" />
			<line
   class="st3"
   x1="97.199997"
   y1="128"
   x2="219.89999"
   y2="5.3000002"
   id="line955" />
			<line
   class="st3"
   x1="107.4"
   y1="128"
   x2="230.10001"
   y2="5.3000002"
   id="line957" />
			<line
   class="st3"
   x1="117.6"
   y1="128"
   x2="240.39999"
   y2="5.3000002"
   id="line959" />
			<line
   class="st3"
   x1="127.8"
   y1="128"
   x2="250.60001"
   y2="5.3000002"
   id="line961" />
		</g>
	</g><path
   class="st4"
   d="M 87.125519,89.277796 71.080405,73.318946 h -1.035168 l -0.258792,-0.08626 c -3.19177,-1.035168 -6.297276,-2.329129 -9.230254,-3.795618 -3.62309,-1.897809 -6.297276,-5.003315 -6.901124,-8.108821 -0.43132,-2.242865 0.258792,-4.485731 1.811545,-6.124748 1.293961,-1.466489 3.19177,-2.242865 5.175843,-1.984073 2.932978,0.258792 5.865956,2.415394 7.677501,5.434635 1.984073,3.536827 3.536826,7.332445 4.658259,11.214327 l -0.345057,0.08626 16.994019,16.82149 z M 60.038607,56.58372 c -0.776377,0 -1.466489,0.258792 -1.984074,0.862641 -0.86264,0.86264 -1.207696,2.070337 -0.948904,3.19177 0.345056,2.070337 2.329129,4.313202 5.003315,5.607163 2.329129,1.207697 4.744523,2.242865 7.159916,3.105506 -0.948904,-3.105506 -2.329129,-6.124748 -3.881882,-8.971462 -1.293961,-2.070337 -3.278034,-3.62309 -5.003315,-3.795618 z"
   id="path967"
   style="stroke-width:0.862641" /><path
   class="st4"
   d="m 56.415516,89.191532 -2.415393,-2.501658 16.907754,-16.648962 -0.43132,-0.08626 c 1.121433,-3.881882 2.674186,-7.6775 4.744523,-11.214327 1.811545,-3.105505 4.830787,-5.175843 7.677501,-5.434635 1.984073,-0.172528 3.881882,0.517585 5.175843,1.984073 1.552753,1.639017 2.242865,3.881883 1.811545,6.124748 -0.603849,3.105506 -3.19177,6.211012 -6.901124,8.108821 -3.019242,1.466489 -6.124748,2.76045 -9.316518,3.795618 l -0.258792,0.08626 H 72.46063 Z M 83.588693,56.58372 h -0.345056 c -1.725281,0.172528 -3.795619,1.725281 -5.089579,3.795618 -1.552753,2.846714 -2.846714,5.865956 -3.881883,8.971462 2.415394,-0.862641 4.830787,-1.897809 7.159917,-3.105506 2.674185,-1.380225 4.658258,-3.536826 5.003315,-5.607163 0.258792,-1.121433 -0.172528,-2.32913 -0.948905,-3.19177 -0.43132,-0.517585 -1.121433,-0.862641 -1.897809,-0.862641 z"
   id="path969"
   style="stroke-width:0.862641" /><rect
   x="70.045242"
   y="40.279812"
   class="st4"
   width="3.450562"
   height="71.254105"
   id="rect971"
   style="stroke-width:0.862641" /><rect
   x="42.009418"
   y="69.78212"
   class="st4"
   width="106.88116"
   height="3.450562"
   id="rect973"
   style="stroke-width:0.862641" /><line
   class="st5"
   x1="104.11954"
   y1="92.728363"
   x2="128.7048"
   y2="92.728363"
   id="line975" /><line
   class="st5"
   x1="104.11954"
   y1="101.09597"
   x2="138.97021"
   y2="101.09597"
   id="line977" /><circle
   class="st6"
   cx="19.299999"
   cy="42.400002"
   r="16.700001"
   id="circle979" /><path
   class="st7"
   d="m 13.5,51 h 11.6 c 0.8,0 1.3,-0.7 1.5,-1.5 l 1.9,-7.3 h 0.7 c 0.7,0.1 1.2,-0.4 1.3,-1.1 0.1,-0.7 -0.4,-1.2 -1.1,-1.3 H 26 L 22.4,34 c -0.2,-0.4 -0.7,-0.5 -1.1,-0.3 0,0 0,0 0,0 -0.4,0.2 -0.5,0.7 -0.3,1.1 l 0.1,0.1 3.1,4.9 h -9.7 l 3.1,-4.9 c 0.3,-0.4 0.2,-0.8 -0.2,-1.1 -0.3,-0.3 -0.8,-0.2 -1.1,0.2 0,0 0,0 0,0 l -0.1,0.1 -3.6,5.8 H 9.4 C 8.7,39.8 8.2,40.3 8.1,41 8,41.7 8.5,42.2 9.2,42.3 v 0 h 0.9 l 1.9,7.4 c 0.2,0.7 0.7,1.3 1.5,1.3 z m 1.3,-8 c 0,-0.4 0.4,-0.8 0.8,-0.8 0.4,0 0.8,0.4 0.8,0.8 v 4.9 c 0,0.4 -0.4,0.8 -0.8,0.8 -0.4,0 -0.8,-0.4 -0.8,-0.8 z m 7.4,0 c 0,-0.4 0.4,-0.8 0.8,-0.8 0.4,0 0.8,0.4 0.8,0.8 v 4.9 c 0,0.4 -0.4,0.8 -0.8,0.8 -0.4,0 -0.8,-0.4 -0.8,-0.8 0,0 0,0 0,0 v 0 z m -3.7,0 c 0,-0.4 0.4,-0.8 0.8,-0.8 0.4,0 0.8,0.4 0.8,0.8 v 4.9 c 0,0.4 -0.4,0.8 -0.8,0.8 -0.4,0 -0.8,-0.4 -0.8,-0.8 0,0 0,0 0,0 v 0 z"
   id="path981" />
</svg>
