<svg id="Layer_1" data-name="Layer 1" xmlns="http://www.w3.org/2000/svg" viewBox="0 0 2497.32 592"><defs><style>.cls-1{fill:#f57600;}.cls-2{fill:#f77b00;}.cls-3{fill:#f8494a;}.cls-4{fill:#f2093e;}.cls-5{fill:#f97f00;}.cls-6{fill:#000084;}.cls-7{fill:#000085;}.cls-8{fill:#f56f00;}.cls-9{fill:#f77700;}.cls-10{fill:#f67300;}.cls-11{fill:#f97b00;}.cls-12{fill:#fa7f00;}.cls-13{fill:#fc8400;}.cls-14{fill:#f7007d;}.cls-15{fill:#f56300;}.cls-16{fill:#f90097;}.cls-17{fill:#f46a00;}.cls-18{fill:#f70083;}.cls-19{fill:#f8008c;}.cls-20{fill:#fe8a00;}.cls-21{fill:#fc1f9c;}.cls-22{fill:#fc2395;}.cls-23{fill:#f56700;}.cls-24{fill:#f80092;}.cls-25{fill:#fd1ba2;}.cls-26{fill:#f70078;}.cls-27{fill:#fe00c3;}.cls-28{fill:#fd15a9;}.cls-29{fill:#fc2790;}.cls-30{fill:#fe00ce;}.cls-31{fill:#fb2f81;}.cls-32{fill:#fe00c8;}.cls-33{fill:#f4065e;}.cls-34{fill:#fe00d3;}.cls-35{fill:#f20a47;}.cls-36{fill:#f70075;}.cls-37{fill:#f90090;}.cls-38{fill:#fb327b;}.cls-39{fill:#fd0cb2;}.cls-40{fill:#fe06b6;}.cls-41{fill:#fb2b8a;}.cls-42{fill:#f80088;}.cls-43{fill:#fb00c1;}.cls-44{fill:#fe01bb;}.cls-45{fill:#f30851;}.cls-46{fill:#f84c42;}.cls-47{fill:#fa3576;}.cls-48{fill:#f80087;}.cls-49{fill:#f30857;}.cls-50{fill:#f9415c;}.cls-51{fill:#fe00d9;}.cls-52{fill:#fa3771;}.cls-53{fill:#fb00be;}.cls-54{fill:#f60272;}.cls-55{fill:#fb00b8;}.cls-56{fill:#f7552a;}.cls-57{fill:#f94651;}.cls-58{fill:#fa00ab;}.cls-59{fill:#fb2c86;}.cls-60{fill:#f3094b;}.cls-61{fill:#fa396b;}.cls-62{fill:#f6016f;}.cls-63{fill:#fa00b4;}.cls-64{fill:#f84f3b;}.cls-65{fill:#f93e62;}.cls-66{fill:#fd11ae;}.cls-67{fill:#fe00ea;}.cls-68{fill:#f20941;}.cls-69{fill:#fa00b0;}.cls-70{fill:#fe00de;}.cls-71{fill:#f50461;}.cls-72{fill:#fa00b5;}.cls-73{fill:#fc00ca;}.cls-74{fill:#fe00bf;}.cls-75{fill:#fe00f2;}.cls-76{fill:#f50268;}.cls-77{fill:#fb00bb;}.cls-78{fill:#fa00a7;}.cls-79{fill:#f85331;}.cls-80{fill:#fe00e3;}.cls-81{fill:#fa009c;}.cls-82{fill:#f94357;}.cls-83{fill:#f900a2;}.cls-84{fill:#fc00c6;}.cls-85{fill:#f85136;}.cls-86{fill:#f900a1;}.cls-87{fill:#f7581f;}.cls-88{fill:#f75723;}.cls-89{fill:#f75a16;}.cls-90{fill:#f900a5;}.cls-91{fill:#fa3d66;}.cls-92{fill:#fd00cf;}.cls-93{fill:#f5036a;}.cls-94{fill:#f75c10;}.cls-95{fill:#fd00d3;}.cls-96{fill:#fe9000;}.cls-97{fill:#fe00f8;}.cls-98{fill:#f900aa;}.cls-99{fill:#f75d0a;}.cls-100{fill:#f65e03;}.cls-101{fill:#f9009d;}.cls-102{fill:#f900a6;}.cls-103{fill:#fe00fd;}.cls-104{fill:#fb00b4;}.cls-105{fill:#e60;}.cls-106{fill:#f37100;}.cls-107{fill:#f06a00;}.cls-108{fill:#f16d00;}.cls-109{fill:#f31341;}.cls-110{fill:#f20f40;}.cls-111{fill:#f20c40;}.cls-112{fill:#f70477;}.cls-113{fill:#f60a69;}.cls-114{fill:#f60a6d;}.cls-115{fill:#f60c64;}.cls-116{fill:#f60672;}.cls-117{fill:#f50f60;}.cls-118{fill:#f51058;}.cls-119{fill:#f40b58;}.cls-120{fill:#f50764;}.cls-121{fill:#f50c5d;}.cls-122{fill:#f50b61;}.cls-123{fill:#f9009e;}.cls-124{fill:#fa00a1;}.cls-125{fill:#f20d45;}.cls-126{fill:#f30c4a;}.cls-127{fill:#f41252;}.cls-128{fill:#f4115c;}.cls-129{fill:#f70088;}.cls-130{fill:#f30d51;}.cls-131{fill:#f40b54;}.cls-132{fill:#f31448;}.cls-133{fill:#fa00a6;}.cls-134{fill:#f4124c;}.cls-135{fill:#f6056e;}.cls-136{fill:#fa00aa;}.cls-137{fill:#f50769;}.cls-138{fill:#f31046;}.cls-139{fill:#f40f53;}.cls-140{fill:#f30e4b;}</style></defs><path class="cls-1" d="M35,392.18c-6.56-3.84-13.19-7.54-19.65-11.54-5.43-3.36-7.73-9.15-10.51-14.51V284.51C30.67,251.77,57.21,219.6,83.24,187c6.62-8.29,13.28-16.55,20.09-24.69,1.29-1.55,2.29-3.48,4.63-3.76,10.93,3.61,20.31,10.26,30.46,15.43,9,4.85,17.83,9.84,26.85,14.56,4.85,3.34,10.92,4.77,14.86,9.53.16,2.34-1.58,3.68-2.83,5.24-36.41,45.54-73.23,90.74-109.73,136.19-10.73,13.37-21.63,26.59-32.34,40-3,3.7-6,6.92-.26,10.67C35.57,390.55,35.51,391.49,35,392.18Z"/><path class="cls-2" d="M107.89,159.27c-10,12.13-20,24.18-29.94,36.39-13.16,16.24-26.16,32.62-39.28,48.9-10.1,12.55-20.29,25-30.35,37.58-1,1.23-1.79,2.34-3.48,2.37V158.15c10.47-12.84,20.74-25.86,31.47-38.5,6-.06,10.17,4.22,15,6.72,7.43,3.85,15,7.5,22.1,11.95,9,5.28,18.27,10.09,27.52,14.9a31,31,0,0,1,7,4.54A1.32,1.32,0,0,1,107.89,159.27Z"/><path class="cls-3" d="M359.91,592c-3-2.54-7.52-2.43-10.21-5.57,2.2-1.85,4.66-1,7-.45,4.3,1,5.87-.92,5.89-4.92,0-1.86.05-3.73.05-5.59q0-132.21.09-264.42c0-6.06-.59-11.42-5.77-15.31-1-2.27-1-4.7-1.07-7.11-1.44-56.87-1.11-113.74-1.1-170.62,0-3.11-.49-6.38,1.8-9.07l11.2.18c2.16,2.3,1.77,5.2,1.78,7.95.05,26.27,1.13,52.61-.27,78.81-1.63,30.61,3.08,61,1.43,91.52-.17,3.15.2,6.35-.86,9.42-2.36,3.81-2.55,8-2.55,12.37,0,34.27.16,68.53-.11,102.79q.34,25.66,0,51.33c.27,12.36.19,24.73.06,37.1.22,27.51.09,55,.09,82.52,0,3.11.5,6.38-1.8,9.07Z"/><path class="cls-4" d="M365.51,592q0-45.86,0-91.7c3.63.9,4.49,4.47,6.44,6.91,1.8,2.26,3.48,4.2,6.54,4.39,3.65.22,5.12,2.41,5.28,5.8.77,5.66.81,11.44,2.94,16.87a4.35,4.35,0,0,1,.47,2.7c-2.93,9.64,1.61,18.47,3.59,27.37,1.4,6.27,2.11,11.76-.6,17.55-5.48,5-12,8-19,10.11Z"/><path class="cls-5" d="M36.2,120.13c-3,7.07-9,12-13.33,18.13S13.59,149.7,9,155.44c-1.12,1.39-2.69,1.91-4.13,2.71V109L7,104.47c2.13-1.56,3.91-.07,5.66.78,7.35,3.54,14.4,7.65,21.53,11.6C35.18,117.77,36.69,118.36,36.2,120.13Z"/><path class="cls-6" d="M1440.7,208.43h-5.47c-33,0-66.07-.1-99.1.11-4.47,0-5.56-1.23-5.44-5.53.3-11.17.21-22.35,0-33.53,0-3.18,1-4,4.1-4q82,.13,164,0c3.13,0,4.2.88,4.15,4.08-.18,10.25-.14,20.5,0,30.74,0,2.7-1.22,4.52-2.81,6.42q-52.86,62.93-105.66,125.91c-1,1.23-2,2.51-3.66,4.61h6.88c34.15,0,68.3.09,102.45-.11,4.48,0,5.64,1.21,5.51,5.57q-.48,15.91,0,31.85c.15,4.57-1.06,5.91-5.79,5.9-51.69-.18-103.39-.08-155.08-.17-5.16,0-12,2.33-15-1.08-2.54-2.89-.26-9.63-1-14.53-2.35-15.36,3.62-26.78,13.68-38.34C1374.93,289,1406.24,250.83,1438,213,1439,211.77,1440.52,210.85,1440.7,208.43Z"/><path class="cls-7" d="M920.16,233.66c0-46.59.09-93.18-.13-139.77,0-5,1.23-6.24,6.16-6.1,13.06.37,26.14.35,39.2,0,4.8-.13,5.76,1.45,5.75,6-.14,77.15,0,154.3-.24,231.45,0,5.56,1.51,6.6,6.75,6.54,25.2-.29,50.4,0,75.6-.22,4,0,5.5.76,5.39,5.14-.31,12.66-.33,25.35,0,38,.12,4.44-1.41,5.12-5.4,5.1q-63.84-.19-127.69,0c-4.21,0-5.26-1.06-5.25-5.25.16-47,.1-93.92.1-140.88Z"/><path class="cls-8" d="M217.79,37c9.74,5.83,19.45,11.71,28.61,18.42a28,28,0,0,1,1.06,7.69c-.8,43.86,1.73,87.7,1.16,131.57-.16,12.63-.4,25.28.34,37.91-1,5.1-4.16,2.67-6.84,1.94-5.74-3.64-11.65-7-17.7-10.15-3.29-1.71-7.14-3.36-7.72-7.94.71-14.73-.54-29.42-.7-44.12-.44-41.92-.17-83.85-.11-125.77C215.89,43.25,215.08,39.72,217.79,37Z"/><path class="cls-9" d="M179.57,198.41,165,189.46c-.84-1.54-.74-3.22-.75-4.9-.35-55.36-1.64-110.71-1.07-166.08a59.75,59.75,0,0,1,.26-7.8c.44-3.07,1.79-4.9,5.27-3.59,9.64,2.43,16.68,9.29,24.73,14.43.28,3.9.24,7.8.26,11.71.16,53,1.83,106.07,1.09,159.12-.06,3.86.57,7.89-2.13,11.26C186.76,205.77,183.26,201.87,179.57,198.41Z"/><path class="cls-10" d="M190.78,204c2.3-1.9,2.25-4.51,2.24-7.15,0-35,.82-70.07-.31-105-.69-21.4-.3-42.77-.77-64.14-.05-2.1-.88-4.56,1.51-6.14,6.47,4,13,8,19.41,12,1.7,1.06,3.29,2.29,4.93,3.45,0,46.86-.45,93.73.14,140.59.14,10.7.48,21.48.87,32.22a27.24,27.24,0,0,1-1.14,8.76A57,57,0,0,1,190.78,204Z"/><path class="cls-11" d="M168.72,7.09C165.79,7,165,8.45,165,11.22c.07,38.88-.69,77.78.37,116.64.51,18.56.19,37.12.8,55.67a10.25,10.25,0,0,1-1.13,5.93,201.3,201.3,0,0,1-26.88-14.53c-1-1.29-.9-2.78-.88-4.28.43-40.18,0-80.36.25-120.54.06-8.21-1.63-16.29-1.19-24.5.14-2.61,0-5.24,1.73-7.47,5.13-3.09,10.16-6.36,15.42-9.21C158.21,6.35,163.29,4.85,168.72,7.09Z"/><path class="cls-12" d="M138,18.14c2.23,49.88.81,99.79,1.26,149.68,0,2.49-.71,4.75-1.17,7.11l-30.24-15.66v-1.12c.84-18.52.3-37.05.46-55.58.16-19.48-1.9-38.92-1.12-58.4.13-3.31-.35-6.8,2.86-9.15C119.16,29,128.46,23.33,138,18.14Z"/><path class="cls-13" d="M110.09,35c-1.33,2.41-1.08,5-1.08,7.64-.06,35.73,1.92,71.43,1.16,107.17-.07,3,0,5.95-2.28,8.32-11.8-5.92-23.83-11.44-34.73-19a7.55,7.55,0,0,1-.72-3.77c.31-22.95,0-45.89-1-68.81-.15-3.15-.13-6.32,1.74-9.11Q91.17,45.51,110.09,35Z"/><path class="cls-14" d="M604.07,449.89c-4.52,3.53-8.82,7.41-14.54,9a31.22,31.22,0,0,1-6-14.79,183.16,183.16,0,0,0-9.19-40.16,83.44,83.44,0,0,1-4.5-22.93c-.52-7.6-3.22-14.87-5.14-22.23a161.64,161.64,0,0,1-4-21.9c-1-8.25-3.5-16.33-5.54-24.43-.45-1.8-1.53-3.54-1.48-5.37.34-14.34-5.37-27.67-6.88-41.7-.23-2.22-.83-4.5-.48-6.66,1-6.2-.73-11.72-3.64-17a80.85,80.85,0,0,1-3.3-11.74c-.31-1.26-.86-2.81-.23-3.81,4.58-7.33-.37-13.82-1.6-20.63.6-3.91,4.62-3.91,6.84-6,2.09-1,4.08-2.93,6.59-.88,3.2,6.95,2.87,14.52,3.82,21.85a77.32,77.32,0,0,0,5.08,18.78c.83,2.07,2.05,4,2,6.34-.73,17.9,6,34.59,8.33,51.94,2.3,17,9.12,33,9.93,50.15,5.82,10.78,4,23.78,10.06,34.53,1.65,2.91,1.31,6.55,1.68,9.85.93,8.17,3.72,15.84,5.59,23.72,1.75,7.41,6.87,14.51,4,22.93C600.14,442.7,604.27,445.9,604.07,449.89Z"/><path class="cls-15" d="M275,73.05A110.43,110.43,0,0,1,291.6,83.16c3.32,2.36,2.65,5.92,2.66,9.19.12,39.26-.32,78.52.33,117.76.28,16.52.53,33.06.94,49.58a2,2,0,0,1-1.87,2c-7.17-2.91-14.69-5.31-19.09-12.49-.55-12.84-1.37-25.67-1.48-38.5-.32-38-.1-76-.13-114,0-6.15.2-12.29-.35-18.44C272.43,76.23,271.6,73.55,275,73.05Z"/><path class="cls-16" d="M659,415.46a35,35,0,0,1-11.24,7.72c-2.43-3.79-2.29-8.18-2.58-12.37a55.34,55.34,0,0,0-3.84-17.37c-3.57-8.68-5.1-17.81-6.52-27.06-1.71-11.21-5.07-22.11-8.05-33.06-1.43-5.23-3-10.39-3-15.85a36.77,36.77,0,0,0-3-13.57c-3.52-8.91-6.34-18.26-7-27.55-1-14.36-7.68-27.31-8.71-41.35-1.05-14.5-6.06-27.9-9.41-41.76-1.39-5.78-.22-12-3.18-17.49a3.78,3.78,0,0,1-.08-1.83,15.54,15.54,0,0,1,11.31-5.12c4.8,3.24,4.42,8.9,5.64,13.49,6.38,23.84,11.17,48.07,15.55,72.33,2.23,12.29,6.66,23.95,8.6,36.25,2.09,13.37,4.42,26.86,8.44,39.66,3.84,12.24,3,25.06,6.88,37,2.16,6.66,2.13,14,6.12,20.11,1.13,1.74,1,3.94,1.12,6,.27,5.72-.21,11.53,3.39,16.64A4.29,4.29,0,0,1,659,415.46Z"/><path class="cls-17" d="M247.9,234.19a23.76,23.76,0,0,1-1.13-8.78c.09-1.11,0-2.23,0-3.35.86-53.39-1.62-106.76-1.09-160.15,0-2.18-.65-4.48.71-6.53,6,3.4,12.24,6.56,17.69,10.92-1.58,6.12.27,12.2.25,18.31-.16,39.8,0,79.6-.15,119.4,0,10.25,1.8,20.39,1.2,30.64-.16,2.59.13,5.21-.52,7.76-.43,1.29-1.25,2.72-2.68,2C256.83,241.89,250.7,240.31,247.9,234.19Z"/><path class="cls-18" d="M604.07,449.89c-4.22-4.84-6.12-10.1-3-16.31.3-.6.56-1.78.26-2.05-6.38-5.71-3.82-14.5-7.49-21.53-3.53-6.75-3.89-15.56-4.29-23.67-.08-1.46.24-3-.86-4.25-4.67-5.42-4.11-12.53-5.59-18.88-.87-3.74-1.17-7.42-3.18-10.92-3-5.27-2.37-11.58-3.16-17.29-.92-6.62-3.08-12.94-4.7-19.16-2.32-8.94-3.34-18.06-5.23-27-3-14.24-7.76-28.3-6.56-43.31.41-5.11-3.29-9.62-4.85-14.48-2.6-8.09-1.8-16.44-3.89-24.45a69.49,69.49,0,0,1-1.19-8.2c-.4-1.84,1.16-2.3,2.21-3.12,2.56-.69,4.45-4.13,7.73-1.91,2.24,3.27,1.9,7.15,2.46,10.77A235.7,235.7,0,0,0,570,237.27a10.47,10.47,0,0,1,.64,2.71c.29,14.08,4.89,27.22,8.7,40.53,1.19,4.14.79,8.5,1.29,12.74,1.1,9.33,4.88,17.9,6.83,27a50.87,50.87,0,0,1,1.47,11.57c-.12,7.64,4.48,14.09,5.47,21.52.88,6.58,2,13.23,5.33,19.2a2.85,2.85,0,0,1,.39,1.62c-1.5,14.41,7.09,26.61,8.88,40.32.35,2.74,1.25,5.42,1.18,8.24a31.48,31.48,0,0,0,2.79,13.55c1.22,2.77,2.28,5.58.25,8.46C610.34,446.8,607.75,449.3,604.07,449.89Z"/><path class="cls-19" d="M635.43,430.9c-3.52,2.54-6.94,5.25-11.15,6.62a48.23,48.23,0,0,1-3.93-18.4c-.05-7.55-3.57-14.39-5.56-21.52-1.45-5.21-3.36-10.36-3.77-15.7C609.8,366.3,604.69,351.72,600,337c-1.09-3.41-2-6.77-1.19-10.39a11.21,11.21,0,0,0-.59-6.06c-3.27-9.52-4.63-19.56-7.91-29.08a8.45,8.45,0,0,1-.73-3.82c1.52-10.21-2.6-19.47-5.37-28.79S580.66,240.29,579,231c-1.88-10.43-5.81-20.38-7.27-30.94-.55-4-.15-8.22-1.66-12.13a3.42,3.42,0,0,1,.1-1.85c2.86-2.52,5.84-4.72,10-3.77,2.35,1.83,1.92,4.71,2.63,7.14,3.41,11.79,6.48,23.66,7.81,35.9,1.28,11.87,5.5,23,8.12,34.6a74.44,74.44,0,0,1,1.47,8.8,117.3,117.3,0,0,0,5.44,25.56c3.14,9.34,3.94,19.28,5.6,29,1.86,10.85,7.48,20.79,8.51,31.75,1.13,12,4.39,23.36,7.42,34.84,2.05,7.73,4.61,15.26,4.52,23.44,0,4.07,1.8,7.95,3.15,11.82C635.5,427,636.89,428.81,635.43,430.9Z"/><path class="cls-20" d="M73.14,57.46c.14,24.88,1.87,49.74,1.15,74.64-.06,2.41.25,4.86-1.13,7.05-11-4.9-21.31-11.16-31.92-16.82-1.64-.88-3.1-2-5-2.2L34,117.9a249,249,0,0,0,.23-31.74c-.08-1.87-.38-3.72.81-5.37Q53.68,68.46,73.14,57.46Z"/><path class="cls-21" d="M488.56,52.7l13.61-8.42c2.09,2.09,1.79,4.81,1.77,7.36-.39,37.35,1.88,74.68,1.21,112-.3,16.72,0,33.46-.06,50.19a38.93,38.93,0,0,1-.39,7.78A7,7,0,0,1,502,226a28.94,28.94,0,0,1-7.11,3.84c-1.95.73-3.92,1.13-5-1.42a17,17,0,0,1-.68-6.08c.76-48.39-1.87-96.75-1.1-145.14C488.2,69,487.22,60.83,488.56,52.7Z"/><path class="cls-22" d="M488.56,52.7c1.33,2.17,1.32,4.58,1.29,7-.79,56.7,1.8,113.38,1.14,170.07a1.42,1.42,0,0,1-.15,1.7c-3.48,2.69-6.8,5.82-11.83,4.28-2.29-1.95-2.06-4.66-2.11-7.23-.11-5.77-.08-11.54,0-17.3.21-27.52-1-55-2-82.49-.76-21.53,1.56-43.09.81-64.67-.06-1.73.24-3.35,1.81-4.44Z"/><path class="cls-23" d="M263.58,244.25c-1.81-55.05-.94-110.12-1.09-165.18,0-2.28-.82-4.38-1-6.56S260,67,264.09,66.3c3.1,3.13,7.94,3.45,10.93,6.75a2.41,2.41,0,0,0-1.28,2.31c2.35,22.26.6,44.58,1,66.86q.46,26.52,0,53c-.36,18.6,2,37.11,1.19,55.7C270.75,250.63,266.91,247.91,263.58,244.25Z"/><path class="cls-24" d="M592.89,174.93c2.52,1,3,3.68,3,5.6,0,13.06,5.24,24.91,8.21,37.27,2.49,10.33,2,21.25,5.63,31.29,5.23,14.5,4.82,30.11,9.27,44.68,3,9.74,6,19.26,7.11,29.56,1.17,10.55,4.21,21,7.66,31.14,3.34,9.77,2.93,20.09,5.93,29.88,1.89,6.18,5.36,11.79,6,18.43.7,6.79,1.85,13.54,2,20.4a13.7,13.7,0,0,1-5.57,3.45,5.47,5.47,0,0,1-2.11-3.2c-4.29-14-9.36-27.61-11.14-42.4-1.31-10.91-5-21.64-7.86-32.39-.57-2.15-1.82-4.27-1.56-6.46,1.17-9.86-3.72-18.37-5.67-27.53-2-9.38-6.35-18.21-6-28.21.19-5.11-1.62-10.27-3.28-15.18a122.29,122.29,0,0,1-5.53-27.82c-1-10.05-4.68-19.48-7.31-29.14a29.67,29.67,0,0,1-1.55-8.15c.08-9.07-3.15-17.45-5.42-26C585.6,175.46,589,174.81,592.89,174.93Z"/><path class="cls-25" d="M503.29,223.06c.53-59.6-.63-119.19-1.12-178.78a59.89,59.89,0,0,1,11.19-6.91c3.42,2.5,2.87,6.25,2.89,9.7.09,20.08-.27,40.16.11,60.23.64,32.89,1.37,65.77,1,98.66a52.9,52.9,0,0,1-.36,8.9,6.21,6.21,0,0,1-2.63,4.08C510.87,220.72,507.9,224.09,503.29,223.06Z"/><path class="cls-26" d="M543.61,240.9c3.61,5.37,4.34,11.1,4.33,17.67,0,10.07,3,19.93,5.17,29.84,2.51,11.48,2.54,23.47,6.2,34.77,4.11,12.68,3.33,26.31,8,38.93,4.55,12.36,3.94,25.86,7.66,38.45,1.36,4.6,2.68,9.24,4.41,13.71,3.59,9.28,4.39,19.11,5.45,28.78.63,5.75,4.89,10.08,4.71,15.84-3.5,2.06-6.07,5.48-10.07,6.78-2.53-4-3.41-8.6-3.73-13.22a55.49,55.49,0,0,0-4.3-18.31c-2.6-6.13-3.68-12.86-4.9-19.41-3.32-17.8-7.89-35.33-11.27-53.08-1.91-10-3.49-20.07-6.29-29.93-3.62-12.71-3.55-26.11-6.64-39a67.21,67.21,0,0,0-3.15-10.07c-.77-1.94-1.59-4.2-.15-5.87,4.34-5,2.47-10.88,2.88-16.52C542.38,253.83,542.74,247.33,543.61,240.9Z"/><path class="cls-27" d="M579.38,182.69l-8.83,3.46c-2.8.16-3.3-1.93-3.77-4a24.6,24.6,0,0,1-.34-5c-1.56-53-1.07-106-1.11-159.08,0-3.71-.41-7.44.35-11.13,4.62-1.48,8.79-.24,12.77,2.11,1.87,2.62,1.68,5.64,1.68,8.62,0,20.12.22,40.24,0,60.35-.45,33.71,2.07,67.38,1.11,101.09C581.36,180.73,581,182,579.38,182.69Z"/><path class="cls-28" d="M515.61,216.34c.63-57.3-2-114.57-1.08-171.87,0-2.49-.72-4.74-1.17-7.1a63.68,63.68,0,0,1,11.07-7c3.53,1.89,3,5.33,3,8.39.13,13.4.06,26.8.06,40.21,0,27.73-.32,55.47.13,83.2.24,15.24,1.35,30.47.92,45.73.42,3.25-2.1,4.39-4.21,5.82C521.52,214.91,519.27,218,515.61,216.34Z"/><path class="cls-29" d="M477.49,59.63c-1,2.94.2,5.85.09,8.81-.53,14.83.2,29.66-1,44.53-1.29,16.28.42,32.68,1.25,49,1.14,22.69.15,45.33.83,68,.06,2-1.17,4.73,2.25,5.41-.11,2.9-3,3.12-4.51,4.63-3,1.46-5.74,4.51-9.51,1.67-1.34-2.19-1.29-4.65-1.25-7,.7-37.2-1.75-74.37-1.2-111.57.25-16.93.18-33.86-.06-50.79a11.8,11.8,0,0,1,.66-4.93A74.42,74.42,0,0,1,477.49,59.63Z"/><path class="cls-30" d="M603,169.34l-10,4.51c-3.12.06-3.48-2.31-3.86-4.52a39.26,39.26,0,0,1-.25-6.69c0-20.67.64-41.36-.16-62-1-24.94-.9-49.87-.91-74.8,0-3.46-.55-7.21,2.88-9.72a50.86,50.86,0,0,1,11.21,6.69c2.31,1.52,1.74,3.9,1.82,6.08,1.49,43,1,86,1.06,129a34.28,34.28,0,0,0,.83,7.76C606.11,167.88,604.85,168.83,603,169.34Z"/><path class="cls-31" d="M436,85.2a50.75,50.75,0,0,1,11-6.62c3.91.82,3.11,4.09,3.17,6.61.23,8.92-.16,17.85.14,26.77,1.42,43.3,1,86.62,1.08,129.93,0,3,.64,5.91.5,8.9-2.41,5.2-7.11,7.83-12.48,7-3.17-4.41-2.8-9.55-2.81-14.53-.05-40.07-.12-80.13,0-120.2,0-10.63-1.74-21.17-1.27-31.81C435.41,89.22,435.07,87.15,436,85.2Z"/><path class="cls-32" d="M590.65,16.13a30.21,30.21,0,0,0-1.15,9.33c.07,18.22-.78,36.48.22,54.65,1.62,29.52.41,59,.92,88.55,0,2.1,0,4.15,2.31,5.19l-.06,1.08c-2.62,1.49-5.65,2.25-7.88,4.44a3.63,3.63,0,0,1-4.37,1.18c-1.63-1.24-1.21-3-1.17-4.64.76-33.47-1.7-66.9-1.2-100.37.34-22.14.14-44.29.18-66.44A56.31,56.31,0,0,1,590.65,16.13Z"/><path class="cls-33" d="M513.36,506.8a64.75,64.75,0,0,1-11.21,6.89c-2.23-6.06-7-11.57-3.95-18.77a4.13,4.13,0,0,0-.21-3.28c-5.16-10.16-5.57-21.75-9.85-32.17-.74-1.8-1.13-3.43.19-5.21,1.75-2.37,1.2-4.91.07-7.39-3-13.5-11.29-26.18-6.5-40.92,3.34-4.4,6.52-8.93,10-13.21,4-1,4.95,3.25,7.67,4.48,2.42,6.8,5.3,13.46,6.32,20.69.3,8.69-.82,17.49,2.84,25.87,1.12,2.56.57,5.51.11,8.29-1.64,10.06-.42,19.65,4.78,28.58,2.24,3.83,3.7,7.59,1,12-1.48,2.43-.85,5.45-.67,8.24C514.14,502.9,514.85,505,513.36,506.8Z"/><path class="cls-34" d="M605.26,167.13c-3.14-1.5-2.26-4.39-2.26-6.87,0-32.52.43-65.06-.25-97.57-.27-13.28-.79-26.57-.89-39.87a85,85,0,0,1,14.63,8.77c2.21,2.95,1.71,6.39,1.71,9.71.06,39.11-.05,78.22.08,117.32.16,2.55-1.25,4.18-3.22,5.48-1.66,1.05-3.49,1.8-5.23,2.73C608.34,167.37,606.88,168.46,605.26,167.13Z"/><path class="cls-35" d="M438.32,552.72c-8.91,5.66-17.22,12.27-26.89,16.7-3.24-3.47-4.9-6.6-1.82-11.67,2.17-3.57-.57-8.29-2-12.12-2.33-6.07-2.08-12.76-5-18.64-.64-1.29-.26-2.92.35-4.33,3.83-4.55,3.11-9.72,1.58-14.71-3.06-10-1.16-14,9.08-18.13a43.88,43.88,0,0,0,11.21,4.23,6.79,6.79,0,0,1,6,6.22c.14.73-.23-.07.13.53,5.9,9.88,3.15,21,4.58,31.51.73,5.31,3.89,10.07,3.61,15.65C439,549.59,439.65,551.29,438.32,552.72Z"/><path class="cls-36" d="M540.25,282.27c4.73,8.06,5,17.29,6.49,26.12,1.46,8.67,1.63,17.64,4.56,26,3.3,9.37,4.14,19.11,5.68,28.76,1.73,10.8,5.23,21.15,7.85,31.73.54,2.19,1.47,4.09.5,6.41a7.07,7.07,0,0,0,.09,6c3.3,6.19,4.24,13.13,5.52,19.76,1.25,6.43,5.32,11.73,5.77,18.39s1.8,13.51,2.75,20.26l-10.1,6.42c-3.62-4.13-4.93-8.77-4.49-14.37.6-7.75-3.25-14.74-5.12-22.05-2.5-9.81-5.56-19.23-6-29.71-.45-9.51-2.17-19.54-6.35-28.61-.7-1.53-1.79-3.06-1.44-4.73,2.24-10.88-2.29-20.76-4.58-30.95a19.38,19.38,0,0,1,.23-10.24c1.52-5.24-.7-10.51-2.41-15.59-2.24-6.7-4.53-13.4-2.43-20.62C538.67,291.11,537.37,286.12,540.25,282.27Z"/><path class="cls-37" d="M580.64,180.55a7.12,7.12,0,0,1,4.37-1.18,4.12,4.12,0,0,1,2.7,3.35c.39,6,4,11.56,3.73,17.23-.44,8,1.85,15.21,4.24,22.14,4.17,12.1,5,24.63,7.14,37,1,6.08,3.26,11.78,5,17.56,2.05,6.94.75,14.12,3,20.83,3.79,11.33,5.69,23.21,10.25,34.31.28.68.82,1.41.75,2.07-1.67,15,5.26,28.33,8.2,42.44,1.38,6.67,2.29,13.45,3.16,20.22a19.27,19.27,0,0,0,1.4,5.89c3.62,7.73,5.54,16,7.67,24.22a21.55,21.55,0,0,1-6.78,4.27c-7-17-7.91-35.56-12.71-53.2-5-18.28-8.12-37.1-13.16-55.46-1.9-6.91-2.46-14.17-3.93-21.21-2.06-9.93-6.11-19.37-6.91-29.62-.74-9.41-3.37-18.3-6.28-27.34a86.11,86.11,0,0,1-4-21.62c-.47-9.72-4-18.77-5.79-28.2-.74-3.92-2.17-7.71-3.29-11.56Z"/><path class="cls-38" d="M436,85.2a12.35,12.35,0,0,1,1.28,5.34c1.11,20,1.15,40,1.1,60.06-.06,31.22,0,62.43,0,93.65,0,4.61.15,9.17,2.26,13.42.37,1.94-1.25,2.43-2.38,3.3-3.06,1-5.66,4.48-9.42,1.76-1.83-8.59-2.2-17.34-2.24-26q-.25-57.58,0-115.15a206.48,206.48,0,0,0-2-29.52A65.35,65.35,0,0,1,436,85.2Z"/><path class="cls-39" d="M544.73,200.64,538,205.11a3.51,3.51,0,0,1-3.12.83c-4-1.87-3.09-5.63-3.1-8.8-.11-25.72.6-51.46-.24-77.15-.93-28.5-.82-57-.93-85.48,0-3.16-.24-6.38,1.81-9.14l9-5.56c3.11,7.38,2.74,15.29,2.79,23q.39,60.59.05,121.16c0,9.88,1.76,19.65,1.23,29.53A37.62,37.62,0,0,1,544.73,200.64Z"/><path class="cls-40" d="M544.73,200.64c-1.58-1.27-1-3-1.12-4.67-1.82-37.91-1-75.84-1.11-113.76q-.09-19.83,0-39.65c0-7.6-1.88-15.11-1.12-22.75,3.22-2.21,6.35-4.57,10-6,1.39,1.21,1.59,2.88,1.75,4.56a28.92,28.92,0,0,1,.11,3.35c-.77,54.78,1.84,109.52,1.11,164.29,0,3.48.69,7.15-1.8,10.22l-2.25,2.19Z"/><path class="cls-41" d="M465.06,67.29c1.34,2.18,1.27,4.6,1.27,7,0,19.19.16,38.38-.05,57.57-.38,35.17,2,70.31,1.18,105.49,0,1.62-.46,3.41,1.15,4.66.3,1.86-1.24,2.5-2.3,3.46-3,1.53-5.86,4.27-9.57,1.54-1.58-3-1.18-6.18-1.18-9.32,0-27.35-.23-54.71,0-82.07.25-24.56-2-49.08-1.18-73.64.1-3.15-.29-6.38,1.7-9.17A39.3,39.3,0,0,1,465.06,67.29Z"/><path class="cls-42" d="M570.49,187.23a3.68,3.68,0,0,1,2.23,3.55c.22,11,3,21.48,6.24,32,2.26,7.33,2.17,15.34,3.81,22.9,2.11,9.73,4.81,19.34,7.44,29a24.79,24.79,0,0,1,.9,10.84c-.9,5.91,2.77,11.32,4,17.07,1.41,6.7,5.18,13.52,5,19.81-.65,18.23,10.39,33.42,11.48,51,.87,14,6.59,26.86,9.66,40.3a160.76,160.76,0,0,1,3.08,23.92c-1.84,1.28-3.15,3.34-5.58,3.74-2.3-14.67-9.5-28.13-10.19-43.28-.36-8-3.74-15.55-6-23.22-2.62-8.77-5.08-17.57-5.88-26.69-.67-7.71-4.09-14.69-5.23-22.25-.66-15.66-3.94-30.83-8.5-45.78-2.39-7.83-2-16.19-4.64-24-1.37-4-2.35-8.21-4-12.16a11.79,11.79,0,0,1-.61-2.61c-.25-2.22.21-4.56-1.25-6.55-1.57-4.34-3.7-8.56-3-13.41a9.24,9.24,0,0,0-.06-6.53c-2.21-7.93-4.72-15.79-5.42-24.07C565.37,188.09,567,185.81,570.49,187.23Z"/><path class="cls-43" d="M727.44,294.6q.69,16.22,0,32.43c-3.88.51-4.67-2.65-5.49-5.1-3.83-11.44-8.48-22.71-10.23-34.69-2-13.87-7.28-26.84-10.22-40.44-.27-1.26-1-2.44-1.09-3.73-1.16-17.48-8.33-33.4-12.91-50-.34-1.25-1-2.5-.94-3.77.76-13.91-5.45-26.29-8.71-39.31-1.62-6.5-.8-13.4-3.61-19.65,1.17-3.73,4-4.46,7.46-4.17,2.57,1.38,3.39,4,3.91,6.47,2.71,12.88,8.37,25,9.24,38.39.51,7.91,3.19,15.63,6.1,23.12a52.77,52.77,0,0,1,3.22,13c1.59,13.54,5.32,26.54,9.63,39.41a79.8,79.8,0,0,1,2.88,13A137.57,137.57,0,0,0,727.44,294.6Z"/><path class="cls-44" d="M552.57,196.19,551.4,13.77A21.68,21.68,0,0,1,559,9.29c2.7,0,2.64,2.16,3,3.87a37.2,37.2,0,0,1,.23,6.68c0,29.18-.85,58.4.26,87.55,1,27.33.44,54.63.85,81.93,0,2.67-1.3,3.94-4,3.54C557.07,194,555.29,196.05,552.57,196.19Z"/><path class="cls-45" d="M476.45,529.56c-6.54,4.34-12.78,9.21-20.23,12a6.13,6.13,0,0,1-3.25-8c2-5.57.67-11.09-1-15.81-2.32-6.46-3.34-13.24-5.91-19.56-.72-1.78-1.55-3.68-.53-5.34,2.41-3.9.5-7.19-.4-11-1.39-5.94-5-11.61-3.3-18.12,2.19-1.83,4.44-1.16,6.63-.12.07-4.15,1.53-6.06,5.81-3.87,1.15.58,2.54.48,3.71,1.09a12.46,12.46,0,0,1,5.57,7.95c1,4.87,2.81,9.5,3.82,14.29.78,3.67,2.31,6,5.62,7.35,3.77,5.27,3.35,11.72,4.66,17.62,1.24,5.58.18,11.51,1,17.24C478.91,527.12,477.81,528.45,476.45,529.56Z"/><path class="cls-46" d="M356.55,108.94c.05,62.21-.35,124.42,1.14,186.61-4.14.29-6.89-2.51-10-4.46a4.72,4.72,0,0,1-1-2.77c.62-24.21,1.07-48.46,0-72.61-1.44-33.33-.29-66.64-.82-99.95,0-2.72-.46-5.65,1.77-7.93A26.87,26.87,0,0,1,356.55,108.94Z"/><path class="cls-47" d="M424.53,92c1.74.24,2.5,1.21,2.59,3,.31,5.71,1.05,11.42,1.07,17.13.09,38.83.22,77.66-.07,116.48-.07,10.59,1.71,21.06,1.25,31.63a3.22,3.22,0,0,0,1.11,3c-2.09,4.73-5.76,5.9-10.51,4.64-3.25-2.93-2.46-6.87-2.46-10.5q-.09-60.64,0-121.31c0-11.19-1.81-22.29-1.22-33.48a35.81,35.81,0,0,1,.46-6.12A25.08,25.08,0,0,1,424.53,92Z"/><path class="cls-48" d="M559.29,192.86l3.37-2.27a1.56,1.56,0,0,1,2.21-.07q2.82,12.33,5.62,24.66a6.52,6.52,0,0,1,0,5.59c-.21,4.81,1.52,9.13,3.36,13.42,1.39,2.06-.34,4.65,1.12,6.71v2.23c4.07,9.11,4.49,19.08,6.42,28.65a196.13,196.13,0,0,0,5,19.29c2.69,8.64,2.14,17.64,4.16,26.31.67,2.88,1,5.83,2.36,8.5,5.88,21.13,8,43.19,15.65,63.86,2.35,6.36,1.25,13,2.94,19.46,2.5,9.46,6.44,18.53,7.75,28.33a9,9,0,0,1-.53,3.73,13.56,13.56,0,0,1-5.53,3.45,17,17,0,0,0-2.21-9.07,19.52,19.52,0,0,1-2.33-9.08c-.14-9.73-3.54-18.7-5.62-28-1.64-7.34-8-14.24-4.1-22.7.38-.8-.13-2.28-.65-3.2-6.32-11-5.07-24.09-10.43-35.46-2.4-5.1-.51-11.56-2.17-17.5-2.52-9-6.59-17.83-6.6-27.3,0-11.47-6.21-21.57-6.47-32.91,0-1.39-1-2.75-1.55-4.14-1.39-3.75-2.88-7.23-1.86-11.67,1.38-6-2.6-11.36-3.7-17.16-1.85-9.76-4.16-19.42-5.14-29.35A30.39,30.39,0,0,0,559.29,192.86Z"/><path class="cls-49" d="M476.45,529.56a82.87,82.87,0,0,0-.67-22.82c-1-5.46-.9-11.41-3.86-16.49-.07-.17-.25-.42-.2-.51,5.63-8.47,1.57-16.95-.81-24.93-2-6.77,1.08-11.16,4-16.12,4.08-.27,6.24,3.51,9.67,4.51.21.8,1.08-.39.51.08-.84.71-1.38-2.91-.55-4.51,1.12-2.15,2.65-3.57,5.28-2.13,1.25,3.14,2.87,6.3-1.18,8.76-.78.48-.43,1.32-.1,2,3.92,8.18,5.63,16.93,7.14,25.8.51,3,4.42,6.13,3.79,8.35-2.26,7.81,1.72,14.43,2.66,21.58a5.23,5.23,0,0,1,0,.56A290.87,290.87,0,0,1,476.45,529.56Z"/><path class="cls-50" d="M377.55,108.82c2.53-1.19,5.24-1,7.91-1.06,3-1.05,4.12.79,4.84,3.1a21.51,21.51,0,0,1,.53,6.1c1.18,52.72,1.28,105.43,1.12,158.16,0,2.79.22,5.58,0,8.38-2,4.94-4.53,6.42-9.68,5.6-1.93-2.16-1.61-4.84-1.73-7.42-1.68-37-1-74-1.13-111,0-13.77-.13-27.54.05-41.31C379.54,122.41,378.37,115.64,377.55,108.82Z"/><path class="cls-51" d="M617.58,160.41c-1.6-1.24-1.15-3-1.15-4.64q0-62.09.06-124.18l12.24,7.24c2.07,2.75,1.78,6,1.79,9.13,0,26.79.1,53.59,0,80.38-.05,7.82,2,15.53.93,23.36a8.87,8.87,0,0,1-.37,1.9c-.79,2.15-2.85,2.85-4.57,4-.88.57-1.79,1.11-2.72,1.62a27.7,27.7,0,0,1-4.11,1.87A2.08,2.08,0,0,1,617.58,160.41Z"/><path class="cls-52" d="M416.76,96.49c1.73,1.13,1.31,2.91,1.4,4.54,1.46,28.74,1.09,57.51,1.11,86.27q0,36.81,0,73.6c0,2.47-.88,5.37,2.27,6.86-.12,3.93-3.79,4-6.08,5.64-2,.66-3.91,1.25-5.11-1.24-1-9.8-1.76-19.63-1.8-29.47q-.24-60.85,0-121.73c0-6.71-2-13.29-.84-20Z"/><path class="cls-53" d="M674.64,130.19c3.28,1.94,3.07,5.5,3.25,8.4.79,12.93,5.8,24.79,9.05,37.08.94,3.58,2.07,6.67,1.19,10.64-1.31,5.87,3,10.83,4.35,16.34,2.34,9.32,6.34,18.33,7.75,27.76,1.63,10.81,4.92,21.16,6.79,31.85.85,4.85,3.6,9,4.47,13.71,1.44,7.81,2.23,15.75,4.62,23.36,2.6,8.27,5.38,16.49,8.17,24.71a5.3,5.3,0,0,0,3.17,3,258.38,258.38,0,0,1,0,26.84c-4,.37-5.1-2.83-5.85-5.51-3.34-12-9.08-23.32-9.43-36.07a8.88,8.88,0,0,0-.49-2.74c-8.63-25.05-12.46-51.35-19.78-76.68-5.07-17.54-7.14-35.77-13.32-52.94-5.34-14.81-5.18-30.79-10.27-45.63a4.58,4.58,0,0,1,2.29-3.69C671.88,129.88,673.15,129,674.64,130.19Z"/><path class="cls-54" d="M538,295.69c-1.69,6.74-.21,13.31,2.58,19.21,2.2,4.68.92,10,3.89,14.34a1.63,1.63,0,0,1-.16,1.56c-5.27,4.18-2.05,9-.53,13.19,2.37,6.43,1.11,13.74,5.13,19.68a2.33,2.33,0,0,1,.19,1.63c-3.18,13,5.06,24.14,6.15,36.44.11,1.28.81,2.6.6,3.79-2,11.12,3.52,20.71,5.84,31,1.81,8,7.1,15.56,4.44,24.59-1.16,3.93,3.47,6.9,3.22,11-2-.07-2.51,2.5-4.44,2.63-4.33-11.13-5.91-22.89-8.19-34.51-2-10.16-4-20.36-8.44-29.89-1.55-3.33-3.07-6.89-2.79-10.69.6-8-2-15-6.2-21.54-.19-7.58-4.95-14-5.43-21.52-1-16.12-6.78-31.7-5.42-48.1.34-4.13-2-7.93-2.1-12.05a20.81,20.81,0,0,0-.93-6.49c-1.22-4.77-2.81-9.47,1.87-13.74,1.83-1.66.83-4.93,1.26-7.44.34-2,0-4.1,1.62-5.68,2.4.1,3.05,2,3.38,3.75C535.38,276.39,538.26,285.8,538,295.69Z"/><path class="cls-55" d="M724.05,371.94a9.79,9.79,0,0,1-4.54,6.6c-2.66-1.08-3.29-3.61-3.6-5.91-1.67-12.44-7.16-23.9-9.51-36-4.33-22.28-12.08-43.65-16.57-65.84-2.11-10.39-4.19-20.68-8.28-30.56A42.41,42.41,0,0,1,678.66,226c-.33-7.31-2.37-14.28-4.77-21.08-5.11-14.46-6.56-29.69-10-44.5-1.7-7.4-5-14.4-5.4-22.13,1.29-2.71,3.51-3.63,6.38-3.3,4.13,2,4.3,6,4.38,9.57.13,6.46,1.07,12.53,4.45,18.19,1.71,2.88,1.62,6.49,2.21,9.7,1.56,8.54,5.39,16.68,4.8,25.62a16.92,16.92,0,0,0,1.29,7.66c6,14.16,9.78,28.8,10,44.25a9.64,9.64,0,0,0,1.12,4.29c5.65,11,7.19,23.39,12.27,34.59,2.22,4.89,1.51,10.57,2.78,15.86,2.43,10.13,6,19.86,9,29.82a24,24,0,0,1,.5,7.22,30.14,30.14,0,0,0,3.73,15.55C723.85,361.85,724.06,366.91,724.05,371.94Z"/><path class="cls-56" d="M319.58,99.05c3.27.42,6,2.19,9,3.44a104.62,104.62,0,0,1,1.76,18.76c.25,23.43-.28,46.86,0,70.29.19,18.38.91,36.76,0,55.14-.37,7.83,1.66,15.54,1.12,23.39-.21,3,0,6-2,8.52-4.81,1.47-7.05.34-10-5.06-.7-2.93-.49-5.91-.49-8.88q0-56.29,0-112.58c0-15-1.9-30-1.13-45.09C317.92,104.23,317.43,101.34,319.58,99.05Z"/><path class="cls-57" d="M368.87,296.77c0-14.51.44-29-.12-43.52-.58-15-2.89-30-2-44.92,2-33.07.32-66.15,1-99.21l6.72-.11c2.09,2.32,1.7,5.2,1.8,8,1.9,52.63.92,105.27,1.07,157.91,0,5.4.81,10.75.76,16.14C376.64,295.51,374,298.08,368.87,296.77Z"/><path class="cls-58" d="M700.39,390.63a9.61,9.61,0,0,1-4.33,2.61,4,4,0,0,1-2.54-4c-.3-10.12-5.08-19-8.37-28.16A145,145,0,0,1,679,335.78c-1.46-8.86-5.47-16.84-7.53-25.45-1.74-9-5.36-17.49-6-27.05-.55-8.83-3.19-17.92-6.23-26.46a62.54,62.54,0,0,1-3.63-15.09c-1.19-12.3-4.4-24.09-8.44-35.71-1.36-3.89-1.58-8-2-12.1-1.1-10.21-2.78-20.27-6.76-29.83-1.6-3.84-1-8.13-2.36-12,.26-4,3.29-4.89,6.45-5.6a2.25,2.25,0,0,1,1.58.93,67.09,67.09,0,0,1,5.4,21.46c.85,9.61,3.42,19,6.12,28.26.41,1.42,1.2,2.77,1.26,4.26.65,15.23,6.21,29.35,9.78,43.92,2.29,9.37,2.14,19.15,4.9,28.48,1.25,4.26,1.91,8.7,3.61,12.86A62.08,62.08,0,0,1,679.65,305a58.33,58.33,0,0,0,4.19,17.3c3.74,9,5.2,18.57,7.06,28.05,2.18,11.14,6.12,21.82,8.82,32.83C700.32,385.63,702.08,388,700.39,390.63Z"/><path class="cls-59" d="M456.12,72.84c0,.93.1,1.86.11,2.79.68,55.22,1.59,110.43,1.17,165.66,0,2.12-.86,4.51,1.11,6.33-.15,3.09-3,3.1-4.86,4.31-1,.34-2,.79-3,.16-1.4-5.47-1.13-11.05-1.13-16.61,0-28.68.79-57.39-.24-86-.8-22.13-.51-44.23-.88-66.35,0-1.64.32-3.42-1.45-4.51A34.16,34.16,0,0,1,456.12,72.84Z"/><path class="cls-60" d="M442.8,463.41c-.26.87-1,2-.71,2.58,3.16,6.12,2.23,13.49,6.08,19.39.78,1.19,1.88,2.69,1,4.14-5.42,8.8,1.66,16,3.09,23.82,1.16,6.39,5,12.38,2.06,19.32-1.32,3.13.29,6.16,1.92,8.93-5.54,4.39-11.22,8.57-17.9,11.13-.31-9.2-4.72-17.6-5.18-26.8-.17-3.24-1.56-6.39.9-9.39,1.39-1.7.52-3.25-.52-5-2-3.46-4.6-6.81-4.16-11.21,1.34-4.15.28-9.32,5.33-11.94.82-.42.41-2.18-.13-3.14-2.35-4.18-2-9.05-3.55-13.44-1.09-3.06-.59-5.58,3.36-6,5-.56,2.67-5.54,4.77-7.86C443.31,457.79,443.27,460.45,442.8,463.41Z"/><path class="cls-61" d="M407.77,100.94c2.18,5,2.47,10.31,2.48,15.56.11,42.65,0,85.3.14,127.94.05,9.63,1.52,19.24,1.05,28.91-2.55,4.91-5,5.79-8.92,3.14-.89-9.61-1.72-19.25-1.77-28.88-.17-35.33-.07-70.66-.06-106,0-12.44.46-24.91-1.8-37.25Z"/><path class="cls-62" d="M540.25,378.43c4.72,3.76,6.46,9.25,6.52,14.69.07,7.62,2,14.31,5,21.27,3.09,7.23,4.73,15.19,6.22,23,2,10.15,2.94,20.47,6.23,30.34.74,2.24,1.65,4.56.69,7a91.23,91.23,0,0,1-14.55,9c-1.93-9-3.9-18-7.29-26.65a41.65,41.65,0,0,1-2.8-14.68,87.18,87.18,0,0,0-4.59-26.25c-1.74-5.43-2.25-10.91-.56-16.46,3.82-3.4,3.86-7.65,3.06-12.28C537.64,384.26,536.48,380.72,540.25,378.43Z"/><path class="cls-63" d="M712.74,382.76c-1.37.34-1.52,2.56-3.36,2.18a112.5,112.5,0,0,1-7.61-21.4c-4.52-16.82-8.39-33.81-12.24-50.81-1.55-6.82-5.51-13-6.18-20.16-1.53-16.25-9.78-30.91-11.54-47-1.8-16.38-8.31-31.61-10.42-47.79-2.42-18.44-9.72-35.89-10.77-54.57.46-2.24,2.09-3.09,4.12-3.47a2.43,2.43,0,0,1,1.69.77,43.06,43.06,0,0,1,5.73,19.06A113.09,113.09,0,0,0,669.28,191c2.62,6.81,3.18,14.11,3.89,21.32.9,9.18,5,17.49,7.12,26.31,5.49,23.12,11.69,46.07,16.53,69.35,1.14,5.45,3,10.75,3.67,16.31-.68,6.1,2.17,11.5,3.79,17.06,2.77,9.52,4.07,19.36,7,28.82a12.73,12.73,0,0,1,.58,2.57C711.35,376.16,714.57,379.25,712.74,382.76Z"/><path class="cls-64" d="M347.59,107.83c0,14.33.14,28.65,0,43-.5,43.48,2,86.94,1.19,130.42A30.06,30.06,0,0,1,347.6,290c-3.9.79-5.6-1.62-6.88-4.68-.78-7.77-1.7-15.51-1.69-23.36.09-35.92-.16-71.85.15-107.77.12-14-1.47-27.86-1.23-41.82,0-2.21-.39-4.48.71-6.58Z"/><path class="cls-65" d="M391.31,284.52c-1.88-1.63-1.12-3.83-1.12-5.78-.06-18.81-.32-37.62,0-56.43.66-36.28-1.6-72.52-1.17-108.79,0-2.69.18-5.43-3.58-5.76l10-2.36c2.73-.11,2.69,2.09,3,3.8a36.3,36.3,0,0,1,.25,6.68c0,22.86.3,45.74-.07,68.6-.51,31.42,1.71,62.79,1.23,94.2C398.37,283.9,396.72,285,391.31,284.52Z"/><path class="cls-66" d="M532.41,25.37c0,24.53-.91,49.11.22,73.59,1.55,33.8.28,67.58.92,101.35,0,1.89-.81,4.34,2.29,4.84-.89,4.55-4.18,4.86-7.88,4.45-1.6-1.25-1.14-3-1.14-4.66,0-29.39-1.67-58.75-1.22-88.16.4-26.26.08-52.53.09-78.8,0-2.6.21-5.23-1.26-7.59Z"/><path class="cls-67" d="M655.62,140.28H654.5c-4.6-.67-3.88-4.42-3.93-7.33-.22-11.5-.37-23,0-34.51.38-12.27-1.5-24.44-1.16-36.68.09-3.11-.26-6.44,2.86-8.57l16.8,10.2a6.21,6.21,0,0,1,.92,4.23c-.66,17.59-.09,35.18-.33,52.77a38,38,0,0,0,1.64,10.93L669,133.5c-.95,1.83-2.92,1.65-4.47,2.28L659,138.06C658.24,139.38,657.71,141,655.62,140.28Z"/><path class="cls-68" d="M403.59,522.67c.11,6.87,3.09,13.14,4.69,19.63,1.1,4.48,1.31,9.52,4,13.67.34.53.33,2,.07,2.09-7.12,3.29-.77,7.59-.91,11.36-6.78,4.69-13.44,9.59-21.28,12.47-.34-.86-1.22-2.08-.93-2.52,5.4-8-1.82-14.87-2-22.35-.14-4.8-.95-9.56-3.47-13.83a.76.76,0,0,1-.11-.53c4.6-8.78-2.27-17-1.29-25.58a15.57,15.57,0,0,0,8.69.29c3.83-.84,8.19,0,12.25-1.15C404.78,518.3,405.15,520.44,403.59,522.67Z"/><path class="cls-69" d="M651.13,142.54a19.89,19.89,0,0,1,2.36,8.44c.91,9,2,18,5.51,26.36,2,4.74,2.43,9.68,3.2,14.55,1,6.69,2.83,13.2,4.15,19.79,2.38,11.87,6.39,23.37,7.42,35.61A58.62,58.62,0,0,0,679.32,268c4.42,9,3.64,19.16,6.41,28.55.77,2.63,1.06,5.48,2.36,7.93,3.62,6.82,4.43,14.31,5.68,21.75,1,6,4.49,11.39,5,17.57,1,13.08,7.24,24.72,10.23,37.25a29,29,0,0,1,.41,3.86l-3.77,2.42c-3.14,1.09-3.93-1.37-4.61-3.36-1.6-4.74-3.25-9.42-3.35-14.6-.2-11.32-4-21.89-7.72-32.4A31.59,31.59,0,0,1,688,325.61c.08-6.93-3.75-13.08-5.11-19.79-2.65-13.07-8.59-25.18-10.45-38.63-1.62-11.69-5.86-23-8.86-34.52-1.13-4.35-2.27-8.63-1.91-13.18a12,12,0,0,0-.9-5.47c-3-7.25-4.13-15-6.51-22.44-2.8-8.74-3.08-17.88-5.13-26.74-1.41-6.11-3.92-12-4.5-18.25C646,143.92,647.89,142.15,651.13,142.54Z"/><path class="cls-70" d="M642.19,147c-1.45,2-4.57,1.93-5.69,4.4-.79,1.48-2.27,1.9-3.71,2.38a3.58,3.58,0,0,1-2.92,0c-2.07-38.29-.78-76.6-1.14-114.9l10.11,6.29c2,1.39,2.66,3.46,2.79,5.78.1,1.85.13,3.71.08,5.56-.78,27.8,1.32,55.57,1.14,83.37C642.83,142.23,643.06,144.66,642.19,147Z"/><path class="cls-71" d="M513.36,506.8c-.58-6.06-3.44-12.3,1.6-17.93,1.06-1.18-.1-2.54-.74-3.57-6.93-11.17-9.45-23.09-6.53-36.06a7.85,7.85,0,0,0-.24-4.93c-4.4-8.58-2.76-17.75-3.05-26.74,3.91-2.47,6-1.34,7.17,3.09a54.26,54.26,0,0,0,9.54,19.94c2.12,7,5.16,13.83,6.26,21.19.19,1.27.87,2.52.76,3.78-.79,8.69,2.49,16.69,4.15,25,.28,1.43.92,2.84.18,4.31A182.28,182.28,0,0,1,513.36,506.8Z"/><path class="cls-72" d="M655.62,140.28l3.36-2.22c3,11.74,7.82,23,9,35.25.78,7.86,2.83,15.51,5,23.12,3,10.37,7,20.47,7.33,31.53.33,10.67,6.77,19.77,8.39,30.29,1.54,9.95,4.68,19.65,7.15,29.45,1.85,7.3,2.84,15,5.84,21.79,3.93,8.9,3.62,18.45,6.1,27.54,2.1,7.68,5.83,14.76,7.21,22.69,1.11,6.32,1.34,12.94,4.46,18.82a6.29,6.29,0,0,1-3.49,2.84c-4.38-1.21-3.7-5.68-5.52-8.54V370.6c-.71-16-7.91-30.45-11.2-45.84-1.78-7.72-4.09-15.36-5.18-23.18-1-7.06-3.43-13.65-5.26-20.4-2.9-10.69-5.1-21.51-7.33-32.32-1.84-9-5.7-17.21-8-26-2.7-10.19-1.33-21.28-5.69-31C660.38,175.42,662.45,156.83,655.62,140.28Z"/><path class="cls-73" d="M727.43,210.71q.69,18.45,0,36.9c-4.51,1.34-5-2.67-5.82-5-4.73-13.49-9.87-26.92-11.35-41.28a82.76,82.76,0,0,0-4.52-19.5,142.86,142.86,0,0,1-7.87-33.51c-.66-6.33-2.76-12.32-4.8-18.31-1-2.8-2.32-5.49-2.39-8.55,1.47-4.26,4.78-5.5,8.91-5.4,6.08,4.16,7.06,11,7.46,17.23.48,7.59,3.57,14.35,4.7,21.63,1.24,8,4.26,15.61,5.42,23.72C718.77,189.79,721.72,200.75,727.43,210.71Z"/><path class="cls-74" d="M564.87,190.52l-2.21.07c-1.58-1.26-1.14-3-1.11-4.66.76-45.67-1.82-91.31-1.17-137,.17-11.34.06-22.67,0-34,0-1.94.72-4.16-1.36-5.65A9,9,0,0,1,565.68,7c2.38,1.84,1.4,4.46,1.41,6.75.06,33.28.28,66.57-.05,99.86-.22,22.47,2,44.88,1.21,67.36-.08,2.1,0,4.15,2.3,5.19,0,.36,0,.72-.06,1.08C568.13,187.5,566.56,189.11,564.87,190.52Z"/><path class="cls-75" d="M671.28,131.31c-3.16-.66-3.31-3.19-3.32-5.62q-.06-27.89,0-55.78a40.93,40.93,0,0,1,1.06-6.53,183,183,0,0,1,19.13,11.8c1.84,2.39,1.65,5.22,1.66,8,0,12.2,0,24.41.07,36.6a4.24,4.24,0,0,1-1.91,4,29,29,0,0,1-6.66,3,13.24,13.24,0,0,0-6.7,3.39Z"/><path class="cls-76" d="M532.46,494.84c-2.39-8-5.66-15.8-5.75-24.46a54.87,54.87,0,0,0-4.93-22.45,15.73,15.73,0,0,1-1.7-8c-.39-3.48-1.23-7,1.94-9.85,2-1.78.4-3.79-.14-5.68-2.36-8.39-5.08-16.71-4.45-25.63.15-2-.09-4.11,1.24-5.89a2.64,2.64,0,0,1,2.59-.29c3.15,5.91,5.83,12,5.25,18.88-.17,2.09-.51,4.31,1,5.86,3.35,3.42,4.2,7.76,5.1,12.14A43.85,43.85,0,0,0,539,445.21c4.28,6.5,4.44,14.85,6.77,22.3,1.16,3.71,1.78,7.6,2.89,11.35.77,2.63,1.07,5.17-1.65,7A88.87,88.87,0,0,1,532.46,494.84Z"/><path class="cls-69" d="M645.54,145.87c1.9,7.69,3.93,15.36,5.67,23.09,2.34,10.4,4.44,20.86,6.66,31.28a26,26,0,0,0,1.27,4.83,52.74,52.74,0,0,1,4.37,18.66c.37,7.08,2.78,14.12,4.82,21,3.73,12.59,5.73,25.59,9.09,38.19,2.05,7.68,5.6,15.33,7.07,23.13,1.44,7.61,7.54,14.25,4.82,22.76-1,3,1.49,5.67,2.42,8.43,3.9,11.58,7.37,23.11,7.86,35.54.19,5,.82,11.05,6,14.56a11.66,11.66,0,0,1-5.22,3.27c-3.48-12.11-7.33-24.14-10.3-36.37-2.09-8.6-2.21-17.86-5.7-25.94-7-16.17-6.84-34-13.29-50.36-3.69-9.34-3.65-19.91-5.55-29.86-2.21-11.62-7.42-22.78-8.72-34.43-1.85-16.6-8.89-32.1-9.12-48.92-.08-6.19-3.69-11.64-4.42-17.75C643.71,146,644.34,145.37,645.54,145.87Z"/><path class="cls-77" d="M664.56,135.78A6.63,6.63,0,0,1,669,133.5c3.72,10.13,5.64,20.59,7,31.31,1,8,4.18,15.67,6.46,23.46,2.38,8.15,4.54,16.33,5,24.86.21,3.94,2.12,7.44,3.52,11,4.79,12.12,6.32,25,8.92,37.59,1,4.7,2.9,9.2,3.79,13.9a213.7,213.7,0,0,0,9.16,32c1.17,3.28.93,6.6,1.27,9.89,1.11,10.65,6.55,20,8.75,30.34a8,8,0,0,0,4.55,6c.57,6.34.69,12.6-3.4,18.07-2.22-11.65-9.15-22-8.27-34.68.34-4.92-1.4-10.5-4.08-15.27a18,18,0,0,1-2.26-5.63c-1.41-8.27-5.08-16.12-4.53-24.73.13-2-.76-3.47-1.66-5.16a76.67,76.67,0,0,1-7.33-21.81c-.1-.55,0-1.23-.27-1.63-7.54-10.48-3.88-23.47-7.83-34.61-2.27-6.41-2.11-13.5-6.08-19.4a16.66,16.66,0,0,1-2.61-10.67c.71-9.25-3.35-17.64-4.92-26.49-1.87-10.59-7.8-20.26-7.22-31.46C667.08,138.58,666.69,136.62,664.56,135.78Z"/><path class="cls-78" d="M629.87,153.73l2.25-1.11c3.5.77,4.28,3.53,5.13,6.52a116.32,116.32,0,0,1,4.63,25.75c.32,6,2.83,11.55,4.09,17.36,3.78,17.44,6.53,35.11,11.59,52.27a75.73,75.73,0,0,1,3.23,18.1c.25,5.6,2.14,10.91,3.83,16.26,3.86,12.26,4.71,25.21,8.23,37.56,1.45,10.58,7.2,20.06,8.56,30.53,1.56,12.08,5.09,23.51,8.84,35,.46,1.39.86,2.87.08,4.33-1.35.52-1.45,2.63-3.27,2.54a6.18,6.18,0,0,1-2.77-4c-3.66-12.63-8.9-24.8-11.35-37.77-2.8-14.77-6.14-29.37-11.14-43.57a37.82,37.82,0,0,1-1.93-10.4c-.46-8.1-2.83-15.69-5.55-23.22-.27-1.77-.93-3.45-1.16-5.22a19.07,19.07,0,0,0-1.29-6,40.13,40.13,0,0,1-2.34-13.64,19.92,19.92,0,0,0-1.29-7.66,116.86,116.86,0,0,1-6.87-25.14c-3.17-21.59-10.07-42.44-12.22-64.21a4,4,0,0,1,.7-3.15C629.86,154.43,629.86,154.08,629.87,153.73Z"/><path class="cls-79" d="M328.54,279c1.77-7.15,1.31-14.32.52-21.54a146.71,146.71,0,0,1-.06-30.07c.45-4.71,0-9.12-.32-13.72-.86-12.77-.91-25.68-.63-38.39.44-19.33,0-38.65.47-58,.13-4.92-2.45-9.84,0-14.77l5.61,2.07c1.94,2.15,1.73,4.82,1.8,7.41,1.44,54.2,1.13,108.41,1.12,162.61a24,24,0,0,1-.6,7.21C333.32,284.49,331.19,283.73,328.54,279Z"/><path class="cls-80" d="M645.54,145.87,643.29,147l-.55,0h-.55c-2-1.83-1.1-4.21-1.1-6.33,0-30.06-2-60.09-1.14-90.15a11.1,11.1,0,0,0-1.11-5.39,86.37,86.37,0,0,1,13.41,8.06c-2,6.37-1.58,13-1,19.39,2,20.45.36,40.91,1,61.35.07,2.34-.65,5,2.24,6.35l-3.37,2.27Z"/><path class="cls-81" d="M605.26,167.13l4.4-1.21c4.18,4,4.36,9.68,5.59,14.69,2.24,9.17,2.23,18.79,4.91,27.93,5.11,17.47,6.22,35.76,11.26,53.29,3.37,11.75,4.53,24.07,7.7,35.92a18.21,18.21,0,0,0,.23,3.33c5.62,18.62,5.75,38.42,12.46,56.83,2,5.35,1.6,11.27,2.85,16.92C657,385.37,660.41,395.56,663,406c.69,2.73,1.3,5.48-.68,8-1,.62-1.88,1.69-3.31,1.47-.18-1.47.18-3.4-.63-4.32-5-5.67-3.44-12.54-3.9-19-.06-.93.17-2.14-.32-2.72-4.95-5.8-4.41-13.52-6.5-20.19-2-6.34-4.15-13.33-3.29-20.48A22.28,22.28,0,0,0,641,334.33c-2.13-3.51-1.76-7.65-2.29-11.14-.93-6.12-3-12-4-18.06-1.61-9.11-3-18.39-6-27.37a135.64,135.64,0,0,1-5.58-24.67,244,244,0,0,0-6.21-28.79c-2.37-8.88-2.72-18.31-5.1-27.19-2.51-9.35-3.8-19.17-8.78-27.77Z"/><path class="cls-82" d="M376.72,292.36c-2.76-61.09.4-122.25-2.25-183.35l3.08-.19c4.67,3.58,2.87,9,3.43,13.55.82,6.61.21,13.39.21,20.1,0,36-.05,71.92,0,107.88,0,11.88,1.78,23.72,1.11,35.63a3.19,3.19,0,0,0,1.11,3c-.06,2.91-2.61,3-4.44,4A2.43,2.43,0,0,1,376.72,292.36Z"/><path class="cls-83" d="M619.74,160.36l3.39-2.18c4,7,6,14.73,6.92,22.54A317.56,317.56,0,0,0,639.23,226c1.32,4.91,1,10,1.95,14.91,1.68,9,5.23,17.41,7,26.38,1,4.91,2.4,9.72,2.66,14.75.54,10.15,5.2,19.35,6.69,29.31a221.41,221.41,0,0,0,9.77,41.11c3.7,10.47,4,21.46,6.48,32.09a68.16,68.16,0,0,0,4.14,12.71c1,2.21,2,4.5.11,6.79-1.39.44-1.52,2.58-3.33,2.45-1.85-.63-2.34-2.27-2.82-3.87-4.7-16-9-32.18-12.32-48.55a237.71,237.71,0,0,0-6.2-24.27c-4-12.76-4-26.35-8.19-39.12-1.84-5.62-2.49-11.62-5.09-17a9.82,9.82,0,0,1-.43-8.09c1.72-4.28,0-7.9-2.23-11.44a6.83,6.83,0,0,1-.65-1.43c-.45-1.8-.48-3.69-1.38-5.37a16.26,16.26,0,0,1-1.42-5.86c-2.92-10.9-3.19-22.23-5.55-33.24-2.54-11.89-6.43-23.55-6.69-35.85C621.64,168.23,619.22,164.55,619.74,160.36Z"/><path class="cls-84" d="M681.34,126.8c1.25-2.15,3.33-2.92,5.63-3.32,3.69,1,3.22,4.36,3.26,6.72.13,7.75,2.47,15,4,22.49.22,1.1.3,2.41,1.12,3.1,8.38,7,7.77,17.44,9.48,26.64,1.26,6.76,2.67,13.44,4.49,20,2.82,10.2,6.15,20.27,6.35,31,.07,3.35,1.38,6.57,2.45,9.71,3.18,9.28,5.25,18.94,9.36,27.91a195.68,195.68,0,0,1,0,23.48c-3.52-1.56-4.35-4.94-5.24-8.12-2.84-10.11-6-20.08-7.87-30.5-2.25-12.26-7-24-9.77-36.23-1.93-8.41-1.93-17.29-5.16-25.41s-5.93-16.55-6.53-25.08c-1-14.3-7.1-27.06-10.38-40.64A7,7,0,0,0,681.34,126.8Z"/><path class="cls-85" d="M335.28,283.3c-.11-59.58.38-119.17-1.13-178.74l4.51,1.22a9.61,9.61,0,0,1,1.12,4.81c1.42,26.36,1.06,52.75,1.08,79.13,0,22,.25,43.92-.1,65.87-.17,10.43,1.45,20.73,1.23,31.12C338.88,287.3,336.69,286.05,335.28,283.3Z"/><path class="cls-86" d="M635.45,242q.57,2.79,1.12,5.59c1.32,1.67-.25,3.92,1.12,5.59a19.84,19.84,0,0,1,3.36,11.18c-1.56,4.17.56,7.65,1.61,11.55,3.35,12.42,7.59,24.64,8.63,37.68.7,8.83,4.54,17.13,6.47,25.76,4.84,21.62,10,43.16,15.89,64.51a24.83,24.83,0,0,0,1,2.58,13.64,13.64,0,0,1-5.56,3.44c-4.46-7.27-7.39-15.1-7.6-23.66A33.94,33.94,0,0,0,660,377a24.19,24.19,0,0,0-3.07-11.73c-2.81-5.15-3.89-11-4.58-16.58-1.92-15.59-6.88-30.4-10.24-45.6-2.27-10.29-3-20.93-5.72-31.21a60.69,60.69,0,0,0-2.48-8.53,44.21,44.21,0,0,1-3.42-15.17c-.56-10.11-3.75-19.72-6.2-29.45-1.32-5.25-2.85-10.39-2.75-15.89.1-5.31-2.18-10.15-3.4-15.21-.74-3.08-1.7-6.16.2-9.18,3.35-.47,3.22,2.37,3.73,4.23,3.86,13.89,7.66,27.76,9,42.22C631.54,230.75,634.16,236.26,635.45,242Z"/><path class="cls-87" d="M308.49,93a9.47,9.47,0,0,1,4.4,2.45,6.55,6.55,0,0,1,2.76,5.24c.08,1.11.13,2.23.13,3.34.29,53,1.81,106,1.13,159,0,2.77.27,5.59-.87,8.26-4.21,2.79-5.74-.67-7.65-3.27a18.53,18.53,0,0,1-.68-6.06c.73-53.32-1.88-106.62-1.11-159.94C306.64,98.89,305.93,95.57,308.49,93Z"/><path class="cls-88" d="M315.11,272.17c0-24.58-.19-49.16,0-73.73.31-32.55-2-65.06-1.15-97.61a11.16,11.16,0,0,0-1.11-5.4c2.89,0,4,3.27,6.69,3.62,1.44,58.47,1.17,117,1.11,175.43C318,275.83,316.3,274.56,315.11,272.17Z"/><path class="cls-89" d="M308.49,93c0,27.75-1.05,55.54.16,83.24,1.35,30.89.19,61.75.86,92.62-3.79.65-5.92-1.2-7-4.65-.91-10.79-.11-21.6-.45-32.4C300.7,187.66,301,143.51,301,99.36c0-3.26-.78-6.78,1.83-9.59A15.07,15.07,0,0,1,308.49,93Z"/><path class="cls-90" d="M678,404c.3-2.53-.85-4.64-1.8-6.89-3.53-8.41-6.35-17.05-6-26.32.26-7.12-3.33-13.26-5.19-19.74-4.15-14.43-7-29-9.69-43.75-1.45-7.95-5.26-15.43-5.79-23.67-1-14.9-7.88-28.5-9.71-43.12-2-15.85-7.83-30.88-9.49-46.6-1.3-12.25-4.87-23.83-7.22-35.74l2.23-1.19c2,1.19,2.38,3.24,2.75,5.24,1.69,9.13,4.49,18,6.38,27.06,2.08,9.94,3,20.1,5.87,29.92,4.71,16.36,7.15,33.24,11.41,49.7a33.35,33.35,0,0,1,2.08,5.85,34.73,34.73,0,0,0,.59,3.51c3.39,18,6.06,36.14,12.87,53.31a8.75,8.75,0,0,1,.82,3.23c.1,14.78,7.19,27.91,10,42,1.62,8.25,3.87,16.42,4.4,24.87C681.12,402.71,680,404.28,678,404Z"/><path class="cls-91" d="M399.17,280.06C397.74,279,398,277.44,398,276c.75-25.81-1.53-51.57-1.22-77.39.36-29,.1-58,0-87,0-2.11.86-4.55-1.42-6.18,1-1,2.22-1,3.47-1,4.31,4.26,3.43,10,3.45,15,.23,42.62.13,85.25.14,127.88,0,10.21,1.87,20.34,1.12,30.57.39,1.83-1,2.21-2.21,2.81A2.23,2.23,0,0,1,399.17,280.06Z"/><path class="cls-92" d="M727.43,210.71c-4.68-2.09-5.61-6.83-6.64-10.85-2.41-9.43-4.32-19.08-6.5-28.5-2.11-9.06-2.9-18.81-7.4-27.42-2.36-4.51,0-9.91-1.88-14.76-1.66-4.28-2.13-9-5.73-12.41,1.1-4.23,5.36-4.31,8.22-6.26a3.08,3.08,0,0,1,2.46.7,5.08,5.08,0,0,1,1.53,2.92c1.48,15.48,8.82,29.43,11.69,44.56.65,3.43,1.71,6.85,4.24,9.53Q728.11,189.46,727.43,210.71Z"/><path class="cls-93" d="M547,485.84a7.6,7.6,0,0,0,.52-5.86c-2.17-7.45-4-15-6-22.49-1.55-5.81-2.73-11.37-7.16-16.43-3.12-3.56-2.9-10.05-4.13-15.24-.17-.71.22-1.77-.17-2.18-8.28-8.71-3.8-21.06-8.82-30.67-1.7-3.63-3.14-7,1.81-9.65,1.94-1,.91-3.73,1.14-5.69.32-2.82-.5-6.15,3.35-7.38,3.28,1.17,3.7,3.86,3.36,6.74a14.08,14.08,0,0,0,2,9c2.42,4.24,3,8.93,2.92,13.73-1.13,9.68,1.92,18.66,4.9,27.6.92,2.78.38,5.53.72,8.26,1.14,9.34,2.41,18.43,5.64,27.6,2.11,6,7,13.09,3.34,20.61A5.34,5.34,0,0,1,547,485.84Z"/><path class="cls-84" d="M727.44,271.12c-3.27-1.79-4.73-5.34-5.08-8.27-.9-7.5-4.59-14-6.5-21.11-2.59-9.67-1.6-19.9-5.31-29.32-1.35-3.43-2-7.1-3.25-10.59-3.58-10.39-3.76-21.38-5.9-32-.82-4.09-1.17-8.84-6.06-11.07-2-.89-2.33-3.14-2.76-5.19-2-9.33-3.86-18.68-4.58-28.22,0-.64-.68-1.24-1-1.86l2.27-2.21a1.53,1.53,0,0,1,2.2-.08c4,10.89,7.51,21.75,8.77,33.52a84.62,84.62,0,0,0,6.51,25.12c4.63,10.48,4.77,22,7.14,32.95s6.44,21.58,10.43,32.12c.53,1.4,1.29,2.75,3.15,2.71A200.43,200.43,0,0,1,727.44,271.12Z"/><path class="cls-94" d="M302.84,89.77c0,35.36-.91,70.75.26,106.07.77,23.24.21,46.45.8,69.66-3,.66-4.65-1-5.69-3.54-.68-2.37-.44-4.8-.45-7.21,0-22.32.79-44.67-.2-66.94-1.42-31.78-.33-63.55-.9-95.32,0-2-.51-4.09.55-6A14.71,14.71,0,0,1,302.84,89.77Z"/><path class="cls-95" d="M727.42,168.22c-3.41-.18-4-2.94-4.66-5.39-2.27-8.15-3.86-16.55-6.77-24.46a128.25,128.25,0,0,1-6.61-27.2c3.81-5.28,9.25-7.74,15.45-8.86a15.61,15.61,0,0,1,2.64,9C727.51,130.26,727.45,149.24,727.42,168.22Z"/><path class="cls-96" d="M35,80.79c2.34,11.23.73,22.6,1.19,33.9.07,1.63-.26,3-2.23,3.21C24.71,114,16.69,107.6,7,104.47A20,20,0,0,1,16,92.19C22.12,88.11,28.64,84.57,35,80.79Z"/><path class="cls-97" d="M691.44,121.19l-2.2.08c-1.57-1.24-1.13-3-1.13-4.62q0-20.73.07-41.47a116.42,116.42,0,0,1,16.74,10.24c1.87,2.18,1.64,4.84,1.66,7.43,0,6.12-.18,12.25.59,18.35-1.69,3.19-5.79,3-7.89,5.57C696.29,117.57,693.35,118.47,691.44,121.19Z"/><path class="cls-98" d="M690.33,396.27c-2.62-8-6.53-15.93-7.6-24.18-2-15.58-8.06-30-11.43-45.09,1.77-3.28.08-6.37-.48-9.53-.47-2.61-1.81-5.47,1.6-7.25,3.87,4.1,2.63,10,5.35,14.66,4.06,7,3.44,15.33,5.16,23,1.8,8,4.75,15.49,7.58,23,2.77,7.34,3.9,14.88,5.55,22.38C694.39,394.7,692.81,396.34,690.33,396.27Z"/><path class="cls-99" d="M297.21,86.47c.36,1.43.76,2.85,1.07,4.29a7.16,7.16,0,0,1,0,1.67c-.81,56.95,1.82,113.88,1.13,170.83-2.88.6-3.85-1.05-4.15-3.5a17.36,17.36,0,0,1-.33-4.43c.07-30.84-1-61.67-.54-92.51.35-23.59-.8-47.17-.55-70.76,0-2.33-.75-4.88,1.19-6.91Z"/><path class="cls-100" d="M295.05,85.15c.05,36.28,1.57,72.54,1.07,108.82-.31,22.35-.06,44.71-.06,67.06a.74.74,0,0,1-1.12,0,11,11,0,0,1-1.14-5.36c-1.23-40.28-1.16-80.56-1.1-120.84,0-15.06,0-30.11,0-45.16,0-2.25,0-4.47-1.12-6.5A5.43,5.43,0,0,1,295.05,85.15Z"/><path class="cls-101" d="M661.22,377.31c2.7,3.12,1.81,6.87,1.82,10.45,0,7.93,5,14.5,6.09,22.14a17.18,17.18,0,0,1-6.8,4.09c.71-7.07-2.09-13.69-4.35-19.87a127.88,127.88,0,0,1-6.2-25.22c-1.48-10.13-4.16-19.89-6.56-29.67-2.18-8.9-2.31-18-4.23-26.78-1-4.85-3.73-9.33-3.3-14.53,1.46-.24,2,.83,2.4,1.83,3.14,7.38,5.75,15.06,6.71,22.91,1.56,12.8,5.23,25,8.81,37.23C657.32,365.74,659.22,371.55,661.22,377.31Z"/><path class="cls-102" d="M682.49,401.72c-5.33-15.4-6.81-31.76-12.17-47.2-4.83-13.89-5.53-28.83-10.74-42.8-2.81-7.52-4.73-15.79-4.27-24.28.17-3.14-2.68-6.12-1.93-9.64,1.28-.71,1.61.51,2.24,1.11,4.21,9.82,5.33,20.28,6.84,30.72.92,6.32,3.53,12.36,5.32,18.49,2.85,9.75,4.65,19.66,6.91,29.5,1.51,6.61,2.8,13.34,5.57,19.58,3.08,7,4.06,14.56,6.8,21.61A10.67,10.67,0,0,1,682.49,401.72Z"/><path class="cls-103" d="M707.17,111.2c-3.08-.51-2.22-2.94-2.24-4.8-.07-7,0-14,0-21,7.81,4.25,16.09,8,19.91,16.89l-15.45,8.86Z"/><path class="cls-104" d="M710.5,372.84l5.52,8.54c-1,.75-1.84,1.75-3.28,1.38C712.15,379.42,710.06,376.41,710.5,372.84Z"/><path class="cls-105" d="M348.75,291.14c3.4.63,6,2.88,8.94,4.42,5.44,1.73,6.77,5.34,6.76,11q-.31,136.62-.15,273.25c0,9.72-.26,9.92-9.72,7.64-1.62-.39-3.26-.68-4.88-1-29.81-17.13-58.86-35.51-88.08-53.6-22.58-14-45.07-28.09-67.6-42.14-3.52-3.26-1.91-6.4.4-9.33,6.92-8.76,14.08-17.33,21.06-26.05,26.88-33.56,54-66.93,80.94-100.43,16.45-20.44,33-40.8,49.42-61.27C346.65,292.6,347.34,291.45,348.75,291.14Z"/><path class="cls-106" d="M190.78,204c8.73,5.26,17.66,10.16,26.88,14.53l24.64,14.54c3,4.34,1.79,7.77-1.43,11.73-26.15,32.06-52,64.31-78,96.52Q132.52,379,102.06,416.51c-3.42,4.2-4.25,8.89-5.45,13.69L35,392.18a6.41,6.41,0,0,0-1.12-1.87c-5.59-4.53-5.61-4.52-1.14-10q40.35-49.84,80.7-99.7Q144.81,241.7,176,202.64c1.16-1.44,2.4-2.82,3.59-4.23Z"/><path class="cls-107" d="M348.75,291.14c-6,10.05-14.2,18.46-21.46,27.57q-24,30.17-48.29,60.18c-15,18.57-30.18,37-45.19,55.58-9.65,11.95-19.1,24-28.7,36-3.12,3.91-6.43,7.67-9.64,11.51-2.17,2.6-3.18,5.41-1.45,8.67-17.75-10.55-35.35-21.33-52.58-32.7-4.38-2.92-3.09-5.76-.32-9.19q46.23-57.1,92.31-114.34c19.49-24.24,39.34-48.19,58.38-72.78a2.73,2.73,0,0,1,.9-.66h3.35l3.37,2.23,4.47,2.24c1.48,1.78,3.73,2.25,5.61,3.34l5.6,3.33,5.58,2.31c2.33,2,4.66,4,7.85,4.47l6.74,4.35,6.71,3.41L347.6,290Z"/><path class="cls-108" d="M292.71,261c-1.81,7-7.58,11.3-11.76,16.59-19.25,24.39-38.77,48.58-58.3,72.75-17.91,22.16-36,44.2-53.92,66.32-9.33,11.49-18.47,23.14-28,34.47-2.54,3-.29,4.66.69,6.84Q118.6,444.78,96.61,430.2c-2.65-7.76,2.82-12.53,6.85-17.58q27.15-34.12,54.62-68,32.6-40.44,65.25-80.83c5.59-6.91,11.55-13.54,16.9-20.62,1.26-1.65,5.83-3.86,1.22-7.08-.29-.2.54-2,.85-3,1.81.65,3.45,2.18,5.6,1.12,4.63,4.29,10.4,6.79,15.68,10.06L275.9,251Z"/><path class="cls-109" d="M376.72,292.36l2.22,0c4.21.2,4,3.7,4.61,6.39,1.43,6.82,2.76,13.67,3.69,20.59.09.73.5,1.54.19,2.17-3.22,6.62.4,13,.71,19.43a63.45,63.45,0,0,1-.43,12.24c-.69,6.46-1.06,13,1,19.36,1.59,5-1.78,9.84-.79,14.86-.81,3.95-3.76,4.41-7.17,4.72-11.1,1.05-11.08,1.13-5.77,11,1.5,2.79,3.43,5.35,4.49,8.36.86,2.45,1,4.92-1.52,6.46s-5.15,1.26-6.91-1.27c-1.46-2.09-3.71-3.06-5.53-4.63q0-53.84-.05-107.67c0-3.14.16-6,3.43-7.53C371.9,296,374.8,295.08,376.72,292.36Z"/><path class="cls-110" d="M365.49,412c2.85-.3,5.07.39,6.24,3.37,1.07,2.72,3.42,2.8,5.55,1.69,2.31-1.19,1.94-3.39.92-5.33q-3.76-7.11-7.7-14.13c-2.71-4.83-2.09-5.06,3.55-6.22,4.23-.87,9.21,1.07,12.74-2.86,4.25,8.48,6.93,17.24,4.92,26.86-1.45,7.66,1.21,14.65,3.74,21.59,1.21,3.31,1.81,6.2,0,9.52-2.26,4.11-.26,8.34.53,12.45.64,3.32,1.43,6.54-.46,9.7-2.22,2.43-4.81,3.37-6.73.08-2-3.46-4.64-2.77-7.62-2.28-3.6.6-7.51,2.71-10.2-2.14-1.15-2.06-3.89,1.24-5.46-.86Z"/><path class="cls-111" d="M365.49,463.41c2.45.53,3.43-1.41,4.84-4.38,2.22,10,8.24,6.55,13.22,5.47,2.74-.59,4.67-.77,5.5,2.34.89,3.3,3.14,2.94,5.58,2.16,3.51,1.7,4.08,4.81,3.06,8-2,6.06-.67,11.58,1.88,17.06,2.19,4.7,3,9.85,4.61,14.75a6.88,6.88,0,0,1-1.71,7.18,2.27,2.27,0,0,0-2.23,2c-.75,3.63-2.24,4.85-4.62,1-1.65-2.62-3.6-1.51-5.14-.33-3.48,2.67-6.08,2.19-8.17-1.59-.05-1.85,0-4.35-2.47-4.07-8.4,1-9.18-6.85-13.17-10.94a10.9,10.9,0,0,1-1.18-1.77Z"/><path class="cls-6" d="M1993.43,75.06c0-3.5-1-4.35-4.38-4.29-12.32.21-24.64.3-37,0-4.69-.13-6.24.77-6.2,5.93.27,36.89.16,73.79.11,110.68,0,1.73.65,3.63-.63,5.4a10.72,10.72,0,0,1-1.27-1.07c-32.82-38.86-88.09-37.94-124.1-12.45-48.17,34.08-61.18,105.26-28.57,156.93,24.56,38.93,70.65,57.22,112.23,44.55,16.65-5.07,30.31-14.64,42.38-29,0,9,.17,16.44-.08,23.86-.12,3.56.74,4.86,4.57,4.78,12.68-.23,25.38-.19,38.07,0,3.48.05,4.83-.66,4.83-4.57Q1993.26,225.43,1993.43,75.06Zm-61.91,246.77c-16.42,17.88-37.36,23.28-60.67,17.83-24.42-5.71-38.78-22.24-45.79-45.68a75,75,0,0,1-2.77-21c.64-26,9.29-48,33-61.13,38.79-21.54,85.56,1.76,92.85,45.94C1952.08,281.5,1948.24,303.63,1931.52,321.83Z"/><path class="cls-6" d="M2244.83,169.9c0-3.37-.9-4.52-4.38-4.47q-19.32.27-38.63,0c-3.41-.05-4.56.88-4.45,4.38.25,7.55.08,15.13.08,24.12-6.79-7.85-13.24-13.93-20.71-18.83-34.54-22.64-83.29-17.69-115.72,12.5-27.41,25.53-38.66,57.77-35.83,94.73,2.72,35.53,18,64.61,47.66,85.15,35.71,24.72,90.21,24.87,122.58-13.72.28-.34.8-.46,1.7-.95,0,8.06.11,15.65-.05,23.24-.06,3,.56,4.35,4,4.31q19.88-.24,39.75,0c3.28,0,4-1.15,4-4.22Q2244.7,273,2244.83,169.9Zm-90.3,169.37c-37.78,10.08-74-13.8-79.75-52.62-3.48-23.59.39-45.51,17.18-63.36,17.49-18.57,39.61-23.24,63.6-16.51,24.36,6.83,37.79,24.49,43.49,48.52a46.78,46.78,0,0,1,1,5.48c.36,3.33.57,6.68.84,10C2202.53,302.79,2183,331.69,2154.53,339.27Z"/><path class="cls-6" d="M1742.1,291.07c0-40.24,0-80.49.09-120.73,0-3.86-.91-5-4.88-4.94-12.5.27-25,.24-37.51,0-3.78-.07-5.23.76-5,4.83.34,7.42.09,14.87.09,22.84-1-.48-1.44-.54-1.65-.79-30.12-36.59-81.31-39.3-117.27-17.6-35.26,21.28-52.15,53.84-53.44,94.32-1.24,38.84,12.62,71.55,43.83,95.62,36.39,28.06,93.61,28.6,126.69-10.95.28-.33.86-.42,1.84-.87,0,8,.17,15.58-.07,23.14-.11,3.41.88,4.48,4.37,4.43,12.51-.21,25-.28,37.52,0,4.36.11,5.58-1,5.54-5.48C1742,347,1742.1,319,1742.1,291.07Zm-58.22,26.25c-14.66,19.37-34.86,26.75-58.68,23.43-25.1-3.51-41.22-18.41-50-41.68-3.17-8.42-4.47-17.25-4.45-30.38.93-21.75,9.38-43.86,33.26-56.93,37.6-20.58,82.94.48,92,42.43C1700.9,276.86,1698.16,298.46,1683.88,317.32Z"/><path class="cls-6" d="M1292.07,363.36q0-96.12.11-192.22c0-4.71-1.2-5.88-5.83-5.76-12.49.35-25,.22-37.5.05-3.12,0-4.21.76-4.11,4,.23,7.75.07,15.52.07,24.54-34-41.07-88.9-40.45-124.73-15.67-28.59,19.77-44,47.79-47.14,81.92-3.89,42.31,9.48,78.39,43.91,104.74,35.71,27.33,92.6,28.81,126.62-11.63.17-.19.57-.19,1.34-.41,0,7.92.08,15.67,0,23.42,0,2.64.33,4,3.56,4,13.43-.16,26.87-.13,40.3,0,2.75,0,3.56-1,3.48-3.58C1292,372.3,1292.07,367.83,1292.07,363.36Zm-80.86-27.61c-37,17.57-79.57-4.07-88.22-44.72-5.36-25.16-1.63-48.84,16.65-68.13,17.21-18.16,39.07-22.67,62.68-16.3s37.37,23.29,43.5,46.55a71.61,71.61,0,0,1,2.44,19.39C1247.24,300.2,1237.59,323.24,1211.21,335.75Z"/><path class="cls-112" d="M528,209.6c2.59-1.55,6.15-1.38,7.88-4.45l2.15,0c3,4,3.17,9.18,5.41,13.51a1.83,1.83,0,0,1,0,1.6c-6.42,7-.46,13.8.2,20.68l1.23,7.61c.18,1.07.9,2.6.44,3.13-4.37,5.15-.89,11-1.62,16.44-.42,3.13.78,6.47-3.12,8.57-2.23,1.21-.47,3.7-.29,5.62A34,34,0,0,1,538,295.69c-2.9-8.79-3.32-18.08-5.53-27-.49-2-.6-4-2.31-5.42-2.6-1.82-2.58-4.31-1.61-6.9a9.59,9.59,0,0,0,.52-6.49A118.94,118.94,0,0,1,523.46,213Z"/><path class="cls-113" d="M491,230.84c0-.35,0-.71,0-1.06l10.06-4.53c3.36.33,3.89,3.15,3.38,5.29-1.92,8,2.63,14.84,3.71,22.28.95,6.61,2.56,13.14,1.58,19.84-.32,2.21.58,4,.87,6-4.74,10.24-2.59,19.63,1.62,29.77,2.5,6,2.09,13.8-.66,20.49a14.85,14.85,0,0,0-.77,8.18c.33,2.19,1,4.41-.4,6.49-4.82-.37-4-5.16-6.12-7.7-4-8.36-5.41-17.11-5.33-26.44.09-9.94.56-20.17-4.56-29.42a6.22,6.22,0,0,1-.93-4.84c1.72-5.25.84-10.51-.7-15.39-2.69-8.51-.56-17.4-2.79-25.87A3.42,3.42,0,0,1,491,230.84Z"/><path class="cls-114" d="M510,278.92c-1.4-1.11-2.62-2.87-2.07-4.28,1.82-4.67.14-9.13-.21-13.65a64.36,64.36,0,0,0-4.25-19c-1.17-2.95-1.92-5.95-.69-9.17a6.46,6.46,0,0,0-1.73-7.59l2.24-2.19,10.08-4.52c2.89,1.5,2.63,4,1.42,6.18a12.7,12.7,0,0,0-.23,11.31,38,38,0,0,1,2.68,22.2c-.41,2.16,0,4.44,0,6.66,0,8.68,0,17.36.45,26-1.09,2.94-2.49,1.4-3.44,0-2.47-3.55-4.15-7.38-2.7-11.86.5-1.54,1.3-3,.42-5.53C511.06,275.72,511.54,277.78,510,278.92Z"/><path class="cls-115" d="M491,230.84c2.08,12.39,2,25.06,4.81,37.35.17.71.84,1.67.58,2.08-4.15,6.67,1.48,11.84,2.63,17.67,1.56,7.94,1.45,15.95,1.3,24-.12,6.49,1.57,12.7,3.25,18.88a51.9,51.9,0,0,0,2,5.14c-1.33.86-2.74,1.54-3.26,3.31-1,3.5-3.07,3.53-5.56,1.31-2.89-4.79-5.08-9.73-5.12-15.54,0-4.89-4-8.69-4.47-13.55-3.4-10.51-5.79-21.13-3.81-32.26a3.29,3.29,0,0,0,.12-1.66c-3-8-3-16.51-4.68-24.71-1-4.71-2.27-9.32-2.31-14.16l4.5-3.35C484.77,234.94,487.28,231.59,491,230.84Z"/><path class="cls-116" d="M515.6,264.38c.19-4.76-.41-9.52,1-14.26.86-2.94-.44-5.9-1.82-8.47-2.16-4-2.16-8.49-3.36-12.7a3.23,3.23,0,0,1,1.19-3.45c2.36-2.11,2.24-4.45.78-7l2.24-2.2,7.85-3.39c2.77.39,2.37,2.59,2.18,4.31-1.1,9.91,1.34,19.26,4.07,28.64,1.14,3.89,3.17,8-.33,12-1.28,1.48.8,3.47.79,5.31.65,4.17-1.14,8.29-.22,12.48.13.6-.18,1.79-.59,1.95-7.11,2.79-3,7.88-2.41,12.09.29,2,1.16,3.85,1,5.91-5.16-3.08-6.49-8.52-8-13.65C518.22,276.23,517.48,270.16,515.6,264.38Z"/><path class="cls-117" d="M476.43,238.68c1.61,8.06,7,15.41,4.55,24.27a3.71,3.71,0,0,0,.19,2.72c4.6,6.63,3.79,13.94,3.12,21.35-.76,8.46,2.11,16.36,4.43,24.32-2.82,3.91-.7,8.16-.82,12.25-.15,5.16-1.61,5.87-6.31,3.15a16.11,16.11,0,0,1-5.5-11.23c-.22-3.92-2.41-7-4.12-10.26-1.73-9.07-4.26-18-4-27.42.21-6.82.55-13.65-1.54-20.44-1.28-4.16,1.92-8.74-.12-13.13L468.6,242Z"/><path class="cls-118" d="M450.64,252.09l2.25-1.07c1.84.71,2.35,2.3,2.49,4,.76,9.33,3.39,18.26,6,27.17a55.32,55.32,0,0,1,2.47,19.8,15,15,0,0,0,2.57,9,16.9,16.9,0,0,1,2.68,7.83c2.68,9.41,4.6,18.84.71,28.41-.25.88-.57,2.14-1.42,2.17-5.62.23-7.67,4.15-9.33,8.59a2.8,2.8,0,0,1-2,1.74c-2.28-.51-3.14-2.44-4.22-4.16-4-9.2-5-19.07-5.75-28.85a113.94,113.94,0,0,0-6.44-29.82c.29-10-2.82-19.9-1.43-30,.33-2.4-1.34-4.6-.95-7l2.27-2.22A41.21,41.21,0,0,0,450.64,252.09Z"/><path class="cls-119" d="M457.36,359.42c-.19-5.29,5.37-7.75,6.21-12.51,1.91-.47,2.52,3.87,5,1.33,4.67.17,5.72,4,6.14,7.23,1.24,9.62,4.68,18.8,3.71,28.95-.66,6.92,2.7,14,4.71,20.85a40.38,40.38,0,0,1-1.5,9.6c-1.1,3.95.71,8.86,2.09,12.63,1.83,5,4.19,9.64,4.31,15.13,0,1.35,1.18,2.67,1.82,4-5.35.3-4.43,4.42-4.54,8.16-4.05-1.23-7-3.69-10-5.92-5.82-7.11-7.7-16.16-8.28-24.47-.83-12-3.95-23.31-6.6-34.83-1.42-6.17-2.63-12.45-1.61-18.76C459.45,366.76,455.9,363.44,457.36,359.42Z"/><path class="cls-120" d="M497.68,340.41c2.3,1.27,3.51.75,3.36-2-.2-3.91,1.72-3.95,4.48-2.44q2.25,3.92,4.48,7.83c2,5.56,4,11,3.3,17.19-.83,7,2.25,13.46,4.18,20,1.16,4,2.58,7.8,1.48,12a78.22,78.22,0,0,0,5.4,33.65c.65,1.7,3.21,4.84-1.91,4.87-1.71,0-1.09,2-1.24,3.23-.22,1.77.62,3.77-1.13,5.21-6.43-3.83-7.1-11.07-9.28-17.07-1.36-3.78-2.43-5.67-6.4-5.29q-2.79-10.06-5.6-20.13c-4.09-5.46-4.22-10.63-.87-16.95,3.14-5.92,2.77-13,.91-19.52a131,131,0,0,1-3.14-15.85C495.4,343.22,495.49,341.33,497.68,340.41Z"/><path class="cls-121" d="M483.12,405.27c-4.93-7.84-7.3-16.3-5.76-25.54.52-3.11-.74-5.85-1.1-8.74a158.33,158.33,0,0,0-3.42-17.19,7.85,7.85,0,0,0-4.28-5.56,21.53,21.53,0,0,1,1.64-8.53c2-5-.44-10.15-1.25-15.21a42.35,42.35,0,0,0-1.51-5.33,1.93,1.93,0,0,0,.54-2.05c-2.58-5.71-.37-9.24,5.06-11.37a9.42,9.42,0,0,1,4.32,8c-.06,4.84,2.12,8.49,4.64,12.17a4.27,4.27,0,0,1,1.3,3c-1,11,3.59,21.05,5.38,31.57.21,1.28.68,2.65.35,3.86-2.24,8.06,1.87,15.23,3.07,22.8.31,2,1.43,3.91,0,5.86-.77,1.78,2.09,5.82-3.1,4.91a1.2,1.2,0,0,0-1.26,1.44C488.92,403.46,485.77,404.15,483.12,405.27Z"/><path class="cls-122" d="M492.08,393c-2.06-5.92-2.35-12.32-5.07-18.06a7,7,0,0,1-.26-5.46c2.1-5.45.66-10.94-1.14-15.71-3.44-9.14-3.9-18.39-3.61-27.86,3.38,2.18,5.18,1.74,4.47-2.73-.28-1.78-.63-3.54-1-5.32-.55-3-.16-5.46,3.21-6.49,4.31,9.29,4.19,19.93,9,29.07-1.55,6.54.92,12.64,2.21,18.84,1.72,8.27,3.48,16.23-2.15,24.1-1.42,2-1.7,6.17-.19,9.3a8.9,8.9,0,0,1,1.25,4.79C495.36,397.75,495.14,393.24,492.08,393Z"/><path class="cls-123" d="M661.22,377.31c-2.88-3.55-3.46-7.92-4.9-12.08-3.19-9.23-5.92-18.57-8.45-28-.85-3.2-2.15-6.44-2.21-9.67-.18-10.6-4.45-20-8-29.66-4.81-21.37-10.67-42.59-14-64.19-2-12.76-6.77-24.85-7.72-37.67-.78-10.38-3.63-20.21-6.27-30.14a6.79,6.79,0,0,1,4.49-2.25c2.09,4.69,4.43,9.3,4.5,14.61a31.11,31.11,0,0,0,1.71,11.48c3.66,11.66,2.84,24.26,7.28,35.77,5.16,13.37,3.91,28,9.06,41.64,3.3,8.74,6.3,18.62,5.5,28.68-.26,3.22,1.08,6.18,1.85,9.23,3.59,14.24,8.11,28.21,9.66,43,.59,5.61,1.53,11.81,4.75,17A19.11,19.11,0,0,1,661.22,377.31Z"/><path class="cls-124" d="M618.65,178.28c-2.21-4.65-4.78-9.19-4.5-14.61q1.73-1.62,3.43-3.26l2.16,0c3.72,5.44,3.69,11.87,4.35,18a92,92,0,0,0,3,17.15c2,6.48,4,13.19,4.27,19.87.37,9.12,3.5,17.67,4.09,26.66a94.77,94.77,0,0,1-7.76-29.76,72.8,72.8,0,0,0-2.42-13C623.32,192.17,620.88,185.25,618.65,178.28Z"/><path class="cls-125" d="M402.47,516c1.15-8.33-2.39-15.52-5.14-23.05-1.84-5-4.39-10.42-.85-16.16,1.62-2.64-.71-5.27-1.85-7.75,2.09-6.17-1.28-11.83-1.7-17.77-.09-1.26-1.06-2.89-.17-3.71,4.56-4.18,1.57-8,.3-12.42-1.81-6.36-4.95-12.76-2.91-19.77a25.12,25.12,0,0,1,18.2-1.14c-.17,6,2.72,11.48,2.56,17.45,2,9.45,2.12,19,1.55,28.6-.4,6.72,1.37,12.78,4.39,18.73,2.86,5.65,1.7,8.85-3.18,11.28l-8.15,6.54c-2.28,1.83-2.22,4-1.09,6.45a29.49,29.49,0,0,1,2.62,13.92c-.12,2.75-.76,4.63-3.46,5.51C404,520.31,402.84,518.2,402.47,516Z"/><path class="cls-126" d="M413.67,490.25c3.7-3.33,4.19-6.94,1.66-11.36-5.22-9.12-5.29-18.75-3.68-29,.88-5.65-1.53-11.82-2.46-17.76,3.14-3.55,6.58-3.82,10.36-1,3.3,2.45,7.37,3.59,10.64,6.33-.47-2.14-.17-4.21,1.61-5.15s3,.9,4.15,2.06A9.57,9.57,0,0,1,438,437c1.78,6.87.83,13.92,1.44,20.87-.59,4.13,2.49,10.54-6.31,9.46-2.16-.26-1.76,2.26-1.11,3.4,2.7,4.74,1.07,10.73,4.59,15.22.81,1,1,3.34.13,3.58-5.56,1.6-4.67,6.78-6.35,10.51-.1.22-.68.22-1,.32-.25-3-1.95-4.08-4.82-4.87C420.7,494.38,415.93,494.76,413.67,490.25Z"/><path class="cls-127" d="M438.29,259.89c2.66,3,3.79,6.32,2.07,10.14-1.08,2.41-.67,4.49.22,6.92,2.36,6.45.58,13.23,1.1,19.86,1.45,3.75,1.08,6.87-3,8.72-1.5.67-1.88,2.09-2.54,3.44-1.68,3.46-5.77,3.81-8.6,5.79-1.92,1.34-5.81.19-7.79-2.66,2.16-11-3.34-20.89-4.36-31.43-.27-2.92-1.72-5.78.51-8.51,1.46-2,4.59-1.89,5.67-4.4a22.78,22.78,0,0,0,8.91-4.5Z"/><path class="cls-128" d="M473,305.75c-.32,1.82,1.1,4.84-3.15,3.69-2.52-.68-2.43,1.22-1.9,3.07.65,2.26,1.36,4.59-.55,6.66a10.18,10.18,0,0,0-2.56-7.7c-4.32-5.25-2.27-11.68-2.73-17.49-.81-10.25-5.29-19.46-7.1-29.4-.82-4.51.1-9.32-2.16-13.56l5.62-3.4,7.83-3.36c2.93,1.52,3.86,3.57,2.39,6.8-1.39,3.07-1.7,6,.28,9.43,1.24,2.12.84,5.4.61,8.12C468.56,281.21,471.4,293.42,473,305.75Z"/><path class="cls-129" d="M592.89,325.88a5,5,0,0,1-3-4.38c-.12-6.68-3.3-12.83-2.7-19.7.49-5.5-1.74-10.87-3.3-16.12-3.09-10.42-6.19-20.83-6.54-31.76-.13-3.82-2.46-7-2.33-10.79,4.89,7.91,6.41,17,7.55,25.83.84,6.49,1.81,12.94,4,18.92C591,300.24,591.66,313.07,592.89,325.88Z"/><path class="cls-129" d="M575,240.9c-2-2-.76-4.47-1.12-6.71C575.88,236.15,574.6,238.66,575,240.9Z"/><path class="cls-129" d="M570.49,220.77v-5.59A3.76,3.76,0,0,1,570.49,220.77Z"/><path class="cls-130" d="M439.44,457.82c-3.81-6.76-1.15-14.2-2.24-21.24-1.92-4-3.52-8.16-3.72-12.68a15.58,15.58,0,0,0-2-6.86c-1.69-3.06-2.88-6,.34-9,2.19-2.09-.29-4.52-.36-6.82-.45-3.23.52-6.76-2-9.55a7.37,7.37,0,0,1-1.3-3.14c.28-6.29-2-12.84,1.89-18.77,4.87-1.43,6.16,2.58,7.43,5.51a44,44,0,0,1,3.16,17.87c0,1.51-.47,3.14,1.08,4,1.86,1,2-1,2.63-1.92.75-1.13,1.75-1.55,2.77-.66,2.45,2.15,6,3.2,7,6.83a27.15,27.15,0,0,0,3,10.08c2.24,4.2,2.47,8.51,0,12.77a10.48,10.48,0,0,0-.56,9.16c2,5.26,2.43,10.85,3.86,16.22,1.15,4.33.92,8.5-3,11.6-.89.17-2.09.81-2.62.45-7.35-4.89-4.67,1.45-5.1,5.19-1.66-3.14-4.38-2.95-6.84-3.41C441.52,461.64,442,458.8,439.44,457.82Z"/><path class="cls-131" d="M457.36,461.18c4.61-8.09.32-15.81-1.28-23.5-1.14-5.43-3.6-10.36.45-15.79,2.06-2.78,1.11-6.44-.65-9.5-2.07-3.6-3.61-7.31-3-11.6-.22-3.35-.05-6.51,1.89-9.55,1.83-2.88,1.21-6.14-.13-9.14-1.43-3.24-2.54-6.63-4.24-9.74-2.47-4.5-3.19-8.72,1.11-12.63,1.08-1,1.22-2.73,2.49-3.66l3.36,3.35c4.82,6.75,2,14.66,3.27,22s1.78,15.11,5.35,21.95c2.92,5.6,1.59,11.73,2.14,17.49.76,8,3.39,15.29,5.69,22.76.54,1.76,1.68,3.33,1.47,5.3-1.38,3.14-3.35,6.68-3.84,9.42-.67,3.76.45,9,2.38,12.67,3.87,7.27,3,13.27-1.9,19.28-4.76,1.44-4.63-2.08-5.69-5.1C463.4,477.11,463.93,467.82,457.36,461.18Z"/><path class="cls-132" d="M386.79,340.41a29.35,29.35,0,0,1-2.51-13.77c.28-4,.43-8,.48-12.09.08-6.39-3.16-12-3.28-18.23a4.13,4.13,0,0,0-2.54-4l4.5-3.34a23.74,23.74,0,0,0,7.87-4.46c3-.82,5.93-1.76,7.86-4.46l2.17,0c2.76-.27,3.47,1.86,4.1,3.76,1.45,4.41,2.73,8.79,2.27,13.65a62,62,0,0,0,.45,17.83c.81,4.17-.43,8.2-1,12.18-1.5,10.32,1.83,20.37,1.15,30.6-1.38,3.18-.26,6.86-1.95,10-2.7,1.29-2.71-1.2-3-2.46-.95-3.7-3.3-5.63-6.86-6.45-4.28-1-6.52-3.41-6.95-8.05A31.35,31.35,0,0,0,386.79,340.41Z"/><path class="cls-133" d="M651.14,270c-3.94-3.29-2.42-8.33-3.62-12.44-3.52-12.11-4.73-24.79-8.5-37-3.07-9.95-3.94-20.54-6.08-30.73-2.29-11-5.17-21.87-7.58-32.85a6.4,6.4,0,0,1,4.49-2.21c3,11.85,3.31,24.18,6.69,35.95.05.18,0,.39.05.56,5,13.94,3.94,29.28,9.21,43,4.34,11.29,4.63,23.16,7.58,34.58A2.48,2.48,0,0,1,651.14,270Z"/><path class="cls-134" d="M407,358.3a102.56,102.56,0,0,0-2.11-20.3c-.76-3.94.49-7.8,1-11.46,1.38-9.8-1.29-19.5.14-29.11.85-5.7-1.55-10.41-2.75-15.52-.18-.73-1.24-1.26-1.9-1.89l2.26-2.2c2.77-1.21,5.74-2.09,7.84-4.47l4.46-1.19c.37,7.17,2.11,14.1,3.77,21,1,4.26,1.17,8.64,3.34,12.72,1.2,2.25-3.73,3.47-2.61,6.53,5.57,8.5,11.67,18.38,9.41,27.73-2.3,9.51,1.33,17.18,1.69,25.68.05,1.35,0,2.61-1,3.62-1.8,6.25-1.1,12.65-1.12,19-2.54,0-2.26-2.07-2.49-3.54-.55-3.4-2.1-6.28-4.39-9.56-1.49,3.81-3.81,3.78-7,2.37-9.46-4.21-10.44-5.73-8.65-14.55A8.89,8.89,0,0,0,407,358.3Z"/><path class="cls-135" d="M515.6,264.38c4,3.72,4.09,9.16,4.9,13.81,1.14,6.6,4.47,11.88,7.42,17.5,3.89,15.62,2.84,31.81,5.67,47.69,2.09,11.68,6.66,23,6.66,35.05-1.62,3.12-.84,6.24-.52,9.53.43,4.26,3,9.78-4,11.72-1.21-8.35-7.91-15.33-6-24.52.27-1.34-1.15-3-1.8-4.56-1.84-.79-2.15-2.39-2.14-4.14a31.46,31.46,0,0,0-.23-4.44c-1.71-12.08-4.4-24-6.67-35.94-1.72-9.06-3.72-18.15-3.73-27.46,0-2.2-.21-4.51,1.57-6.29C514.68,283.08,516,273.7,515.6,264.38Z"/><path class="cls-136" d="M672.42,310.22c-2.19,2.88-.6,5.82.2,8.52.92,3.14.71,5.76-1.32,8.26-3.9-13.65-4.32-28.1-9.55-41.41-3-7.57-1.91-15.75-3.9-23.43-3.05-11.8-7.09-23.44-9-35.42-1.27-8.14-2.14-16.45-4.68-24.17-4.72-14.33-3.66-29.66-8.58-43.9a13.42,13.42,0,0,0-3.53-6l4.39-1.23c4.33,4,1.81,9.81,4.17,14.63,5.15,10.56,5.59,22.46,6.93,33.95.85,7.26,3.88,13.82,5.7,20.7,2.14,8.13,3.11,16.32,4.37,24.48.55,3.56,1.06,6.91,2.85,10,2.64,4.61,2.4,10,3.81,14.93a105.46,105.46,0,0,1,3.84,22.51C668.55,298.52,672.2,304,672.42,310.22Z"/><path class="cls-104" d="M699.3,324.76c3.9,8.69,6.28,17.89,9,27a49.68,49.68,0,0,0,2.35,7.42c1.92,3.94.21,7.65-.15,11.45-3.62-3.78-3-9-4-13.49a170.45,170.45,0,0,0-6.59-23.57C698.81,330.64,699.56,327.68,699.3,324.76Z"/><path class="cls-137" d="M516.72,292.33c-.28,13,2.54,25.52,4.85,38.21s6.5,24.95,5.51,38c-.05.65.55,1.36.84,2-3.8,2.23-1.35,6-2.35,8.91-.64,1.84,3,6.35-3.43,5.52-1.66-.21-.47,5.17-.94,7.94H519c-2.58-9.16-6.91-18.25-7.2-27.48-.23-7.32-2.07-14.44-1.76-21.72-.37-3.3-.87-6.59-1.07-9.89-.14-2.33-.61-4.83,2-6.47,1.48-.91,1-2.47.7-4-.44-2-1.05-4.28-.42-6,2.06-5.72-.33-10.82-2.8-15.18-4.8-8.45-2.74-15.78,1.55-23.27.22-2.71-.48-5.49.71-8.76,2.29,2,5.05,4,3.37,6.69C510.16,283.11,513.47,287.59,516.72,292.33Z"/><path class="cls-102" d="M651.14,270a2.3,2.3,0,0,1,2.24-1.12,9.24,9.24,0,0,1,1.12,5.59c-.38.54-.75.54-1.12,0A6.09,6.09,0,0,1,651.14,270Z"/><path class="cls-133" d="M653.38,274.44h1.12c.37,1.49.74,3,1.12,4.47l-2.24-1.11Z"/><path class="cls-124" d="M641.05,264.38l-3.36-11.18C641.11,256.24,642.51,259.88,641.05,264.38Z"/><path class="cls-124" d="M637.69,253.2c-1.86-1.57-.84-3.71-1.12-5.59C638.44,249.17,637.42,251.31,637.69,253.2Z"/><path class="cls-138" d="M386.79,340.41c3.35,2.85,4.07,7,4.32,10.84.22,3.54,1.2,5.79,4.76,6.06,7,.54,8.57,5.65,10,11.06a41.87,41.87,0,0,1,2.59,24.37c-.57,2.86,1,5.42,1.42,8.13.72,4.57,2.84,9.43-1.77,13.34l-17.92,1.12c3.07-7.33-1.43-13.95-2-20.93a45.68,45.68,0,0,0-1.32-5.91C386.76,372.47,384.75,356.44,386.79,340.41Z"/><path class="cls-139" d="M430.48,369.49c-1.76-5.63-.56-11.78-3.79-17.29-1.38-2.35-2.41-6.32,1.52-8.76,1.93-1.19.85-3.24.71-5.05-.72-9.36-6.42-17.05-8.52-25.93,2,.38,4,.72,5.9,1.17s3,.47,3.15-2.1c.3-4.95,2.65-2.92,5.16-.55.2-3.72.17-6.8,4.93-7.42,2.79-.36,2.1-4.22,2.14-6.75,4.43,8.22,5.92,17.24,6.65,26.34A176.46,176.46,0,0,0,454,356.07c0,2.05.25,4.29-1.75,5.54-3.94,2.44-2.85,5.37-1.29,8.59,1.93,4,3.87,8,5.45,12.13,1.41,3.67,2.29,7.69-1,10.84-2.33,2.23-.16,5.6-2.5,7.62-1.24-3.18-6.44-1.68-6.18-6-3.14.83.23,6.5-4.46,4.76-3.16-1.18-4.74-3.12-2.94-7.33C441.62,386.76,435.56,372.7,430.48,369.49Z"/><path class="cls-140" d="M408.07,414.21a12,12,0,0,0,.93-9.71c-3.91-11.87-.12-24.29-3.17-36.13.26-3.37-.74-6.88,1.12-10.07,1.82,1.68,1.48,3.94.82,5.72-2.15,5.83.23,9.13,5.51,11.18,2.16.83,4.3,1.71,6.76,2.7.15-1.34.26-2.42.38-3.5.09-.9,0-2,1.24-2.13,1-.09,1.56.8,2,1.61a43.51,43.51,0,0,1,5.66,14.61,2.28,2.28,0,0,0,1.12,2.24c1.78,3.12.38,7,2.24,10.06.64,1.71,1.35,3.4,1.89,5.14.45,1.44.73,3.19-1.24,3.6-4.87,1-2.25,3.72-1.21,5.68,3.56,6.71,3.82,14.14,5,21.37-2.53.06-2.57-3.06-5.09-3.73-.42,6.54-3.79,5.33-7.63,2.74-2.12-1.43-4.69-2-6.55-4-3-3.19-5.81.36-8.74.53,0-3.43.23-6.81-1.56-10.06C406.26,419.53,406.7,416.76,408.07,414.21Z"/><path class="cls-134" d="M432.72,400.79c-3.26-2.79-2-6.6-2.24-10.06C433.73,393.53,432.45,397.33,432.72,400.79Z"/></svg>