<?xml version="1.0" encoding="UTF-8"?>
<svg width="176px" height="43px" viewBox="0 0 176 43" version="1.1" xmlns="http://www.w3.org/2000/svg" xmlns:xlink="http://www.w3.org/1999/xlink">
    <!-- Generator: Sketch 61.2 (89653) - https://sketch.com -->
    <title>paypal logo</title>
    <desc>Created with Sketch.</desc>
    <g id="Page-1" stroke="none" stroke-width="1" fill="none" fill-rule="evenodd">
        <g id="Homepage-v3" transform="translate(-190.000000, -1499.000000)">
            <g id="Group-31" transform="translate(0.000000, 1194.000000)">
                <g id="Group-11" transform="translate(138.000000, 234.000000)">
                    <g id="paypal-logo" transform="translate(52.000000, 71.000000)">
                        <path d="M65.684993,10 L56.1664777,10 C55.5150426,10 54.9610694,10.4833016 54.8597091,11.1397797 L51.0099656,36.0648472 C50.9335555,36.556509 51.3062496,37 51.7951183,37 L56.3391801,37 C56.9906152,37 57.5445884,36.5166984 57.6459488,35.8586279 L58.6841125,29.1361968 C58.7843033,28.4781262 59.3398359,27.9948246 59.9897116,27.9948246 L63.0032324,27.9948246 C69.2731489,27.9948246 72.8917128,24.8963595 73.8367031,18.7567568 C74.2624165,16.0703322 73.8550259,13.95957 72.623108,12.4813996 C71.2703373,10.8583182 68.8708263,10 65.684993,10 M66.7831932,19.1035078 C66.262357,22.5909232 63.6531081,22.5909232 61.1296256,22.5909232 L59.6934276,22.5909232 L60.7007934,16.0774981 C60.7608299,15.6837705 61.0949291,15.3935507 61.4847766,15.3935507 L62.1428391,15.3935507 C63.8616765,15.3935507 65.483052,15.3935507 66.3208341,16.3943911 C66.8206186,16.9911532 66.9738286,17.8781351 66.7831932,19.1035078" id="Fill-1" fill="#253B80"></path>
                        <path d="M95.1857603,18.4407237 L90.4951002,18.4407237 C90.0955195,18.4407237 89.7505,18.7328033 89.6887175,19.1286534 L89.4809034,20.4392054 L89.1531349,19.9640251 C88.1377346,18.4920079 85.8730428,18 83.6131653,18 C78.4294483,18 74.002367,21.9208384 73.1402195,27.4210704 C72.6920954,30.1639745 73.3295791,32.7874826 74.8877833,34.6172873 C76.317207,36.2992493 78.3620491,37 80.79564,37 C84.9723815,37 87.2880239,34.3179959 87.2880239,34.3179959 L87.0790062,35.6197335 C87.0003739,36.1177513 87.3843084,36.5636835 87.8841854,36.5636835 L92.1090692,36.5636835 C92.7810548,36.5636835 93.348331,36.0772848 93.454244,35.4153979 L95.9893347,19.3818692 C96.0695718,18.8886593 95.6868409,18.4407237 95.1857603,18.4407237 M88.6476413,27.5580954 C88.1947029,30.2340897 86.0680189,32.0306398 83.355203,32.0306398 C81.9931785,32.0306398 80.9043612,31.594724 80.2054962,30.767766 C79.512649,29.9468179 79.2486689,28.7780988 79.4693209,27.4763612 C79.8917692,24.8232044 82.0549611,22.9677576 84.7260537,22.9677576 C86.0579893,22.9677576 87.1407888,23.4100839 87.8540965,24.2438531 C88.5686078,25.086036 88.8522459,26.261967 88.6476413,27.5580954" id="Fill-3" fill="#253B80"></path>
                        <path d="M120.17067,19 L115.388934,19 C114.932697,19 114.503728,19.2189358 114.245289,19.58527 L107.650001,28.9676706 L104.85438,19.9512111 C104.678967,19.3871665 104.139704,19 103.529217,19 L98.8305066,19 C98.2594983,19 97.8626821,19.5388886 98.0446071,20.0581241 L103.311477,34.9858498 L98.3596181,41.7370904 C97.9701277,42.2692969 98.362467,43 99.035223,43 L103.811669,43 C104.26465,43 104.689141,42.7865671 104.94636,42.4277011 L120.850752,20.2558345 C121.231289,19.7255933 120.840577,19 120.17067,19" id="Fill-5" fill="#253B80"></path>
                        <path d="M134.685618,10 L125.16553,10 C124.515626,10 123.96163,10.4833016 123.859875,11.1397797 L120.009968,36.0648472 C119.933555,36.556509 120.306265,37 120.792035,37 L125.677811,37 C126.131613,37 126.519917,36.6620073 126.590482,36.2009997 L127.683271,29.1361968 C127.783466,28.4781262 128.339022,27.9948246 128.988926,27.9948246 L132.000625,27.9948246 C138.272367,27.9948246 141.889915,24.8963595 142.836115,18.7567568 C143.263796,16.0703322 142.852879,13.95957 141.621299,12.4813996 C140.26964,10.8583182 137.871587,10 134.685618,10 M135.783865,19.1035078 C135.264566,22.5909232 132.655207,22.5909232 130.130058,22.5909232 L128.695358,22.5909232 L129.704326,16.0774981 C129.764365,15.6837705 130.09575,15.3935507 130.486393,15.3935507 L131.144874,15.3935507 C132.862224,15.3935507 134.485228,15.3935507 135.323436,16.3943911 C135.822852,16.9911532 135.974899,17.8781351 135.783865,19.1035078" id="Fill-7" fill="#179BD7"></path>
                        <path d="M164.180815,18.4407237 L159.492359,18.4407237 C159.090353,18.4407237 158.747726,18.7328033 158.687947,19.1286534 L158.480124,20.4392054 L158.150736,19.9640251 C157.134891,18.4920079 154.872107,18 152.61173,18 C147.428189,18 143.00212,21.9208384 142.139935,27.4210704 C141.692995,30.1639745 142.327698,32.7874826 143.88597,34.6172873 C145.318264,36.2992493 147.360787,37 149.794484,37 C153.971005,37 156.287149,34.3179959 156.287149,34.3179959 L156.078123,35.6197335 C155.999086,36.1177513 156.383037,36.5636835 156.885744,36.5636835 L161.110008,36.5636835 C161.778814,36.5636835 162.348923,36.0772848 162.453236,35.4153979 L164.990041,19.3818692 C165.067473,18.8886593 164.683522,18.4407237 164.180815,18.4407237 M157.642011,27.5580954 C157.192263,30.2340897 155.062277,32.0306398 152.349745,32.0306398 C150.990469,32.0306398 149.898796,31.594724 149.199901,30.767766 C148.507024,29.9468179 148.245841,28.7780988 148.463694,27.4763612 C148.88937,24.8232044 151.049446,22.9677576 153.720655,22.9677576 C155.052247,22.9677576 156.135093,23.4100839 156.848833,24.2438531 C157.566184,25.086036 157.849834,26.261967 157.642011,27.5580954" id="Fill-9" fill="#179BD7"></path>
                        <path d="M169.960678,10.6851014 L166.010166,36.0645042 C165.932505,36.5565352 166.309776,37 166.800584,37 L170.772778,37 C171.432708,37 171.992899,36.5167269 172.094215,35.8586952 L175.989929,10.93669 C176.067197,10.444659 175.689925,10 175.198723,10 L170.75149,10 C170.358844,10.0015923 170.020994,10.291397 169.960678,10.6851014" id="Fill-11" fill="#179BD7"></path>
                        <path d="M10.7171185,41 L11.4518089,36.2761708 L9.81518481,36.2375357 L2,36.2375357 L7.43088447,1.38117239 C7.44780557,1.27602139 7.5028975,1.17803977 7.58278081,1.1079391 C7.66266412,1.03823673 7.76537123,1 7.872407,1 L21.0500049,1 C25.4246982,1 28.4437364,1.92166449 30.0201528,3.74029892 C30.7591718,4.59345594 31.2298143,5.48484969 31.4572653,6.46586077 C31.6961282,7.49546437 31.7004569,8.72541249 31.4671032,10.2258058 L31.4501821,10.3353381 L31.4501821,11.2964342 L32.1892011,11.7202246 C32.8113465,12.0543977 33.3059933,12.4371633 33.6853407,12.8748942 C34.3177174,13.6041802 34.7265783,14.5314208 34.8993309,15.6307268 C35.0775926,16.7611001 35.0185656,18.1061567 34.7265783,19.6292531 C34.3893369,21.3809732 33.8443203,22.9068577 33.1080559,24.1551276 C32.4308186,25.3058142 31.5682362,26.2597409 30.5443132,26.9993826 C29.5664313,27.7015842 28.404385,28.2349069 27.0908358,28.5762494 C25.818212,28.9116174 24.366933,29.0808946 22.7751695,29.0808946 L21.7496725,29.0808946 C21.0161627,29.0808946 20.3039026,29.3481534 19.7447195,29.8273074 C19.1843558,30.3168172 18.8132722,30.9847651 18.6995467,31.7156442 L18.622418,32.1410278 L17.3242159,40.4666773 L17.2651888,40.7725711 C17.2498417,40.8689595 17.2230828,40.9175521 17.1837314,40.9502126 C17.1487087,40.980085 17.0979454,41 17.0487562,41 L10.7171185,41 Z" id="Fill-13" fill="#253B80"></path>
                        <path d="M33.3486119,11 C33.3081596,11.2544455 33.262044,11.5144656 33.2098605,11.7816532 C31.4234862,20.8102858 25.3115457,23.9293332 17.5058668,23.9293332 L13.5314267,23.9293332 C12.576752,23.9293332 11.77256,24.6118363 11.6236954,25.5388301 L9.58894393,38.2419895 L9.01249842,41.8428506 C8.91581739,42.4512898 9.39234567,43 10.0161204,43 L17.065341,43 C17.9002768,43 18.6090014,42.4027102 18.7404714,41.592387 L18.8100494,41.2399861 L20.1368854,32.9492055 L20.2222398,32.4940707 C20.3524963,31.6813583 21.0628389,31.0840685 21.8973702,31.0840685 L22.9519621,31.0840685 C29.7815267,31.0840685 35.1277048,28.3548524 36.6903778,20.4562921 C37.3432781,17.1568632 37.0050968,14.4017645 35.2781874,12.4641564 C34.7551389,11.880007 34.1066883,11.3954058 33.3486119,11" id="Fill-15" fill="#179BD7"></path>
                        <path d="M31.1934643,9.63496833 C30.9299134,9.55644858 30.657369,9.48473923 30.3781771,9.42064148 C30.0978121,9.35774556 29.8100177,9.30166003 29.5144028,9.25318611 C28.4781864,9.08172463 27.3434317,9 26.1273438,9 L15.8641095,9 C15.6115073,9 15.3714179,9.05888981 15.1563542,9.16465109 C14.6832139,9.39780666 14.3312913,9.85690678 14.2460479,10.4189639 L12.062955,24.5865695 L12,25 C12.1438972,24.0673778 12.921255,23.3811312 13.8440741,23.3811312 L17.6858952,23.3811312 C25.2311144,23.3811312 31.1391118,20.2415434 32.8658784,11.1596935 C32.9174937,10.8908836 32.9608975,10.628884 33,10.3728937 C32.562834,10.135732 32.0896937,9.93262225 31.5801881,9.75955833 C31.454669,9.71669296 31.3248487,9.67543003 31.1934643,9.63496833" id="Fill-17" fill="#222D65"></path>
                        <path d="M13.6844334,10.9041822 C13.7713498,10.3475873 14.1301794,9.89294887 14.6126058,9.66364604 C14.8330866,9.55851586 15.076692,9.50059508 15.3342519,9.50059508 L25.7989176,9.50059508 C27.038873,9.50059508 28.1958989,9.58152548 29.2520539,9.75132065 C29.5538694,9.79932349 29.8473123,9.85446725 30.1331798,9.91714864 C30.4178512,9.98062347 30.6957448,10.0516359 30.9644683,10.1293926 C31.0984313,10.1690644 31.2307995,10.210323 31.3599782,10.2511849 C31.8798823,10.422567 32.3623087,10.624893 32.807656,10.8589564 C33.3315472,7.53485896 32.803669,5.27158457 30.9971616,3.22214102 C29.0060563,0.966007559 25.4117804,0 20.8127817,0 L7.4615316,0 C6.52179689,0 5.7204109,0.679974109 5.57528428,1.60472303 L0.0142236967,36.6797236 C-0.095418665,37.3739795 0.442825656,38 1.14573287,38 L9.38884497,38 L11.4584941,24.9344998 L13.6844334,10.9041822 Z" id="Fill-19" fill="#253B80"></path>
                    </g>
                </g>
            </g>
        </g>
    </g>
</svg>