<?xml version="1.0" encoding="UTF-8"?>
<svg width="340px" height="175px" viewBox="0 0 340 175" version="1.1" xmlns="http://www.w3.org/2000/svg" xmlns:xlink="http://www.w3.org/1999/xlink">
    <!-- Generator: Sketch 61.2 (89653) - https://sketch.com -->
    <title>perks2</title>
    <desc>Created with Sketch.</desc>
    <defs>
        <linearGradient x1="49.9961632%" y1="100%" x2="49.9961632%" y2="0%" id="linearGradient-1">
            <stop stop-color="#5EC2D2" offset="0%"></stop>
            <stop stop-color="#8288C2" offset="100%"></stop>
        </linearGradient>
        <linearGradient x1="50%" y1="0.88188521%" x2="50%" y2="81.0274204%" id="linearGradient-2">
            <stop stop-color="#5EC2D2" offset="0%"></stop>
            <stop stop-color="#8288C2" offset="100%"></stop>
        </linearGradient>
    </defs>
    <g id="Rewards" stroke="none" stroke-width="1" fill="none" fill-rule="evenodd">
        <g id="New-Rewards-Section" transform="translate(-73.000000, -504.000000)">
            <g id="perks2" transform="translate(73.000000, 502.000000)">
                <path d="M218.562506,11.0639138 C134.788613,41.3747002 173.421827,69.5940969 107.057776,52.8083965 C46.1046201,37.393016 11,60.5160868 11,106.256618 C11,159.543963 54.4598478,178.650876 98.3283909,175.709141 C159.670095,171.589563 134.610169,136.127867 225.274319,148.607259 C232.386192,149.538042 243.544724,154.237923 249.600321,154.123012 C249.983113,154.123012 250.363027,154.123012 250.751575,154.123012 C299.613684,154.123012 331.529329,117.064046 329.943477,76.7415935 C327.407839,12.3250678 252.314403,-1.14830805 218.562506,11.0639138 Z" id="Path" fill="#8288C2" fill-rule="nonzero"></path>
                <path d="M94,147 L246,147 L246,149.97553 C246,150.541329 245.596485,151 245.098723,151 L94.9012765,151 C94.4035152,151 94,150.541329 94,149.97553 L94,147 Z" id="Path" fill="#455A64" fill-rule="nonzero"></path>
                <path d="M244.883554,148 L94.1204531,148 C93.7328152,147.999102 93.3730473,147.799821 93.1687087,147.472814 C92.96437,147.145807 92.9443514,146.737308 93.1157507,146.392156 L108.604913,115.481992 C109.367049,113.958873 110.933657,112.996877 112.646819,113 L226.397607,113 C228.111415,112.997417 229.678188,113.960625 230.439513,115.484858 L245.882482,146.392156 C246.055158,146.73627 246.036539,147.144517 245.833245,147.471734 C245.62995,147.79895 245.270821,147.998716 244.883554,148 L244.883554,148 Z" id="Path" fill="#D1D2EB" fill-rule="nonzero"></path>
                <path d="M224.031604,117 L115.984211,117 C115.565883,117.001566 115.184114,117.238074 114.997227,117.611441 L109.115609,129.406807 C108.945447,129.748126 108.964133,130.152925 109.16502,130.477197 C109.365906,130.801469 109.720477,130.999182 110.102593,131 L229.895957,131 C230.277759,130.999683 230.632345,130.802755 230.833752,130.479173 C231.035159,130.15559 231.054845,129.751208 230.885818,129.409678 L225.021465,117.611441 C224.834113,117.237152 224.450968,117.000482 224.031604,117 L224.031604,117 Z" id="Path" fill="#455A64" fill-rule="nonzero"></path>
                <path d="M190.638294,145 L148.361706,145 C148.236211,145.000389 148.119546,144.931875 148.053674,144.819098 C147.987803,144.706321 147.982197,144.5655 148.038873,144.447286 L153.029698,133.850564 C153.275902,133.328921 153.780635,132.999437 154.332664,133 L184.681878,133 C185.232859,133.000602 185.736199,133.329912 185.981936,133.850564 L190.961127,144.447286 C191.017803,144.5655 191.012197,144.706321 190.946326,144.819098 C190.880454,144.931875 190.763789,145.000389 190.638294,145 Z" id="Path" fill="#8288C2" fill-rule="nonzero"></path>
                <line x1="107" y1="128" x2="235" y2="128" id="Path" stroke="#B3C0C4" stroke-width="1.03"></line>
                <line x1="107" y1="125" x2="235" y2="125" id="Path" stroke="#B3C0C4" stroke-width="1.03"></line>
                <line x1="109" y1="123" x2="231" y2="123" id="Path" stroke="#B3C0C4" stroke-width="1.03"></line>
                <line x1="109" y1="120" x2="231" y2="120" id="Path" stroke="#B3C0C4" stroke-width="1.03"></line>
                <path d="M224.172757,36 L114.827242,36 C112.162545,36.0031787 110.003172,38.1669 110,40.8369633 L110,109.163036 C110.001588,111.833758 112.161888,113.998408 114.827242,114 L224.172757,114 C225.453256,114 226.681528,113.491404 227.586977,112.584131 C228.492426,111.676858 229,110.446113 229,109.163036 L229,40.8369633 C229,38.1655822 226.838769,36 224.172757,36 Z M225.738663,108.828458 C225.735498,109.996369 224.791407,110.942361 223.625843,110.94553 L115.394306,110.94553 C114.226962,110.94553 113.280198,109.998151 113.278602,108.828458 L113.278602,41.1801944 C113.277081,40.6166825 113.499217,40.0756839 113.89607,39.6764087 C114.292923,39.2771334 114.831925,39.052348 115.394306,39.0515845 L223.625843,39.0515845 C224.795239,39.0563531 225.740257,40.0084342 225.738663,41.1801944 L225.738663,108.828458 Z" id="Shape" fill="#455A64" fill-rule="nonzero"></path>
                <path d="M197.584457,115 L140.425293,115 C140.27811,114.999071 140.14174,114.924676 140.064207,114.803016 C139.986674,114.681356 139.978854,114.529493 140.043499,114.400909 L145.917918,102.922547 C146.205554,102.356687 146.798875,101.998947 147.447986,102 L190.570441,102 C191.219357,101.999613 191.812347,102.357152 192.100509,102.922547 L197.954681,114.400909 C198.020187,114.52759 198.014365,114.678078 197.939258,114.799616 C197.86415,114.921153 197.730234,114.996786 197.584457,115 Z" id="Path" fill="#455A64" fill-rule="nonzero"></path>
                <path d="M225,41.1021423 L225,107.909251 C224.996848,109.062641 224.05662,109.99687 222.895824,110 L115.107049,110 C113.944481,110 113.00159,109.064401 113,107.909251 L113,41.1021423 C112.998485,40.5456373 113.219713,40.0113656 113.614942,39.617055 C114.010172,39.2227444 114.546969,39.0007541 115.107049,39 L222.895824,39 C224.060436,39.0047093 225.001588,39.944952 225,41.1021423 Z" id="Path" fill="url(#linearGradient-1)" fill-rule="nonzero"></path>
                <path d="M224,83.6471013 C224,69.8492121 214.225716,58.6651728 202.169419,58.6651728 C200.569805,58.6667477 198.976601,58.8678007 197.426526,59.2636981 C190.548753,54.1545468 181.135091,51 170.743423,51 C159.994018,51 150.288974,54.3771866 143.359272,59.8015035 C141.265337,59.0496252 139.057732,58.6652175 136.833466,58.6651728 C124.777169,58.6651728 115,69.8492121 115,83.6471013 C115,97.4449906 124.777169,108.623247 136.833466,108.623247 C137.041184,108.623247 137.248902,108.623247 137.45662,108.605899 C145.621089,110.077635 157.189826,111 170.030835,111 C182.871844,111 194.403076,110.083418 202.567545,108.623247 C205.586945,108.557065 208.54975,107.788971 211.22246,106.3795 C212.901514,105.71158 214.026653,104.994506 214.519983,104.242735 C220.249537,99.7292179 224,92.1912679 224,83.6471013 Z" id="Path" fill="url(#linearGradient-2)" fill-rule="nonzero"></path>
                <path d="M225,41.2858642 L225,45 L113,44.4199586 L113,41.3014567 C112.998485,40.6921872 113.21969,40.1072592 113.614879,39.6755625 C114.010068,39.2438658 114.54681,39.0008278 115.106833,39 L222.884575,39 C224.047964,38.9982662 224.993687,40.0201849 225,41.2858642 Z" id="Path" fill="#5DC1D2" fill-rule="nonzero"></path>
                <rect id="Rectangle" fill="#BDE2EC" fill-rule="nonzero" x="191" y="48" width="31" height="7" rx="3.5"></rect>
                <circle id="Oval" fill="#8288C2" fill-rule="nonzero" cx="195" cy="52" r="3"></circle>
                <rect id="Rectangle" fill="#5DC1D2" fill-rule="nonzero" x="191" y="57" width="31" height="7" rx="3.5"></rect>
                <circle id="Oval" fill="#8288C2" fill-rule="nonzero" cx="195" cy="61" r="3"></circle>
                <rect id="Rectangle" fill="#BDE2EC" fill-rule="nonzero" x="191" y="66" width="31" height="7" rx="3.5"></rect>
                <circle id="Oval" fill="#8288C2" fill-rule="nonzero" cx="195" cy="69" r="3"></circle>
                <rect id="Rectangle" fill="#5DC1D2" fill-rule="nonzero" x="191" y="74" width="31" height="7" rx="3.5"></rect>
                <circle id="Oval" fill="#8288C2" fill-rule="nonzero" cx="195" cy="77" r="3"></circle>
                <rect id="Rectangle" fill="#BDE2EC" fill-rule="nonzero" x="191" y="82" width="31" height="7" rx="3.5"></rect>
                <circle id="Oval" fill="#8288C2" fill-rule="nonzero" cx="195" cy="86" r="3"></circle>
                <rect id="Rectangle" fill="#5DC1D2" fill-rule="nonzero" x="191" y="90" width="31" height="7" rx="3.5"></rect>
                <circle id="Oval" fill="#8288C2" fill-rule="nonzero" cx="195" cy="94" r="3"></circle>
                <rect id="Rectangle" fill="#BDE2EC" fill-rule="nonzero" x="122" y="51" width="39" height="1"></rect>
                <rect id="Rectangle" fill="#BDE2EC" fill-rule="nonzero" x="122" y="54" width="39" height="1"></rect>
                <rect id="Rectangle" fill="#BDE2EC" fill-rule="nonzero" x="122" y="56" width="39" height="1"></rect>
                <rect id="Rectangle" fill="#BDE2EC" fill-rule="nonzero" x="122" y="59" width="39" height="1"></rect>
                <rect id="Rectangle" fill="#BDE2EC" fill-rule="nonzero" x="122" y="62" width="39" height="1"></rect>
                <rect id="Rectangle" fill="#BDE2EC" fill-rule="nonzero" x="122" y="64" width="39" height="1"></rect>
                <rect id="Rectangle" fill="#BDE2EC" fill-rule="nonzero" x="122" y="67" width="39" height="1"></rect>
                <path d="M122,70 L152.38205,70 C152.723335,70 153,70.2238576 153,70.5 L153,70.5 C153,70.7761424 152.723335,71 152.38205,71 L122,71 L122,70 L122,70 Z" id="Path" fill="#BDE2EC" fill-rule="nonzero"></path>
                <path d="M122,73 L152.38205,73 C152.723335,73 153,73.2238576 153,73.5 L153,73.5 C153,73.7761424 152.723335,74 152.38205,74 L122,74 L122,73 Z" id="Path" fill="#BDE2EC" fill-rule="nonzero"></path>
                <path d="M122,75 L152.38205,75 C152.723335,75 153,75.2238576 153,75.5 L153,75.5 C153,75.7761424 152.723335,76 152.38205,76 L122,76 L122,75 L122,75 Z" id="Path" fill="#BDE2EC" fill-rule="nonzero"></path>
                <path d="M122,78 L152.38205,78 C152.723335,78 153,78.2238576 153,78.5 L153,78.5 C153,78.7761424 152.723335,79 152.38205,79 L122,79 L122,78 L122,78 Z" id="Path" fill="#BDE2EC" fill-rule="nonzero"></path>
                <path d="M122,81.0069124 L152.38205,81.0069124 C152.723335,81.0069124 153,81.2307701 153,81.5069124 L153,81.5069124 C152.995328,81.7803516 152.720026,82.0000261 152.38205,82 L122,82 L122,81 L122,81.0069124 Z" id="Path" fill="#BDE2EC" fill-rule="nonzero"></path>
                <path d="M122,84 L152.38205,84 C152.723335,84 153,84.2238576 153,84.5 L153,84.5 C153,84.7761424 152.723335,85 152.38205,85 L122,85 L122,84 Z" id="Path" fill="#BDE2EC" fill-rule="nonzero"></path>
                <path d="M122,86 L152.38205,86 C152.723335,86 153,86.2238576 153,86.5 L153,86.5 C153,86.7761424 152.723335,87 152.38205,87 L122,87 L122,86 L122,86 Z" id="Path" fill="#BDE2EC" fill-rule="nonzero"></path>
                <ellipse id="Oval" fill="#515151" fill-rule="nonzero" opacity="0.25" cx="256.5" cy="171" rx="7.5" ry="2"></ellipse>
                <ellipse id="Oval" fill="#515151" fill-rule="nonzero" opacity="0.25" cx="239" cy="171.5" rx="6" ry="1.5"></ellipse>
                <path d="M249,93.8451243 L240.963948,35.2189293 L238.347289,34 C231.779474,37.7571702 224.781364,76.7342256 225.005234,94 L249,93.8451243 Z" id="Path" fill="#381423" fill-rule="nonzero"></path>
                <path d="M224.470117,44.3049966 C229.232464,50.6064209 231.659101,51.9092713 236.120249,58.5270611 C239.700533,64.106597 244.869213,59.0102374 242.31755,55.3288941 L228.371491,40.603521 C225.944854,38.6650637 222.796477,41.7999576 224.470117,44.3049966 Z" id="Path" fill="#C76D23" fill-rule="nonzero"></path>
                <path d="M233.952237,18.9518078 C231.433451,27.7708525 229.751355,40.9522274 228.519561,42.7042382 C227.25581,46.7716171 221.898668,44.9665149 223.203091,40.9345303 L232.229469,18.5713205 C232.5839,17.5979812 234.306669,17.9637208 233.952237,18.9518078 Z" id="Path" fill="#C76D23" fill-rule="nonzero"></path>
                <path d="M251.522243,55.279075 C250.20675,51.8939459 247.022328,48.9936895 246.77024,48 L241.676325,48.0478887 C239.879836,51.2414631 237.767513,55.2940402 236,59.0024176 C236.982274,60.1996339 249.070905,65.4015386 253,58.4636703 C252.834839,57.5268485 251.811999,56.3056879 251.522243,55.279075 Z" id="Path" fill="#C76D23" fill-rule="nonzero"></path>
                <path d="M236.986984,43.2531544 C236.661627,43.1364936 235.863583,43.1860744 236.020122,42.5590228 C236.296967,41.5112904 236.394389,40.4280254 236.308646,39.3508516 C236.060025,37.5076115 237.352243,36.4897463 237.447394,36.1426805 C241.870403,35.2881404 244.282954,38.3971498 246.084693,42.1273779 C246.222816,44.4605933 246.643324,47.0067146 248,49.6053332 C244.961292,51.9385486 240.940374,53.7672061 240.252828,52.676428 C241.73228,49.6199158 242.432104,48.0274963 241.584949,45.8692721 L239.436367,46.7442279 C238.478714,46.9396346 237.947707,46.2425866 237.6776,45.4901246 L236.986984,43.2531544 Z" id="Path" fill="#C76D23" fill-rule="nonzero"></path>
                <path d="M245.34585,41.7462716 C245.31917,41.6953213 245.29249,41.6473681 245.262846,41.5994149 C244.66996,41.1978069 243.84585,41.1078947 243.140316,41 C243.733202,43.9581126 241,45.5855241 241,45.5855241 C241.921937,45.3637406 243.632411,44.6024836 244.394269,45.7503632 C245.028656,46.949193 246.952569,49.0471452 247,48.999192 C246.025433,46.7005559 245.465235,44.2442658 245.34585,41.7462716 L245.34585,41.7462716 Z" id="Path" fill="#A2591C" fill-rule="nonzero"></path>
                <path d="M260.309895,16.4583319 C259.687185,25.1590263 257.109167,36.6963465 257.00642,39.812078 C256.776018,43.9217677 262.822528,44.1239769 263,40.0342233 L262.118866,17.2956491 C262.121979,16.2874508 260.337916,15.4444375 260.309895,16.4583319 Z" id="Path" fill="#C76D23" fill-rule="nonzero"></path>
                <path d="M257.131827,10.0005514 C256.95046,9.9845173 256.967253,10.3212337 257.115034,10.6098478 C257.50128,11.2704534 258.297282,12.0112295 258.72719,12.8033148 C258.72719,12.8033148 260.265456,13.2458564 259.959818,12.8033148 C259.959818,12.8129353 257.115034,9.98772412 257.131827,10.0005514 Z" id="Path" fill="#C76D23" fill-rule="nonzero"></path>
                <path d="M261.370254,17.8951864 C260.992868,17.765502 260.664546,17.5265177 260.428741,17.2098637 C259.698869,16.0555783 258.861225,14.9702516 257.926601,13.9678673 C257.732592,13.7552773 257.97225,13.3636643 258.33459,13.6881437 C258.782521,14.1329042 259.310339,14.5273144 259.761124,14.9413054 C259.860981,14.8573883 259.647001,14.3482913 259.384519,13.4895399 L257.241865,11.6349725 C257.022014,11.5024035 256.938552,11.2292409 257.047856,11 L259.960838,12.8573646 C260.129169,13.0000237 260.882379,13.4699593 261.164833,13.917517 C261.874501,14.8587348 262.472731,15.8760009 262.948001,16.9497207 C263.190511,17.1119604 262.571396,18.3651221 261.370254,17.8951864 Z" id="Path" fill="#C76D23" fill-rule="nonzero"></path>
                <path d="M230,11.0677528 C230.038325,10.8981119 230.211682,11.0677528 230.310221,11.3471612 C230.541972,12.0124193 230.713505,13.0635271 231,13.828574 C231,13.828574 230.830293,15.385278 230.689782,14.9096185 C230.689782,14.9096185 229.998179,11.0444687 230,11.0677528 Z" id="Path" fill="#BD6C28" fill-rule="nonzero"></path>
                <path d="M234.547191,20 C234.727141,19.2336692 235.283349,18.0578486 234.819842,17.1101722 C234.156383,15.8811755 233.598775,14.5898358 233.153944,13.2521937 C233.058516,12.959701 232.608642,12.9918752 232.739514,13.4861878 C232.922191,14.1091973 233.012165,14.7760806 233.178483,15.3961651 C233.061243,15.4429639 232.720429,14.998375 232.087878,14.3402665 L231.458054,11.4884628 C231.443183,11.2244662 231.246172,11.0143767 231,11 L231.272651,14.5479363 C231.319002,14.7702307 231.384438,15.679883 231.64073,16.1566461 L233.448407,19.2629184 C233.505664,19.3506662 234.547191,20 234.547191,20 Z" id="Path" fill="#C76D23" fill-rule="nonzero"></path>
                <path d="M242.197045,39.2116409 C243.621136,39.4313821 243.378864,39.8535165 243.656591,41.2355729 C243.878182,43.2595049 245.946364,46.4573176 246.956818,48.1342898 C247.275909,48.4639016 249.184545,51.2829498 250,52 C249.751818,48.1458551 248.635,35.2100381 246.75,33.0935835 C241.547045,30.8585842 237.537727,32.2840107 237,35.2505167 C237.756364,37.1616869 240.1525,37.8671717 242.197045,39.2116409 Z" id="Path" fill="#381423" fill-rule="nonzero"></path>
                <path d="M224.001522,124.171388 L238.162808,86.6217179 L238.185788,86.6504718 L238.266217,85.7878559 L262.788508,85 C264.744662,89.4194688 266.588789,94.3450056 262.788508,101.717496 L253.562129,126.845497 L255.107519,168.452338 C255.208055,170.37022 252.418885,170.580123 252.315476,168.662241 L243.26719,128.01578 C243.26719,127.785749 243.169526,126.721856 243.183889,126.379685 L247.63622,101.26031 L245.89263,101.14817 L233.618558,124.700459 L236.080266,165.091011 C236.183675,167.006018 233.87708,168.371827 233.782289,166.453944 L224.081952,125.807483 C224.079079,125.583203 223.98716,124.513559 224.001522,124.171388 Z" id="Path" fill="#494B9A" fill-rule="nonzero"></path>
                <path d="M262.697495,42.0618466 C258.741259,48.9797711 258.085654,49.5213258 254.457221,56.7216741 C251.577646,62.7661233 244.284043,59.3421001 246.369544,55.3299368 L258.410631,38.8212531 C260.578083,36.5822447 264.045441,39.3424267 262.697495,42.0618466 Z" id="Path" fill="#C76D23" fill-rule="nonzero"></path>
                <path d="M259.901003,46.1834646 C257.653651,49.6245038 257.025389,51.2821667 254.365653,56.7083085 C252.918159,59.8248317 249.660605,60.4329338 248,59.7458954 C252.943068,54.2934415 260.983164,44.5433431 259.901003,46.1834646 Z" id="Path" fill="#A2591C" fill-rule="nonzero"></path>
                <path d="M235.818098,58 L244.416457,58 L252.508527,58.2132353 C253.174097,65.3825517 259.698951,81.0265302 262,85.7177067 L237.874536,87 C236.873338,80.1937599 232.754773,72.7593402 232.063605,65.797496 C231.617048,63.5902226 233.591001,62.244535 235.818098,58 Z" id="Path" fill="#EC68A3" fill-rule="nonzero"></path>
                <path d="M249.194988,58 L253.243148,58 C253.281519,60.4841278 257.628426,74.7722463 262,86.0560314 L261.917776,86.105714 L248,87 C248.252153,79.9100071 249.669146,81.9323793 250.801096,72.1858309 C251.110807,69.0645974 249.597886,63.1319158 249.194988,58 Z" id="Path" fill="#E71482" fill-rule="nonzero"></path>
                <path d="M254.79292,163 L254.997412,168.514454 C255.095457,170.368355 252.375424,170.5518 252.274578,168.697898 L251,163 L254.79292,163 Z" id="Path" fill="#C76D23" fill-rule="nonzero"></path>
                <path d="M232,161.375532 L235.623214,160 L235.996285,165.666369 C236.110104,167.619683 233.571324,169.012812 233.466991,167.056565 L232,161.375532 Z" id="Path" fill="#C76D23" fill-rule="nonzero"></path>
                <path d="M255.200763,172 C256.388033,171.647609 256.164903,169.174636 255.107104,169 L252.352418,169 C252.352418,169 249.471017,170.637214 249.206568,171.048857 C249.028159,171.321659 248.961018,171.667664 249.022004,172 L255.200763,172 Z" id="Path" fill="#8D2B36" fill-rule="nonzero"></path>
                <path d="M237.880539,167.02921 C238.417761,165.963313 237.023671,164.625162 236.072788,165.097753 L234.015229,166.926473 C234.015229,166.926473 232.940785,169.815955 233.002566,170.229472 C233.052813,170.541825 233.235491,170.820562 233.507554,171 L237.880539,167.02921 Z" id="Path" fill="#8D2B36" fill-rule="nonzero"></path>
                <path d="M252.857929,126.955814 L254.158759,163 L252.664903,163 C251.943152,150.737991 249.282746,139.619051 247,128.604026 C250.877311,130.408112 253.593667,116.044704 255.672197,102.400044 C257.938158,92.1153134 250.250675,87.3265487 247.660206,86.2354378 L261.846242,85 C263.751328,89.4337207 265.547312,94.3610392 261.846242,101.76212 L252.857929,126.955814 Z" id="Path" fill="#38378D" fill-rule="nonzero"></path>
                <path d="M236.121999,160.548301 L234.811082,161 C233.365998,147.543961 231.82588,134.46194 229,126.676598 C232.301052,127.372848 236.530089,115.815673 240.624959,106.048032 C242.23216,102.466085 244.11049,102.152485 246,102 L234.061986,125.571805 L236.121999,160.548301 Z" id="Path" fill="#38378D" fill-rule="nonzero"></path>
                <path d="M243.191517,39.0056006 C243.736042,39.0792576 244.08726,39.8044962 243.981078,40.6317214 C243.874895,41.4589466 243.349429,42.0652008 242.807627,41.9943767 C242.265825,41.9235526 241.914606,41.1926481 242.018066,40.3682558 C242.121526,39.5438636 242.649715,38.9347765 243.191517,39.0056006 Z" id="Path" fill="#C76D23" fill-rule="nonzero"></path>
                <path d="M243.011009,42.604936 C243.068596,42.8744899 243.334189,43.0464064 243.604227,42.9889223 C243.874265,42.9314382 244.04649,42.6663215 243.988902,42.3967677 C243.962522,42.2668294 243.885036,42.152881 243.773797,42.0804408 C243.662558,42.0080006 243.52686,41.9831214 243.397094,42.0113749 C243.126382,42.0690107 242.953603,42.3346389 243.011009,42.604936 L243.011009,42.604936 Z" id="Path" fill="#FFFFFF" fill-rule="nonzero"></path>
                <path d="M188,55.2765767 C185.760899,54.8266108 173.065056,54.9633093 172.679988,55.4161231 C171.008506,58.3380536 165.3152,64.3499399 166.068223,70.7947049 C166.002619,74.8814206 172.183677,73.5457623 176.436542,73.9871845 C176.613389,74.0042718 181.622129,74.0042718 181.798975,73.9871845 C184.234888,73.7479621 186.699325,74.1096436 188,73.577089 L188,55.2765767 Z" id="Path" fill="#7C3C19" fill-rule="nonzero"></path>
                <path d="M183.125854,107 C181.960979,107.006023 180.841385,106.559362 180.013576,105.758297 C179.185766,104.957232 178.717615,103.867443 178.712195,102.728873 L177,71.8644902 C177,68.6256217 179.686292,66 183,66 C186.313708,66 189,68.6256217 189,71.8644902 L187.536585,102.728873 C187.531164,103.866945 187.063415,104.956298 186.23624,105.757281 C185.409064,106.558264 184.290223,107.005262 183.125854,107 Z" id="Path" fill="#592611" fill-rule="nonzero"></path>
                <path d="M156.825067,65 C168.022794,76.0528077 177.008834,88.1656711 186.233668,100.177714 C187.566989,102.122838 187.116965,104.791715 185.221922,106.177902 C183.326879,107.564089 180.685281,107.156674 179.283061,105.261948 L155,66.4057259 L156.825067,65 Z" id="Path" fill="#592611" fill-rule="nonzero"></path>
                <path d="M157.475207,62 C159.40492,62.1060016 159.447177,65.6009353 157.917492,65.9345284 L154.818682,66 C154.818682,66 151.477602,63.817615 151.204344,63.3187841 C151.021153,62.936636 150.958682,62.4976711 151.026866,62.0717069 L157.475207,62 Z" id="Path" fill="#D24516" fill-rule="nonzero"></path>
                <path d="M171.87122,107 C173.036094,107.006023 174.155688,106.559362 174.983498,105.758297 C175.811307,104.957232 176.279459,103.867443 176.284878,102.728873 L178,71.8644902 C178,68.6256217 175.313708,66 172,66 C168.686292,66 166,68.6256217 166,71.8644902 L167.463415,102.728873 C167.474705,105.097666 169.447685,107.00944 171.87122,107 Z" id="Path" fill="#7C3C19" fill-rule="nonzero"></path>
                <path d="M142,66.6713082 L167.161928,105.278734 C168.592076,107.159169 171.267241,107.559069 173.188433,106.179612 C175.109625,104.800155 175.574724,102.14548 174.236189,100.199265 C165.0651,87.3810229 156.061758,76.5738248 145.285511,66 L142,66.6713082 Z" id="Path" fill="#7C3C19" fill-rule="nonzero"></path>
                <path d="M144.4203,63 C146.182791,63.1982106 146.524939,66.1878871 145.170724,66.5044735 L142.548551,67 C142.548551,67 138.793553,65.8189952 138.419778,65.4335857 C138.159264,65.1388166 138.011229,64.7679623 138,64.3819683 L144.4203,63 Z" id="Path" fill="#D24516" fill-rule="nonzero"></path>
                <path d="M166.167602,84.4542683 C170.89869,84.4786585 173.812617,87.1981707 176.635392,90 L177,83.0457317 L166,81 L166.167602,84.4542683 Z" id="Path" fill="#592611" fill-rule="nonzero"></path>
                <path d="M178.198959,86.5061728 C182.419293,87.6882716 184.897232,90.6666667 188.698548,92 L189,85.0216049 L178,83 L178.198959,86.5061728 Z" id="Path" fill="#492111" fill-rule="nonzero"></path>
                <path d="M175.026547,29.7991914 C174.765648,25.7661725 176.456275,22.3123315 178.843502,22 C178.841077,22.1486969 178.80509,22.2940453 178.739142,22.421496 C178.604976,22.742149 178.612755,23.1184719 178.760014,23.4312668 C178.925032,23.7617938 178.934852,24.1669497 178.786104,24.5077493 C178.630688,24.8336349 178.639679,25.2318794 178.809585,25.5478437 C178.977566,25.892061 178.985409,26.3113698 178.830457,26.6637466 C178.69452,26.9796627 178.69452,27.3515368 178.830457,27.6674528 C179.027141,28.0394527 179.027141,28.5083909 178.830457,28.8803908 C178.65961,29.1600481 178.65961,29.5346958 178.830457,29.8143531 C179.151363,30.3753369 178.942644,30.666442 178.806976,31 L175.154388,30.8605121 C175.099599,30.5239218 175.052637,30.1661051 175.026547,29.7991914 Z" id="Path" fill="#231927" fill-rule="nonzero"></path>
                <path d="M160,33 C163.378639,32.9661166 166.748119,32.6391609 170.071151,32.0227514 L178,15.9935265 C176.253558,14.555533 174.355757,13.5577417 169.503558,14.197502 C168.953428,14.3236933 168.592497,14.5261862 168.476067,14.8255236 C168.359638,15.1248611 168.123868,15.4124597 167.454398,15.5533244 C167.052938,15.5851255 166.713119,15.8645955 166.601552,16.254713 C166.525873,16.6156787 166.226067,16.8915387 165.728331,17.091097 C165.236417,17.2231576 165.146184,17.4784748 165.122898,17.7484654 C165.122898,18.1446473 164.869664,18.4527887 164.363195,18.6787591 C163.682083,18.9986393 163.647154,19.3273235 163.673351,19.6648118 C163.699547,20.0023 163.533635,20.3280496 163.091203,20.6127136 C162.509056,20.9531365 162.474127,21.2847554 162.56727,21.6163743 C162.689521,22.0917926 162.479948,22.4967785 162.022962,22.8460055 C161.703237,23.0088637 161.560341,23.3913529 161.694049,23.7264096 C161.756433,23.8516149 161.766621,23.9967593 161.722346,24.1295743 C161.678071,24.2623892 161.583004,24.3718667 161.458279,24.4336676 C161.339554,24.4921503 161.250398,24.5979027 161.212277,24.7254623 C161.174155,24.8530218 161.190523,24.9908312 161.257439,25.1057094 C161.361899,25.3540266 161.28505,25.6421594 161.071151,25.8041634 C160.692755,26.1269783 160.780078,26.4057729 160.864489,26.6845676 C160.99986,26.9194991 160.939878,27.2193555 160.724774,27.3830215 C160.535576,27.553233 160.471539,27.7263791 160.63163,27.9141987 C160.899418,28.3544008 160.684023,28.6449341 160.480272,28.9384022 C160.300682,29.1108869 160.266588,29.387103 160.398771,29.5987053 C160.473084,29.6771913 160.509456,29.7846253 160.498247,29.8925423 C160.487039,30.0004593 160.429384,30.0979666 160.340556,30.1592293 C160.245759,30.2370612 160.186348,30.3503484 160.175923,30.4731587 C160.165497,30.595969 160.204951,30.7177872 160.285252,30.8107283 C160.404592,31.016156 160.462807,31.2157143 160.244502,31.3976644 C160.064987,31.5928317 160.050262,31.8897399 160.209573,32.1019878 C160.4337,32.3250235 160.139715,32.8092458 160,33 Z" id="Path" fill="#231927" fill-rule="nonzero"></path>
                <path d="M180.332522,20.4259354 C180.533461,20.2159178 181.21902,19.7958825 180.849645,19.3700933 C180.19164,18.7319741 179.658879,17.9822125 179.277589,17.1577156 C179.015239,16.3206019 178.515373,15.5726528 177.835552,15 C174.156585,15.9810413 172.871163,19.3729702 173.010047,22.9260085 C173.843356,24.7845208 175.244023,28.1448032 174.877603,30.6304916 C177.664162,31.3641148 179.457843,30.918187 179.771073,30.0551007 L177.909427,24.1400831 L179.886318,24.0192511 C180.979665,23.7027861 181.14219,23.0094402 180.90579,22.3218482 L180.332522,20.4259354 Z" id="Path" fill="#7C3C19" fill-rule="nonzero"></path>
                <path d="M175.009664,24.0046175 C174.818492,23.8605969 177.510072,27.1197306 178.978759,29 C178.978759,28.9839977 178.978759,28.9679954 179,28.9546602 L177.528279,24.4846863 L175.009664,24.0046175 Z" id="Path" fill="#592611" fill-rule="nonzero"></path>
                <path d="M186.979431,55.4021501 L171.653578,57 L165.081292,37.4369064 C164.679384,35.3384526 165.797637,33.2439559 167.774479,32.3925478 L173.106818,30.5213443 L178.112107,30 C179.010784,30.3438054 180.208072,30.3973489 181.004368,30.6735205 C188.762566,42.6757123 186.626786,36.4731239 186.979431,55.4021501 Z" id="Path" fill="#7C3C19" fill-rule="nonzero"></path>
                <path d="M133,17.274821 C133.626433,16.1748648 133.269281,16.1889668 134.672377,16 L149.531022,33.7177562 C150.358885,34.9453713 150.063127,36.6045837 148.861457,37.4740289 C147.659787,38.3434742 145.98229,38.1119727 145.063791,36.9499352 L133,17.274821 Z" id="Path" fill="#7C3C19" fill-rule="nonzero"></path>
                <path d="M131.921273,15.9487574 C131.348533,13.8095639 130.640686,12.4732773 130.123752,11.3185667 C129.971022,11.0036457 130.393968,10.629145 130.711177,11.1426649 C131.081255,11.8150639 131.568818,12.4363946 131.950644,13.0889338 C132.0975,13.026517 132.024072,12.3597922 132.027009,11.2703356 L130.158998,8.38214064 C129.947001,8.15367628 129.947001,7.80769817 130.158998,7.5792338 L130.92265,8.4303718 C130.813435,8.16716812 130.723149,7.89699964 130.652435,7.6217907 C130.590755,7.30119539 130.684743,6.93804318 130.860971,7.00897134 C130.860971,6.99194858 132.22086,9.56238533 132.679051,10.4135233 L132.94633,10.7142588 C133.093186,10.9355546 133.812782,11.7412986 133.991946,12.3569551 L134.99938,16.5161828 C135.025815,16.6353421 134.197545,18 134.197545,18 C133.389836,17.3673208 132.317785,17.0523997 131.921273,15.9487574 Z" id="Path" fill="#7C3C19" fill-rule="nonzero"></path>
                <path d="M206,22.8002809 C205.020657,21.9585331 205.36715,21.8482351 203.969725,22.158811 L196.077709,44.5086665 C195.728233,45.9840755 196.5889,47.4763183 198.028744,47.8914142 C199.468589,48.3065101 200.975194,47.4967334 201.444051,46.0557409 L206,22.8002809 Z" id="Path" fill="#7C3C19" fill-rule="nonzero"></path>
                <path d="M195.984498,47.6715829 C196.903887,48.3718364 198.392147,47.915789 199.311536,46.6506251 C200.230924,45.3854613 200.228051,43.7937087 199.311536,43.0934552 L182.495344,29.7533322 C180.918018,28.5528977 178.743089,28.8147572 177.634076,30.3417805 C176.525064,31.8688039 176.907185,34.0784272 178.496003,35.2788618 L195.984498,47.6715829 Z" id="Path" fill="#7C3C19" fill-rule="nonzero"></path>
                <path d="M205.968716,22.193252 C205.757763,19.8889832 205.930853,18.3280269 205.998466,17.0108772 C206.03092,16.6481407 205.538695,16.4162272 205.441332,17.0406097 C205.343969,17.8314942 205.124902,18.6134589 205.011311,19.3865039 C204.862562,19.3865039 204.705699,18.6967099 204.345996,17.6233667 L205.01672,14.1297979 C205.12208,13.8280652 205.006003,13.487347 204.746267,13.3359401 L204.367633,14.4509089 C204.374032,14.1531281 204.363192,13.8552014 204.335178,13.5589339 C204.283792,13.2229566 204.080952,12.8988724 203.953839,13.0296954 C203.953839,13.0088826 203.613068,16.0029454 203.499477,17.0079039 L203.366955,17.3973997 C203.312865,17.6679654 202.955866,18.7115762 203.004548,19.3805574 L203.488659,23.8107 C203.488659,23.9355765 204.667836,25 204.667836,25 C205.176288,24.0901855 205.987648,23.4152577 205.968716,22.193252 Z" id="Path" fill="#7C3C19" fill-rule="nonzero"></path>
                <path d="M146.879699,37.6094678 C145.722779,37.5196261 144.89269,36.1951851 145.011274,34.6475889 C145.129858,33.0999927 146.168193,31.9175597 147.307759,32.0045033 L168.676062,33.22751 C170.64861,33.3782123 172.132359,35.0156502 171.990636,36.8820396 C171.848914,38.7484291 170.130888,40.1395268 168.15834,39.9888245 L146.879699,37.6094678 Z" id="Path" fill="#7C3C19" fill-rule="nonzero"></path>
                <path d="M195.978055,81.4852144 C196.320869,68.2816714 192.569917,70.9941384 190.130226,58.7894721 C188.947519,51.0079927 189.121783,42.9279984 187.804807,40.3016414 C187.313441,37.8044496 185.18514,36.2401168 181.234213,30 C180.838861,29.9992857 180.445107,30.0504271 180.062933,30.1521353 C183.205391,38.0857425 174.940726,36.5874274 172.26678,30.9558292 C168.798649,31.8915586 166.29611,33.0798775 165.999005,33.9582001 C169.395716,35.8727139 171.915396,45.9648133 168.544396,46.1083301 C164.756305,61.4703654 160.648256,69.4441572 164.624893,83.218897 C176.009162,78.0408119 185.056585,95.360416 195.978055,81.4852144 Z" id="Path" fill="#E9510E" fill-rule="nonzero"></path>
                <path d="M178,15.1421059 C177.763538,15.1689439 177.586607,15.3742219 177.592524,15.6148649 C177.599246,15.8506452 177.430081,16.054025 177.199296,16.0876239 C176.889333,16.1451444 176.669758,16.4265121 176.68639,16.7448742 C176.69002,16.9391952 176.561651,17.1107598 176.375796,17.1599796 C175.936976,17.2752867 175.879987,17.5722024 175.882836,17.8950622 C175.895777,18.2249874 175.716201,18.5319047 175.42407,18.6791503 C175.318627,18.7080072 175.229958,18.7802364 175.179597,18.8782969 C175.129236,18.9763573 175.12179,19.0912779 175.159068,19.1951495 C175.241703,19.6909699 174.988099,19.9619415 174.70885,20.2213824 C174.594871,20.5096501 174.48944,20.7979178 174.389708,21.1063642 C174.423902,21.4436374 174.478042,21.8126201 174.54643,22.2104295 C174.394411,22.5501243 174.468401,22.9497169 174.731646,23.2107183 C174.934182,23.397932 174.99508,23.6955064 174.882668,23.9486836 C174.788166,24.2488378 174.856317,24.5771451 175.062186,24.8134866 C175.291821,25.0590865 175.367579,25.4134085 175.2588,25.7330606 C175.141572,26.0423736 175.215259,26.3925104 175.446866,26.6266904 C175.681219,26.8849421 175.756711,27.2524067 175.64348,27.5837391 C175.54932,27.882105 175.612766,28.2084695 175.811599,28.4485421 C176.087836,28.7246804 176.165123,29.1455151 176.005364,29.5036019 C175.861635,29.7723884 175.918123,30.1057411 176.142139,30.3107514 C176.57241,30.7258568 176.395743,31.0198899 176.30171,31.3369843 C171.808079,32.106659 163.13711,31.8385701 161,32 C167.132082,23.9285049 170.645491,18.7771614 174.979551,14.0553367 C176.02816,13.9025548 176.492625,14.0063312 178,15.1421059 Z" id="Path" fill="#231927" fill-rule="nonzero"></path>
                <path d="M173.293173,20.0936014 C172.902276,20.3287797 172.902276,20.9190774 173.293173,21.4200074 C173.68407,21.9209373 174.31593,22.1396532 174.706827,21.9068266 C175.097724,21.674 175.097724,21.0789987 174.706827,20.5780688 C174.31593,20.0771389 173.676037,19.8607748 173.293173,20.0936014 Z" id="Path" fill="#7C3C19" fill-rule="nonzero"></path>
                <path d="M174.022814,21.6559206 C174.060157,21.7860397 174.148332,21.893708 174.265685,21.9524851 C174.383037,22.0112623 174.518697,22.0157035 174.639351,21.9647182 C174.811306,21.9222453 174.945737,21.7824425 174.987019,21.6031587 C175.028301,21.4238749 174.969411,21.2356053 174.834717,21.1162538 C174.700023,20.9969023 174.512437,20.96677 174.349578,21.0383253 C174.225282,21.0709574 174.119542,21.1559578 174.057596,21.2730393 C173.995649,21.3901209 173.983053,21.5287793 174.022814,21.6559206 L174.022814,21.6559206 Z" id="Path" fill="#FBC06F" fill-rule="nonzero"></path>
                <path d="M168.076821,32 C166.905325,32.54685 166.153853,33.0879437 165.999559,33.5455708 C169.396897,35.4653022 171.917043,45.5849057 168.54542,45.7288136 C164.75663,61.1327151 160.647821,69.1282379 164.625194,82.9405181 C171.019848,80.0220659 176.677317,84.2241765 182.340501,86 C196.872768,71.0335785 162.745085,78.9283658 172.859954,45.3258714 C173.857155,39.9293252 171.065565,35.715702 168.076821,32 Z" id="Path" fill="#D24516" fill-rule="nonzero"></path>
                <path d="M124.1872,42.5612902 C124.725406,50.7863711 122.947511,60.8057541 123.050314,63.1282988 C122.415352,67.6671654 128,68.3705319 128,64.4115837 L126.488184,43.0177606 C126.590987,42.0416603 124.317216,41.5421266 124.1872,42.5612902 Z" id="Path" fill="#F2A585" fill-rule="nonzero"></path>
                <path d="M124.217608,43 C124.165515,41.9877901 123.693778,40.958078 124.327584,40.0275449 C125.696488,38.3940073 126.310035,37.0871772 126.903324,36.0341289 C127.056711,35.7424257 127.658681,35.8795262 127.447413,36.413343 C127.158004,37.0813432 126.972782,37.8193521 126.697843,38.4873523 C126.85123,38.5748633 127.349014,38.1518937 128.249076,37.5597363 L129.337253,34.4530978 C129.36578,34.3053355 129.452119,34.175368 129.576802,34.0925013 C129.701486,34.0096345 129.854017,33.9808456 130,34.0126261 L129.334359,38.0060421 C129.13916,38.4984178 128.875049,38.9601002 128.550061,39.3770469 L126.353447,41.798183 C126.252154,42.0169604 124.851414,42.8979039 124.217608,43 Z" id="Path" fill="#F2A585" fill-rule="nonzero"></path>
                <line x1="127" y1="45" x2="124" y2="45" id="Path" stroke="#F0B649" stroke-width="1.71" stroke-linecap="round"></line>
                <line x1="127" y1="47" x2="124" y2="47" id="Path" stroke="#F0B649" stroke-width="1.71" stroke-linecap="round"></line>
                <line x1="127" y1="48" x2="124" y2="48" id="Path" stroke="#F0B649" stroke-width="1.71" stroke-linecap="round"></line>
                <ellipse id="Oval" fill="#515151" fill-rule="nonzero" opacity="0.25" cx="94.5" cy="173" rx="7.5" ry="2"></ellipse>
                <path d="M115,108 L114.716987,125.1268 C114.809209,126.766126 114.458924,128.39993 113.7038,129.852523 L98.3475046,170.980946 C97.6654429,172.868939 95.4466195,171.89338 96.1286813,170.008256 L106.503944,128.013307 L103.017222,108.005739 L115,108 Z" id="Path" fill="#F2A585" fill-rule="nonzero"></path>
                <path d="M114,107 C110.868449,110.339589 106.350474,111.935779 107.0992,120.91832 L109.493413,125.946465 L97.9266012,169.892219 C97.8497359,170.111587 98.8717603,170.864943 98.8774541,171.072765 L98.8319042,171.176676 C98.1429629,173.075941 95.4156664,171.346975 96.1131483,169.444824 C101.59621,157.09383 100.864566,136.447263 106.031625,126.725799 C104.124226,116.730124 103.469447,117.266998 103.042417,107.320393 L114,107 Z" id="Path" fill="#D89E78" fill-rule="nonzero"></path>
                <path d="M94.8482424,172.690096 C93.5163928,171.926518 93.8697406,169.300319 95.0989079,169 L98.161256,169.146965 C98.161256,169.146965 101.48333,171.268371 101.785337,171.722045 C102.066203,172.079872 102.011842,172.463259 101.95144,173 L94.8482424,172.690096 Z" id="Path" fill="#A86915" fill-rule="nonzero"></path>
                <path d="M96,108 C94.1044841,116.457639 94.8843034,120.215956 92.3141124,127.860909 C91.4057835,130.957671 90.0564332,132.794056 87.6673238,133.412838 L52.3271968,153 C50.2827266,152.760471 50.7354307,150.359483 52.7623769,150.599011 L82.6788166,125.893353 L83.6309556,108 L96,108 Z" id="Path" fill="#F2A585" fill-rule="nonzero"></path>
                <path d="M53.4155235,150.59421 L83.0894175,125.93771 L84.0345197,108 L94,111.854809 C89.8091802,116.743277 89.2889406,103.357097 85.74264,127.511043 C73.2337656,137.459306 49.5802008,153.780852 53.4155235,150.59421 Z" id="Path" fill="#D89E78" fill-rule="nonzero"></path>
                <path d="M51.5836516,149.753792 C52.3445378,148.616024 54.7738732,148.841944 55,149.925273 L54.8716578,152.081043 C54.8716578,152.081043 52.6134454,155.600501 52.1795264,155.837309 C51.8372804,156.068673 51.4828113,156.006069 51,155.935298 L51.5836516,149.753792 Z" id="Path" fill="#A86915" fill-rule="nonzero"></path>
                <path d="M125.407387,61.8724154 C118.555936,57.2764298 113.261763,54.8035897 106.613934,49.8051779 C104.03281,47.6570542 101.965043,47.5099604 100.304519,48.9198401 C98.4948644,50.4823641 98.6095811,52.1864313 100.390557,54.4483445 L122.599697,66.429546 C127.076514,68.6026479 128.364208,64.0177637 125.407387,61.8724154 Z" id="Path" fill="#F2A585" fill-rule="nonzero"></path>
                <path d="M92.518213,52.1566816 C94.7139063,48.6830523 97.4687151,45.9521765 97.5502528,45 L103.013277,45.9884765 C105.19441,49.5933442 107.754111,53.3685427 109.760521,57.4118025 C112.660932,59.556294 88.1734194,69.0333823 92.518213,52.1566816 Z" id="Path" fill="#F2A585" fill-rule="nonzero"></path>
                <path d="M119,111.620513 C104.517483,114.819292 91.9037701,114.759369 81,111.643341 C82.0398297,97.3187479 90.7426269,60.7225503 92.2417148,56 L108.887656,56 C110.788234,59.4242056 113.601551,62.0865255 114.505625,66.8176363 C113.881727,68.1530765 103.425661,84.4694163 119,111.620513 Z" id="Path" fill="#B1CB08" fill-rule="nonzero"></path>
                <path d="M81,111.899077 C82.0170932,97.7999456 90.3663235,62.1967957 92.1030314,56.3212101 C92.1649162,56.1991396 92.2495483,56.0901023 92.3523468,56 L99.6674851,56.0767493 C99.4210029,61.9807607 96.1260742,65.7414766 96.5510435,69.5959973 C95.4007933,85.9805526 106.959958,107.785883 111,112.936614 C99.8346397,114.542664 89.8195297,114.431804 81,111.899077 Z" id="Path" fill="#98B720" fill-rule="nonzero"></path>
                <path d="M108.683362,75.6816416 C100.293573,71.3383275 88.7417011,65.7492348 86.5401046,65.4222884 C82.6055827,63.4944319 80.0221062,68.6861156 83.9595211,70.5604205 L107.150056,76.9105091 C108.133687,77.3361032 109.666993,76.1297836 108.683362,75.6816416 Z" id="Path" fill="#F2A585" fill-rule="nonzero"></path>
                <path d="M115.987535,75.1350931 C116.071979,75.0461527 115.711467,74.9845785 115.386682,75.0033928 C114.587712,75.0683878 113.561391,75.3198156 112.616267,75.377969 C112.616267,75.377969 111.619177,76.0621263 112.161568,75.995421 C112.161568,75.995421 116.007022,75.1282515 115.987535,75.1350931 Z" id="Path" fill="#D89E78" fill-rule="nonzero"></path>
                <path d="M107,76.1886966 C107.571861,75.5023767 107.898638,74.5843124 108.849017,74.3050307 C110.215637,74.0116418 111.554689,73.5820035 112.849319,73.0215234 C113.121634,72.9026801 113.415734,73.3037762 112.963691,73.5444338 C112.378215,73.8266866 111.825416,74.2218405 111.253555,74.5159776 C111.297126,74.6496762 111.86354,74.6288787 112.781241,74.7031557 L115.321936,73.2324702 C115.527753,73.0603615 115.819012,73.0833334 116,73.2859497 L113.192436,75.549914 C112.996369,75.6657862 112.277458,76.2510894 111.746445,76.3669616 L108.206354,76.999802 C108.100151,77.0146574 107,76.1886966 107,76.1886966 Z" id="Path" fill="#F2A585" fill-rule="nonzero"></path>
                <path d="M87.2155229,69.8256335 C91.7882961,62.6572682 91.547473,60.8467473 96.5416868,53.875947 C100.810564,48.1878447 94.6179684,43.5170546 91.8685705,47.4654056 L82.175438,67.121647 C81.0917338,70.3180715 85.3061392,72.4382092 87.2155229,69.8256335 Z" id="Path" fill="#F2A585" fill-rule="nonzero"></path>
                <path d="M91.7398264,48.7066001 C90.1709197,50.6520373 89.543357,53.2360532 90.3560507,54.4775688 C91.1687444,55.7190845 92.7502024,54.6023144 94.3285225,52.6568772 C95.9068427,50.71144 96.35555,49.241224 95.7248495,47.8601121 C95.094149,46.4790002 93.3181466,46.7611628 91.7398264,48.7066001 Z" id="Path" fill="#F2A585" fill-rule="nonzero"></path>
                <path d="M107.945567,32.470197 C107.843238,33.2718706 107.51228,34.0217843 106.996592,34.6204643 C105.15885,36.7828288 96.7040894,36.6195173 97.0079906,32.5730227 C98.0286399,26.6272765 108.85727,26.3611393 107.945567,32.470197 Z" id="Path" fill="#E9510E" fill-rule="nonzero"></path>
                <path d="M106.645324,36.2481855 L105.150399,32 C99.627649,33.3553868 97.2823717,41.664132 98.190221,46.931658 C99.7398253,47.1041702 101.31153,46.9490553 102.786964,46.4779955 L102.826304,42.4762439 C103.207601,42.4342381 104.729762,42.3782304 105.135268,42.3418254 C106.12785,42.2746161 106.170216,41.6249266 106.230739,40.8520201 L106.100614,38.3092696 C107.365551,38.2336592 107.044777,37.1919156 106.645324,36.2481855 Z" id="Path" fill="#F2A585" fill-rule="nonzero"></path>
                <path d="M103,41.8885848 C101.426709,41.404222 100.599079,40.7939797 100.961333,38 C99.8719281,38.2353401 99.1685746,38.9960907 99.1104025,40.6215794 C98.8777141,41.073104 98.9305979,44.7673964 100.088751,45 C101.342095,44.8330727 100.440428,42.1896013 103,41.8885848 Z" id="Path" fill="#D79474" fill-rule="nonzero"></path>
                <path d="M93.0351637,29.3714735 C93.1854123,30.1663253 93.7996731,30.7923864 94.5914932,30.9577011 C95.3833132,31.1230159 96.1967408,30.7950248 96.652444,30.1266826 C97.1081473,29.4583404 97.1163739,28.5812793 96.6732874,27.9045059 C96.2302009,27.2277325 95.4230688,26.8845397 94.6282872,27.0349712 C93.5432533,27.2403399 92.8300447,28.286344 93.0351637,29.3714735 L93.0351637,29.3714735 Z" id="Path" fill="#E9510E" fill-rule="nonzero"></path>
                <path d="M105.524083,31 L106,32.6360856 C104.718463,35.0489297 102.740252,35.351682 101,36 L105.524083,31 Z" id="Path" fill="#D79474" fill-rule="nonzero"></path>
                <path d="M93.8416922,32.5853823 C92.7905631,37.2031711 93.2210788,36.9808771 91.4794474,38.7681214 C86.3803533,42.7279198 86.5704511,49.322644 94.15759,48.9877209 L94.2554345,48.9877209 C95.8248251,48.919675 97.3164428,48.2449223 98.4487684,47.0908115 C99.5076116,46.0214062 100.085346,44.5235128 100.036644,42.9739253 L99.6983819,36.044278 C100.934018,34.6245599 103.774302,34.4793278 104.94564,30.7773905 C105.862583,24.8969713 94.8900257,26.1744212 93.8416922,32.5853823 Z" id="Path" fill="#E9510E" fill-rule="nonzero"></path>
                <path d="M98.5349515,35.8513609 C99.8285417,34.4602216 102.802043,34.3182095 104.02832,30.7012474 C104.140932,30.1334355 104.098499,29.5461508 103.905399,29 C104.724868,29.602827 105.166796,30.5563371 104.941442,31.8808176 C103.715166,35.5006779 100.741664,35.6484864 99.448074,37.0309311 L99.8929285,43.7837529 C99.9690221,45.2067725 99.3075936,46.6819597 98.1369238,47.8412425 C96.9662539,49.0005252 95.409263,49.8352087 93.808372,49.9192567 C88.7920516,50.623521 85.4936893,46.5747261 87.6945486,43.4562556 C94.4961405,47.6557572 99.6148945,42.9954407 98.5349515,35.8513609 Z" id="Path" fill="#D24516" fill-rule="nonzero"></path>
                <path d="M100.999197,37.3366213 C101.019868,37.7411375 100.638928,37.8688795 100.151679,37.983315 L100.151679,37.983315 C99.502014,38.0897667 99.1151679,37.6612988 99.1328861,37.4217826 L99,35.7451692 C99.0206005,35.3270561 99.4037893,34.9981673 99.8681889,35 L99.8681889,35.0079916 C100.429263,35.0079916 100.854499,35.2421852 100.87517,35.6467014 L100.999197,37.3366213 Z" id="Path" fill="#F2A585" fill-rule="nonzero"></path>
                <path d="M100.997255,38.8956932 C101.039513,39.7035366 100.590883,40.4572709 99.8606047,40.8053581 C99.1303262,41.1534454 98.2622516,41.0273182 97.6612466,40.4858016 C97.0602416,39.944285 96.8446943,39.0940489 97.115135,38.3316392 C97.3855757,37.5692296 98.0887319,37.0448285 98.8966551,37.0030141 C99.426616,36.9738529 99.9463262,37.1572243 100.340627,37.5124964 C100.734927,37.8677686 100.971259,38.3656048 100.997255,38.8956932 L100.997255,38.8956932 Z" id="Path" fill="#FBBA2F" fill-rule="nonzero"></path>
                <line x1="259" y1="22" x2="263" y2="23" id="Path" stroke="#FFFFFF" stroke-width="1.95" stroke-linecap="round"></line>
                <line x1="259" y1="24" x2="263" y2="25" id="Path" stroke="#FFFFFF" stroke-width="1.95" stroke-linecap="round"></line>
                <path d="M75.8432835,39.2273207 C76.2111336,39.9299677 75.9093584,40.7823424 75.1688758,41.132209 L69.3951496,43.851936 C68.6533421,44.200341 67.7541056,43.9129078 67.3861547,43.2097783 L67.155661,42.767283 C66.979321,42.4298997 66.9516114,42.0399 67.0786322,41.6831388 C67.2056529,41.3263777 67.4769912,41.0321016 67.8329142,40.8650929 L73.6037948,38.148064 C74.3456023,37.799659 75.2448389,38.0870922 75.6127897,38.7902217 L75.8432835,39.2273207 Z" id="Path" fill="#5DC1D2" fill-rule="nonzero"></path>
                <path d="M38.8447418,132.234083 C39.2106599,132.937355 38.9077976,133.788587 38.1671898,134.138425 L32.3909167,136.851978 C31.648782,137.200284 30.7491487,136.912933 30.3810356,136.210005 L30.1504402,135.767636 C29.7926164,135.068636 30.0946454,134.226961 30.8279921,133.879478 L36.6042652,131.141648 C37.3421058,130.804183 38.2292343,131.089968 38.5970652,131.783622 L38.8447418,132.234083 Z" id="Path" fill="#F59B1A" fill-rule="nonzero"></path>
                <path d="M220.436928,17.7522301 L220.963749,17.7524035 C221.801636,17.7526792 222.4811,18.4320308 222.481376,19.2697777 L222.483521,25.7862957 C222.483796,26.6224529 221.806067,27.3000692 220.96977,27.2997941 L220.442949,27.2996207 C219.605063,27.299345 218.925598,26.6199934 218.925322,25.7822465 L218.923177,19.2657285 C218.924487,18.4302287 219.601289,17.7535391 220.436928,17.7522301 Z" id="Path" fill="#89C0B7" fill-rule="nonzero" transform="translate(220.703349, 22.526012) rotate(-37.890000) translate(-220.703349, -22.526012) "></path>
                <path d="M147.715968,13.7626416 L154.232752,13.7648366 C155.070533,13.7651187 155.749917,14.4445612 155.7502,15.2824137 L155.750377,15.8092128 C155.750659,16.6470653 155.071732,17.3260503 154.233951,17.3257682 L147.717168,17.3235731 C146.884337,17.3233062 146.207633,16.6504014 146.202602,15.8175117 L146.20242,15.2763192 C146.203723,14.4407141 146.880435,13.7639443 147.715968,13.7626416 L147.715968,13.7626416 Z" id="Path" fill="#8288C2" fill-rule="nonzero" transform="translate(150.976399, 15.544205) rotate(-48.610000) translate(-150.976399, -15.544205) "></path>
                <path d="M243.25921,8.02106743 L249.775994,8.02326246 C250.613775,8.02354463 251.293159,8.70298706 251.293441,9.5408396 L251.293617,10.0618813 C251.293899,10.898144 250.61626,11.5758405 249.780069,11.575559 L243.257528,11.573362 C242.855975,11.5732268 242.470815,11.4135671 242.186778,11.1295062 C241.902741,10.8454453 241.743095,10.460252 241.74296,10.0586645 L241.742784,9.53762282 C241.742502,8.69977028 242.421429,8.02078534 243.25921,8.02106743 L243.25921,8.02106743 Z" id="Path" fill="#0E8386" fill-rule="nonzero" transform="translate(246.518201, 9.798313) rotate(-48.610000) translate(-246.518201, -9.798313) "></path>
                <path d="M79.1075925,57.0777571 C79.2429098,56.3715639 79.9810007,55.8980001 80.758044,56.018817 L86.8169384,56.9740847 C87.5937044,57.098281 88.1134031,57.7707002 87.9787694,58.4773354 L87.8946181,58.921646 C87.8303251,59.2616448 87.6198681,59.564398 87.3097043,59.7630743 C86.9995406,59.9617506 86.6151742,60.0400132 86.241452,59.9805862 L80.1852722,59.0253184 C79.4082677,58.901069 78.8877749,58.2291921 79.0207266,57.5220677 L79.1075925,57.0777571 Z" id="Path" fill="#FCDE5C" fill-rule="nonzero"></path>
                <path d="M179.927921,44.3478266 C180.541471,43.7958004 181.432253,43.9135398 181.918137,44.6108838 L185.69417,50.0402632 C186.179544,50.7380666 186.076021,51.7511727 185.462875,52.3037791 L185.075589,52.6524829 C184.781377,52.9174166 184.406664,53.038544 184.033913,52.9892089 C183.661162,52.9398739 183.32092,52.7241192 183.088062,52.3894256 L179.30665,46.9569875 C179.073008,46.622683 178.966066,46.1963051 179.00947,45.7721195 C179.052874,45.3479338 179.243047,44.9608802 179.537946,44.6965304 L179.927921,44.3478266 Z" id="Path" fill="#FCDE5C" fill-rule="nonzero"></path>
                <path d="M204.478256,4.71394747 C205.082181,5.2766988 205.175446,6.29602519 204.68661,6.99111056 L200.88015,12.399757 C200.390995,13.0945457 199.504975,13.2018432 198.900792,12.6394584 L198.521481,12.2829794 C198.23163,12.0132779 198.046823,11.6221131 198.007745,11.1955993 C197.968668,10.7690854 198.078524,10.3421886 198.313128,10.0088894 L202.119587,4.60024297 C202.608742,3.90545435 203.494763,3.79815684 204.098946,4.36054159 L204.478256,4.71394747 Z" id="Path" fill="#FFD402" fill-rule="nonzero"></path>
                <path d="M124.816892,22.0267292 C125.673721,21.8754537 126.503834,22.3816037 126.671577,23.1575983 L127.971057,29.2006803 C128.136207,29.9758648 127.577874,30.7259707 126.722596,30.877955 L126.182396,30.9731002 C125.771188,31.0464516 125.344661,30.9683794 124.997161,30.7561529 C124.649662,30.5439263 124.409829,30.2150361 124.330712,29.8422311 L123.028231,23.8073044 C122.949189,23.4334157 123.037681,23.046405 123.274171,22.7317132 C123.51066,22.4170215 123.875699,22.2005285 124.288696,22.1300297 L124.816892,22.0267292 Z" id="Path" fill="#A6677C" fill-rule="nonzero"></path>
                <path d="M1.88264602,18.3918134 C2.184552,18.1254287 2.58477334,17.9849233 2.99504522,18.0012842 C3.4053171,18.0176452 3.79193853,18.1895286 4.069644,18.4790272 L8.59061564,23.1632517 C8.86894642,23.4521997 9.01575282,23.8352434 8.99865816,24.2279062 C8.9815635,24.620569 8.80197198,24.9905964 8.49949072,25.2563827 L8.10559593,25.6080512 C7.47702788,26.1619824 6.49852589,26.1242201 5.91859794,25.5236507 L1.40938436,20.8253595 C1.13105358,20.5364114 0.984247179,20.1533678 1.00134184,19.760705 C1.0184365,19.3680422 1.19802802,18.9980147 1.50050928,18.7322285 L1.88264602,18.3918134 Z" id="Path" fill="#FCDE5C" fill-rule="nonzero"></path>
                <path d="M298.912703,31.5612491 C299.044659,31.955899 299.026428,32.3912234 298.862028,32.7712924 C298.697628,33.1513614 298.400552,33.4449826 298.036264,33.5874526 L292.131396,35.9052609 C291.766913,36.048386 291.364901,36.0287062 291.013805,35.850551 C290.662708,35.6723958 290.391288,35.3503596 290.259256,34.9552902 L290.087297,34.4382175 C289.955341,34.0435677 289.973572,33.6082433 290.137972,33.2281743 C290.302372,32.8481053 290.599448,32.554484 290.963736,32.4120141 L296.871377,30.0942057 C297.629562,29.7981397 298.465785,30.2230897 298.740744,31.0441765 L298.912703,31.5612491 Z" id="Path" fill="#EF7979" fill-rule="nonzero"></path>
                <path d="M339.050659,44.2956672 C339.425406,44.4425358 339.724201,44.7275863 339.881006,45.0878171 C340.037811,45.448048 340.039714,45.8537973 339.886294,46.2153868 L337.416979,52.0835256 C337.264982,52.4449941 336.970506,52.7332254 336.598439,52.8847059 C336.226373,53.0361863 335.807251,53.0384842 335.43343,52.8910933 L334.94188,52.698283 C334.168003,52.3890086 333.797396,51.5341701 334.112028,50.784152 L336.584235,44.9160133 C336.902004,44.1644112 337.789295,43.8031659 338.567784,44.1084456 L339.050659,44.2956672 Z" id="Path" fill="#FCDE5C" fill-rule="nonzero"></path>
                <path d="M283.052531,2.30169901 C283.426224,2.44851916 283.724203,2.73296684 283.880807,3.09236203 C284.03741,3.45175723 284.039786,3.85660535 283.88741,4.21769531 L281.420328,10.0829901 C281.268493,10.4449743 280.973802,10.733594 280.601388,10.8850587 C280.228975,11.0365234 279.809503,11.0383614 279.435685,10.8901664 L278.947469,10.6974496 C278.573776,10.5506294 278.275797,10.2661817 278.119193,9.90678653 C277.96259,9.54739134 277.960214,9.14254321 278.11259,8.78145326 L280.579672,2.91615846 C280.73213,2.55466551 281.026881,2.26653611 281.399077,2.11515986 C281.771273,1.96378361 282.190424,1.96156142 282.564315,2.10898218 L283.052531,2.30169901 Z" id="Path" fill="#FCDE5C" fill-rule="nonzero"></path>
                <path d="M327.710789,17.066468 C328.584532,16.8276553 329.514416,17.2526415 329.788866,18.0162156 L331.923618,23.9652145 C332.055669,24.3320928 332.015355,24.7298312 331.811568,25.0706879 C331.607782,25.4115446 331.257268,25.6675119 330.83735,25.7821229 L330.289494,25.933532 C329.41575,26.1723447 328.485867,25.7473585 328.211417,24.9837844 L326.076665,19.0347855 C325.944482,18.6682708 325.984362,18.2708475 326.187519,17.9300559 C326.390676,17.5892643 326.740446,17.33306 327.159784,17.2178771 L327.710789,17.066468 Z" id="Path" fill="#EC68A3" fill-rule="nonzero"></path>
                <path d="M305.945824,6.36385751 C306.258681,6.10735897 306.667953,5.97759322 307.083388,6.00317585 C307.498822,6.02875849 307.886299,6.20758831 308.160372,6.50023025 L312.610331,11.2315293 C312.885025,11.5236629 313.023996,11.9058244 312.996599,12.2937407 C312.969201,12.681657 312.777686,13.043467 312.464284,13.2993853 L312.055949,13.6361425 C311.743092,13.892641 311.33382,14.0224068 310.918385,13.9968241 C310.502951,13.9712415 310.115474,13.7924117 309.841401,13.4997698 L305.388462,8.76847068 C304.818067,8.15953478 304.883411,7.23433063 305.534508,6.70061468 L305.945824,6.36385751 Z" id="Path" fill="#5DC1D2" fill-rule="nonzero"></path>
                <path d="M79.5214555,10.0214101 C80.2259952,9.88644102 80.8972156,10.4035724 81.0236906,11.1787838 L81.9807797,17.2400534 C82.1030242,18.0187064 81.6294059,18.7592179 80.9225549,18.8946088 L80.4785445,18.9788308 C79.7715752,19.1134704 79.099236,18.5918293 78.9763094,17.8133066 L78.0192203,11.752037 C77.8969758,10.973384 78.3705941,10.2328725 79.0774451,10.0974816 L79.5214555,10.0214101 Z" id="Path" fill="#89C0B7" fill-rule="nonzero"></path>
                <path d="M75.8404508,140.767209 C76.0201446,140.428033 76.0493363,140.034604 75.9215031,139.674833 C75.7936699,139.315061 75.5194666,139.018934 75.1601631,138.85262 L69.3905262,136.148398 C68.6485127,135.799208 67.7490264,136.087288 67.3809733,136.792003 L67.1504156,137.235495 C66.7926503,137.936271 67.09463,138.780085 67.8278569,139.128451 L73.6003402,141.851602 C74.3423537,142.200792 75.24184,141.912712 75.609893,141.207997 L75.8404508,140.767209 Z" id="Path" fill="#8288C2" fill-rule="nonzero"></path>
                <path d="M217.433351,154.947901 L223.949869,154.950049 C224.787616,154.950325 225.466968,155.62979 225.467243,156.467677 L225.467417,156.994497 C225.467692,157.830794 224.790076,158.508523 223.953918,158.508248 L217.431644,158.506102 C216.593897,158.505826 215.914545,157.826361 215.91427,156.988474 L215.914096,156.461654 C215.914726,156.059287 216.075145,155.673755 216.36006,155.389872 C216.644976,155.105988 217.031051,154.947008 217.433351,154.947901 Z" id="Path" fill="#89C0B7" fill-rule="nonzero" transform="translate(220.690757, 156.728075) rotate(-52.110000) translate(-220.690757, -156.728075) "></path>
                <path d="M150.716724,158.946146 L151.240644,158.946323 C152.078497,158.946605 152.757939,159.625989 152.758222,160.46377 L152.760417,166.980554 C152.760698,167.816745 152.083002,168.494384 151.246739,168.494102 L150.71994,168.493925 C149.883677,168.493643 149.205524,167.815548 149.205242,166.979356 L149.203046,160.459695 C149.202764,159.621914 149.881749,158.942987 150.719602,158.943269 L150.716724,158.946146 Z" id="Path" fill="#8288C2" fill-rule="nonzero" transform="translate(150.981731, 163.718685) rotate(-41.390000) translate(-150.981731, -163.718685) "></path>
                <path d="M271.614579,141.120747 C272.597302,141.121077 273.393874,141.917649 273.394205,142.900372 L273.396223,148.892976 C273.396554,149.874844 272.600861,150.671073 271.618993,150.671403 C271.618594,150.671404 271.618195,150.671404 271.617796,150.671403 C270.635073,150.671072 269.838501,149.874501 269.83817,148.891778 L269.836152,142.899174 C269.835821,141.917306 270.631514,141.121077 271.613381,141.120747 C271.613781,141.120746 271.61418,141.120746 271.614579,141.120747 Z" id="Rectangle" fill="#0E8386" fill-rule="nonzero" transform="translate(271.616187, 145.896075) rotate(-41.390000) translate(-271.616187, -145.896075) "></path>
                <path d="M193.937644,135.652067 C194.551193,136.204262 195.441975,136.086487 195.927859,135.38893 L199.693132,129.957891 C199.926923,129.622986 200.033933,129.19599 199.990537,128.771175 C199.947141,128.34636 199.756908,127.958664 199.461836,127.693683 L199.077241,127.347933 C198.463691,126.795738 197.572909,126.913513 197.087025,127.61107 L193.305616,133.045169 C193.072272,133.379957 192.965779,133.806711 193.009689,134.231047 C193.0536,134.655382 193.244296,135.042333 193.539601,135.306317 L193.937644,135.652067 Z" id="Path" fill="#EC68A3" fill-rule="nonzero"></path>
                <path d="M137.729055,98.9665214 C138.55513,99.1354752 139.37191,98.6484737 139.556145,97.8771259 L140.963617,91.847322 C141.146099,91.0749756 140.624314,90.3105561 139.798009,90.1396947 L139.276399,90.0334786 C138.450324,89.8645248 137.633545,90.3515263 137.449309,91.1228741 L136.036009,97.1662954 C135.948437,97.5368606 136.022078,97.9247625 136.24071,98.2445497 C136.459342,98.5643369 136.805028,98.789774 137.201617,98.8711993 L137.729055,98.9665214 Z" id="Path" fill="#EC68A3" fill-rule="nonzero"></path>
                <path d="M204.478256,174.285905 C205.082181,173.723038 205.175446,172.703501 204.68661,172.008273 L200.88015,166.598511 C200.390202,165.904546 199.504271,165.798613 198.900792,166.361833 L198.521481,166.715312 C198.23163,166.985069 198.046823,167.376315 198.007745,167.802917 C197.968668,168.229518 198.078524,168.656503 198.313128,168.989871 L202.119587,174.399633 C202.608742,175.094565 203.494763,175.201885 204.098946,174.639384 L204.478256,174.285905 Z" id="Path" fill="#FFD402" fill-rule="nonzero"></path>
                <path d="M124.817276,156.973271 C125.674002,157.124546 126.504015,156.618396 126.671738,155.842402 L127.971061,149.79932 C128.136191,149.024135 127.577925,148.274029 126.72275,148.122045 L126.182616,148.0269 C125.771457,147.953548 125.344982,148.031621 124.997524,148.243847 C124.650066,148.456074 124.410262,148.784964 124.331155,149.157769 L123.028831,155.200851 C122.863837,155.976913 123.423748,156.727425 124.280142,156.878126 L124.817276,156.973271 Z" id="Path" fill="#A6677C" fill-rule="nonzero"></path>
                <path d="M1.89407556,154.606586 C2.19598424,154.873537 2.59631503,155.014631 3.00691006,154.998798 C3.41750508,154.982965 3.80469246,154.811503 4.08320868,154.522171 L8.59076601,149.834302 C8.86899456,149.545303 9.01574704,149.162191 8.99865865,148.769459 C8.98157027,148.376726 8.80204472,148.006633 8.49967456,147.7408 L8.11767818,147.391883 C7.81588309,147.125451 7.41580875,146.984921 7.00568757,147.001284 C6.59556638,147.017648 6.20908697,147.189562 5.93148349,147.479112 L1.40923399,152.166981 C1.13100544,152.45598 0.984252965,152.839092 1.00134135,153.231824 C1.01842973,153.624557 1.19795528,153.99465 1.50032544,154.260483 L1.89407556,154.606586 Z" id="Path" fill="#8288C2" fill-rule="nonzero"></path>
                <path d="M20.3918946,157.894388 C20.1254547,158.196289 19.9849202,158.596503 20.0012845,159.006768 C20.0176489,159.417032 20.1895678,159.803647 20.4791264,160.081348 L25.1671355,164.590481 C25.7688498,165.169244 26.705548,165.129788 27.2607002,164.502298 L27.6068137,164.10547 C27.873606,163.80395 28.0146331,163.403959 27.9987969,162.993702 C27.9829607,162.583444 27.8115619,162.196614 27.5223958,161.918511 L22.8343867,157.409377 C22.5453788,157.131051 22.1622558,156.984247 21.7695116,157.001342 C21.3767674,157.018436 21.0066633,157.198025 20.740822,157.5005 L20.3918946,157.894388 Z" id="Path" fill="#EC68A3" fill-rule="nonzero"></path>
                <path d="M303.912703,135.438218 C304.044659,135.043568 304.026428,134.608243 303.862028,134.228174 C303.697628,133.848105 303.400552,133.554484 303.036264,133.412014 L297.128623,131.094206 C296.370438,130.79814 295.534215,131.22309 295.259256,132.044176 L295.087297,132.561249 C294.955341,132.955899 294.973572,133.391223 295.137972,133.771292 C295.302372,134.151361 295.599448,134.444983 295.963736,134.587453 L301.868604,136.905261 C302.233087,137.048386 302.635099,137.028706 302.986195,136.850551 C303.337292,136.672396 303.608712,136.35036 303.740744,135.95529 L303.912703,135.438218 Z" id="Path" fill="#EF7979" fill-rule="nonzero"></path>
                <path d="M321.907371,170.450242 C322.0436,170.056047 322.029079,169.619306 321.867023,169.23674 C321.704967,168.854174 321.40875,168.557354 321.043973,168.412014 L315.130665,166.094206 C314.371752,165.79814 313.534727,166.22309 313.259505,167.044176 L313.087381,167.561249 C312.955299,167.955899 312.973547,168.391223 313.138104,168.771292 C313.302662,169.151361 313.600023,169.444983 313.96466,169.587453 L319.875192,171.905261 C320.240025,172.048386 320.642422,172.028706 320.993856,171.850551 C321.345289,171.672396 321.61697,171.35036 321.749128,170.95529 L321.907371,170.450242 Z" id="Path" fill="#EF7979" fill-rule="nonzero"></path>
                <path d="M335.052531,144.69745 C335.426224,144.550629 335.724203,144.266182 335.880807,143.906787 C336.03741,143.547391 336.039786,143.142543 335.88741,142.781453 L333.420328,136.916158 C333.26787,136.554666 332.973119,136.266536 332.600923,136.11516 C332.228727,135.963784 331.809576,135.961561 331.435685,136.108982 L330.947469,136.301699 C330.573776,136.448519 330.275797,136.732967 330.119193,137.092362 C329.96259,137.451757 329.960214,137.856605 330.11259,138.217695 L332.579672,144.08299 C332.731507,144.444974 333.026198,144.733594 333.398612,144.885059 C333.771025,145.036523 334.190497,145.038361 334.564315,144.890166 L335.052531,144.69745 Z" id="Path" fill="#FCDE5C" fill-rule="nonzero"></path>
                <path d="M283.052531,176.697478 C283.426224,176.550672 283.724203,176.266251 283.880807,175.90689 C284.03741,175.547529 284.039786,175.142719 283.88741,174.781663 L281.420328,168.916923 C281.268493,168.554973 280.973802,168.266381 280.601388,168.11493 C280.228975,167.96348 279.809503,167.961642 279.435685,168.109823 L278.947469,168.302522 C278.573776,168.449328 278.275797,168.733749 278.119193,169.09311 C277.96259,169.452471 277.960214,169.857281 278.11259,170.218337 L280.579672,176.083077 C280.731507,176.445027 281.026198,176.733619 281.398612,176.88507 C281.771025,177.03652 282.190497,177.038358 282.564315,176.890177 L283.052531,176.697478 Z" id="Path" fill="#FCDE5C" fill-rule="nonzero"></path>
                <path d="M304.944051,109.635886 C305.595389,110.16945 306.586164,110.109654 307.158599,109.502232 L311.611538,104.768668 C312.181933,104.159441 312.116589,103.233793 311.465492,102.699822 L311.054176,102.362904 C310.402043,101.830037 309.411205,101.891082 308.839628,102.499342 L304.389669,107.232906 C304.114975,107.525179 303.976004,107.907524 304.003401,108.295626 C304.030799,108.683728 304.222314,109.045711 304.535716,109.301752 L304.944051,109.635886 Z" id="Path" fill="#494B9A" fill-rule="nonzero"></path>
                <path d="M79.5214555,169.978849 C80.2284248,170.113371 80.900764,169.592188 81.0236906,168.814349 L81.9807797,162.758401 C82.1030242,161.980432 81.6294059,161.240571 80.9225549,161.105299 L80.4785445,161.021151 C79.7715752,160.886629 79.099236,161.407812 78.9763094,162.185651 L78.0192203,168.241599 C77.8969758,169.019568 78.3705941,169.759429 79.0774451,169.894701 L79.5214555,169.978849 Z" id="Path" fill="#EA9210" fill-rule="nonzero"></path>
                <path d="M267.156146,99.229333 C266.788723,99.9331991 267.091846,100.786442 267.833356,101.135573 L273.603869,103.851831 C274.345629,104.200483 275.244808,103.912846 275.612735,103.209217 L275.843214,102.769108 C276.020444,102.431209 276.048641,102.040265 275.921578,101.682604 C275.794516,101.324943 275.522646,101.029987 275.166004,100.862868 L269.395492,98.1493101 C269.03975,97.9809441 268.628036,97.9537905 268.251169,98.0738393 C267.874303,98.1938881 267.563249,98.4512754 267.386625,98.7892237 L267.156146,99.229333 Z" id="Path" fill="#5DC1D2" fill-rule="nonzero"></path>
                <path d="M280.440322,64.2868109 C280.8428,64.9512556 281.763898,65.1949546 282.498391,64.8313232 L288.212053,61.9941272 C288.946146,61.6298353 289.21539,60.7961282 288.813642,60.1313217 L288.560341,59.7118648 C288.367119,59.3926998 288.041568,59.1562103 287.655484,59.054551 C287.269399,58.9528917 286.854495,58.9944129 286.502272,59.1699578 L280.785732,62.0071538 C280.052699,62.372357 279.784816,63.2058382 280.187021,63.8699593 L280.440322,64.2868109 Z" id="Path" fill="#FFD402" fill-rule="nonzero"></path>
                <path d="M119.02391,80.3315346 L125.01598,80.3335067 C125.998739,80.3338301 126.795341,81.1304325 126.795665,82.1131911 C126.795988,83.0951138 126.000244,83.8913813 125.018321,83.8917044 C125.017931,83.8917045 125.017541,83.8917045 125.017151,83.8917044 L119.025081,83.8897323 C118.042323,83.8894089 117.24572,83.0928065 117.245397,82.1100479 C117.245074,81.1281252 118.040817,80.3318577 119.02274,80.3315346 C119.02313,80.3315345 119.02352,80.3315345 119.02391,80.3315346 Z" id="Rectangle" fill="#89C0B7" fill-rule="nonzero" transform="translate(122.020531, 82.111619) rotate(-52.110000) translate(-122.020531, -82.111619) "></path>
                <path d="M191.474003,70.3905617 L192.000802,70.3907391 C192.838655,70.3910213 193.518097,71.0704058 193.518379,71.9081868 L193.520574,78.4249702 C193.520856,79.2611615 192.843159,79.9388002 192.006896,79.9385187 L191.480097,79.9383412 C190.643835,79.9380595 189.965682,79.2599642 189.9654,78.4237729 L189.963205,71.9069895 C189.962918,71.0714515 190.638401,70.3934512 191.474003,70.3905617 L191.474003,70.3905617 Z" id="Path" fill="#8288C2" fill-rule="nonzero" transform="translate(191.741890, 75.164540) rotate(-41.390000) translate(-191.741890, -75.164540) "></path>
                <path d="M92.7492709,83.3169516 C93.7319938,83.3172826 94.5285655,84.1138543 94.5288965,85.0965772 L94.5309149,91.0891813 C94.5312456,92.0710488 93.7355528,92.8672779 92.7536852,92.8676086 C92.753286,92.8676087 92.7528869,92.8676087 92.7524877,92.8676086 C91.7697647,92.8672776 90.9731931,92.0707059 90.9728621,91.087983 L90.9708437,85.0953789 C90.970513,84.1135114 91.7662058,83.3172824 92.7480734,83.3169516 C92.7484725,83.3169515 92.7488717,83.3169515 92.7492709,83.3169516 Z" id="Rectangle" fill="#0E8386" fill-rule="nonzero" transform="translate(92.750879, 88.092280) rotate(-41.390000) translate(-92.750879, -88.092280) "></path>
                <path d="M263.899907,117.07629 C263.763253,116.369627 263.023385,115.896832 262.245868,116.019315 L256.18649,116.975038 C255.812603,117.032941 255.479491,117.223899 255.260832,117.505678 C255.042172,117.787456 254.955984,118.136833 255.021329,118.476536 L255.105525,118.923529 C255.170486,119.263236 255.381321,119.565522 255.691575,119.763782 C256.001829,119.962043 256.386043,120.04001 256.759564,119.980504 L262.81351,119.014903 C263.187397,118.957 263.520509,118.766041 263.739168,118.484263 C263.957828,118.202485 264.044016,117.853107 263.978671,117.513404 L263.899907,117.07629 Z" id="Path" fill="#FCDE5C" fill-rule="nonzero"></path>
                <path d="M163.075274,104.347815 C162.460417,103.795807 161.567737,103.913543 161.080818,104.610863 L157.307522,110.043114 C157.073233,110.377905 156.965994,110.804756 157.009483,111.229427 C157.052972,111.654097 157.24361,112.041661 157.539311,112.306552 L157.924726,112.652185 C158.539583,113.204193 159.432263,113.086457 159.919182,112.389137 L163.692478,106.959944 C163.926767,106.625153 164.034006,106.198302 163.990517,105.773632 C163.947028,105.348961 163.75639,104.961397 163.460689,104.696506 L163.075274,104.347815 Z" id="Path" fill="#FCDE5C" fill-rule="nonzero"></path>
                <path d="M134.521481,70.7135918 C134.23163,70.983405 134.046823,71.3747317 134.007745,71.8014221 C133.968668,72.2281125 134.078524,72.655186 134.313128,72.9886232 L138.119587,78.3995086 C138.608742,79.0945848 139.494763,79.2019267 140.098946,78.6393092 L140.478256,78.285757 C141.082181,77.7227727 141.175446,76.7030244 140.68661,76.0076513 L136.88015,70.5998402 C136.645273,70.2657941 136.304532,70.0530812 135.933159,70.008666 C135.561787,69.9642509 135.190326,70.0917862 134.900792,70.363114 L134.521481,70.7135918 Z" id="Path" fill="#FFD402" fill-rule="nonzero"></path>
                <path d="M218.182673,82.0262123 C217.326981,81.8766423 216.498973,82.382304 216.331204,83.1568974 L215.028875,89.1989962 C214.863777,89.9755493 215.423374,90.7267314 216.280192,90.878716 L216.817327,90.9738457 C217.674669,91.1233867 218.504,90.6165211 218.671796,89.8404426 L219.971125,83.8010618 C220.136223,83.0245087 219.576626,82.2733266 218.719808,82.121342 L218.182673,82.0262123 Z" id="Path" fill="#A6677C" fill-rule="nonzero"></path>
                <path d="M338.105596,89.3931863 C337.80407,89.126394 337.404073,88.9853669 336.993808,89.0012031 C336.583543,89.0170393 336.196706,89.1884381 335.918598,89.4776042 L331.409384,94.1656133 C331.131054,94.4546212 330.984247,94.8377442 331.001342,95.2304884 C331.018437,95.6232326 331.198028,95.9933367 331.500509,96.259178 L331.894404,96.6081054 C332.19631,96.8745453 332.596531,97.0150798 333.006803,96.9987155 C333.417075,96.9823511 333.803697,96.8104322 334.081402,96.5208736 L338.590616,91.8244227 C338.868946,91.5354148 339.015753,91.1522918 338.998658,90.7595476 C338.981563,90.3668034 338.801972,89.9966993 338.499491,89.730858 L338.105596,89.3931863 Z" id="Path" fill="#5DC1D2" fill-rule="nonzero"></path>
                <path d="M41.0874085,99.5593315 C40.9553579,99.9545656 40.973515,100.390493 41.1378852,100.771211 C41.3022554,101.151928 41.5993737,101.446247 41.963874,101.589418 L47.8689219,103.90522 C48.2334168,104.048407 48.6354404,104.028719 48.9865476,103.850486 C49.3376549,103.672254 49.6090833,103.350079 49.7411188,102.954839 L49.9130836,102.437543 C50.1862411,101.615392 49.7941722,100.70862 49.036618,100.410464 L43.1287966,98.0946619 C42.7646833,97.9515737 42.3630427,97.9713426 42.012382,98.1496122 C41.6617213,98.3278817 41.3908194,98.6500214 41.2593733,99.045043 L41.0874085,99.5593315 Z" id="Path" fill="#EF7979" fill-rule="nonzero"></path>
                <path d="M47.0857124,18.5721073 C46.9544381,18.9682968 46.9746054,19.4048374 47.1417391,19.7848604 C47.3088728,20.1648835 47.6091498,20.4569584 47.9759385,20.5962738 L53.8802726,22.9087488 C54.6359361,23.198624 55.4661868,22.7752103 55.7411501,21.959733 L55.9130941,21.4431802 C56.1862186,20.6222105 55.7941971,19.7167411 55.0367345,19.4190137 L49.1268538,17.0945259 C48.7627845,16.9516433 48.3611924,16.9713838 48.0105741,17.1493972 C47.6599558,17.3274107 47.3890866,17.6490875 47.2576564,18.0435416 L47.0857124,18.5721073 Z" id="Path" fill="#F59B1A" fill-rule="nonzero"></path>
                <path d="M15.0728451,86.1768659 C14.7015775,86.2761662 14.3851982,86.5181242 14.1933438,86.8494837 C14.0014894,87.1808433 13.9498848,87.5744452 14.0498884,87.9436558 L15.66682,93.9332379 C15.876034,94.7011929 16.6704053,95.1561516 17.4432448,94.9506463 L17.9272243,94.8193678 C18.2982843,94.7206797 18.6146412,94.4792586 18.806539,94.1483372 C18.9984368,93.8174157 19.0501158,93.4241711 18.950181,93.0553128 L17.3304995,87.0739357 C17.2330272,86.7039828 16.9914533,86.3878579 16.6591553,86.1954109 C16.3268574,86.0029639 15.9311886,85.9500361 15.5595745,86.0483223 L15.0728451,86.1768659 Z" id="Path" fill="#F59B1A" fill-rule="nonzero"></path>
                <path d="M317.087405,69.5617825 C316.95536,69.9568459 316.973516,70.3925854 317.137879,70.7731385 C317.302243,71.1536915 317.599348,71.4478834 317.963833,71.5909922 L323.871403,73.9057943 C324.629579,74.2018603 325.465792,73.7769103 325.740747,72.9558235 L325.912704,72.4387509 C326.044658,72.044101 326.026427,71.6087766 325.86203,71.2287076 C325.697632,70.8486386 325.400559,70.5550174 325.036276,70.4125474 L319.131479,68.0947391 C318.767,67.951614 318.364994,67.9712938 318.013901,68.149449 C317.662809,68.3276042 317.391392,68.6496404 317.259362,69.0447098 L317.087405,69.5617825 Z" id="Path" fill="#EF7979" fill-rule="nonzero"></path>
                <path d="M0.946876398,98.3097154 C0.573417008,98.4564245 0.27562423,98.7406571 0.119118771,99.0997806 C-0.0373866889,99.458904 -0.0397608543,99.863446 0.112519439,100.224263 L2.57805869,106.085123 C2.89534105,106.835793 3.78127529,107.19659 4.55857382,106.891689 L5.04937203,106.699118 C5.42447936,106.551807 5.72355289,106.266289 5.88062073,105.905547 C6.03768858,105.544806 6.03984562,105.138479 5.88661604,104.776198 L3.41818974,98.9153376 C3.26642561,98.5543175 2.9723995,98.2664437 2.60090211,98.1151511 C2.22940472,97.9638586 1.81092383,97.9615635 1.43767461,98.1087716 L0.946876398,98.3097154 Z" id="Path" fill="#FCDE5C" fill-rule="nonzero"></path>
                <path d="M58.9461051,61.3071435 C58.1698123,61.6139485 57.7966997,62.4706273 58.1120081,63.2222577 L60.5796653,69.0848522 C60.8968488,69.8357441 61.7825069,70.1966482 62.5595633,69.8916569 L63.0473224,69.6990288 C63.4226285,69.5527919 63.7222295,69.2679375 63.8798473,68.9074811 C64.0374652,68.5470248 64.0401082,68.1406773 63.8871917,67.7783312 L61.4224207,61.9157367 C61.2701047,61.5544102 60.9756302,61.2664134 60.6037828,61.1151068 C60.2319353,60.9638003 59.8131771,60.9615791 59.4396365,61.108932 L58.9461051,61.3071435 Z" id="Path" fill="#FCDE5C" fill-rule="nonzero"></path>
                <path d="M29.9492107,37.3043223 C29.1712744,37.6101311 28.7964825,38.4674103 29.1116747,39.2200581 L31.5809619,45.0845552 C31.8983549,45.8356908 32.7845981,46.196712 33.5621677,45.8916217 L34.053137,45.6989311 C34.8303189,45.390845 35.2035012,44.5330452 34.887785,43.7804027 L32.4184978,37.9159056 C32.2666808,37.5546615 31.9725521,37.266609 31.6009252,37.1152226 C31.2292982,36.9638362 30.8106714,36.9615397 30.437292,37.1088391 L29.9492107,37.3043223 Z" id="Path" fill="#EC68A3" fill-rule="nonzero"></path>
                <path d="M37.0559488,66.3629036 C36.4038156,65.8300368 35.4129784,65.8910822 34.8414012,66.4993416 L30.3884616,71.2329059 C29.8180669,71.8421334 29.8834115,72.7677805 30.5345085,73.301752 L30.9458242,73.635886 C31.5971617,74.1694496 32.5879365,74.1096539 33.1603718,73.5022324 L37.6103308,68.768668 C37.8850251,68.4763946 38.0239963,68.0940501 37.9965989,67.7059481 C37.9692014,67.3178461 37.7776856,66.9558629 37.4642839,66.699822 L37.0559488,66.3629036 Z" id="Path" fill="#5DC1D2" fill-rule="nonzero"></path>
                <path d="M240.478433,69.0211504 C239.771495,68.8866302 239.099186,69.4078087 238.976265,70.185641 L238.019219,76.241535 C237.89698,77.0194974 238.370577,77.7593522 239.077396,77.8946231 L239.521387,77.9787704 C240.227513,78.1133978 240.899447,77.5937236 241.023554,76.8169942 L241.9806,70.7611002 C242.039984,70.3873957 241.961778,70.0030474 241.763245,69.6928983 C241.564712,69.3827492 241.262177,69.1723021 240.922423,69.1080122 L240.478433,69.0211504 Z" id="Path" fill="#89C0B7" fill-rule="nonzero"></path>
                <rect id="Rectangle" x="4" y="0" width="345" height="181"></rect>
            </g>
        </g>
    </g>
</svg>