<svg id="Layer_1" data-name="Layer 1" xmlns="http://www.w3.org/2000/svg" xmlns:xlink="http://www.w3.org/1999/xlink" viewBox="0 0 45 45"><defs><style>.cls-1{fill:none;}.cls-2{clip-path:url(#clip-path);}.cls-3{fill:#f68b50;}.cls-4{fill:#4e6b82;}</style><clipPath id="clip-path"><path class="cls-1" d="M-40.87,8.28a4,4,0,0,0-5.46.4l-.58.6-.58-.6a4,4,0,0,0-5.46-.4,4.28,4.28,0,0,0-.29,6.15l5.66,5.91a.91.91,0,0,0,1.33,0l5.66-5.91A4.28,4.28,0,0,0-40.87,8.28Z"/></clipPath></defs><title>SurveyIcons_2-11 - Profiler</title><circle class="cls-3" cx="22.4" cy="14.32" r="10.32"/><path class="cls-4" d="M39.49,34.72a16.87,16.87,0,0,0-.83-4.22h0A3.15,3.15,0,0,0,37.77,29l-.32-.32A9.11,9.11,0,0,0,35.14,27c-.43-.22-.88-.43-1.32-.61l-1.66-.67a1.32,1.32,0,0,0-1.27.16,14.28,14.28,0,0,1-16.84,0,1.32,1.32,0,0,0-1.27-.16l-1.66.67c-.45.18-.89.39-1.32.61a9.11,9.11,0,0,0-2.32,1.66L7.15,29a3.15,3.15,0,0,0-.89,1.54h0a16.87,16.87,0,0,0-.83,4.22,10.08,10.08,0,0,0-.26,2.1c0,2.13,1.32,3.86,2.95,3.86H36.68c1.66,0,2.95-1.73,2.95-3.86C39.59,36.14,39.56,35.42,39.49,34.72Z"/></svg>