<svg id="Layer_1" data-name="Layer 1" xmlns="http://www.w3.org/2000/svg" viewBox="0 0 43.42 60"><defs><style>.cls-1{fill:#fff;}.cls-2{fill:#e95312;}</style></defs><polygon class="cls-1" points="38.75 55.67 3.5 55.67 3.5 9.71 4.4 7.54 6.17 6.88 36.98 6.88 37.56 6.98 38.75 9.88 38.75 55.67"/><path class="cls-2" d="M37,6.88V53.72H6.17V6.88a5,5,0,0,0-4.83,5V54.4a5,5,0,0,0,5,5H36.82a5,5,0,0,0,5-5h0V11.89A5,5,0,0,0,37,6.88Z"/><rect class="cls-2" x="9.26" y="19.99" width="25.03" height="2.43"/><rect class="cls-2" x="9.26" y="30.03" width="25.03" height="2.43"/><rect class="cls-2" x="9.26" y="40.07" width="25.03" height="2.43"/><rect class="cls-2" x="9.26" y="24.93" width="25.03" height="2.43"/><rect class="cls-2" x="9.26" y="34.97" width="25.03" height="2.43"/><rect class="cls-2" x="9.26" y="45.01" width="25.03" height="2.43"/><path class="cls-2" d="M10,13.9H33.1a1.16,1.16,0,0,0,1.14-1.16V6A1.17,1.17,0,0,0,33.1,4.85H27.26c0-2.45-2.55-4.43-5.69-4.43s-5.69,2-5.69,4.43H10A1.16,1.16,0,0,0,8.88,6v6.73A1.16,1.16,0,0,0,10,13.9Zm9.33-9a2.19,2.19,0,1,1,2.19,2.2A2.19,2.19,0,0,1,19.37,4.85Z"/></svg>