<svg id="Layer_1" data-name="Layer 1" xmlns="http://www.w3.org/2000/svg" viewBox="0 0 58.41 60"><defs><style>.cls-1{fill:#f59b1e;}</style></defs><circle class="cls-1" cx="49.64" cy="38.84" r="2.32"/><circle class="cls-1" cx="40.87" cy="8.59" r="1.86"/><circle class="cls-1" cx="14.38" cy="13.8" r="1.86"/><circle class="cls-1" cx="37.18" cy="56.81" r="1.86"/><circle class="cls-1" cx="4.39" cy="34.44" r="1.86"/><circle class="cls-1" cx="26.32" cy="52.25" r="0.79"/><circle class="cls-1" cx="7.86" cy="46.16" r="0.79"/><circle class="cls-1" cx="52.78" cy="33.31" r="0.79"/><circle class="cls-1" cx="8.55" cy="7.76" r="0.79"/><circle class="cls-1" cx="49.52" cy="15.79" r="0.79"/><path class="cls-1" d="M13,55.35a.94.94,0,0,1-.52.16.91.91,0,0,1-.91-.91,1,1,0,0,1,0-.25V54.3l5.76-19-15.86-12,0,0a.9.9,0,0,1-.34-.71A.91.91,0,0,1,2,21.6h0l19.85-.41L28.43,2.4l0,0a.91.91,0,0,1,.85-.58.93.93,0,0,1,.86.61v0L36.7,21.19l19.85.41h.05a.91.91,0,0,1,.91.91.86.86,0,0,1-.3.67l-.05,0L41.27,35.27l5.74,19,0,.08a1.1,1.1,0,0,1,0,.27.91.91,0,0,1-1.45.73l-.06,0L29.3,44,13,55.31Z"/></svg>