<svg id="Layer_1" data-name="Layer 1" xmlns="http://www.w3.org/2000/svg" viewBox="0 0 42.55 60"><defs><style>.cls-1{fill:#fff;}.cls-2{fill:#98b720;}</style></defs><polygon class="cls-1" points="38.49 55.51 3.17 55.51 3.17 9.45 4.03 7.68 5.38 6.98 36.09 6.93 36.97 6.96 38.49 9.63 38.49 55.51"/><path class="cls-2" d="M36.77,6.94V53.79H6V6.94a5,5,0,0,0-4.85,5V54.47a5,5,0,0,0,5,5H36.6a5,5,0,0,0,5-5h0V12A5,5,0,0,0,36.77,6.94Z"/><path class="cls-2" d="M18.52,19.11a1,1,0,0,0-1.42,0L12,24.17,10.4,22.53A1,1,0,0,0,9,24H9l2.33,2.34a1,1,0,0,0,1.41,0h0l5.79-5.76A1,1,0,0,0,18.52,19.11Z"/><rect class="cls-2" x="20.29" y="23.5" width="13.81" height="2.43"/><path class="cls-2" d="M18.52,29.15a1,1,0,0,0-1.41,0h0L12,34.21,10.4,32.57A1,1,0,0,0,9,34l2.33,2.34a1,1,0,0,0,1.42,0l5.79-5.76A1,1,0,0,0,18.52,29.15Z"/><rect class="cls-2" x="20.29" y="33.54" width="13.81" height="2.43"/><path class="cls-2" d="M17.1,39.2,12,44.26,10.4,42.62A1,1,0,0,0,9,44H9l2.33,2.34a1,1,0,0,0,1.42,0l5.79-5.77A1,1,0,1,0,17.1,39.2Z"/><rect class="cls-2" x="20.29" y="43.59" width="13.81" height="2.43"/><path class="cls-2" d="M9.84,14H32.91a1.16,1.16,0,0,0,1.15-1.16V6.08a1.16,1.16,0,0,0-1.15-1.16H27.06c0-2.45-2.54-4.43-5.69-4.43s-5.69,2-5.69,4.43H9.84A1.17,1.17,0,0,0,8.68,6.07h0V12.8A1.17,1.17,0,0,0,9.84,14Zm9.31-9.08A2.15,2.15,0,1,1,21.31,7h0a2.14,2.14,0,0,1-2.16-2.13h0Z"/></svg>