<svg id="Layer_1" data-name="Layer 1" xmlns="http://www.w3.org/2000/svg" viewBox="0 0 76 60"><defs><style>.cls-1{fill:#e72582;}.cls-2{fill:#e7e9f6;}.cls-3,.cls-5{fill:none;}.cls-4{fill:#fff;}.cls-5{stroke:#fff;stroke-miterlimit:10;stroke-width:2.34px;}</style></defs><polygon class="cls-1" points="57.7 4.98 7.55 55.13 12.9 55.13 63.05 4.98 57.7 4.98"/><path class="cls-1" d="M75.6,9.69a4.57,4.57,0,0,0-1.06-3L26.13,55.13h5.33L75.6,11Z"/><polygon class="cls-1" points="14.32 4.98 0.38 18.93 0.38 24.29 19.68 4.98 14.32 4.98"/><polygon class="cls-1" points="26.72 4.98 0.38 31.32 0.38 36.68 32.08 4.98 26.72 4.98"/><polygon class="cls-1" points="75.6 11.85 32.32 55.13 37.68 55.13 75.6 17.2 75.6 11.85"/><polygon class="cls-1" points="75.6 18.05 38.52 55.13 43.88 55.13 75.6 23.41 75.6 18.05"/><path class="cls-1" d="M45.3,5,.38,49.9v.56a4.68,4.68,0,0,0,1.45,3.38L50.66,5Z"/><path class="cls-1" d="M51.5,5,2.29,54.19a4.65,4.65,0,0,0,2.8.94H6.7L56.83,5Z"/><path class="cls-1" d="M70.9,5h-.81L20,55.11h5.33L74.14,6.26A4.65,4.65,0,0,0,70.9,5Z"/><polygon class="cls-1" points="63.89 4.98 13.74 55.13 19.1 55.13 69.26 4.98 63.89 4.98"/><polygon class="cls-1" points="39.11 4.98 0.38 43.72 0.38 49.06 44.46 4.98 39.11 4.98"/><polygon class="cls-1" points="32.92 4.98 0.38 37.52 0.38 42.88 38.26 4.98 32.92 4.98"/><polygon class="cls-1" points="20.53 4.98 0.38 25.13 0.38 30.48 25.88 4.98 20.53 4.98"/><polygon class="cls-1" points="75.6 36.63 57.1 55.13 62.45 55.13 75.6 41.99 75.6 36.63"/><path class="cls-1" d="M5.09,5A4.71,4.71,0,0,0,.38,9.69V11.9L7.3,5Z"/><polygon class="cls-1" points="75.6 42.82 63.3 55.13 68.66 55.13 75.6 48.19 75.6 42.82"/><polygon class="cls-1" points="75.6 30.44 50.92 55.13 56.26 55.13 75.6 35.78 75.6 30.44"/><path class="cls-1" d="M69.54,55.13h1.4a4.69,4.69,0,0,0,4.66-4.67V49Z"/><polygon class="cls-1" points="8.14 4.98 0.38 12.74 0.38 18.09 13.49 4.98 8.14 4.98"/><polygon class="cls-1" points="75.6 24.25 44.72 55.13 50.08 55.13 75.6 29.6 75.6 24.25"/><rect class="cls-1" x="0.38" y="4.98" width="75.22" height="50.15" rx="4.71"/><polygon class="cls-2" points="7.3 4.98 0.38 11.9 0.38 12.74 8.14 4.98 7.3 4.98"/><polygon class="cls-2" points="13.49 4.98 0.38 18.09 0.38 18.93 14.32 4.98 13.49 4.98"/><polygon class="cls-2" points="19.68 4.98 0.38 24.29 0.38 25.13 20.53 4.98 19.68 4.98"/><polygon class="cls-2" points="25.88 4.98 0.38 30.48 0.38 31.32 26.72 4.98 25.88 4.98"/><polygon class="cls-2" points="32.08 4.98 0.38 36.68 0.38 37.52 32.92 4.98 32.08 4.98"/><polygon class="cls-2" points="38.26 4.98 0.38 42.88 0.38 43.72 39.11 4.98 38.26 4.98"/><polygon class="cls-2" points="44.46 4.98 0.38 49.06 0.38 49.9 45.3 4.98 44.46 4.98"/><path class="cls-2" d="M50.66,5,1.83,53.81a4.22,4.22,0,0,0,.46.38L51.5,5Z"/><polygon class="cls-2" points="56.85 4.98 6.71 55.13 7.55 55.13 57.7 4.98 56.85 4.98"/><polygon class="cls-2" points="63.05 4.98 12.9 55.13 13.74 55.13 63.89 4.98 63.05 4.98"/><polygon class="cls-2" points="69.26 4.98 19.1 55.13 19.94 55.13 70.09 4.98 69.26 4.98"/><path class="cls-2" d="M74.13,6.28,25.28,55.13h.85l48.4-48.4A4.28,4.28,0,0,0,74.13,6.28Z"/><polygon class="cls-2" points="75.6 11.01 31.48 55.13 32.32 55.13 75.6 11.85 75.6 11.01"/><polygon class="cls-2" points="75.6 17.2 37.68 55.13 38.52 55.13 75.6 18.05 75.6 17.2"/><polygon class="cls-2" points="75.6 23.41 43.88 55.13 44.72 55.13 75.6 24.25 75.6 23.41"/><polygon class="cls-2" points="75.6 29.6 50.08 55.13 50.92 55.13 75.6 30.44 75.6 29.6"/><polygon class="cls-2" points="75.6 35.78 56.26 55.13 57.1 55.13 75.6 36.63 75.6 35.78"/><polygon class="cls-2" points="75.6 41.99 62.45 55.13 63.3 55.13 75.6 42.82 75.6 41.99"/><polygon class="cls-2" points="75.6 48.19 68.66 55.13 69.5 55.13 75.6 49.03 75.6 48.19"/><rect class="cls-3" x="0.38" y="4.98" width="75.22" height="50.15"/><path class="cls-4" d="M32.22,39.43,20.81,28.22h-.87a46,46,0,0,1-6.49-2.69,8.82,8.82,0,0,1-4.87-5.68,5,5,0,0,1,1.24-4.33,4.27,4.27,0,0,1,3.65-1.41A7.58,7.58,0,0,1,18.9,18a39.87,39.87,0,0,1,3.3,7.9l-.3.09,12,11.83ZM13,16.44a1.65,1.65,0,0,0-1.39.61A2.5,2.5,0,0,0,11,19.32a6.46,6.46,0,0,0,3.52,4,41.83,41.83,0,0,0,5.07,2.14,34.44,34.44,0,0,0-2.75-6.32,5.21,5.21,0,0,0-3.56-2.68Z"/><path class="cls-4" d="M10.5,39.42,8.85,37.66l12-11.73h-.33A38.76,38.76,0,0,1,23.79,18a7.61,7.61,0,0,1,5.43-3.84,4.28,4.28,0,0,1,3.65,1.41,5,5,0,0,1,1.31,4.27,8.74,8.74,0,0,1-4.86,5.67,46.94,46.94,0,0,1-6.62,2.71h-1Zm19.2-23h-.22a5.32,5.32,0,0,0-3.56,2.65,33.88,33.88,0,0,0-2.73,6.34,48.68,48.68,0,0,0,5-2.14,6.4,6.4,0,0,0,3.55-4,2.56,2.56,0,0,0-.69-2.25,1.73,1.73,0,0,0-1.43-.64Z"/><rect class="cls-4" x="20.1" y="4.97" width="2.44" height="50.18"/><rect class="cls-4" x="0.37" y="25.75" width="75.25" height="2.44"/><line class="cls-5" x1="44.33" y1="42.54" x2="61.64" y2="42.54"/><line class="cls-5" x1="44.33" y1="48.47" x2="68.82" y2="48.47"/></svg>