<svg id="Layer_1" data-name="Layer 1" xmlns="http://www.w3.org/2000/svg" viewBox="0 0 36.91 60"><defs><style>.cls-1{fill:#f59b1e;}.cls-2{fill:#fff;}</style></defs><path class="cls-1" d="M14.13,30.33l-.73.19a9.47,9.47,0,0,1-4.17.12A10,10,0,0,1,1.93,25,9.58,9.58,0,0,1,1,21.59,9.79,9.79,0,0,1,2.13,16,10,10,0,0,1,7.6,11.18c.2-.08.41-.14.61-.2s.15-.09.14-.21a10.13,10.13,0,0,1,7-9.86A9.5,9.5,0,0,1,17.51.47c.31,0,.62,0,.93,0a9.82,9.82,0,0,1,4.42,1A10,10,0,0,1,28,7.09a9.67,9.67,0,0,1,.6,3.06.21.21,0,0,0,.18.24A10.12,10.12,0,0,1,25.31,30.2,10.44,10.44,0,0,1,23,29.78l-.17,0a1.68,1.68,0,0,0,0,.2v1.59a.45.45,0,0,1-.14.36L20.75,34l-.12.15.19,0,1.79.21c.13,0,.16.06.16.18v5.11a.4.4,0,0,1-.13.31l-2.08,2.34-.12.17h.23c.64,0,1.28,0,1.92,0,.14,0,.19,0,.18.18,0,1,0,2,0,3,0,.17-.06.21-.22.21H20.63c-.2,0-.21,0-.21.23s0,.61,0,.91c0,.14.05.19.19.19h2c.15,0,.2,0,.19.2,0,.35,0,.69,0,1a.5.5,0,0,1-.11.27c-.64.73-1.28,1.46-1.93,2.17-.1.12-.08.18,0,.28l1.89,2.11a.47.47,0,0,1,.14.37c0,.38,0,.76,0,1.14a.48.48,0,0,1-.09.25q-1.92,2.32-3.85,4.64a.25.25,0,0,1-.18.08c-.48,0-.48,0-.79-.36l-3.59-4.31a.51.51,0,0,1-.13-.35q0-12.06,0-24.13A2.62,2.62,0,0,0,14.13,30.33Z"/><path class="cls-1" d="M17.38,57.33l-.5-.6c-.51-.63-1-1.27-1.54-1.89a.64.64,0,0,1-.15-.44c0-3.89,0-7.79,0-11.68l0-11.14c0-.28,0-.28.28-.28H17.2c.23,0,.23,0,.23.24V57.1c0,.08,0,.15,0,.22Z"/><path class="cls-2" d="M18.45,15a4.6,4.6,0,1,1,4.6-4.56A4.58,4.58,0,0,1,18.45,15Z"/></svg>